<?xml version="1.0" encoding="UTF-8"?>
<svg id="Layer_2" xmlns="http://www.w3.org/2000/svg" viewBox="0 0 430.16 49.43">
  <defs>
    <style>
      .cls-1 {
        fill: #fff;
      }

      .cls-2 {
        fill: #1380b1;
      }

      .cls-3 {
        fill: #9a1b1f;
        stroke: #fff;
        stroke-miterlimit: 10;
        stroke-width: .63px;
      }

      .cls-4 {
        fill: #55c6d9;
      }
    </style>
  </defs>
  <g>
    <path class="cls-1" d="M0,14.14h6.77l4.38,11.87h.2l4.41-11.87h6.6v23.08h-5.62v-9.06l.26-4.19h-.16l-1.96,5.3-2.06,5.62h-3.4l-1.99-5.62-1.93-5.3h-.16l.23,4.19v9.06H0V14.14Z"/>
    <path class="cls-1" d="M26.58,14.14h15.89v4.84h-9.81l-.52-.07.1.56v3.17l-.1.56.52-.07h8.5v4.9h-8.5l-.52-.07.1.56v3.37l-.1.56.52-.07h10.07v4.84h-16.15V14.14Z"/>
    <path class="cls-1" d="M45.9,14.14h8.86c3.83,0,5.98,1.37,7.59,3.27,1.7,2.03,2.78,4.15,2.78,8.17s-1.21,6.74-3.07,8.76c-1.57,1.7-3.34,2.88-7.29,2.88h-8.86V14.14ZM52.02,32.39h2.03c2.06,0,2.98-.65,3.83-1.67.85-1.01,1.47-2.16,1.47-5.26,0-2.58-.59-3.73-1.41-4.71-.88-1.05-1.83-1.77-3.89-1.77h-2.03l-.52-.07.1.56v12.43l-.1.56.52-.07Z"/>
    <path class="cls-1" d="M67.91,14.14h5.66v23.08h-5.66V14.14Z"/>
    <path class="cls-1" d="M79.58,35.17c-2.09-2.26-2.94-5.2-2.94-9.71,0-3.96.75-6.74,2.62-8.96,1.5-1.77,3.69-3.01,6.8-3.01,3.37,0,6.11,1.47,8.27,4.15l.65.82c.16.2.26.36.26.69l-4.45,2.45-.65-.85c-.85-1.11-2.16-2.06-3.53-2.06s-2.35.62-3.04,1.5c-.82,1.01-1.24,2.32-1.24,5.26,0,3.47.46,4.68,1.34,5.75.72.85,1.7,1.44,2.98,1.44s2.62-.82,3.63-2.09l.52-.65,4.48,2.45c0,.29-.03.42-.23.62l-.72.95c-1.83,2.42-4.54,3.92-8.24,3.92-2.94,0-5.07-1.11-6.51-2.68Z"/>
    <path class="cls-1" d="M102.4,14.14h6.47l7.19,23.08h-6.6l-.85-3.63-.07-.59-.49.07h-5.46l-.49-.07-.03.59-.88,3.63h-6.11l7.32-23.08ZM103.74,28.14h3.2l.49.07-.23-.59-1.14-4.64-.52-2.32h-.29l-.59,2.32-1.18,4.64-.23.59.49-.07Z"/>
    <path class="cls-1" d="M118,14.14h5.66v17.75l-.1.56.52-.07h7.91v4.84h-13.99V14.14Z"/>
    <path class="cls-1" d="M172.6,14.14h5.66v8.5l-.1.56.52-.07h5.92l.49.07-.07-.56v-8.5h5.62v23.08h-5.62v-8.66l.07-.56-.49.07h-5.92l-.52-.07.1.56v8.66h-5.66V14.14Z"/>
    <path class="cls-1" d="M194.87,14.14h15.89v4.84h-9.81l-.52-.07.1.56v3.17l-.1.56.52-.07h8.5v4.9h-8.5l-.52-.07.1.56v3.37l-.1.56.52-.07h10.07v4.84h-16.15V14.14Z"/>
    <path class="cls-1" d="M219.52,14.14h6.47l7.19,23.08h-6.61l-.85-3.63-.07-.59-.49.07h-5.46l-.49-.07-.03.59-.88,3.63h-6.11l7.32-23.08ZM220.86,28.14h3.2l.49.07-.23-.59-1.14-4.64-.52-2.32h-.29l-.59,2.32-1.18,4.64-.23.59.49-.07Z"/>
    <path class="cls-1" d="M235.11,14.14h5.66v17.75l-.1.56.52-.07h7.91v4.84h-13.99V14.14Z"/>
    <path class="cls-1" d="M252.77,19.47l.1-.56-.52.07h-5v-4.84h16.51v4.84h-4.97l-.49-.07.07.56v17.75h-5.69v-17.75Z"/>
    <path class="cls-1" d="M266.08,14.14h5.66v8.5l-.1.56.52-.07h5.92l.49.07-.07-.56v-8.5h5.62v23.08h-5.62v-8.66l.07-.56-.49.07h-5.92l-.52-.07.1.56v8.66h-5.66V14.14Z"/>
    <path class="cls-1" d="M292.86,33.56l-.16-.39c-.07-.2-.1-.49-.1-.75l4.61-2.42.2.46c.42.98,1.31,2.19,2.52,2.19.62,0,1.11-.2,1.47-.52.59-.56.82-1.47.82-2.58v-15.4h5.69v16.25c0,2.35-.69,4.02-1.8,5.2-1.47,1.57-3.63,2.26-6.05,2.26-4.81,0-6.54-2.71-7.19-4.28Z"/>
    <path class="cls-1" d="M313.26,34.54c-1.77-2.03-2.45-4.32-2.45-9.06,0-4.45.65-6.67,2.45-8.7,1.7-1.96,4.28-3.3,7.68-3.3s5.92,1.34,7.65,3.3c1.8,2.06,2.49,4.25,2.49,8.7,0,4.74-.69,7.03-2.49,9.06-1.73,1.9-4.15,3.3-7.65,3.3s-5.95-1.37-7.68-3.3ZM324.08,31.18c.95-1.14,1.28-2.71,1.28-5.69,0-2.75-.29-4.05-1.18-5.2-.72-.92-1.77-1.6-3.24-1.6s-2.52.69-3.24,1.6c-.88,1.14-1.18,2.45-1.18,5.2,0,2.98.33,4.55,1.28,5.69.75.88,1.77,1.47,3.14,1.47s2.39-.59,3.14-1.47Z"/>
    <path class="cls-1" d="M333.56,14.14h9.71c3.2,0,5,.92,6.21,2.32.88,1.05,1.41,2.35,1.41,4.05,0,2.62-1.6,4.22-2.42,4.51v.23c.85.13,3.11,1.86,3.11,5.2,0,2.06-.49,3.5-1.5,4.64-1.21,1.34-2.98,2.13-6.38,2.13h-10.14V14.14ZM339.68,23.49h3.17c1.5,0,2.26-.59,2.26-2.35s-.75-2.32-2.26-2.32h-3.17l-.52-.07.13.56v3.69l-.13.56.52-.07ZM339.68,32.55h3.6c1.47,0,2.22-.62,2.22-2.39s-.75-2.32-2.22-2.32h-3.6l-.52-.07.1.56v3.73l-.1.56.52-.07Z"/>
    <path class="cls-1" d="M354.16,33.76l-.49-.72c-.2-.26-.26-.39-.26-.69l4.51-2.42.33.46c.75,1.05,2.42,2.58,5.17,2.58,1.9,0,3.17-.59,3.17-1.99s-1.6-1.99-2.55-2.22l-2.49-.59c-2.16-.52-4.19-1.31-5.59-2.65-1.21-1.14-1.96-2.71-1.96-4.77,0-4.68,3.79-7.26,8.4-7.26s7.49,2.32,8.8,4.19l.23.33c.13.16.23.42.23.72l-4.51,2.39-.42-.59c-.62-.88-2.06-2.19-4.28-2.19-1.99,0-2.88.95-2.88,1.9,0,1.01.82,1.64,2.16,1.96l2.91.72c2.42.62,4.48,1.44,5.85,2.81,1.05,1.08,1.67,2.45,1.67,4.32,0,4.05-2.49,7.81-8.83,7.81-5.07,0-7.95-2.32-9.16-4.09Z"/>
  </g>
  <path class="cls-3" d="M140.27,29.5v-7.67c0-.14.11-.25.25-.25h7.04c.14,0,.25-.11.25-.25v-7.98c0-.14.11-.25.25-.25h7.67c.14,0,.25.11.25.25v7.98c0,.14.11.25.25.25h7.04c.14,0,.25.11.25.25v7.67c0,.14-.11.25-.25.25h-7.04c-.14,0-.25.11-.25.25v7.98c0,.14-.11.25-.25.25h-7.67c-.14,0-.25-.11-.25-.25v-7.98c0-.14-.11-.25-.25-.25h-7.04c-.14,0-.25-.11-.25-.25Z"/>
  <g>
    <circle class="cls-4" cx="376.12" cy="8.5" r=".79"/>
    <circle class="cls-4" cx="372.56" cy="13.04" r=".56"/>
    <circle class="cls-4" cx="367.33" cy="18.9" r=".88"/>
    <rect class="cls-4" x="373.74" width="1.26" height="5.08" rx=".06" ry=".06"/>
    <rect class="cls-4" x="371.82" y="1.91" width="5.08" height="1.26" rx=".06" ry=".06"/>
    <g>
      <path class="cls-4" d="M430,23.97v18.15c0,2.71-2.2,4.9-4.91,4.9h-23.24l3.41-6.25h0c7.15-.25,12.87-6.11,12.87-13.32,0-1.19-.16-2.36-.46-3.46h.04s12.29-.01,12.29-.01Z"/>
      <path class="cls-1" d="M392.51,7.17h32.58c2.71,0,4.91,2.2,4.91,4.91v11.89h-12.32c-1.52-5.67-6.7-9.85-12.86-9.85-7.36,0-13.32,5.97-13.32,13.32s5.96,13.32,13.32,13.32c.15,0,.3,0,.45-.01h0s-3.41,6.26-3.41,6.26h-17.85c-2.71,0-4.91-2.19-4.91-4.9V12.08c0-2.71,2.2-4.91,4.91-4.91h8.51Z"/>
      <path class="cls-4" d="M424.01,47.02v1.42c0,.46-.37.83-.83.83h-5.6c-.46,0-.83-.37-.83-.83v-1.42h7.26Z"/>
      <path class="cls-2" d="M417.68,23.98c.3,1.11.46,2.27.46,3.46,0,7.21-5.72,13.08-12.87,13.31-.15.01-.3.01-.45.01-7.36,0-13.32-5.96-13.32-13.32s5.96-13.32,13.32-13.32c6.16,0,11.34,4.18,12.86,9.86ZM412.21,29.89v-4.87c0-.09-.08-.16-.16-.16h-4.47c-.09,0-.16-.07-.16-.16v-5.07c0-.09-.07-.16-.16-.16h-4.88c-.09,0-.16.07-.16.16v5.07c0,.09-.08.16-.16.16h-4.48c-.09,0-.16.07-.16.16v4.87c0,.09.07.16.16.16h4.48c.09,0,.16.08.16.16v5.07c0,.09.07.16.16.16h4.88c.09,0,.16-.07.16-.16v-5.07c0-.09.07-.16.16-.16h4.47c.09,0,.16-.07.16-.16Z"/>
      <path class="cls-1" d="M416.49,5.37v1.8h-3.14v-2.28c0-.86-.69-1.55-1.54-1.55h-14.6c-.86,0-1.55.69-1.55,1.55v2.28h-3.14v-1.8c0-2.85,2.31-5.17,5.17-5.17h13.63c2.85,0,5.17,2.31,5.17,5.17Z"/>
      <path class="cls-1" d="M412.21,25.01v4.87c0,.09-.08.16-.16.16h-4.47c-.09,0-.16.08-.16.16v5.07c0,.09-.07.16-.16.16h-4.88c-.09,0-.16-.07-.16-.16v-5.07c0-.09-.08-.16-.16-.16h-4.48c-.09,0-.16-.07-.16-.16v-4.87c0-.09.07-.16.16-.16h4.48c.09,0,.16-.07.16-.16v-5.07c0-.09.07-.16.16-.16h4.88c.09,0,.16.07.16.16v5.07c0,.09.07.16.16.16h4.47c.09,0,.16.07.16.16Z"/>
      <path class="cls-4" d="M392.88,47.02v1.42c0,.46-.37.83-.83.83h-5.6c-.46,0-.83-.37-.83-.83v-1.42h7.26Z"/>
    </g>
  </g>
</svg>