<?xml version="1.0" encoding="UTF-8"?><svg id="Layer_2" xmlns="http://www.w3.org/2000/svg" xmlns:xlink="http://www.w3.org/1999/xlink" viewBox="0 0 423.67 64.09"><defs><style>.cls-1{fill:url(#linear-gradient-2);}.cls-2{fill:url(#linear-gradient-3);}.cls-3{fill:#e5e4e2;}.cls-4{fill:url(#linear-gradient);}.cls-5{fill:#e6d7b9;}</style><linearGradient id="linear-gradient" x1="0" y1="44.67" x2="202.07" y2="44.67" gradientUnits="userSpaceOnUse"><stop offset="0" stop-color="#e7a139"/><stop offset="1" stop-color="#e6d7b9"/></linearGradient><linearGradient id="linear-gradient-2" x1="403.16" y1="25.9" x2="403.16" y2="64.04" gradientUnits="userSpaceOnUse"><stop offset="0" stop-color="#e7a139"/><stop offset="1" stop-color="#e6d7b9"/></linearGradient><linearGradient id="linear-gradient-3" x1="388.74" y1="25.9" x2="388.74" y2="64.04" gradientUnits="userSpaceOnUse"><stop offset=".01" stop-color="#e7a139"/><stop offset=".56" stop-color="#e6d7b9"/><stop offset="1" stop-color="#fef6ec"/></linearGradient></defs><path class="cls-5" d="M214.13,57.23l-.26-.62c-.1-.31-.16-.78-.16-1.2l7.33-3.85.31.73c.68,1.56,2.08,3.48,4,3.48.99,0,1.77-.31,2.34-.83.94-.88,1.3-2.34,1.3-4.11v-24.49h9.05v25.85c0,3.74-1.09,6.4-2.86,8.27-2.34,2.5-5.77,3.59-9.62,3.59-7.64,0-10.4-4.32-11.44-6.81Z"/><path class="cls-5" d="M246.58,58.79c-2.81-3.22-3.9-6.86-3.9-14.4,0-7.07,1.04-10.61,3.9-13.83,2.7-3.12,6.81-5.25,12.22-5.25s9.41,2.13,12.17,5.25c2.86,3.28,3.95,6.76,3.95,13.83,0,7.54-1.09,11.18-3.95,14.4-2.76,3.02-6.6,5.25-12.17,5.25s-9.46-2.18-12.22-5.25ZM263.79,53.44c1.51-1.82,2.03-4.32,2.03-9.05,0-4.37-.47-6.45-1.87-8.27-1.14-1.46-2.81-2.55-5.15-2.55s-4,1.09-5.15,2.55c-1.4,1.82-1.87,3.9-1.87,8.27,0,4.73.52,7.23,2.03,9.05,1.2,1.4,2.81,2.34,4.99,2.34s3.79-.94,4.99-2.34Z"/><path class="cls-5" d="M278.87,26.34h15.44c5.1,0,7.96,1.46,9.88,3.69,1.4,1.66,2.24,3.74,2.24,6.45,0,4.16-2.55,6.71-3.85,7.18v.36c1.35.21,4.94,2.96,4.94,8.27,0,3.28-.78,5.56-2.39,7.38-1.92,2.13-4.73,3.38-10.14,3.38h-16.12V26.34ZM288.6,41.22h5.04c2.39,0,3.59-.94,3.59-3.74s-1.2-3.69-3.59-3.69h-5.04l-.83-.1.21.88v5.88l-.21.88.83-.1ZM288.6,55.62h5.72c2.34,0,3.54-.99,3.54-3.8s-1.2-3.69-3.54-3.69h-5.72l-.83-.1.16.88v5.93l-.16.88.83-.1Z"/><path class="cls-5" d="M311.63,57.54l-.78-1.14c-.31-.42-.42-.62-.42-1.09l7.18-3.85.52.73c1.2,1.66,3.85,4.11,8.22,4.11,3.02,0,5.04-.94,5.04-3.17s-2.55-3.17-4.06-3.54l-3.95-.94c-3.43-.83-6.66-2.08-8.89-4.21-1.92-1.82-3.12-4.32-3.12-7.59,0-7.44,6.03-11.54,13.36-11.54s11.91,3.69,13.99,6.66l.37.52c.21.26.36.68.36,1.14l-7.18,3.8-.68-.94c-.99-1.4-3.28-3.48-6.81-3.48-3.17,0-4.58,1.51-4.58,3.02,0,1.61,1.3,2.6,3.43,3.12l4.63,1.14c3.85.99,7.12,2.29,9.31,4.47,1.66,1.72,2.65,3.9,2.65,6.86,0,6.45-3.95,12.43-14.04,12.43-8.06,0-12.64-3.69-14.56-6.5Z"/><path class="cls-4" d="M8.63,34.79l.16-.88-.83.1H0v-7.7h26.26v7.7h-7.9l-.78-.1.1.88v28.24h-9.05v-28.24ZM30.84,58.79c-2.81-3.22-3.9-6.86-3.9-14.4,0-7.07,1.04-10.61,3.9-13.83,2.7-3.12,6.81-5.25,12.22-5.25s9.41,2.13,12.17,5.25c2.86,3.28,3.95,6.76,3.95,13.83,0,7.54-1.09,11.18-3.95,14.4-2.76,3.02-6.6,5.25-12.17,5.25s-9.46-2.18-12.22-5.25ZM48.05,53.44c1.51-1.82,2.03-4.32,2.03-9.05,0-4.37-.47-6.45-1.87-8.27-1.14-1.46-2.81-2.55-5.15-2.55s-4,1.09-5.15,2.55c-1.4,1.82-1.87,3.9-1.87,8.27,0,4.73.52,7.23,2.03,9.05,1.2,1.4,2.81,2.34,4.99,2.34s3.8-.94,4.99-2.34ZM64.01,26.32h16.33c3.9,0,6.6,1.2,8.48,3.43,1.51,1.77,2.5,3.8,2.5,8.42,0,4.89-1.14,7.49-2.81,9.26-1.82,1.98-4.26,3.02-8.16,3.02h-6.66l-.83-.1.16.88v11.8h-9V26.32ZM78.21,42.75c2.65,0,4-1.3,4-4.47s-1.35-4.26-4-4.26h-4.52l-.83-.1.16.88v7.18l-.16.88.83-.1h4.52ZM105.66,26.32h25.27v7.7h-15.6l-.83-.1.16.88v5.04l-.16.88.83-.1h13.52v7.8h-13.52l-.83-.1.16.88v5.36l-.16.88.83-.1h16.02v7.7h-25.69V26.32ZM136.39,26.32h9.1l8.84,16.85,1.61,3.69h.26l-.31-6.6v-13.94h8.89v36.71h-8.95l-8.94-16.75-1.61-3.69h-.26l.31,6.6v13.83h-8.94V26.32ZM171.49,26.32h14.09c6.08,0,9.52,2.18,12.06,5.2,2.71,3.22,4.42,6.6,4.42,13s-1.92,10.71-4.89,13.94c-2.5,2.7-5.3,4.58-11.6,4.58h-14.09V26.32ZM181.22,55.33h3.22c3.28,0,4.73-1.04,6.08-2.65,1.35-1.61,2.34-3.43,2.34-8.37,0-4.11-.94-5.93-2.24-7.49-1.4-1.66-2.91-2.81-6.19-2.81h-3.22l-.83-.1.16.88v19.76l-.16.88.83-.1Z"/><polygon class="cls-1" points="423.67 61.91 423.67 64.04 403.04 64.04 403.04 54.04 399.05 54.04 399.05 50.76 394.6 50.76 394.6 44.36 392.34 44.36 392.34 39.78 387.36 39.78 387.36 35.35 382.66 35.35 382.66 25.9 395.5 25.9 395.5 34.93 407.79 34.93 407.79 45.24 411.58 45.24 411.58 50.78 415.85 50.78 415.85 57.57 419.52 57.57 419.52 61.91 423.67 61.91"/><polygon class="cls-2" points="403.04 54.04 403.04 64.04 401.22 64.04 398.22 64.04 398.22 58.46 394.19 58.46 394.19 55.11 390.91 55.11 390.91 50.84 387.47 50.84 387.47 46.77 374.44 46.77 374.44 25.9 382.66 25.9 382.66 35.35 387.36 35.35 387.36 39.78 392.34 39.78 392.34 44.36 394.6 44.36 394.6 50.76 399.05 50.76 399.05 54.04 403.04 54.04"/><path class="cls-3" d="M379.17,31.35c.33.68.33,1.41,0,1.86-.3.18-.51-.21-.51-.23,0,0,0,0,.01.01.03-.15.04-.35-.04-.39-.47-.26-.31-.63-.24-1.01.04-.2.08-.42.05-.62-.45-2.39-.91-4.77-1.37-7.15-.09.19-.17.42-.28.64-.33.64-.25,1.22.07,1.88.42.86.83,1.76,1.01,2.68.27,1.36.38,3.84.42,4.23v2.48c0,.2-.16.36-.36.36h-1.09s-.04.78-.28,2.8c-.59,4.82-.45,5.52-.33,6.38.14.68.4.92.4.92h-1.43c.01-.54.01-1.48,0-2.02-.02-2.32-.04-4.64-.06-6.96,0-.34.01-.67,0-1.02-.04,0-.21.02-.25.01,0,.12-.09,4.4-.19,5.38-.14,1.41.08,4.6.08,4.6h-1.45s.2-.21.28-.72c.26-1.6.1-3.18-.03-4.77-.11-1.34-.21-2.68-.31-4.03-.01-.16-.04-.31-.06-.51-.22.01-.42.02-.7.04,0,.59,0,1.16,0,1.74,0,.86-.17,1.04-1.04.97-.76-.06-1.51-.2-2.27-.32-.25-.04-.36-.18-.35-.44.06-1.29.09-2.58.17-3.88.03-.59.19-.73.79-.75.33-.01.41-.16.38-.44-.03-.27-.06-.55-.08-.82-.01-.14-.04-.29-.01-.43.13-.8.28-1.6.4-2.4.24-1.55.47-3.1.69-4.65.16-1.14.28-2.28.41-3.41.05-.45.29-.71.7-.86.41-.14.82-.3,1.22-.45.6-.22.69-.43.38-1.06-.59.42-1.2.36-1.8.03-.06-.14-.12-.28-.18-.42.78-.27.76-.27.82-1.09.02-.23.13-.46.22-.69.1-.28.24-.55.33-.84.26-.75.74-1.12,1.52-1.17.78-.04,1.4.29,1.67,1,.29.74.73,1.44.63,2.3-.01.11.15.28.28.36.15.1.34.12.51.18-.12.78-1.36.91-2.17.33-.28.53-.18.85.36,1.06.43.16.87.31,1.3.47.35.13.56.37.6.76.14,1.24.25,2.49.45,3.73.13.83.73,5.95.74,6.35ZM373.02,26.37c.23-.42.37-.87.2-1.33s-.41-.9-.62-1.34c-.03.02-.06.03-.08.05-.1.57-.19,1.14-.31,1.71-.38,1.69-.78,3.38-1.17,5.08-.1.42-.25.83.02,1.26.07.11-.02.33-.06.49-.05.2-.15.4-.18.6-.11.77-.07.81.72.81.01,0,.02-.01.09-.04,0-.6-.03-1.24,0-1.86.11-1.9.46-3.73,1.4-5.42Z"/><path class="cls-3" d="M408.11,41.69c.27.56.27,1.15,0,1.51-.24.15-.41-.17-.41-.19,0,0,0,0,.01.01.02-.12.03-.29-.03-.32-.38-.21-.25-.52-.19-.82.03-.17.07-.34.04-.5-.36-1.95-.74-3.89-1.11-5.83-.07.16-.14.34-.23.52-.27.52-.2,1,.06,1.53.34.7.67,1.43.82,2.19.22,1.11.31,3.13.34,3.45v2.02c0,.16-.13.29-.29.29h-.89s-.03.63-.23,2.29c-.48,3.93-.37,4.5-.27,5.2.11.56.33.75.33.75h-1.17c.01-.44,0-1.2,0-1.64-.02-1.89-.03-3.79-.05-5.68,0-.28.01-.55,0-.83-.03,0-.17.02-.2.01,0,.1-.08,3.59-.16,4.39-.12,1.15.06,3.75.06,3.75h-1.18s.16-.17.23-.58c.21-1.31.09-2.6-.02-3.89-.09-1.1-.17-2.19-.25-3.29-.01-.13-.03-.26-.05-.42-.18,0-.35.02-.57.03,0,.48,0,.95,0,1.42,0,.7-.14.85-.85.79-.62-.05-1.23-.17-1.85-.26-.2-.03-.29-.15-.28-.36.05-1.05.08-2.11.13-3.16.03-.48.15-.6.65-.62.27-.01.34-.13.31-.36-.02-.22-.05-.45-.07-.67-.01-.12-.03-.24-.01-.35.1-.65.23-1.31.33-1.96.19-1.27.39-2.53.56-3.8.13-.93.23-1.86.34-2.79.04-.37.24-.58.57-.7.34-.12.66-.25,1-.37.49-.17.56-.35.31-.86-.48.34-.97.3-1.47.03-.05-.11-.1-.22-.15-.34.63-.22.62-.22.67-.89.01-.19.11-.38.17-.56.09-.23.19-.45.27-.68.21-.61.6-.92,1.24-.95.64-.03,1.14.24,1.37.82.23.6.6,1.17.52,1.87-.01.09.12.23.23.29.12.08.28.1.41.15-.09.64-1.11.74-1.77.27-.23.43-.15.69.29.86.35.13.71.25,1.06.39.28.11.46.3.49.62.12,1.02.21,2.04.37,3.05.11.68.6,4.85.6,5.18ZM403.09,37.63c.19-.34.3-.71.16-1.08s-.34-.73-.51-1.1c-.02.01-.04.02-.07.04-.08.47-.15.93-.25,1.39-.31,1.38-.64,2.76-.96,4.14-.08.34-.2.67.01,1.02.06.09-.01.27-.04.4-.04.17-.13.32-.15.49-.09.63-.06.66.59.66,0,0,.02,0,.07-.03,0-.49-.02-1.01,0-1.52.09-1.55.38-3.05,1.14-4.42Z"/><path class="cls-3" d="M389.2,14.45c0,.37.07.76-.02,1.11-.1.38-.32.74-.56,1.06-.12.16-.32,0-.35-.2-.06-.42-.15-.84.09-1.25.04-.06.04-.15.04-.22-.07-1.12-.14-2.24-.23-3.36-.07-1.03-.16-2.05-.24-3.08-.31.91-.29,1.85-.31,2.79-.04,2.17-.06,4.34-.14,6.51-.09,2.35-.24,4.7-.38,7.05-.02.4.09.59.5.65.29.04.58.12.86.22.15.05.26.19.39.28-.02.05-.03.09-.05.14-.3,0-.6,0-.9,0-.56,0-1.11-.02-1.67,0-.31.01-.39-.09-.4-.39-.07-1.91-.4-9.02-.47-10.26-.05,0-.1,0-.14,0-.05,1.14-.3,8.14-.34,10.18,0,.36-.09.5-.47.49-.72-.03-1.45-.01-2.17-.02-.1,0-.2-.02-.3-.03-.02-.03-.04-.07-.06-.1.11-.09.21-.21.34-.26.38-.14.76-.25,1.15-.35.22-.06.28-.17.26-.39-.1-1.52-.18-3.05-.28-4.57-.12-1.78-.28-3.56-.37-5.34-.07-1.51-.03-3.03-.08-4.54-.02-.64-.14-1.28-.21-1.92-.03,0-.07,0-.1,0-.04.46-.1.92-.12,1.38-.09,1.48-.11,2.97-.28,4.45-.05.42,0,.79.06,1.18.04.25.02.52-.03.77-.05.32-.28.39-.49.15-.35-.4-.59-.82-.57-1.42.06-1.41-.03-2.82.03-4.23.08-1.82.26-3.63.39-5.45.02-.32.19-.53.48-.64.63-.23,1.26-.45,1.89-.67.46-.16.52-.26.34-.71-.11-.27-.24-.54-.38-.81-.25-.49-.3-1.02-.2-1.55.14-.71.85-1.15,1.66-1.07.78.08,1.27.61,1.35,1.35.08.79-.26,1.43-.63,2.07-.25.43-.25.46.21.64.61.24,1.23.46,1.85.67.41.14.64.39.67.84.1,1.43.27,2.86.33,4.29.06,1.51.03,3.03.03,4.54ZM385.6,8.85c.04-.54.06-1.08.04-1.61-.02-.74-.34-1.46-.12-2.22.02-.08-.06-.27-.11-.28-.14-.03-.31,0-.44.05-.05.02-.06.2-.05.3.03.38.11.76.09,1.14-.02.6-.34,1.9-.01,2.71.05.11.23.2.37.21.08,0,.23-.16.24-.28Z"/><path class="cls-3" d="M398.39,17.85c.33,2.86.48,5.73.43,8.61,0,.5-.09.99,0,1.51.04.3-.34.7-.59,1.01-.11.14-.39.07-.4-.18-.02-.36-.04-.75.06-1.09.09-.31.05-.57.02-.87-.07-.68-.07-1.37-.13-2.05-.11-1.34-.24-2.68-.36-4.02,0-.04-.03-.07-.08-.19-.07.42-.16.76-.17,1.1-.03.97-.02,1.95-.03,2.93-.03,1.52-.04,3.03-.1,4.55-.07,1.99-.17,3.98-.27,5.97-.05,1-.08,2.01-.17,3-.04.47.13.64.56.74.3.07.61.16.89.29.24.11.49.18.56.39.01.04-.02.09-.07.09-.41,0-2.11-.01-2.93-.01-.3,0-.29-.2-.3-.4-.04-1.65-.06-3.3-.14-4.95-.1-2.02-.22-4.19-.36-6.2,0-.08-.17-.12-.21-.04-.32,3.82-.38,7.62-.53,11.49,0,.05-.04.09-.1.09h-2.89c-.05,0-.09-.05-.08-.1.04-.21.17-.34.32-.39.4-.14.81-.24,1.22-.33.25-.05.36-.14.35-.41-.11-1.65-.22-3.29-.32-4.94-.1-1.61-.21-3.21-.27-4.82-.07-2.07-.07-4.14-.14-6.21-.02-.62-.18-1.24-.28-1.85-.05,0-.1,0-.16.01-.09,1.98-.17,3.97-.25,5.95,0,.2.09.44-.23.52-.02,0,.02.25.03.38.05.48.13.96.12,1.43,0,.32-.27.39-.53.18-.41-.34-.54-.97-.46-1.5.07-.47-.03-.97-.01-1.45.07-2.12.15-4.24.24-6.36.03-.66.13-1.31.17-1.97.02-.47.25-.76.68-.91.6-.21,1.19-.42,1.79-.62.61-.2.66-.34.35-.91-.33-.59-.61-1.19-.53-1.9.1-.86.68-1.39,1.57-1.38.82,0,1.47.59,1.54,1.4.06.59-.13,1.12-.43,1.61-.08.14-.18.26-.26.4-.23.39-.19.57.22.74.61.25,1.24.47,1.87.67.44.14.76.53.81.98ZM394.92,17.08c.04-.1.02-.34,0-.35-.19-.04-.39-.05-.57-.02-.04,0-.09.24-.05.34.17.5.16,1,.09,1.51-.11.79.06,1.53.46,2.25,0-.82.05-1.65-.02-2.47-.04-.44-.07-.85.11-1.27Z"/><rect class="cls-3" x="347.89" y="61.91" width="53.33" height="2.13"/><rect class="cls-3" x="351.09" y="57.97" width="46.93" height="2.13"/><rect class="cls-3" x="354.29" y="54.04" width="40.53" height="2.13"/><rect class="cls-3" x="357.49" y="50.1" width="34.13" height="2.13"/><rect class="cls-3" x="360.78" y="46.17" width="27.55" height="2.13"/></svg>