<?xml version="1.0" encoding="UTF-8"?>
<svg id="Layer_1" data-name="Layer 1" xmlns="http://www.w3.org/2000/svg" viewBox="0 0 400 360">
  <defs>
    <style>
      .cls-1 {
        fill: #101011;
      }

      .cls-2 {
        fill: #fff;
      }

      .cls-3 {
        fill: #fafdfc;
      }

      .cls-4 {
        fill: #00b7b9;
      }
    </style>
  </defs>
  <g>
    <circle class="cls-2" cx="105" cy="86" r="86"/>
    <g>
      <circle class="cls-4" cx="64.35" cy="121.48" r=".88"/>
      <circle class="cls-4" cx="76.21" cy="132.39" r=".88"/>
      <path class="cls-4" d="M72.24,135.95c-.14,0-.27-.07-.37-.18-.19-.22-.17-.55.05-.74l1.88-1.65c.22-.19.55-.17.74.05.19.22.17.55-.05.74l-1.88,1.65c-.11.09-.24.14-.37.13Z"/>
      <path class="cls-4" d="M69.81,134.29c-.11,0-.23-.05-.32-.13-.22-.19-.24-.52-.05-.74l2.9-3.28c.19-.22.52-.24.74-.05.22.19.24.52.05.74l-2.9,3.28c-.11.13-.27.18-.42.18Z"/>
      <path class="cls-4" d="M66.96,133.32c-.11,0-.22-.05-.31-.12-.22-.19-.25-.52-.06-.74l6.49-7.71c.19-.22.52-.25.74-.06.22.19.25.52.06.74l-6.49,7.71c-.11.13-.27.19-.43.19Z"/>
      <path class="cls-4" d="M64.08,132.42c-.11,0-.22-.05-.31-.13-.22-.19-.25-.52-.06-.74l8.47-9.89c.19-.22.52-.24.74-.06.22.19.25.52.06.74l-8.47,9.89c-.11.13-.27.19-.43.18Z"/>
      <path class="cls-4" d="M62.7,129.1c-.12,0-.23-.05-.33-.14-.21-.2-.23-.53-.03-.74l4.87-5.27c.2-.21.53-.23.74-.03.21.2.23.53.03.74l-4.87,5.27c-.11.12-.26.18-.41.17Z"/>
      <circle class="cls-1" cx="124.76" cy="96.3" r=".88"/>
      <path class="cls-1" d="M120.42,113.57c0,.13-.06.26-.17.36-.21.19-.54.18-.73-.03l-8.44-9.14c-.19-.21-.18-.54.03-.73.21-.19.54-.18.73.03l8.44,9.14c.1.11.14.24.14.38Z"/>
      <path class="cls-1" d="M123.01,112.54c0,.14-.07.27-.18.37-.22.19-.55.16-.74-.06l-10.83-12.96c-.19-.22-.16-.55.06-.74.22-.19.55-.16.74.06l10.83,12.96c.09.11.13.24.12.37Z"/>
      <path class="cls-1" d="M125.29,111.14c0,.14-.07.28-.19.38-.22.18-.55.15-.74-.08l-11.39-14.11c-.18-.22-.15-.55.08-.74.22-.18.55-.15.74.08l11.39,14.11c.08.1.12.23.12.36Z"/>
      <path class="cls-1" d="M127.79,109.9c0,.14-.07.28-.2.38-.23.18-.56.14-.74-.08l-10.98-14.35c-.18-.22-.15-.55.08-.74.23-.18.56-.14.74.08l10.98,14.35c.08.1.12.23.11.35Z"/>
      <path class="cls-1" d="M130.56,108.57c0,.15-.08.29-.2.39-.23.18-.56.13-.73-.1l-10.75-14.28c-.18-.23-.13-.56.1-.73.23-.18.56-.13.73.1l10.75,14.28c.08.1.11.23.11.35Z"/>
      <path class="cls-1" d="M133.3,107.27c0,.14-.07.29-.2.38-.23.18-.56.14-.74-.08l-6.58-8.96c-.18-.23-.14-.56.08-.74.23-.18.56-.14.74.08l6.58,8.96c.08.1.12.23.11.35Z"/>
      <path class="cls-1" d="M135.98,106c0,.14-.07.28-.19.38-.22.18-.55.15-.74-.07l-11.04-14.46c-.18-.22-.15-.55.07-.74s.55-.15.74.07l11.04,14.46c.09.11.13.24.12.36Z"/>
      <path class="cls-1" d="M138.67,104.52c0,.14-.07.28-.19.38-.22.18-.55.15-.74-.07l-10.89-14.32c-.18-.22-.15-.55.07-.74.22-.18.55-.15.74.07l10.89,14.32c.09.11.13.23.12.36Z"/>
      <path class="cls-4" d="M141.49,103.02c0,.14-.07.28-.19.38-.22.19-.55.15-.74-.07l-11.07-14.08c-.18-.22-.16-.55.07-.74.22-.19.55-.15.74.07l11.07,14.08c.09.11.13.24.12.36Z"/>
      <path class="cls-4" d="M144.48,101.56c0,.14-.07.28-.19.38-.22.18-.55.15-.74-.07l-11.07-14.03c-.18-.22-.15-.55.07-.74.22-.18.55-.15.74.07l11.07,14.03c.09.1.12.23.12.36Z"/>
      <path class="cls-4" d="M147,100.29c0,.14-.07.28-.19.38-.23.18-.56.15-.74-.08l-11.15-14.08c-.18-.23-.15-.56.08-.74.23-.18.56-.15.74.08l11.15,14.08c.08.1.12.23.11.36Z"/>
      <path class="cls-4" d="M150.1,98.97c0,.14-.07.28-.19.37-.22.19-.55.16-.74-.06l-11.8-13.89c-.19-.22-.16-.55.06-.74.22-.19.55-.16.74.06l11.8,13.89c.09.11.13.24.12.36Z"/>
      <path class="cls-4" d="M153.64,97.27c0,.13-.06.26-.17.36-.21.2-.54.18-.74-.03l-12.25-13.52c-.2-.21-.18-.54.03-.74.21-.2.54-.18.74.03l12.25,13.52c.1.11.14.25.14.38Z"/>
      <path class="cls-4" d="M154.4,94.93c0,.13-.06.26-.17.36-.21.2-.54.18-.74-.03l-10.67-11.62c-.2-.21-.18-.54.03-.74.21-.2.54-.18.74.03l10.67,11.62c.1.11.14.25.14.38Z"/>
      <path class="cls-4" d="M154,90.13c0,.12-.06.24-.15.34-.2.21-.53.21-.74,0l-8.21-8.05c-.21-.2-.21-.53,0-.74.2-.21.53-.21.74,0l8.21,8.05c.11.11.16.26.16.4Z"/>
      <path class="cls-4" d="M93.51,100.74c.11.03.22.09.3.19.18.23.14.56-.09.74l-6.04,4.73c-.23.18-.56.14-.74-.09-.18-.23-.14-.56.09-.74l6.04-4.73c.13-.1.29-.13.44-.1Z"/>
      <path class="cls-4" d="M97.72,100.71c.1.02.2.08.28.17.19.22.17.55-.05.74l-7.36,6.48c-.22.19-.55.17-.74-.05-.19-.22-.17-.55.05-.74l7.36-6.48c.13-.11.3-.15.46-.12Z"/>
      <path class="cls-4" d="M93.69,106.61c.13,0,.25.06.34.16.2.21.2.54-.01.74l-4.03,3.92c-.21.2-.54.2-.74-.01-.2-.21-.2-.54.01-.74l4.03-3.92c.11-.11.26-.16.4-.15Z"/>
      <circle class="cls-4" cx="85.39" cy="107.46" r=".85"/>
      <circle class="cls-1" cx="126.85" cy="73.49" r=".95"/>
      <circle class="cls-1" cx="116.61" cy="84.55" r=".85"/>
      <path class="cls-1" d="M125.17,77.49l-.4.34.42-.32c1.53,1.81,2.84,3.38,2.27,4.52-.36.7-1.29.88-2.17.89.11.22.23.45.35.66.7,1.31,1.36,2.54.77,3.23-.46.54-1.32.32-1.93.11-3.41-1.19-4.67-3.06-4.72-3.14-.16-.24-.09-.57.15-.72.24-.16.57-.09.73.15,0,.01,1.14,1.66,4.18,2.72.44.15.67.17.77.17,0-.39-.59-1.49-.88-2.03-.41-.76-.66-1.25-.72-1.62-.02-.16.02-.32.13-.43.11-.12.26-.18.42-.17,1.72.11,1.96-.25,1.98-.3.26-.52-1.24-2.31-2.14-3.37l.79-.69Z"/>
      <path class="cls-4" d="M76.6,82.23c-.13-.06-.23-.16-.28-.3l-.04-.1c-.35-.94-1.4-3.79,1.25-5.37.02-.01.04-.02.06-.03.36-.15.79-.12,1.18.07.41.2.78.58,1.06,1.07.16-.2.37-.35.62-.4.68-.15,1.26.42,1.84,1.08.19.22.17.55-.04.74-.22.19-.55.17-.74-.04-.56-.63-.77-.74-.84-.75,0,0-.16.14-.37.83-.07.23-.28.38-.51.37-.24,0-.44-.17-.5-.4-.23-.9-.67-1.41-.99-1.56-.11-.05-.2-.07-.28-.05-1.63,1-1.3,2.62-.76,4.08l.04.11c.1.27-.04.57-.31.67-.13.05-.27.04-.39-.01Z"/>
      <path class="cls-1" d="M94.68,158.97c-.12,0-.24-.04-.34-.13l-2.51-2.19c-.22-.19-.24-.52-.05-.74.19-.22.52-.24.74-.05l2.51,2.19c.22.19.24.52.05.74-.1.12-.25.18-.4.18Z"/>
      <path class="cls-1" d="M98.32,158.75c-.13,0-.27-.05-.37-.15l-2.24-2.24c-.2-.2-.2-.54,0-.74.2-.2.54-.2.74,0l2.24,2.24c.2.2.2.54,0,.74-.1.1-.24.15-.37.15Z"/>
      <path class="cls-1" d="M102.71,158.97c-.12,0-.25-.04-.35-.13l-5.15-4.58c-.22-.19-.24-.52-.04-.74.19-.22.52-.24.74-.04l5.15,4.58c.22.19.24.52.04.74-.1.12-.25.18-.39.18Z"/>
      <path class="cls-4" d="M107.03,159.16c-.14,0-.27-.05-.38-.16l-1.48-1.53c-.2-.21-.2-.54.01-.74.21-.2.54-.19.74.01l1.48,1.53c.2.21.2.54-.01.74-.1.1-.23.15-.36.15Z"/>
      <path class="cls-4" d="M110.53,159.16c-.13,0-.26-.05-.36-.15l-3.5-3.37c-.21-.2-.21-.53-.01-.74.2-.21.53-.21.74-.01l3.5,3.37c.21.2.21.53.01.74-.1.11-.24.16-.38.16Z"/>
      <path class="cls-4" d="M116.05,159.96c-.12,0-.24-.04-.34-.12l-4.94-4.17c-.22-.19-.25-.52-.06-.74.19-.22.52-.25.74-.06l4.94,4.17c.22.19.25.52.06.74-.1.12-.25.19-.4.19Z"/>
      <path class="cls-4" d="M119.14,159.6c-.12,0-.25-.04-.35-.13l-5.57-4.94c-.22-.19-.24-.52-.04-.74.19-.22.52-.24.74-.04l5.57,4.94c.22.19.24.52.04.74-.1.12-.25.18-.39.18Z"/>
      <path class="cls-4" d="M151.01,138.67c-.13.05-.27.05-.41-.01l-1.93-.9c-.26-.12-.38-.43-.25-.7.12-.26.44-.37.7-.25l1.93.9c.26.12.38.43.25.7-.06.13-.17.22-.29.27Z"/>
      <path class="cls-4" d="M154.28,137.42c-.12.05-.26.05-.39,0l-4.47-1.9c-.27-.11-.39-.42-.28-.69.11-.27.42-.39.69-.28l4.47,1.9c.27.11.39.42.28.69-.06.14-.17.24-.3.28Z"/>
      <path class="cls-4" d="M159.72,136.2c-.11.04-.24.05-.36,0l-6.1-2.14c-.27-.1-.42-.39-.32-.67.1-.27.39-.42.67-.32l6.1,2.14c.27.1.42.39.32.67-.05.15-.17.26-.31.32Z"/>
      <path class="cls-4" d="M162.49,134.76c-.12.04-.25.05-.37,0l-6.96-2.63c-.27-.1-.41-.4-.31-.68.1-.27.4-.41.68-.31l6.96,2.63c.27.1.41.4.31.68-.05.15-.17.25-.3.3Z"/>
      <g>
        <path class="cls-1" d="M175.18,67.65c.72,0,1.3.58,1.3,1.3s-.58,1.3-1.3,1.3c-4.37,0-9.92,7.8-9.92,12.58,0,.72-.59,1.3-1.3,1.3s-1.3-.59-1.3-1.3v-.12c0-5.59-5.51-12.46-9.99-12.46-.35-.02-.65-.17-.87-.41-.22-.24-.36-.55-.36-.9,0-.72.59-1.3,1.3-1.3h0c4.21-.09,9.92-8.05,9.92-12.58,0-.72.58-1.3,1.3-1.3s1.3.59,1.3,1.3c0,4.62,4.9,12.58,9.92,12.58ZM163.96,82.84c0-5.36,6.13-13.89,11.22-13.89-2.89,0-5.69-2.16-7.78-4.99-2.08-2.82-3.44-6.29-3.44-8.9,0,5.21-6.16,13.68-11.11,13.89,5.13.18,11.11,7.54,11.11,13.77v.12Z"/>
        <path class="cls-4" d="M167.65,68.14c.22.21.34.51.34.82s-.12.6-.34.82l-2.87,2.87c-.23.23-.52.34-.82.34s-.59-.12-.82-.34l-2.87-2.87c-.22-.22-.34-.51-.34-.82s.12-.6.34-.82l2.87-2.87c.45-.46,1.18-.45,1.63,0h0s2.87,2.88,2.87,2.88ZM163.96,71.62l2.66-2.66-2.66-2.66-2.66,2.66,2.66,2.66Z"/>
        <path class="cls-1" d="M160.5,93.04c.45.44.32,1.18-.24,1.46l-41.37,20.48c-.34.17-.76.1-1.03-.16l-12.76-12.38v47.99c0,.48.5.8.94.59l40.53-19.54c.33-.16.54-.49.54-.85v-21.5c0-.33.27-.6.6-.6s.6.27.6.6v22.26c0,.36-.2.69-.53.85l-41.98,20.63c-.45.22-.96.22-1.41.01l-42.68-20.17c-.34-.16-.54-.49-.54-.86v-22.72c0-.33.27-.6.6-.6s.6.27.6.6v21.96c0,.37.21.7.54.86l40.06,18.93c.43.2.94-.12.94-.6v-47.76l-12.61,11.92c-.28.26-.68.32-1.02.16l-41.06-19.84c-.57-.27-.69-1.03-.24-1.47l13.73-13.46,13.91-6.69c.3-.14.66-.02.8.28.04.08.06.17.06.26,0,.23-.13.45-.34.54l-11.96,5.76c-.33.16-.33.62,0,.78l38.78,19.38c.34.17.74.17,1.08,0l39.5-19.36c.33-.16.32-.63-.01-.79l-12.8-5.78c-.3-.14-.43-.49-.3-.8.1-.22.31-.35.54-.35.08,0,.17.02.25.05l14.92,6.74,13.36,13.2ZM158.23,94.17c.56-.27.68-1.02.24-1.46l-11.38-11.22c-.26-.26-.65-.32-.98-.16l-39.77,19.54c-.38.19-.46.69-.16.97l11.91,11.52c.28.27.69.34,1.03.16l39.11-19.36ZM102.82,101.79c.3-.29.23-.79-.15-.97l-38.96-19.51c-.33-.16-.73-.1-.99.16l-11.7,11.48c-.45.44-.32,1.19.24,1.47l38.78,18.74c.34.17.75.1,1.02-.16l11.75-11.2Z"/>
        <path class="cls-1" d="M158.77,34.74c.34,0,.6.29.58.62-.02.32-.28.56-.59.56h-.02c-9.92-.23-16.24,5.37-19.04,11.25,2.55-.26,5.2.12,7.92,1.14,2.46.8,4.21,4.7,3.64,8.17-.28,1.74-1.61,5.78-7.68,5.71-4.36-.26-6.98-3.76-6.71-8.92.07-1.44.38-2.98.93-4.55-1.88.48-3.69,1.34-5.44,2.58-8.76,6.23-13.24,19.98-13.25,27.95,0,.32-.25.59-.58.6-.33.01-.61-.25-.61-.59.02-8.23,4.67-22.46,13.75-28.92,2.14-1.52,4.36-2.51,6.65-2.96,2.8-6.5,9.59-12.91,20.46-12.65ZM150.08,56.3c.48-2.9-.91-6.23-2.85-6.86-2.79-1.05-5.48-1.38-8.08-.98-.65,1.68-1.02,3.35-1.1,4.89-.18,3.54,1.18,7.41,5.56,7.67,4.95.06,6.18-2.93,6.47-4.71Z"/>
        <path class="cls-1" d="M144.89,19.63c2.28,0,4.14,1.86,4.14,4.14s-1.86,4.14-4.14,4.14-4.14-1.86-4.14-4.14,1.85-4.14,4.14-4.14ZM148.29,23.77c0-1.87-1.52-3.39-3.39-3.39s-3.39,1.52-3.39,3.39,1.52,3.39,3.39,3.39,3.39-1.52,3.39-3.39Z"/>
        <path class="cls-4" d="M144.89,21.84c1.07,0,1.93.87,1.93,1.93s-.86,1.93-1.93,1.93-1.93-.87-1.93-1.93.86-1.93,1.93-1.93ZM146.08,23.77c0-.65-.53-1.18-1.19-1.18s-1.18.53-1.18,1.18.53,1.18,1.18,1.18,1.19-.53,1.19-1.18Z"/>
        <path class="cls-4" d="M130.38,24.38c.11.12.16.26.16.4,0,.16-.06.31-.18.43-5.81,5.79-13.82,19.17-16.46,25.69-.12.3-.46.44-.76.33-.31-.12-.46-.47-.34-.78,2.69-6.63,10.81-20.2,16.73-26.09.23-.24.61-.23.84.02Z"/>
        <path class="cls-4" d="M112.61,62.54c.29.16.4.52.24.81-.11.2-.31.31-.52.31-.09,0-.19-.03-.28-.07l-6.99-3.8c-.18-.09-.39-.09-.57,0l-6.9,3.8c-.29.16-.65.05-.81-.24-.05-.09-.07-.19-.07-.28,0-.21.11-.41.31-.52l7.48-4.11c.18-.1.39-.1.57,0l7.56,4.11Z"/>
        <path class="cls-1" d="M111.25,28.21c.84,0,1.52.69,1.52,1.52s-.68,1.52-1.52,1.52c-5.1,0-11.55,9.08-11.55,14.65,0,.84-.68,1.52-1.52,1.52s-1.52-.69-1.52-1.52v-.14c0-6.51-6.42-14.52-11.64-14.52-.4-.02-.75-.2-1.02-.48-.26-.27-.41-.64-.41-1.04,0-.84.68-1.52,1.52-1.52h0c4.9-.1,11.55-9.38,11.55-14.65,0-.84.69-1.52,1.52-1.52s1.52.68,1.52,1.52c0,5.39,5.71,14.65,11.55,14.65ZM98.18,45.91c0-6.24,7.13-16.17,13.07-16.17-3.37,0-6.64-2.52-9.06-5.8-2.43-3.28-4.01-7.33-4.01-10.37,0,6.07-7.17,15.93-12.94,16.18,5.98.21,12.94,8.78,12.94,16.03v.14Z"/>
        <path class="cls-4" d="M107.74,71.77s0,.08-.02.13l-2.97,13.37c-.07.32-.39.52-.71.45-.32-.07-.52-.39-.45-.71l2.96-13.37c.07-.32.39-.52.71-.45.28.06.47.3.47.58Z"/>
        <path class="cls-4" d="M102.47,28.78c.25.25.39.59.39.95s-.14.7-.39.95l-3.34,3.34c-.27.26-.61.39-.95.39s-.69-.13-.95-.39l-3.35-3.34c-.25-.26-.39-.59-.39-.95s.14-.7.39-.95l3.35-3.35c.52-.52,1.38-.52,1.9,0h0l3.34,3.35ZM101.27,29.74l-3.1-3.1-3.1,3.1,3.1,3.1,3.1-3.1Z"/>
        <path class="cls-1" d="M84.18,53.12c4.94,9.33,5.45,18.34,5.19,26.73-.01.33-.29.59-.62.58-.32-.02-.58-.29-.57-.61.26-8.21-.24-17.05-5.05-26.13l-.15-.29c-.18-.33-.37-.68-.53-1.04-.19-.42-.39-.82-.59-1.19-.23,2.48-1.51,4.95-3.48,6.58-1.99,1.65-4.42,2.28-6.86,1.78-2.71-.56-4.89-2.49-5.81-5.17-.92-2.67-.4-5.52,1.38-7.63,1.82-2.15,4.81-3.29,7.6-2.91,1.67.23,3.8,1.04,5.85,3.32-.5-3.69-2.04-6.78-4.62-9.21-5.01-4.73-12.41-5.73-16.42-5.57-.32.02-.59-.23-.61-.55v-.05c0-.31.25-.58.57-.59,4.21-.17,12,.9,17.28,5.89,3.22,3.04,4.95,7.01,5.14,11.81.57.85,1.13,1.84,1.65,2.99.15.32.32.64.5.97l.16.3ZM77.62,56.82c1.95-1.63,3.14-4.17,3.09-6.65,0-.31,0-.62,0-.93-2.13-3.04-4.45-4.03-6.18-4.27-.31-.04-.62-.06-.94-.06-2.11,0-4.23.95-5.59,2.57-1.51,1.78-1.94,4.2-1.16,6.47.79,2.28,2.63,3.92,4.92,4.39,2.08.43,4.17-.11,5.87-1.52Z"/>
        <path class="cls-4" d="M57.26,60.01c.72,0,1.3.59,1.3,1.3s-.59,1.31-1.3,1.31c-4.38,0-9.92,7.8-9.92,12.58,0,.72-.59,1.3-1.31,1.3s-1.3-.58-1.3-1.3v-.12c0-5.59-5.51-12.46-9.99-12.46h0c-.68-.05-1.23-.61-1.23-1.31s.59-1.3,1.3-1.3h0c4.21-.09,9.92-8.05,9.92-12.58,0-.72.59-1.31,1.3-1.31s1.31.59,1.31,1.31c0,4.62,4.9,12.58,9.92,12.58ZM46.04,75.2c0-5.35,6.13-13.88,11.23-13.89-2.9,0-5.7-2.16-7.78-4.98-2.08-2.82-3.44-6.29-3.44-8.9,0,5.21-6.16,13.67-11.11,13.89,5.13.18,11.11,7.53,11.11,13.76v.12Z"/>
        <path class="cls-1" d="M49.73,60.5c.21.22.34.51.34.82s-.12.6-.34.82l-2.87,2.87c-.23.23-.52.34-.82.34s-.59-.11-.82-.34l-2.87-2.87c-.22-.22-.34-.51-.34-.82s.12-.6.34-.82l2.87-2.87c.45-.45,1.18-.45,1.64,0l2.87,2.87ZM46.04,63.97l2.66-2.66-2.66-2.66-2.66,2.66,2.66,2.66Z"/>
        <path class="cls-4" d="M42.61,31.26c2.28,0,4.14,1.86,4.14,4.14s-1.86,4.14-4.14,4.14-4.14-1.86-4.14-4.14,1.85-4.14,4.14-4.14ZM46,35.4c0-1.88-1.52-3.39-3.39-3.39s-3.39,1.52-3.39,3.39,1.52,3.39,3.39,3.39,3.39-1.52,3.39-3.39Z"/>
        <path class="cls-1" d="M42.61,33.47c1.07,0,1.93.86,1.93,1.93s-.86,1.93-1.93,1.93-1.93-.86-1.93-1.93.87-1.93,1.93-1.93ZM43.79,35.4c0-.65-.53-1.19-1.18-1.19s-1.18.53-1.18,1.19.53,1.18,1.18,1.18,1.18-.53,1.18-1.18Z"/>
      </g>
    </g>
  </g>
  <g>
    <circle class="cls-2" cx="105" cy="274" r="86"/>
    <g>
      <g>
        <path class="cls-1" d="M140.04,233.77c4.23,0,7.67,3.44,7.67,7.67s-3.44,7.67-7.67,7.67-7.67-3.44-7.67-7.67,3.44-7.67,7.67-7.67ZM146.32,241.44c0-3.46-2.82-6.28-6.28-6.28s-6.28,2.82-6.28,6.28,2.82,6.29,6.28,6.29,6.28-2.82,6.28-6.29Z"/>
        <path class="cls-4" d="M140.04,237.86c1.97,0,3.58,1.61,3.58,3.58s-1.61,3.58-3.58,3.58-3.58-1.61-3.58-3.58,1.61-3.58,3.58-3.58ZM142.23,241.44c0-1.21-.98-2.19-2.19-2.19s-2.19.98-2.19,2.19.98,2.2,2.19,2.2,2.19-.98,2.19-2.2Z"/>
        <path class="cls-1" d="M139.28,223.61c.44.11.71.55.6.99l-1.01,4.04c-.15.62-.79.98-1.4.8l-4.17-1.22c-.43-.13-.68-.58-.56-1.01.1-.35.43-.59.78-.59.08,0,.15.01.23.04l2.82.82c-4.8-11.12-13.93-16.22-16.5-17.48-.39-.19-.56-.64-.4-1.04.13-.32.43-.51.76-.51.12,0,.24.02.35.08,2.76,1.31,11.91,6.38,17.01,17.67l.49-1.97c.11-.44.56-.7,1-.59Z"/>
        <path class="cls-4" d="M138.66,255.14c0,.1-.02.2-.05.29-1.12,2.85-5.53,12.32-16.43,18.21l2,.36c.45.08.74.5.66.95s-.5.75-.95.67l-4.1-.73c-.62-.11-1.03-.72-.9-1.34l.93-4.24c.09-.44.53-.72.97-.62.38.08.65.43.65.81,0,.05,0,.11-.02.16l-.62,2.86c10.76-5.57,15.2-15.04,16.28-17.69.16-.4.6-.6,1.01-.47.35.12.57.44.57.79Z"/>
        <path class="cls-4" d="M122.09,218.19c2.19,0,3.97,1.78,3.97,3.98s-1.78,3.97-3.97,3.97-3.97-1.78-3.97-3.97,1.78-3.98,3.97-3.98ZM124.68,222.16c0-1.43-1.16-2.59-2.59-2.59s-2.59,1.16-2.59,2.59,1.16,2.59,2.59,2.59,2.59-1.16,2.59-2.59Z"/>
        <path class="cls-1" d="M122.09,256.99c2.19,0,3.97,1.78,3.97,3.97s-1.78,3.98-3.97,3.98-3.97-1.78-3.97-3.98,1.78-3.97,3.97-3.97ZM124.68,260.96c0-1.43-1.16-2.58-2.59-2.58s-2.59,1.15-2.59,2.58,1.16,2.59,2.59,2.59,2.59-1.16,2.59-2.59Z"/>
        <path class="cls-4" d="M123.48,237.79v7.15l-4.36.57-.32,1.15c-.13.47-.32.93-.56,1.37l-.39.72,2.58,3.33-5.02,5.23-3.71-2.66-1.01.65c-.37.24-.78.42-1.2.55l-.94.29-.52,4.07h-7.24l-.52-4.07-.95-.29c-.42-.13-.82-.31-1.2-.55l-1.01-.65-3.71,2.66-5.01-5.23,2.58-3.33-.39-.72c-.24-.43-.42-.9-.56-1.37l-.32-1.15-4.37-.57v-7.15l4.37-.57.32-1.15c.13-.47.32-.93.56-1.36l.39-.73-2.58-3.33,5.01-5.23,3.71,2.66,1.01-.65c.37-.24.78-.42,1.2-.55l.95-.28.52-4.07h7.24l.52,4.07.94.28c.43.13.83.31,1.2.55l1.01.65,3.71-2.66,5.02,5.23-2.58,3.33.39.73c.23.43.42.89.56,1.36l.32,1.15,4.36.57ZM122.1,243.72v-4.72l-4.07-.54-.57-2.03c-.1-.38-.25-.74-.44-1.08l-.82-1.52,2.4-3.1-3.36-3.5-3.5,2.51-1.81-1.15c-.26-.17-.55-.3-.85-.39l-1.8-.54-.48-3.75h-4.8l-.48,3.75-1.81.54c-.3.09-.59.22-.85.39l-1.8,1.15-3.5-2.51-3.36,3.5,2.4,3.1-.82,1.52c-.18.34-.33.7-.44,1.08l-.57,2.03-4.06.54v4.72l4.06.54.57,2.03c.11.38.26.74.44,1.09l.82,1.51-2.4,3.1,3.36,3.5,3.5-2.51,1.8,1.15c.26.17.55.3.85.39l1.81.54.48,3.75h4.8l.48-3.75,1.8-.54c.3-.09.59-.22.85-.39l1.81-1.15,3.5,2.51,3.36-3.5-2.4-3.1.82-1.51c.19-.35.34-.71.44-1.09l.57-2.03,4.07-.54Z"/>
        <path class="cls-1" d="M114.56,241.38h0c-.04,5.9-5.17,10.61-11.21,9.92-4.59-.52-8.3-4.23-8.81-8.83-.68-6.05,4.06-11.2,9.98-11.2,2.49,0,4.77.91,6.52,2.41-.08.54-.48.98-1.02,1.11l-.16.04c-1.67-1.37-3.88-2.12-6.27-1.87-3.93.42-7.1,3.65-7.45,7.59-.46,5.11,3.65,9.38,8.71,9.18,4.36-.17,7.79-3.8,8.06-8.16v-.21s.09-.07.09-.07c.4-.4,1.05-.4,1.45,0l.1.1Z"/>
        <path class="cls-4" d="M113.9,234.81c.16.16.24.37.24.58s-.08.42-.24.58l-10.36,10.33-5.55-5.55c-.32-.32-.32-.84,0-1.16.16-.16.37-.24.57-.24s.42.08.58.24l4.41,4.4,9.18-9.19c.32-.32.84-.32,1.16,0Z"/>
        <path class="cls-1" d="M104.46,200.04c4.22,0,7.65,3.43,7.65,7.65s-3.43,7.66-7.65,7.66-7.66-3.43-7.66-7.66,3.43-7.65,7.66-7.65ZM110.73,207.69c0-3.46-2.81-6.27-6.27-6.27s-6.27,2.81-6.27,6.27,2.81,6.27,6.27,6.27,6.27-2.8,6.27-6.27Z"/>
        <path class="cls-1" d="M104.46,267.73c4.22,0,7.65,3.43,7.65,7.66s-3.43,7.65-7.65,7.65-7.66-3.43-7.66-7.65,3.43-7.66,7.66-7.66ZM110.73,275.39c0-3.47-2.81-6.27-6.27-6.27s-6.27,2.8-6.27,6.27,2.81,6.27,6.27,6.27,6.27-2.81,6.27-6.27Z"/>
        <path class="cls-4" d="M107.42,204.74c.16.16.24.37.24.57s-.09.42-.24.58l-1.78,1.78,1.77,1.77c.32.32.32.84,0,1.15-.16.16-.37.24-.57.24s-.42-.09-.58-.24l-1.77-1.77-1.77,1.77c-.32.32-.84.32-1.16,0-.16-.16-.24-.37-.24-.57s.08-.42.24-.58l1.77-1.77-1.78-1.78c-.32-.32-.32-.84,0-1.15.16-.16.37-.24.57-.24s.42.09.58.24l1.78,1.78,1.78-1.78c.32-.32.84-.32,1.15,0Z"/>
        <path class="cls-4" d="M107.42,277.19c.16.16.24.37.24.58s-.09.42-.24.57c-.32.32-.84.32-1.15,0l-1.78-1.78-1.78,1.78c-.16.16-.37.24-.58.24s-.42-.09-.57-.24c-.32-.32-.32-.84,0-1.15l1.78-1.78-1.77-1.77c-.16-.16-.24-.37-.24-.58s.08-.42.24-.57c.32-.32.84-.32,1.16,0l1.77,1.77,1.77-1.77c.16-.16.37-.24.58-.24s.42.09.57.24c.32.32.32.84,0,1.15l-1.77,1.77,1.78,1.78Z"/>
        <path class="cls-1" d="M86.77,218.19c2.19,0,3.98,1.78,3.98,3.98s-1.78,3.97-3.98,3.97-3.97-1.78-3.97-3.97,1.78-3.98,3.97-3.98ZM89.36,222.16c0-1.43-1.16-2.59-2.59-2.59s-2.59,1.16-2.59,2.59,1.16,2.59,2.59,2.59,2.59-1.16,2.59-2.59Z"/>
        <path class="cls-4" d="M86.77,256.99c2.19,0,3.98,1.78,3.98,3.97s-1.78,3.98-3.98,3.98-3.97-1.78-3.97-3.98,1.78-3.97,3.97-3.97ZM89.36,260.96c0-1.43-1.16-2.58-2.59-2.58s-2.59,1.15-2.59,2.58,1.16,2.59,2.59,2.59,2.59-1.16,2.59-2.59Z"/>
        <path class="cls-4" d="M88.73,208.18c.63.1,1.05.7.93,1.33l-.83,4.26c-.09.45-.52.73-.96.65-.38-.07-.66-.42-.66-.79,0-.05,0-.11.02-.16l.56-2.88c-10.63,5.81-14.87,15.37-15.88,18.05-.15.4-.59.62-1,.49-.36-.1-.59-.43-.59-.78,0-.1.01-.2.05-.29,1.06-2.87,5.25-12.45,16.02-18.57l-2.01-.32c-.45-.07-.76-.48-.68-.93.07-.45.49-.75.93-.68l4.11.64Z"/>
        <path class="cls-1" d="M89.12,273.1c.39.18.56.64.4,1.04-.13.32-.44.52-.76.52-.12,0-.23-.02-.35-.08-2.76-1.32-11.91-6.38-17.01-17.67l-.49,1.97c-.11.43-.56.7-1,.59s-.7-.56-.59-1l1.01-4.03c.16-.62.79-.98,1.4-.81l4.17,1.22c.43.13.68.59.56,1.02-.1.35-.43.59-.78.59-.08,0-.15-.01-.23-.04l-2.82-.82c4.8,11.13,13.93,16.23,16.5,17.49Z"/>
        <path class="cls-1" d="M68.82,233.77c4.23,0,7.67,3.44,7.67,7.67s-3.44,7.67-7.67,7.67-7.67-3.44-7.67-7.67,3.44-7.67,7.67-7.67ZM75.11,241.44c0-3.46-2.82-6.28-6.28-6.28s-6.28,2.82-6.28,6.28,2.82,6.29,6.28,6.29,6.28-2.82,6.28-6.29Z"/>
        <path class="cls-4" d="M68.82,237.86c1.97,0,3.58,1.61,3.58,3.58s-1.61,3.58-3.58,3.58-3.58-1.61-3.58-3.58,1.61-3.58,3.58-3.58ZM71.02,241.44c0-1.21-.98-2.19-2.19-2.19s-2.19.98-2.19,2.19.98,2.2,2.19,2.2,2.19-.98,2.19-2.2Z"/>
      </g>
      <path class="cls-4" d="M59.99,291.04s-.08-.01-.12-.03c-.08-.05-.12-.13-.11-.22.08-.67,1.55-1.46,2-1.68.11-.06.25-.01.31.1.06.11.01.25-.1.31-.33.16-.67.36-.96.56.61-.21,1.31-.32,1.94-.19.12.03.2.15.18.27-.03.12-.15.2-.27.18-1.01-.22-2.19.32-2.73.67-.04.02-.08.04-.12.04Z"/>
      <path class="cls-4" d="M98.62,303.29c-.09,0-.17-.05-.21-.13-1.4-2.95-3.78-4.77-3.8-4.79-.1-.08-.12-.22-.05-.32.08-.1.22-.12.32-.05.1.08,2.5,1.91,3.94,4.96.05.11,0,.25-.11.3-.03.01-.07.02-.1.02Z"/>
      <path class="cls-4" d="M71.38,277.28s-.08-.01-.12-.03c-.01,0-1.03-.61-1.7-.64-.12,0-.22-.11-.22-.23,0-.12.09-.22.22-.23.59-.03,1.55.13,1.59.14.12.02.21.14.19.26-.01.07-.05.12-.1.15.15.08.25.14.26.14.11.06.14.2.08.31-.04.07-.12.11-.2.11Z"/>
      <path class="cls-4" d="M68.87,270.67c-.08,0-.16-.04-.2-.12-.01-.02-.36-.52-1.9-.52-.12,0-.22-.09-.23-.21s.08-.23.2-.24c1.13-.17,1.89-.2,1.93-.2,0,0,0,0,.01,0,.12,0,.22.1.23.22,0,.13-.09.23-.22.24,0,0-.09,0-.24.02.47.2.61.44.64.48.06.11.02.25-.1.31-.03.02-.07.03-.11.03Z"/>
      <path class="cls-4" d="M64.73,270.6s-.04,0-.06,0c-.01,0-1.3-.36-2.75-.43-.11,0-.2-.09-.22-.19-.02-.11.04-.21.15-.25,1.03-.38,2.46-.35,2.52-.35.13,0,.23.11.22.23,0,.13-.1.23-.23.22,0,0-.4,0-.9.04.77.12,1.3.27,1.34.28.12.03.19.16.16.28-.03.1-.12.17-.22.17Z"/>
      <path class="cls-4" d="M61.43,260.52s-.05,0-.08-.01c-.68-.24-1.86-.62-2.13-.62-.12,0-.21-.09-.23-.2s.06-.22.17-.25c.56-.14,1.84-.11,1.9-.11.13,0,.23.11.22.23,0,.12-.1.22-.23.22h0s-.18,0-.42,0c.39.13.74.25.87.29.12.04.18.17.14.29-.03.09-.12.15-.22.15Z"/>
      <path class="cls-4" d="M57.55,267.1s-.01,0-.02,0c-.02,0-1.67-.17-2.82-.2-.11,0-.2-.08-.22-.18s.03-.21.13-.25c.6-.28,2.54-.32,2.77-.32.11,0,.23.1.23.23s-.1.23-.23.23c-.06,0-.14,0-.23,0,.25.02.41.04.41.04.13.01.22.12.21.25-.01.12-.11.21-.23.21Z"/>
      <path class="cls-4" d="M54.15,254.85s-.03,0-.05,0c-1.05-.24-2.89-.53-3.35-.29-.11.06-.25.02-.31-.09-.06-.11-.02-.25.08-.31.77-.45,3.09-.47,3.35-.47.13,0,.23.1.23.23s-.1.23-.23.23c-.2,0-.51,0-.85.02.58.09,1.06.2,1.17.22.12.03.2.15.17.27-.02.11-.12.18-.22.18Z"/>
      <path class="cls-4" d="M40.83,261.39c-.09,0-.17-.05-.21-.13-.05-.11-.01-.24.09-.3.03-.02,3.09-1.73,3.65-.75.06.1.03.24-.07.3.17.03.28.05.29.06.12.03.2.16.17.28-.03.12-.16.2-.28.17-.02,0-1.66-.4-3.56.36-.03.01-.06.02-.09.02ZM43.35,260.44c.25,0,.46.01.65.03,0-.01-.02-.02-.03-.04-.07-.13-.4-.1-.84,0,.08,0,.15,0,.22,0Z"/>
      <path class="cls-4" d="M150.01,291.04s-.09-.01-.12-.04c-.54-.35-1.73-.88-2.73-.67-.12.03-.25-.05-.27-.18-.03-.12.05-.25.18-.27.63-.13,1.32-.03,1.94.19-.29-.2-.63-.39-.96-.56-.11-.06-.16-.19-.1-.31s.2-.16.31-.1c.45.22,1.92,1.01,2,1.68,0,.09-.03.17-.11.22-.04.02-.08.03-.12.03Z"/>
      <path class="cls-4" d="M111.38,303.29s-.07,0-.1-.02c-.11-.05-.16-.19-.11-.3,1.44-3.05,3.84-4.88,3.94-4.96.1-.08.24-.06.32.05.08.1.06.24-.05.32-.02.02-2.41,1.84-3.8,4.79-.04.08-.12.13-.21.13Z"/>
      <path class="cls-4" d="M138.62,277.28c-.08,0-.15-.04-.2-.11-.06-.11-.03-.25.08-.31.01,0,.11-.07.26-.14-.05-.03-.09-.09-.1-.15-.02-.12.06-.24.19-.26.04,0,1-.17,1.59-.14.12,0,.22.11.22.23,0,.12-.1.22-.22.23-.67.03-1.69.63-1.7.64-.04.02-.08.03-.12.03Z"/>
      <path class="cls-4" d="M141.13,270.67s-.08,0-.11-.03c-.11-.06-.15-.19-.09-.3.02-.04.17-.29.64-.48-.15-.01-.24-.01-.24-.02-.13,0-.22-.11-.22-.24,0-.12.11-.22.23-.22,0,0,0,0,.01,0,.03,0,.79.04,1.93.2.12.02.2.12.2.24s-.11.21-.23.21c-1.57,0-1.9.51-1.91.52-.04.07-.12.11-.2.11Z"/>
      <path class="cls-4" d="M145.27,270.6c-.1,0-.19-.07-.22-.17-.03-.12.04-.25.16-.28.03,0,.57-.16,1.34-.28-.51-.04-.9-.04-.9-.04-.1.01-.23-.1-.23-.22s.1-.23.22-.23c.06,0,1.49-.03,2.52.35.1.04.16.14.15.25-.02.11-.11.19-.22.19-1.46.06-2.74.42-2.75.43-.02,0-.04,0-.06,0Z"/>
      <path class="cls-4" d="M148.57,260.52c-.09,0-.18-.06-.22-.15-.04-.12.02-.25.14-.29.13-.05.48-.17.87-.29-.25,0-.42,0-.42,0h0c-.12,0-.23-.1-.23-.22,0-.13.1-.23.22-.23.05,0,1.34-.03,1.9.11.11.03.19.14.17.25s-.11.2-.23.2c-.26,0-1.45.38-2.13.62-.03,0-.05.01-.08.01Z"/>
      <path class="cls-4" d="M152.45,267.1c-.12,0-.22-.09-.23-.21-.01-.13.08-.24.21-.25,0,0,.16-.02.41-.04-.09,0-.16,0-.23,0-.13,0-.23-.11-.23-.23s.12-.22.23-.23c.22,0,2.17.04,2.77.32.1.05.15.15.13.25s-.11.18-.22.18c-1.15.03-2.81.2-2.82.2,0,0-.02,0-.02,0Z"/>
      <path class="cls-4" d="M155.85,254.85c-.1,0-.2-.07-.22-.18-.03-.12.05-.25.17-.27.12-.03.59-.13,1.17-.22-.35-.02-.65-.02-.85-.02-.13,0-.23-.1-.23-.23s.1-.23.23-.23c.26,0,2.59.01,3.35.47.11.06.14.2.08.31-.06.11-.2.15-.31.09-.46-.24-2.3.05-3.35.29-.02,0-.03,0-.05,0Z"/>
      <path class="cls-4" d="M169.17,261.39s-.06,0-.09-.02c-1.9-.76-3.55-.36-3.56-.36-.12.03-.25-.04-.28-.17-.03-.12.04-.25.17-.28.02,0,.12-.03.29-.06-.1-.07-.13-.2-.07-.3.56-.98,3.62.73,3.65.75.1.06.14.19.09.3-.04.08-.12.13-.21.13ZM166.29,260.35c-.13,0-.22.03-.26.09,0,.01-.02.03-.03.04.23-.02.53-.04.87-.03-.23-.06-.43-.09-.58-.09Z"/>
      <path class="cls-1" d="M105.02,338.01c-.34,0-.61-.27-.61-.61v-21.32c-.09-.71-1.71-11.94-8.52-16.03-.04-.03-.08-.06-.12-.09-4.97-4.97-11.38-10.68-24.66-15.58-.02,0-.04-.02-.07-.03-5.98-3.05-11.46-8.57-13.52-10.65l-.31-.32s-5.57-5.16-9.4-1.84c-.44.68-1.81,3.64,3.9,8.44.02.02.04.03.05.05.05.06,5.42,5.83,9.19,7.89,3.44,2.16,6.23,5.24,8.82,9.71.17.29.07.67-.22.83-.29.17-.67.07-.83-.22-2.48-4.29-5.15-7.24-8.38-9.27-3.82-2.09-8.98-7.59-9.45-8.09-6.67-5.62-4.55-9.41-4.05-10.11.03-.04.06-.07.09-.1,3.74-3.33,8.91-.26,11.12,1.83l.33.33c1.83,1.84,7.39,7.44,13.18,10.41,13.44,4.96,19.96,10.75,25.01,15.8,7.46,4.54,8.99,16.42,9.05,16.92,0,.02,0,.05,0,.07v21.36c0,.34-.27.61-.61.61Z"/>
      <path class="cls-1" d="M73.38,284.96c-.28,0-.53-.19-.59-.47-1.48-6.35-5.97-22.29-10.93-22.85-.34-.04-.58-.34-.54-.68.04-.33.33-.58.68-.54,6.71.76,11.42,21.37,11.98,23.79.08.33-.13.66-.46.73-.05.01-.09.02-.14.02Z"/>
      <path class="cls-1" d="M67.57,282.12c-.33,0-.61-.27-.61-.6,0-.07-.2-7.07-3.23-11.5-.05-.07-.08-.15-.1-.24-.91-5.24-1.41-7.43-3.09-9.69-.08-.1-.12-.23-.12-.35-.04-2.24-1-6.41-3.45-8.73-1.21-1.14-2.64-1.69-4.26-1.62-.34.01-.62-.25-.63-.59-.01-.34.25-.62.59-.63,1.96-.07,3.69.58,5.14,1.96,2.85,2.7,3.74,7.21,3.83,9.4,1.73,2.39,2.29,4.8,3.18,9.92,3.17,4.74,3.37,11.76,3.37,12.06,0,.34-.26.61-.6.62h0Z"/>
      <path class="cls-1" d="M60.52,276.27c-.27,0-.52-.19-.59-.46-.02-.06-1.53-6-3.13-8.83-.05-.09-.08-.18-.08-.28-.13-3.42-1.33-7.88-3.29-12.23-.02-.04-.03-.07-.04-.11-1.3-5.44-3.02-10.41-6.9-10-.16.08-.31.16-.46.22-.89.42-1.15.54-.48,2.74.35,1.15.74,2.27,1.12,3.35.65,1.87,1.21,3.48,1.41,4.72.3,1.87,1.34,11.63,1.38,12.05.03.34-.22.63-.55.67-.33.03-.63-.22-.67-.55,0-.1-1.08-10.14-1.37-11.97-.18-1.13-.72-2.69-1.35-4.51-.38-1.09-.77-2.22-1.13-3.39-.89-2.9-.31-3.53,1.12-4.21.16-.07.33-.15.51-.25.07-.03.14-.06.21-.07,5.54-.73,7.37,6.78,8.34,10.86,1.98,4.41,3.2,8.94,3.36,12.48,1.66,3.03,3.12,8.74,3.18,9.01.08.33-.12.66-.44.74-.05.01-.1.02-.15.02Z"/>
      <path class="cls-1" d="M82.73,338.9s-.1,0-.14-.02c-.33-.08-.53-.41-.45-.74,2.35-9.7,2.05-17.41-.83-21.15-3.31-4.3-10.22-9-16.32-13.16-9.72-6.37-10.87-8.92-11.56-10.45l-.29-.62c-.82-1.77-2.99-6.49-5.54-10.22-2.98-4.21-4.36-7.07-6.01-11.2-1.91-5.76-4.52-9.42-7.03-12.67-1.53-1.64-2.14-3.02-1.85-4.16.27-1.05,1.21-1.47,1.6-1.6.03,0,.05-.01.08-.02,5.09-1,9.33,4.08,10.35,7.29,2.28,2.86,5.86,9.09,6.02,9.36.17.29.08.67-.22.84-.29.17-.66.08-.84-.22-.04-.07-3.78-6.57-5.99-9.31-.05-.06-.09-.13-.11-.21-.66-2.23-4.28-7.44-8.94-6.56-.22.08-.66.29-.77.73-.1.39-.03,1.31,1.6,3.07,2.49,3.23,5.28,7.13,7.24,13.04,1.6,4.01,2.95,6.81,5.86,10.92,2.62,3.83,4.82,8.61,5.65,10.41l.29.63c.59,1.31,1.69,3.75,11.12,9.94,6.18,4.21,13.18,8.98,16.61,13.43,3.1,4.03,3.48,12.12,1.04,22.19-.07.28-.32.47-.59.47Z"/>
      <path class="cls-1" d="M104.98,338.01c-.34,0-.61-.27-.61-.61v-21.36s0-.05,0-.07c.06-.5,1.58-12.38,9.05-16.92,5.05-5.04,11.58-10.83,25.01-15.8,5.79-2.96,11.35-8.56,13.18-10.41l.32-.32c2.23-2.1,7.4-5.17,11.14-1.84.04.03.07.07.09.1.49.7,2.62,4.49-4.05,10.11-.46.5-5.63,6-9.48,8.11-3.2,2.02-5.86,4.96-8.35,9.25-.17.29-.54.39-.83.22-.29-.17-.39-.54-.22-.83,2.59-4.47,5.38-7.55,8.78-9.69,3.81-2.08,9.17-7.85,9.23-7.91.02-.02.04-.04.05-.05,5.71-4.8,4.35-7.76,3.9-8.44-3.83-3.32-9.36,1.8-9.42,1.85l-.3.3c-2.06,2.08-7.55,7.6-13.52,10.65-.02.01-.04.02-.07.03-13.27,4.9-19.69,10.61-24.66,15.58-.04.04-.07.07-.12.09-6.82,4.09-8.43,15.32-8.52,16.03v21.32c0,.34-.27.61-.61.61Z"/>
      <path class="cls-1" d="M136.49,285.1s-.09,0-.14-.02c-.33-.08-.53-.4-.46-.73.59-2.51,4.99-23.22,12.41-24.07.34-.04.38.2.42.53.04.34-.2.64-.54.68-4.96.56-9.62,16.79-11.1,23.13-.07.28-.32.47-.59.47Z"/>
      <path class="cls-1" d="M142.18,282.12h0c-.34,0-.61-.28-.6-.62,0-.31.45-7.32,3.62-12.06.89-5.13,1.45-7.53,3.18-9.92.09-2.19.98-6.7,3.83-9.4,1.45-1.37,3.18-2.03,5.14-1.96.34.01.6.3.59.63s-.31.6-.63.59c-1.62-.07-3.05.48-4.26,1.62-2.46,2.32-3.41,6.49-3.45,8.73,0,.13-.04.25-.12.35-1.68,2.26-2.18,4.45-3.09,9.69-.01.09-.05.17-.1.24-3.03,4.43-3.48,11.43-3.48,11.5,0,.33-.28.6-.61.6Z"/>
      <path class="cls-1" d="M149.6,276.15s-.1,0-.15-.02c-.33-.08-.53-.41-.44-.74.07-.27,1.41-5.87,3.07-8.89.16-3.54,1.38-8.07,3.36-12.48.97-4.08,2.79-11.58,8.34-10.86.07,0,.14.03.21.07.18.1.35.18.51.25,1.44.68,2.02,1.31,1.12,4.21-.36,1.17-.75,2.3-1.13,3.39-.63,1.82-1.17,3.38-1.35,4.51-.29,1.83-1.36,11.69-1.37,11.79-.03.34-.34.58-.67.55-.34-.03-.58-.33-.55-.67.04-.42,1.08-10,1.38-11.87.2-1.23.76-2.85,1.41-4.72.37-1.08.76-2.2,1.12-3.35.68-2.2.41-2.33-.48-2.74-.15-.07-.3-.14-.46-.22-3.86-.41-5.6,4.56-6.9,10,0,.04-.02.07-.04.11-1.96,4.35-3.16,8.81-3.29,12.23,0,.1-.03.19-.08.28-1.61,2.83-3.01,8.65-3.02,8.72-.07.28-.32.46-.59.46Z"/>
      <path class="cls-1" d="M127.27,338.9c-.28,0-.53-.19-.59-.47-2.44-10.07-2.06-18.15,1.04-22.19,3.43-4.45,10.43-9.22,16.6-13.42,9.44-6.19,10.54-8.63,11.13-9.94l.29-.63c.83-1.8,3.03-6.58,5.64-10.4,2.92-4.12,4.27-6.92,5.88-10.97,1.95-5.88,4.74-9.78,7.2-12.97,1.66-1.8,1.73-2.72,1.63-3.11-.11-.44-.55-.65-.77-.73-4.65-.88-8.28,4.33-8.94,6.56-.02.08-.06.15-.11.21-2.22,2.74-5.96,9.24-6,9.31-.17.29-.55.39-.84.22-.29-.17-.39-.55-.22-.84.16-.28,3.75-6.5,6.03-9.36,1.02-3.21,5.25-8.29,10.35-7.29.03,0,.05.01.08.02.39.13,1.34.55,1.6,1.6.29,1.14-.32,2.52-1.88,4.2-2.47,3.21-5.08,6.87-6.98,12.6-1.66,4.16-3.04,7.03-6.02,11.25-2.55,3.73-4.72,8.44-5.54,10.22l-.29.62c-.69,1.53-1.84,4.08-11.57,10.46-6.09,4.15-13,8.85-16.31,13.15-2.88,3.74-3.18,11.45-.82,21.15.08.33-.12.66-.45.74-.05.01-.1.02-.14.02Z"/>
      <path class="cls-4" d="M53.55,276.79c-.1,0-.19-.05-.25-.13-.1-.14-.06-.33.08-.42.37-.26,1.34-1.07,1.42-1.75.02-.19-.03-.35-.17-.5-.09-.1-.2-.23-.33-.38-1.24-1.44-4.14-4.81-7.2-2.94-.14.09-.33.04-.42-.1-.09-.14-.04-.33.1-.42,3.5-2.14,6.64,1.5,7.98,3.06.12.14.23.27.32.37.25.28.36.62.32.98-.12,1.07-1.52,2.07-1.68,2.18-.05.04-.11.05-.17.05Z"/>
      <path class="cls-4" d="M51.54,278.16c-.54,0-1.09-.25-1.67-.74-2.76-2.37-4.19-4.1-4.25-5.16,0-.17.12-.31.29-.32.18,0,.31.12.32.29.05.84,1.52,2.56,4.03,4.73.54.46,1.03.65,1.47.57.62-.11.96-.74.97-.75.08-.15.27-.2.41-.13.15.08.21.26.13.41-.02.04-.48.89-1.39,1.06-.11.02-.21.03-.32.03Z"/>
      <path class="cls-4" d="M156.45,276.79c-.06,0-.12-.02-.17-.05-.16-.11-1.56-1.11-1.68-2.18-.04-.36.07-.7.32-.98.09-.1.2-.22.32-.37,1.34-1.56,4.48-5.2,7.98-3.06.14.09.19.28.1.42-.09.14-.28.19-.42.1-3.06-1.87-5.96,1.5-7.2,2.94-.13.15-.24.28-.33.38-.14.15-.19.31-.17.5.08.68,1.05,1.49,1.42,1.75.14.1.17.29.08.42-.06.09-.15.13-.25.13Z"/>
      <path class="cls-4" d="M158.46,278.16c-.11,0-.22-.01-.32-.03-.91-.17-1.37-1.03-1.39-1.06-.08-.15-.02-.33.13-.41.15-.08.33-.02.41.13h0s.35.64.97.75c.44.08.93-.11,1.47-.57,2.52-2.16,3.99-3.89,4.03-4.73,0-.17.13-.3.32-.29.17,0,.3.15.29.32-.06,1.05-1.49,2.79-4.25,5.16-.57.49-1.13.74-1.67.74Z"/>
      <g>
        <path class="cls-3" d="M109.6,347.5v-10.61c0-.52-.42-.93-.93-.93h-31.86c-.52,0-.93.42-.93.93v10.61h33.73Z"/>
        <path class="cls-4" d="M110.99,335.5v12h-1.39v-10.61c0-.51-.42-.93-.93-.93h-31.86c-.52,0-.93.42-.93.93v10.61h-1.39v-12c0-.51.42-.93.93-.93h34.63c.52,0,.93.42.93.93Z"/>
        <path class="cls-4" d="M106.24,347.96c-.08,0-.17-.03-.25-.08-.2-.14-.25-.42-.11-.63l3.18-4.81c.14-.21.41-.26.61-.12.2.14.25.42.11.63l-3.18,4.81c-.08.13-.22.2-.36.2Z"/>
        <path class="cls-4" d="M103.73,347.96c-.07,0-.15-.02-.22-.06-.21-.12-.28-.4-.16-.61l5.63-9.84c.12-.21.39-.29.6-.16.21.12.28.4.16.61l-5.63,9.84c-.08.14-.23.22-.38.22Z"/>
        <path class="cls-4" d="M99.26,347.96c-.08,0-.15-.02-.23-.06-.22-.12-.3-.4-.17-.61l6.58-11.36c.12-.22.4-.29.62-.17.22.12.3.4.17.61l-6.58,11.36c-.08.15-.24.23-.4.23Z"/>
        <path class="cls-4" d="M95.87,347.96c-.07,0-.15-.02-.22-.06-.22-.12-.3-.4-.17-.61l6.4-11.36c.12-.22.4-.3.62-.17.22.12.3.4.17.61l-6.4,11.36c-.08.15-.24.23-.4.23Z"/>
        <path class="cls-4" d="M93.1,347c-.07,0-.15-.02-.22-.06-.22-.12-.3-.4-.18-.62l5.63-10.39c.12-.22.4-.31.62-.18.22.12.3.4.18.62l-5.63,10.39c-.08.15-.24.24-.4.24Z"/>
        <path class="cls-4" d="M88.84,347.8c-.09,0-.17-.02-.25-.07-.21-.14-.27-.42-.13-.63l7.3-11.18c.14-.21.42-.27.63-.13.21.14.27.42.13.63l-7.3,11.18c-.09.13-.23.21-.38.21Z"/>
        <path class="cls-4" d="M88.27,343.88c-.08,0-.16-.02-.24-.07-.22-.13-.28-.41-.15-.63l4.47-7.27c.13-.22.42-.28.63-.15.22.13.28.41.15.63l-4.47,7.27c-.09.14-.24.22-.39.22Z"/>
        <circle class="cls-4" cx="86.88" cy="345.61" r=".7"/>
        <path class="cls-4" d="M83.08,346.07c-.08,0-.16-.02-.24-.07-.21-.13-.27-.4-.14-.61l5.96-9.26c.13-.2.41-.27.61-.13.21.13.27.4.14.61l-5.96,9.26c-.08.13-.23.2-.37.2Z"/>
        <path class="cls-4" d="M79.55,347c-.08,0-.17-.02-.24-.07-.21-.13-.27-.4-.14-.61l6.6-10.22c.13-.21.41-.27.62-.13.21.13.27.4.14.61l-6.6,10.22c-.09.13-.23.2-.38.2Z"/>
        <path class="cls-4" d="M76.06,347c-.09,0-.19-.03-.27-.09-.21-.15-.25-.43-.1-.64l7.61-10.59c.15-.21.43-.25.64-.1.21.15.25.43.1.64l-7.61,10.59c-.09.12-.23.19-.37.19Z"/>
        <path class="cls-4" d="M76.23,341.72c-.09,0-.18-.03-.26-.08-.2-.14-.24-.4-.09-.59l3.84-4.99c.14-.19.42-.23.62-.09.2.14.24.4.09.59l-3.84,4.99c-.09.11-.22.17-.35.17Z"/>
        <path class="cls-4" d="M75.96,339.28c-.08,0-.16-.03-.23-.08-.17-.13-.2-.38-.08-.55l1.81-2.54c.12-.17.36-.21.53-.08.17.13.2.38.08.55l-1.81,2.54c-.07.1-.19.16-.31.16Z"/>
      </g>
      <g>
        <path class="cls-3" d="M100.34,347.5v-10.61c0-.52.42-.93.93-.93h31.86c.52,0,.93.42.93.93v10.61s-33.73,0-33.73,0Z"/>
        <path class="cls-4" d="M98.96,335.5v12h1.39v-10.61c0-.51.42-.93.93-.93h31.86c.51,0,.93.42.93.93v10.61h1.38v-12c0-.51-.42-.93-.93-.93h-34.63c-.51,0-.93.42-.93.93Z"/>
        <path class="cls-4" d="M103.71,347.96c.08,0,.17-.03.25-.08.2-.14.25-.42.11-.63l-3.18-4.81c-.14-.21-.41-.26-.61-.12-.2.14-.25.42-.11.63l3.18,4.81c.08.13.22.2.36.2Z"/>
        <path class="cls-4" d="M106.21,347.96c.07,0,.15-.02.22-.06.21-.12.28-.4.16-.61l-5.63-9.84c-.12-.21-.39-.29-.6-.16-.21.12-.28.4-.16.61l5.63,9.84c.08.14.23.22.38.22Z"/>
        <path class="cls-4" d="M110.68,347.96c.08,0,.15-.02.23-.06.22-.12.3-.4.17-.61l-6.58-11.36c-.12-.22-.4-.29-.62-.17-.22.12-.3.4-.17.61l6.58,11.36c.08.15.24.23.4.23Z"/>
        <path class="cls-4" d="M114.08,347.96c.07,0,.15-.02.22-.06.22-.12.3-.4.17-.61l-6.4-11.36c-.12-.22-.4-.3-.62-.17-.22.12-.3.4-.17.61l6.4,11.36c.08.15.24.23.4.23Z"/>
        <path class="cls-4" d="M116.85,347c.07,0,.15-.02.22-.06.22-.12.3-.4.18-.62l-5.63-10.39c-.12-.22-.4-.31-.62-.18-.22.12-.3.4-.18.62l5.63,10.39c.08.15.24.24.4.24Z"/>
        <path class="cls-4" d="M121.11,347.8c.09,0,.17-.02.25-.07.21-.14.27-.42.13-.63l-7.3-11.18c-.14-.21-.42-.27-.63-.13-.21.14-.27.42-.13.63l7.3,11.18c.09.13.23.21.38.21Z"/>
        <path class="cls-4" d="M121.68,343.88c.08,0,.16-.02.24-.07.22-.13.28-.41.15-.63l-4.47-7.27c-.13-.22-.42-.28-.63-.15-.22.13-.28.41-.15.63l4.47,7.27c.09.14.24.22.39.22Z"/>
        <circle class="cls-4" cx="123.07" cy="345.61" r=".7"/>
        <path class="cls-4" d="M126.87,346.07c.08,0,.16-.02.24-.07.21-.13.27-.4.14-.61l-5.96-9.26c-.13-.2-.41-.27-.61-.13-.21.13-.27.4-.14.61l5.96,9.26c.08.13.23.2.37.2Z"/>
        <path class="cls-4" d="M130.4,347c.08,0,.17-.02.24-.07.21-.13.27-.4.14-.61l-6.6-10.22c-.13-.21-.41-.27-.62-.13-.21.13-.27.4-.14.61l6.6,10.22c.09.13.23.2.38.2Z"/>
        <path class="cls-4" d="M133.89,347c.09,0,.19-.03.27-.09.21-.15.25-.43.1-.64l-7.61-10.59c-.15-.21-.43-.25-.64-.1-.21.15-.25.43-.1.64l7.61,10.59c.09.12.23.19.37.19Z"/>
        <path class="cls-4" d="M133.72,341.72c.09,0,.18-.03.26-.08.2-.14.24-.4.09-.59l-3.84-4.99c-.14-.19-.42-.23-.62-.09-.2.14-.24.4-.09.59l3.84,4.99c.09.11.22.17.35.17Z"/>
        <path class="cls-4" d="M133.99,339.28c.08,0,.16-.03.23-.08.17-.13.2-.38.08-.55l-1.81-2.54c-.12-.17-.36-.21-.53-.08-.17.13-.2.38-.08.55l1.81,2.54c.07.1.19.16.31.16Z"/>
      </g>
    </g>
  </g>
  <g>
    <circle class="cls-2" cx="295" cy="86" r="86"/>
    <g>
      <path class="cls-4" d="M268.76,46.85c-1.88,0-3.46-.12-4.53-.2-.29-.02-.51-.28-.49-.57.02-.29.29-.52.57-.49,3.64.28,13.3,1.02,20.13-4.34.23-.18.57-.14.75.09.18.23.14.57-.09.75-5.11,4.02-11.65,4.77-16.34,4.77Z"/>
      <path class="cls-4" d="M263.83,46.69c-.14,0-.22,0-.24,0-.29-.02-.51-.28-.49-.57.02-.29.26-.52.57-.49.12,0,2.71.15,3.81-2.06.13-.26.45-.37.72-.24.26.13.37.45.24.72-1.22,2.46-3.8,2.66-4.6,2.66Z"/>
      <path class="cls-4" d="M261.92,46.35c-.14,0-.29-.06-.39-.17-.2-.22-.19-.56.03-.76l2.35-2.17c.22-.2.55-.19.76.03.2.22.19.56-.03.76l-2.35,2.17c-.1.1-.23.14-.36.14Z"/>
      <path class="cls-4" d="M257.93,48.03c-.09,0-.18-.02-.26-.07-.26-.15-.35-.47-.2-.73.8-1.41,3.75-4.75,3.88-4.89.2-.22.53-.24.75-.05.22.2.24.53.05.75-.03.03-3,3.39-3.75,4.71-.1.17-.28.27-.47.27Z"/>
      <path class="cls-4" d="M250.9,59.06c-.11,0-.21-.05-.3-.12-.23-.19-.27-.52-.08-.75.04-.05,4.16-5.17,4.72-8,.06-.29.34-.47.63-.42.29.06.48.34.42.63-.61,3.09-4.76,8.25-4.94,8.47-.11.14-.29.21-.45.2Z"/>
      <path class="cls-4" d="M250.87,56.7c-.08,0-.16-.02-.23-.05-.27-.13-.38-.45-.25-.71.18-.36.37-.78.59-1.25,1.36-2.88,3.63-7.69,6.71-11.81.18-.24.51-.28.75-.11.24.18.28.51.11.75-3.01,4.03-5.26,8.78-6.59,11.62-.22.47-.42.89-.6,1.26-.09.19-.28.3-.48.3Z"/>
      <path class="cls-4" d="M250.56,52.56c-.06,0-.13-.01-.19-.03-.28-.1-.42-.41-.31-.69,1.72-4.6,4.18-8.75,7.33-12.32.2-.22.53-.24.75-.05.22.2.24.53.05.75-3.06,3.47-5.46,7.51-7.14,11.98-.08.22-.28.35-.5.35Z"/>
      <path class="cls-4" d="M250.22,48.4c-.07,0-.14-.01-.21-.04-.27-.12-.4-.43-.28-.7l.16-.37c1.2-2.8,3.02-7.04,6.62-9.88.23-.18.57-.14.75.09.18.23.14.57-.09.75-3.39,2.67-5.07,6.6-6.3,9.46l-.16.37c-.09.2-.28.32-.49.32Z"/>
      <path class="cls-4" d="M258.12,37.26c-.1,0-.19-.03-.28-.08-.25-.16-.33-.48-.17-.74.68-1.1,4.47-2.75,5.22-3.06.27-.11.59.01.7.28.11.27-.01.59-.28.7-1.74.74-4.36,2.04-4.73,2.64-.1.16-.28.25-.46.25Z"/>
      <path class="cls-4" d="M260.05,38.93c-.07,0-.14-.01-.2-.04-.26-.12-.39-.4-.29-.66.24-.63,1.64-1.57,2.23-1.95.25-.16.58-.09.74.16.16.25.09.58-.16.74-.86.55-1.7,1.22-1.81,1.44-.1.19-.3.31-.5.31Z"/>
      <circle class="cls-4" cx="259.5" cy="41.86" r=".55"/>
      <path class="cls-4" d="M284.18,46.39c-.18,0-.35-.09-.45-.25-.16-.25-.08-.58.17-.74.08-.05.17-.11.29-.18.92-.56,3.07-1.86,3.69-3.33.12-.27.43-.4.7-.28.27.12.4.43.28.7-.76,1.78-3.12,3.21-4.12,3.82-.11.07-.2.12-.27.17-.09.06-.19.08-.29.08Z"/>
      <path class="cls-4" d="M288.21,47.49c-.13,0-.26-.05-.36-.14-.22-.2-.23-.54-.03-.76l2.45-2.63c.2-.22.54-.23.76-.03.22.2.23.54.03.76l-2.45,2.63c-.1.11-.25.17-.39.17Z"/>
      <path class="cls-4" d="M289.52,50.69c-.14,0-.28-.05-.38-.16-.21-.21-.2-.55.01-.76l1.77-1.72c.21-.21.55-.2.76.01.21.21.2.55-.01.76l-1.77,1.72c-.1.1-.24.15-.37.15Z"/>
      <path class="cls-4" d="M289.85,53.51c-.14,0-.28-.05-.38-.16-.21-.21-.2-.55.01-.76l2.02-1.96c.21-.21.55-.2.76.01.21.21.2.55-.01.76l-2.02,1.96c-.1.1-.24.15-.37.15Z"/>
      <path class="cls-4" d="M289.75,56.42c-.15,0-.29-.06-.4-.18-.2-.22-.18-.56.04-.76l2.8-2.53c.22-.2.56-.18.76.04.2.22.18.56-.04.76l-2.8,2.53c-.1.09-.23.14-.36.14Z"/>
      <path class="cls-4" d="M290.41,59.54c-.09,0-.19-.02-.27-.08-.25-.15-.34-.48-.18-.73.09-.15.92-1.51,1.74-2.07.24-.17.58-.1.74.14.17.24.1.58-.14.74-.53.36-1.2,1.37-1.42,1.73-.1.17-.28.26-.46.26Z"/>
      <path class="cls-4" d="M286.23,95.94c-.1,0-.2-.03-.27-.1-1.83-1.61-2.9-6.9-2.34-9.52.05-.22.27-.37.49-.32.22.05.37.27.32.49-.55,2.55.62,7.44,2.08,8.73.17.15.19.41.04.58-.08.09-.2.14-.31.14Z"/>
      <path class="cls-4" d="M284.57,95.93c-.1,0-.2-.03-.28-.11-1.51-1.36-2.52-5.32-2.47-8.02,0-.23.19-.41.41-.41h0c.23,0,.41.19.41.42-.05,2.8,1,6.32,2.2,7.39.17.15.18.41.03.58-.08.09-.19.14-.31.14Z"/>
      <path class="cls-4" d="M282.73,95.82c-.11,0-.21-.04-.29-.12-1.3-1.32-2.15-4.45-2.31-6.85-.02-.23.16-.42.38-.44.24-.02.42.16.44.38.17,2.59,1.07,5.31,2.08,6.33.16.16.16.42,0,.58-.08.08-.19.12-.29.12Z"/>
      <path class="cls-4" d="M280.82,95.59c-.12,0-.24-.05-.32-.15-.94-1.15-1.73-3.44-2.01-5.83-.03-.23.14-.43.36-.46.23-.03.43.14.46.36.26,2.21,1,4.39,1.83,5.41.14.18.12.44-.06.58-.08.06-.17.09-.26.09Z"/>
      <path class="cls-4" d="M278.86,95.18c-.14,0-.27-.07-.35-.19-.72-1.12-1.32-2.93-1.61-4.83-.03-.23.12-.44.35-.47.22-.03.44.12.47.35.27,1.79.83,3.48,1.49,4.51.12.19.07.45-.12.57-.07.04-.15.07-.22.07Z"/>
      <path class="cls-4" d="M276.79,94.68c-.15,0-.29-.08-.37-.22-.53-1.02-.97-2.4-1.24-3.88-.04-.22.11-.44.33-.48.22-.04.44.11.48.33.25,1.38.67,2.71,1.15,3.65.11.2.03.45-.18.56-.06.03-.13.05-.19.05Z"/>
      <path class="cls-4" d="M274.79,93.98c-.16,0-.32-.1-.38-.25-.36-.86-.65-1.88-.86-2.94-.04-.22.1-.44.33-.48.23-.04.44.1.48.33.19,1.01.47,1.97.81,2.78.09.21-.01.45-.22.54-.05.02-.11.03-.16.03Z"/>
      <path class="cls-4" d="M272.9,93.15c-.17,0-.33-.11-.39-.28-.22-.66-.4-1.36-.54-2.1-.04-.22.1-.44.33-.48.22-.04.44.1.48.33.13.7.31,1.37.51,1.99.07.22-.04.45-.26.52-.04.01-.09.02-.13.02Z"/>
      <path class="cls-4" d="M271.17,92.23c-.18,0-.35-.12-.4-.31-.12-.44-.22-.89-.3-1.35-.04-.22.11-.44.33-.48.23-.04.44.11.48.34.08.43.17.87.28,1.29.06.22-.07.45-.29.5-.04,0-.07.01-.11.01Z"/>
      <path class="cls-4" d="M231.42,103.41c.17-.15.43-.13.58.04l1.09,1.26c.15.17.13.43-.04.58s-.43.13-.58-.04l-1.09-1.26c-.15-.17-.13-.43.04-.58Z"/>
      <path class="cls-4" d="M228.42,105.04c.1-.08.23-.12.36-.09l2.37.51c.22.05.37.27.32.49-.05.22-.27.36-.49.32l-2.37-.51c-.22-.05-.37-.27-.32-.49.02-.09.07-.17.13-.22Z"/>
      <path class="cls-4" d="M225.69,106.71c.11-.1.26-.15.42-.12l5.59.85c.28.04.48.31.44.59-.04.29-.31.48-.59.44l-5.59-.85c-.28-.04-.48-.31-.44-.59.02-.13.08-.24.17-.31Z"/>
      <path class="cls-4" d="M224.43,108.69c.1-.08.23-.12.36-.09l6.52,1.4c.22.05.37.27.32.49-.05.22-.27.37-.49.32l-6.52-1.4c-.22-.05-.37-.27-.32-.49.02-.09.07-.17.13-.22Z"/>
      <path class="cls-4" d="M226.48,111.12c.09-.08.22-.12.36-.09l5.35,1.12c.22.05.37.27.32.49-.05.22-.27.37-.49.32l-5.35-1.12c-.22-.05-.37-.27-.32-.49.02-.09.07-.17.13-.23Z"/>
      <path class="cls-4" d="M228.8,113.78c.08-.07.2-.11.32-.1l3.95.44c.23.03.39.23.36.46-.03.23-.23.39-.46.36l-3.95-.44c-.23-.03-.39-.23-.36-.46.01-.11.06-.2.14-.27Z"/>
      <path class="cls-4" d="M230.48,115.92c.09-.08.2-.11.33-.1l2.24.3c.23.03.39.24.35.46-.03.23-.24.39-.46.35l-2.24-.3c-.23-.03-.39-.24-.35-.46.01-.1.07-.19.14-.26Z"/>
      <g>
        <path class="cls-1" d="M254.28,95.6c.12.48.26.93.41,1.37,3.53,10.3,15.02,10.89,18.61,10.89h.04c3.58,0,15.05-.59,18.59-10.84.16-.44.29-.89.41-1.37.03-.1.05-.21.08-.31.05-.22.29-.36.5-.27,1.31.5,1.41.64,4.23,1.43,3.03.86,18.43,4.71,26.58,10.85.26.19.32.55.16.83-7.45,12.28-25.28,25.4-50.43,25.41h-.01c-25.15,0-43.26-13.13-50.71-25.41-.17-.28-.1-.64.16-.83,8.15-6.15,23.55-9.99,26.58-10.85,2.85-.81,2.92-.94,4.27-1.45.19-.07.4.05.45.24.02.11.05.21.08.31ZM321.95,108.57c.19-.29.12-.68-.17-.88-7.43-5.03-19.75-8.39-23.98-9.55-.43-.12-.77-.21-1.03-.29-1.91-.54-2.63-.79-3.27-1.05-1.69,5.59-5.46,8.71-9.44,10.42-3.98,1.72-8.17,2.04-10.71,2.04h-.04c-5.09,0-16.77-1.28-20.16-12.47-.64.25-1.36.51-3.27,1.05-.26.07-.61.17-1.03.29-4.24,1.16-16.56,4.52-23.98,9.55-.29.2-.37.59-.17.88,7.91,11.99,25.6,23.57,48.77,23.57,24.48,0,41.11-12.35,48.49-23.58Z"/>
        <path class="cls-1" d="M273.24,89.27c4.07-.04,14.95-2.58,16.71-16.82,0,0,.05,1.27,1.17,1.27.08,0,.17,0,.27-.02.52-.08.96-.4,1.27-.82.95-1.34,2.21-4.08,2.91-7,.05-.2.08-.4.12-.6.5-3.08.69-4.99-1.15-6.99-.41-.44-1.06-.6-1.6-.33-.66.32-1.46,1.18-2.14,3.3v.02c-3-1.7-2.07-7.15-2.51-11.29-.52-4.93-6.35-2.37-11.34-1.49-5.83,1.02-9.25-.07-13.99-1.26s-5.55,2.99-5.27,8.54c.19,3.75-.98,5.01-2.06,5.31v-.03c-.8-2.34-1.73-3.06-2.42-3.23-.44-.11-.9.07-1.21.39-1.97,2.09-1.7,4.06-1.16,7.36.69,3.03,2,5.92,2.98,7.3.3.43.75.74,1.27.82,1.38.22,1.44-1.25,1.44-1.25.89,7.19,4.09,11.39,7.58,13.8,3.42,2.37,7.12,3.01,9.13,3.02ZM256.07,59.67c.39-.52.8-1.61.69-3.85-.24-4.75.38-7.47,2.03-8.83,1.09-.9,2.57-1.12,4.39-.67.39.1.77.19,1.14.29,4.08,1.04,7.3,1.86,12.46.96.93-.17,1.91-.4,2.87-.62,3.15-.74,6.12-1.43,8-.09.89.63,1.42,1.65,1.56,3.03.12,1.11.14,2.31.16,3.46.05,2.89.18,5.05,1.02,6.3l.02.03c.29-1.71.79-2.2.79-2.2.33-.34.68-.61,1.06-.8.87-.44,1.91-.36,2.73.15.22.13.42.3.6.49s.34.39.49.59c1.84,2.44,1.43,4.94,1,7.59-.04.21-.08.43-.13.64-.75,3.17-2.1,6.04-3.1,7.48-.6.86-1.49,1.41-2.45,1.5-.11.01-.45-.11-.45-.11-.84,4.03-2.4,7.02-4.28,9.25-.46.55-.93,1.05-1.43,1.5-4.89,4.57-10.99,4.9-12.01,4.92-.88-.02-7.09-.29-12.06-4.92-.49-.46-.97-.96-1.43-1.5-1.87-2.22-3.44-5.22-4.27-9.25l-.3.12c-.44-.02-.95-.14-1.54-.42l-.22-.11-.21-.15c-1.2-1.2-2.92-4.75-3.78-8.58l-.02-.08c-.47-2.85-.86-5.18.66-7.48.23-.35.5-.7.83-1.05.04-.04.07-.08.11-.11.72-.7,1.71-.97,2.63-.7.4.12.78.31,1.13.59,0,0,.86.93,1.28,2.61Z"/>
        <path class="cls-1" d="M297.47,41.97c0,4.22-.83,11.68-1.38,15.95-.15-.19-.31-.39-.49-.59s-.38-.36-.6-.49h0c.54-4.28,1.25-10.95,1.25-14.87,0-2.86-1.81-4.62-4.96-4.81h-.04c.06-.41.1-.81.11-1.21h0c3.84.24,6.1,2.51,6.1,6.02Z"/>
        <path class="cls-1" d="M294.11,62.68c.21,1.42.16,2.87-.09,4.29-.43,2.41-1.06,3.48-1.55,3.98-.26.26-.71.13-.79-.23-.31-1.38.36-2.57.72-3.52.34-.98-.16-1.89-.68-2.83-.57-1.03-.63-2.31-.07-3.34.07-.14.16-.26.24-.38.43-.59,1.31-.53,1.66.11.26.49.43,1.18.55,1.92ZM293.27,65.44c.07-.94.04-1.84-.1-2.69-.14-.85-.31-1.31-.44-1.55-.01-.02-.02-.02-.03-.02h0s-.02,0-.03.02c-.07.09-.12.18-.18.28-.39.72-.37,1.67.07,2.45.25.45.53.96.72,1.5Z"/>
        <path class="cls-1" d="M292.34,95.64c-.12.48-.26.93-.41,1.37h-.02c-1.46-.42-6.63-2.92-6.63-8.12v-3.1c.49-.46.97-.96,1.43-1.5v4.61c0,4.35,4.59,6.5,5.64,6.76Z"/>
        <path class="cls-1" d="M290.53,30.3c.59,1.31.96,3.42.84,5.65-.02.4-.05.8-.11,1.21-.1.76-.26,1.52-.49,2.25-.1.31-.45.48-.77.36h-.02c-.29-.12-.45-.44-.36-.74.71-2.25.68-4.77.31-6.62-.04-.2-.26-.31-.43-.22-3.29,1.71-10.51,1.87-20.96,1.49-1.35-.05-2.42-.09-3.1-.09-10.94,0-14.65,7.12-15.09,10.88-.3,3.89-.03,8.28.69,12.69h0s-.07.07-.11.11c-.32.35-.6.7-.83,1.05l-.03-.02c-.69-3.7-1.33-8.71-.93-13.97.5-4.31,4.58-11.95,16.29-11.95,4.13,0,22.11,1.39,24.57-2.13.14-.2.43-.18.53.04Z"/>
        <path class="cls-1" d="M261.21,85.78v3.1c0,5.17-5.06,7.66-6.52,8.08-.15-.44-.29-.89-.41-1.37,1.12-.31,5.5-2.41,5.5-6.71v-4.61c.46.55.93,1.05,1.43,1.5Z"/>
        <path class="cls-1" d="M254.54,60.34c.57,1.04.5,2.32-.07,3.35-.52.93-1.01,1.84-.68,2.82.36.95,1.04,2.14.73,3.51-.08.36-.53.49-.79.23-.5-.51-1.14-1.6-1.56-4.07-.22-1.3-.28-2.63-.11-3.94.12-.88.31-1.7.63-2.25.33-.58,1.18-.62,1.59-.07.09.12.18.26.27.42ZM253.65,63.24c.44-.79.47-1.72.07-2.45-.05-.1-.12-.19-.18-.28-.01-.02-.02-.02-.04-.02h0c-.15.26-.33.72-.47,1.57-.14.86-.17,1.76-.1,2.7.18-.55.46-1.06.71-1.51Z"/>
      </g>
      <g>
        <path class="cls-3" d="M351,110.3c4.47,1.42,13.69,4.35,15.41,13.36-11.55,11.83-24.23,17.34-39.84,17.34h-.21c-15.74,0-28.46-5.51-39.98-17.34,1.72-9.01,10.94-11.94,15.41-13.36.57-.18,1.06-.34,1.46-.48,2.13-.77,3.73-1.83,5.02-2.68.49-.32.94-.62,1.35-.85,1.59,11.43,10.67,15.68,16.69,15.75h.16s0,0,0,0c6.03-.07,15.11-4.33,16.69-15.75.41.23.87.53,1.35.85,1.29.85,2.9,1.91,5.02,2.68.4.14.89.3,1.46.48Z"/>
        <path class="cls-3" d="M349.07,80.13c.78,9.42,1.59,19.16.63,28.76v.03c-3.52-1.3-5.56-3.46-7.26-3.94-.03.33-.06.65-.1.96-.96-.57-6.41-3.81-6.48-7.93-.11-2.68-.11-5.18-.1-6.65,2.1-2.07,4.07-4.94,5.42-8.8.18.07.37.1.57.09,1.15-.04,1.81-1.35,2.2-2.35.62-1.64,1.28-3.63,1.49-5.92.11-1.24.01-2.41-.31-3.48l-.03-.1c-.37-.85-.78-1.5-1.2-1.9-.33-.31-.81-.4-1.23-.21-.35.16-.58.51-.64.89-.02.14-.05.28-.07.41-1.44-5.43-7.2-7.85-11.53-9.66-1.82-.77-3.4-1.42-4.18-2.11-.4-.35-.88-.75-1.37-1.18-1.16-.98-2.74-2.33-3.04-2.73l-.88-1.18c-.04-.05-.12-.04-.15.02l-.12.33c-.25.68-.66,1.3-1.19,1.79-.52.48-1.2,1.08-1.79,1.6-.7.61-1.43,1.26-2.09,1.86-2.17,1.87-3.51,7.14-4.14,10.26l-.03-.03-.05-.05c-.64-.53-1.24-.43-1.54-.33-.82.3-1.39,1.3-1.72,3.07-.14.73-.19,1.48-.14,2.23.16,2.47.86,4.63,1.53,6.42.39.98,1.05,2.29,2.2,2.33.19,0,.38-.02.56-.09,1.21,3.5,2.89,6.21,4.72,8.26.03,1.69.07,4.53-.04,7.19-.07,4.23-5.77,7.49-6.48,7.92-.04-.31-.08-.63-.1-.95-1.63.45-3.57,2.46-6.83,3.77-.59-6.37-.36-17.85.63-30.81.87-11.33,4-18.45,6.95-23.92,5.3-8.32,10.37-7.62,11.8-7.2l.4.12.35-.23c.46-.31,1.57-.6,2.4-.75.26-.05.52-.08.79-.09h0c5.92-.26,10.91,2.49,14.84,8.17l.02.03c4.12,7.72,6.19,11.59,7.05,22.35.1,1.23.2,2.46.3,3.69Z"/>
        <path class="cls-3" d="M334.97,98.04c.07,4.01,4.67,7.32,7.22,8.82-1.73,10.05-9.77,14.26-15.8,14.3-6.03-.04-14.07-4.25-15.8-14.33,2.68-1.51,7.16-5.03,7.23-8.77.09-2.23.09-4.56.06-6.26h0c3.05,2.96,6.36,4.22,8.58,4.22h.01c1.9,0,5.22-1.06,8.38-3.83h0c0,1.51,0,3.62.1,5.84Z"/>
      </g>
      <path class="cls-4" d="M335.07,101.64c-.09-.01-.18-.05-.24-.13-1.53-1.7-1.98-6.75-1.18-9.14.07-.2.29-.31.49-.24.2.07.31.29.24.49-.78,2.32-.21,7.01,1.02,8.37.14.16.13.4-.03.55-.09.08-.2.11-.3.1Z"/>
      <path class="cls-4" d="M333.52,101.69c-.09-.01-.18-.05-.25-.13-1.27-1.43-1.79-5.23-1.46-7.75.03-.21.22-.36.43-.34h0c.21.03.36.22.34.44-.34,2.6.27,6.01,1.27,7.13.14.16.13.41-.03.55-.09.08-.2.11-.3.1Z"/>
      <path class="cls-4" d="M331.81,101.48c-.1-.01-.19-.06-.26-.15-1.08-1.37-1.54-4.38-1.43-6.64,0-.21.19-.38.41-.37.22,0,.38.19.37.41-.11,2.43.43,5.07,1.27,6.13.13.17.1.41-.07.55-.08.07-.19.09-.28.08Z"/>
      <path class="cls-4" d="M330.06,101.12c-.11-.01-.22-.07-.28-.18-.76-1.18-1.25-3.4-1.26-5.66,0-.21.17-.39.39-.39.22,0,.39.17.39.39,0,2.09.47,4.2,1.14,5.24.12.18.06.42-.12.54-.08.05-.17.07-.25.06Z"/>
      <path class="cls-4" d="M328.27,100.65c-.13-.01-.24-.09-.31-.21-.55-1.12-.92-2.87-.99-4.68,0-.21.16-.39.37-.4.21,0,.39.16.4.37.07,1.7.41,3.34.91,4.36.09.19.02.43-.18.52-.07.03-.14.05-.22.04Z"/>
      <path class="cls-4" d="M326.39,100.11c-.14-.02-.27-.11-.32-.25-.39-1.01-.65-2.35-.74-3.76-.01-.21.15-.4.36-.41.21-.01.4.15.41.36.08,1.31.33,2.6.69,3.53.08.2-.02.43-.22.5-.06.02-.12.03-.18.02Z"/>
      <path class="cls-4" d="M324.6,98.89c-.15-.02-.28-.12-.33-.28-.24-.84-.41-1.82-.49-2.84-.02-.21.14-.4.36-.42.22-.01.4.14.42.36.07.97.23,1.89.46,2.68.06.21-.06.42-.26.48-.05.01-.1.02-.15.01Z"/>
      <path class="cls-4" d="M322.92,97.39c-.16-.02-.3-.14-.34-.31-.14-.64-.23-1.31-.28-2.01-.02-.21.14-.4.36-.42.21-.02.4.14.42.36.05.67.14,1.31.27,1.91.04.21-.09.42-.3.46-.04,0-.08.01-.12,0Z"/>
      <path class="cls-4" d="M321.4,96.16c-.17-.02-.31-.15-.34-.33-.06-.42-.11-.86-.13-1.29-.01-.21.15-.4.36-.41.22-.01.4.15.41.36.03.41.07.83.13,1.23.03.21-.12.41-.33.44-.03,0-.07,0-.1,0Z"/>
      <path class="cls-4" d="M342.23,68.22c-.16,0-.32-.1-.37-.27-1.68-5.17-7.54-7.24-11.82-8.75-.94-.33-1.81-.64-2.56-.95-.2-.08-.29-.31-.21-.51s.31-.29.51-.21c.73.3,1.59.61,2.51.93,4.44,1.57,10.51,3.71,12.31,9.24.07.2-.05.42-.25.49-.04.01-.08.02-.12.02Z"/>
      <path class="cls-4" d="M344.44,68.13c-.17,0-.32-.11-.37-.28-1.52-5.22-7.31-7.47-11.54-9.12-.92-.36-1.79-.7-2.53-1.03-.2-.09-.28-.32-.2-.51.09-.2.32-.28.51-.19.72.32,1.58.66,2.49,1.01,4.38,1.71,10.38,4.04,12,9.63.06.21-.06.42-.26.48-.04.01-.07.02-.11.02Z"/>
      <path class="cls-4" d="M311.08,57.17c-.07,0-.13-.02-.19-.05-.19-.11-.25-.34-.15-.53.12-.22.26-.48.41-.78,1.27-2.46,3.91-7.58,11.09-8.39.22-.03.41.13.43.34.02.21-.13.41-.34.43-6.77.76-9.19,5.45-10.49,7.98-.16.31-.3.58-.43.81-.07.13-.2.2-.34.2Z"/>
      <path class="cls-4" d="M316,52.1c-.11,0-.21-.04-.29-.13-.14-.16-.13-.41.03-.55,1.98-1.78,4.45-2.84,7.34-3.17.21-.03.41.13.43.34s-.13.41-.34.43c-2.73.31-5.06,1.31-6.91,2.98-.07.07-.17.1-.26.1Z"/>
      <circle class="cls-4" cx="315.24" cy="52.45" r=".34"/>
      <path class="cls-4" d="M304.4,108.79c-.19,0-.36-.15-.38-.36-.03-.27-.79-6.54-.33-9.41.04-.23.24-.38.45-.34.21.04.35.25.32.48-.44,2.75.33,9.1.33,9.17.03.23-.12.44-.33.47-.02,0-.03,0-.05,0Z"/>
      <path class="cls-4" d="M306.14,107.93c-.19,0-.35-.13-.38-.32-.03-.19-.81-4.67-.35-7.37.04-.21.24-.35.45-.32.21.04.35.24.32.45-.44,2.56.34,7.06.35,7.1.04.21-.1.41-.32.45-.02,0-.05,0-.07,0Z"/>
      <path class="cls-4" d="M307.6,107.3c-.18,0-.34-.13-.38-.31-.02-.11-.54-2.84-.08-5.54.04-.21.23-.35.45-.32.21.04.35.24.32.45-.44,2.56.07,5.23.07,5.26.04.21-.1.41-.31.46-.03,0-.05,0-.07,0Z"/>
      <path class="cls-4" d="M309.16,106.13s-.03,0-.05,0c-.21-.03-.36-.22-.34-.43,0-.07-.03-.33-.05-.53-.08-.66-.21-1.66,0-2.48.05-.21.26-.33.47-.28.21.05.33.26.28.47-.17.67-.06,1.58.02,2.19.05.37.07.57.05.72-.02.2-.19.34-.39.34Z"/>
      <path class="cls-4" d="M290.62,115.36c.16-.14.41-.12.55.04l1.03,1.18c.14.16.12.41-.04.55s-.41.12-.55-.04l-1.03-1.18c-.14-.16-.12-.41.04-.55Z"/>
      <path class="cls-4" d="M288.52,117.73c.09-.08.21-.11.34-.09l2.23.48c.21.05.34.25.3.46-.05.21-.25.34-.46.3l-2.23-.48c-.21-.05-.34-.25-.3-.46.02-.09.06-.16.12-.21Z"/>
      <path class="cls-4" d="M287.18,119.84c.08-.07.2-.11.31-.09l4.17.64c.21.03.36.23.33.44-.03.21-.23.36-.44.33l-4.17-.64c-.21-.03-.36-.23-.33-.44.01-.09.06-.18.13-.23Z"/>
      <path class="cls-4" d="M286.2,121.64c.09-.08.21-.11.34-.09l6.13,1.32c.21.05.34.25.3.46-.04.21-.25.34-.46.3l-6.13-1.32c-.21-.05-.34-.25-.3-.46.02-.09.06-.16.12-.21Z"/>
      <path class="cls-4" d="M286.51,124.02c.09-.08.21-.11.34-.09l5.02,1.06c.21.04.34.25.3.46-.04.21-.25.34-.46.3l-5.02-1.06c-.21-.04-.34-.25-.3-.46.02-.09.06-.16.13-.21Z"/>
      <path class="cls-4" d="M289.2,126.16c.08-.07.19-.11.3-.09l3.71.42c.21.02.37.22.34.43-.02.21-.22.37-.43.34l-3.71-.42c-.21-.02-.37-.22-.34-.43.01-.1.06-.19.13-.25Z"/>
      <path class="cls-4" d="M290.98,128c.08-.07.19-.11.31-.09l2.1.28c.21.03.36.22.33.44-.03.21-.22.36-.44.33l-2.1-.28c-.21-.03-.36-.22-.33-.44.01-.1.06-.18.13-.24Z"/>
      <g>
        <path class="cls-1" d="M326.39,121.16c6.03-.04,14.06-4.25,15.8-14.3.05-.3.1-.6.14-.91.04-.31.08-.64.1-.96,1.71.47,3.74,2.63,7.25,3.94.05.02.1.04.16.06.21.07.45.16.71.24,4.27,1.39,15.13,4.3,16.81,14.72-13.53,14.02-27.43,17.93-40.79,17.93h-.21c-13.38,0-27.36-3.85-40.92-17.93,1.74-10.8,13.34-13.53,17.24-14.87.09-.03.18-.07.27-.1.2-.07.39-.14.58-.22,3.25-1.31,5.19-3.32,6.83-3.77.03.32.06.64.1.95.04.3.08.59.13.89,1.72,10.08,9.77,14.29,15.8,14.33ZM366.41,123.66c-1.72-9.01-10.94-11.94-15.41-13.36-.57-.18-1.06-.34-1.46-.48-2.12-.77-3.73-1.83-5.02-2.68-.49-.32-.94-.62-1.35-.85-1.58,11.43-10.66,15.68-16.69,15.75h0s-.16,0-.16,0c-6.03-.07-15.11-4.33-16.69-15.75-.41.23-.86.53-1.35.85-1.29.85-2.89,1.91-5.02,2.68-.4.14-.89.3-1.46.48-4.47,1.42-13.69,4.35-15.41,13.36,11.52,11.83,24.24,17.34,39.98,17.34h.21c15.62,0,28.29-5.51,39.84-17.34Z"/>
        <path class="cls-1" d="M349.64,76.37c.87,10.9,2.04,21.86.91,32.86-.26-.09-.5-.17-.71-.24-.05-.02-.1-.04-.16-.06v-.03c.97-9.6.16-19.34-.62-28.76-.1-1.23-.21-2.46-.3-3.69-.86-10.76-2.93-14.64-7.05-22.35l-.02-.03c-3.94-5.68-8.93-8.44-14.84-8.17h0c-.26.01-.53.04-.79.09-.84.16-1.94.44-2.4.75l-.35.23-.4-.12c-1.43-.42-6.5-1.12-11.8,7.2-2.95,5.47-6.08,12.58-6.95,23.92-.99,12.96-1.22,24.44-.63,30.81-.19.08-.38.15-.58.22-.09.03-.17.06-.27.1h0c-.71-7.24-.27-19.71.61-31.2s4.09-18.78,7.06-24.29c5.48-8.62,10.94-8.06,12.58-7.66.14.03.28.02.41-.05.73-.4,1.97-.67,2.64-.79.26-.05.51-.08.77-.09,1.9-.08,8.88-.48,15,7.62.44.57.82,1.19,1.16,1.83,3.89,7.29,5.9,11.34,6.74,21.92Z"/>
        <path class="cls-1" d="M316.98,90.84c-1.83-2.04-3.51-4.76-4.72-8.26-.18.07-.37.1-.56.09-1.15-.04-1.81-1.35-2.2-2.33-.67-1.79-1.38-3.95-1.53-6.42-.04-.75,0-1.5.14-2.23.34-1.77.91-2.77,1.72-3.07.3-.1.89-.21,1.54.33l.05.05.03.03c.63-3.12,1.97-8.39,4.14-10.26.66-.6,1.39-1.25,2.09-1.86.59-.52,1.27-1.12,1.79-1.6.54-.49.94-1.11,1.19-1.79l.12-.33c.02-.07.1-.08.15-.02l.88,1.18c.3.4,1.88,1.75,3.04,2.73.49.42.97.83,1.37,1.18.78.69,2.36,1.34,4.18,2.11,4.33,1.81,10.1,4.23,11.53,9.66.03-.12.05-.26.07-.41.06-.38.29-.73.64-.89.42-.19.9-.11,1.23.21.42.41.83,1.05,1.2,1.9l.03.1c.32,1.07.42,2.24.31,3.48-.21,2.29-.87,4.28-1.49,5.92-.4,1-1.05,2.31-2.2,2.35-.2,0-.39-.02-.57-.09-1.35,3.85-3.32,6.72-5.42,8.8-.3.29-.59.56-.89.82-3.16,2.76-6.48,3.82-8.38,3.83h-.01c-2.21,0-5.53-1.25-8.58-4.23-.31-.3-.61-.62-.91-.96ZM344.56,74.33c.1-1.06.03-2.13-.28-3.15-.21-.48-.57-1.2-1.01-1.62-.13-.12-.35-.05-.38.12-.07.47-.17.87-.28,1.2-.12.35-.26.63-.41.86-.06.09-.12.17-.18.25h0c-.08.1-.16.19-.24.27-.09.09-.21.09-.3.02-.05-.04-.1-.1-.1-.18-.49-8.92-12.62-10.49-15.74-13.2-1.38-1.2-3.74-3.14-4.42-3.91-.05-.06-.15-.06-.2,0-.51.64-2.93,2.67-4.85,4.43-2.49,2.16-3.88,9.78-4.17,11.5-.02.12-.19.17-.25.05-.18-.34-.53-.96-.94-1.35-.87-.71-1.5.49-1.83,2.18-.13.67-.18,1.36-.14,2.05.15,2.46.91,4.64,1.47,6.15,1.02,2.55,1.88,1.82,2.22,1.09.04-.08.15-.06.18.02,3.1,10.33,10.22,14,13.76,14.01h.01c3.54,0,11.13-3.69,14.24-14.01.03-.08.14-.1.18-.02.35.73,1.2,1.46,2.22-1.09.53-1.41,1.23-3.42,1.44-5.69Z"/>
        <path class="cls-1" d="M342.61,70.89c.51.7,1.13,1.72.85,4.07-.24,2.07-.43,3.33-1.1,4.06-.15.16-.42.06-.44-.15-.05-.51.02-1.23.23-2.18.3-1.29.18-2.11-.27-2.46-.43-.33-.63-1.25-.4-1.92h0c.09.06.21.06.3-.03.08-.07.16-.16.24-.26-.14.36.29,1.41.41,1.53.08.06.43,1.38.49,1.45.12-1.98-.35-2.77-.73-3.22.15-.23.29-.52.41-.86Z"/>
        <path class="cls-1" d="M342.33,105.96c-.04.31-.09.61-.14.91-2.56-1.5-7.16-4.81-7.22-8.82-.09-2.22-.11-4.34-.1-5.84h0c.3-.26.59-.53.89-.82-.02,1.47-.02,3.96.1,6.65.07,4.11,5.52,7.35,6.48,7.93Z"/>
        <path class="cls-1" d="M317.89,91.8h0c.03,1.71.03,4.04-.06,6.27-.06,3.73-4.54,7.26-7.23,8.77-.05-.29-.09-.58-.13-.89.71-.43,6.41-3.68,6.48-7.92.11-2.66.07-5.49.04-7.19.3.34.61.66.91.96Z"/>
        <path class="cls-1" d="M311.91,72.37s.12,1.27-.45,2c-.41.49-.63,1.53-.41,2.02.2.45.67,1.34.31,2.53-.04.14-.24.18-.33.06-.44-.56-1.05-2.11-1.18-3.65-.16-1.84.35-5.12,1.41-4.27.67.73.65,1.31.65,1.31ZM310.96,74.01c.24-.31.09-1.27.07-1.56v-.1s-.02-.05-.03-.1c-.3.28-.68,1.48-.49,2.26.02-.02.44-.48.46-.51Z"/>
      </g>
    </g>
  </g>
  <g>
    <circle class="cls-2" cx="295" cy="274" r="86"/>
    <g>
      <path class="cls-4" d="M332.36,306.7c-.03-.11-.03-.24.01-.36.11-.3.44-.45.74-.34l7.07,2.63c.3.11.45.44.34.74-.11.3-.44.45-.74.34l-7.07-2.63c-.18-.07-.3-.21-.35-.38Z"/>
      <path class="cls-4" d="M327.99,310.23c-.05-.18-.02-.37.11-.52.2-.24.56-.28.81-.08l18.99,15.66c.24.2.28.56.08.81-.2.24-.56.28-.81.08l-18.99-15.66c-.09-.08-.16-.18-.19-.28Z"/>
      <path class="cls-4" d="M326.92,316.95c-.06-.19,0-.41.14-.56.22-.22.59-.22.81,0l2.9,2.89c.22.22.22.59,0,.81-.22.22-.59.22-.81,0l-2.9-2.89c-.07-.07-.12-.16-.15-.25Z"/>
      <path class="cls-4" d="M323.14,321.45c-.07-.24.02-.5.24-.64.27-.17.62-.09.79.17l12.38,19.32c.17.27.09.62-.17.79-.27.17-.62.09-.79-.17l-12.38-19.32s-.05-.1-.07-.15Z"/>
      <path class="cls-4" d="M318.37,325.72c-.08-.28.06-.57.33-.69.29-.12.63.02.75.31l2.74,6.66c.12.3-.02.63-.31.75-.29.12-.63-.02-.75-.31l-2.74-6.66s-.02-.04-.02-.06Z"/>
      <path class="cls-4" d="M317.7,347.55s0-.03-.01-.05l-4.29-21.43c-.06-.31.14-.61.45-.67.31-.06.61.14.67.45l4.29,21.43c.06.31-.14.61-.45.67-.29.06-.58-.12-.66-.4Z"/>
      <path class="cls-4" d="M308.26,330.9s-.02-.1-.02-.15l-.03-2.99c0-.32.25-.58.57-.58.32,0,.57.25.58.57l.03,2.99c0,.32-.25.58-.57.58-.26,0-.49-.17-.56-.41Z"/>
      <path class="cls-4" d="M297.23,344.73c-.03-.09-.03-.2,0-.3l5.14-20.31c.08-.31.39-.49.7-.41.31.08.49.39.41.7l-5.14,20.31c-.08.31-.39.49-.7.41-.21-.05-.36-.21-.41-.4Z"/>
      <path class="cls-4" d="M294.91,325.83c-.04-.13-.03-.27.03-.41l1.62-3.36c.14-.28.48-.4.76-.27.29.14.4.48.27.76l-1.62,3.36c-.14.28-.48.4-.76.27-.15-.07-.26-.21-.3-.36Z"/>
      <path class="cls-4" d="M287.63,339.41c-.04-.13-.03-.27.03-.4l4.84-10.19c.14-.29.48-.41.76-.27.29.14.41.48.27.76l-4.84,10.19c-.14.29-.48.41-.76.27-.15-.07-.26-.21-.31-.36Z"/>
      <path class="cls-4" d="M286.65,325.2c-.06-.2,0-.42.15-.57l5.42-5.28c.23-.22.59-.22.81.01.22.23.22.59-.01.81l-5.42,5.28c-.23.22-.59.22-.81-.01-.07-.07-.11-.15-.14-.24Z"/>
      <circle class="cls-4" cx="307.28" cy="338.01" r=".9"/>
      <circle class="cls-4" cx="322.42" cy="340.29" r=".9"/>
      <circle class="cls-4" cx="333.46" cy="325.74" r=".9"/>
      <path class="cls-4" d="M276.59,235.83c0,.12-.04.24-.11.34-.19.25-.55.31-.8.12l-6.07-4.48c-.25-.19-.31-.55-.12-.8.19-.25.55-.31.8-.12l6.07,4.48c.15.11.23.29.23.46Z"/>
      <path class="cls-4" d="M281.76,233.64c0,.18-.09.36-.25.47-.26.18-.62.11-.8-.15l-13.93-20.29c-.18-.26-.11-.62.15-.8.26-.18.62-.11.8.15l13.93,20.29c.07.1.1.21.1.32Z"/>
      <path class="cls-4" d="M284.65,227.47c0,.2-.11.4-.29.5-.28.15-.62.05-.78-.22l-1.99-3.58c-.15-.28-.05-.63.22-.78.28-.15.62-.05.78.22l1.99,3.58c.05.09.07.18.07.28Z"/>
      <path class="cls-4" d="M289.52,224.19c0,.25-.16.47-.41.55-.3.09-.62-.08-.71-.38l-6.57-21.98c-.09-.3.08-.62.38-.71.3-.09.62.08.71.38l6.57,21.98c.02.05.02.11.02.16Z"/>
      <path class="cls-4" d="M295.29,221.4c0,.29-.22.54-.51.57-.31.03-.6-.19-.63-.51l-.8-7.16c-.03-.32.19-.6.51-.63.31-.03.6.19.63.51l.8,7.16s0,.04,0,.06Z"/>
      <path class="cls-4" d="M301.95,200.61s0,.03,0,.05l-1.79,21.79c-.03.32-.3.55-.62.52-.32-.03-.55-.3-.52-.62l1.79-21.79c.03-.32.3-.55.62-.52.3.02.53.28.53.57Z"/>
      <path class="cls-4" d="M306.43,219.21c0,.05,0,.1-.02.15l-.8,2.88c-.08.3-.4.48-.7.4-.3-.08-.48-.4-.4-.7l.8-2.88c.08-.3.4-.48.7-.4.25.07.42.3.42.55Z"/>
      <path class="cls-4" d="M320.85,208.97c0,.1-.03.2-.08.29l-10.54,18.11c-.16.27-.51.37-.78.21-.27-.16-.37-.51-.21-.78l10.54-18.1c.16-.27.51-.37.78-.21.18.11.28.3.28.5Z"/>
      <path class="cls-4" d="M317.87,227.77c0,.14-.05.27-.15.38l-2.49,2.79c-.21.24-.57.26-.81.05-.24-.21-.26-.57-.05-.81l2.49-2.79c.21-.24.57-.26.81-.05.13.11.19.27.19.43Z"/>
      <path class="cls-4" d="M328.61,216.73c0,.13-.05.27-.14.38l-7.46,8.46c-.21.24-.57.26-.81.05-.24-.21-.26-.57-.05-.81l7.46-8.46c.21-.24.57-.26.81-.05.13.11.19.27.19.43Z"/>
      <path class="cls-4" d="M325.63,230.65c0,.2-.11.4-.3.5l-6.66,3.58c-.28.15-.63.05-.78-.23-.15-.28-.05-.63.23-.78l6.66-3.58c.28-.15.63-.05.78.23.05.09.07.18.07.27Z"/>
      <circle class="cls-4" cx="309.34" cy="212.65" r=".9"/>
      <circle class="cls-4" cx="295.41" cy="206.28" r=".9"/>
      <circle class="cls-4" cx="280.79" cy="217.23" r=".9"/>
      <path class="cls-4" d="M314.24,260.48c-3.48,0-5.27-2.56-6.86-4.82l-.32-.45c-.12-.18-.08-.42.09-.54.18-.12.42-.08.54.09l.32.46c1.55,2.2,3.15,4.48,6.22,4.48.22,0,.39.17.39.39s-.17.39-.39.39Z"/>
      <path class="cls-4" d="M332.3,265.04c-.2,0-.37-.16-.39-.36l-.3-4.56c-.01-.21.15-.4.36-.41.21-.01.4.15.41.36l.3,4.56c.01.21-.15.4-.36.41,0,0-.02,0-.03,0Z"/>
      <path class="cls-4" d="M331.63,271.51c-.17,0-.33-.12-.38-.29l-1.73-6.47c-.06-.21.07-.42.28-.48.21-.05.42.07.48.28l1.73,6.47c.06.21-.07.42-.28.48-.03,0-.07.01-.1.01Z"/>
      <path class="cls-4" d="M328.4,270.91c-.18,0-.34-.13-.38-.31l-1.13-5.33c-.04-.21.09-.42.3-.46.21-.04.42.09.46.3l1.13,5.33c.04.21-.09.42-.3.46-.03,0-.05,0-.08,0Z"/>
      <path class="cls-4" d="M325.85,270.46c-.19,0-.36-.14-.38-.33l-.64-4.28c-.03-.21.11-.41.33-.44.22-.03.41.12.44.33l.64,4.28c.03.21-.11.41-.33.44-.02,0-.04,0-.06,0Z"/>
      <path class="cls-4" d="M340.26,279.47c-.22,0-.39-.17-.39-.39v-2.93c0-.22.17-.39.39-.39s.39.17.39.39v2.93c0,.22-.17.39-.39.39Z"/>
      <path class="cls-4" d="M343.19,279.47c-.22,0-.39-.17-.39-.39v-5.18c0-.22.17-.39.39-.39s.39.17.39.39v5.18c0,.22-.17.39-.39.39Z"/>
      <path class="cls-4" d="M345.89,278.49c-.22,0-.39-.17-.39-.39v-5.26c0-.22.17-.39.39-.39s.39.17.39.39v5.26c0,.22-.17.39-.39.39Z"/>
      <path class="cls-4" d="M348.52,277.29c-.22,0-.39-.17-.39-.39v-4.95c0-.22.17-.39.39-.39s.39.17.39.39v4.95c0,.22-.17.39-.39.39Z"/>
      <path class="cls-4" d="M350.84,275.98c-.22,0-.39-.17-.39-.39v-4.47c0-.22.17-.39.39-.39s.39.17.39.39v4.47c0,.22-.17.39-.39.39Z"/>
      <path class="cls-4" d="M353.34,274.68c-.22,0-.39-.17-.39-.39v-4.51c0-.22.17-.39.39-.39s.39.17.39.39v4.51c0,.22-.17.39-.39.39Z"/>
      <path class="cls-4" d="M355.23,273.24c-.06,0-.11-.01-.17-.04-.19-.09-.28-.33-.18-.52l1.74-3.62c.09-.19.33-.28.52-.18.19.09.28.33.18.52l-1.74,3.62c-.07.14-.21.22-.35.22Z"/>
      <circle class="cls-4" cx="334.34" cy="267" r=".86"/>
      <circle class="cls-4" cx="334.34" cy="270.26" r=".86"/>
      <path class="cls-4" d="M313.42,266.74c-.22,0-.39-.17-.39-.39v-2.08c0-.22.17-.39.39-.39s.39.17.39.39v2.08c0,.22-.17.39-.39.39Z"/>
      <path class="cls-4" d="M310.59,266.53c-.22,0-.39-.17-.39-.39v-2.92c0-.22.17-.39.39-.39s.39.17.39.39v2.92c0,.22-.17.39-.39.39Z"/>
      <path class="cls-4" d="M307.11,266.18c-.22,0-.39-.17-.39-.39v-4.41c0-.22.17-.39.39-.39s.39.17.39.39v4.41c0,.22-.17.39-.39.39Z"/>
      <path class="cls-4" d="M304.81,265.58c-.18,0-.35-.13-.38-.32l-1.13-6.14c-.04-.21.1-.41.31-.45.21-.04.41.1.45.31l1.13,6.14c.04.21-.1.41-.31.45-.02,0-.05,0-.07,0Z"/>
      <path class="cls-4" d="M301.13,262.92h0c-.22,0-.39-.18-.38-.4l.11-5.37c0-.21.18-.37.4-.38.22,0,.39.18.38.4l-.11,5.37c0,.21-.18.38-.39.38Z"/>
      <path class="cls-4" d="M299.14,264.92c-.2,0-.37-.15-.39-.36l-.89-10.15c-.02-.21.14-.4.35-.42.22-.02.4.14.42.35l.89,10.15c.02.21-.14.4-.35.42-.01,0-.02,0-.03,0Z"/>
      <path class="cls-4" d="M295.4,264.09c-.21,0-.38-.16-.39-.37l-.53-10.74c-.01-.21.16-.4.37-.41.21,0,.4.15.41.37l.53,10.74c.01.21-.16.4-.37.41,0,0-.01,0-.02,0Z"/>
      <path class="cls-4" d="M292.39,265.71c-.22,0-.39-.17-.39-.39v-11.47c0-.22.17-.39.39-.39s.39.17.39.39v11.47c0,.22-.17.39-.39.39Z"/>
      <path class="cls-4" d="M293.91,260.24c-.2,0-.37-.16-.39-.36l-.41-6.25c-.01-.21.15-.4.36-.41.21-.02.4.15.41.36l.41,6.25c.01.21-.15.4-.36.41,0,0-.02,0-.03,0Z"/>
      <path class="cls-4" d="M289.01,265.71c-.21,0-.38-.16-.39-.37l-.36-6.57c-.01-.21.15-.4.37-.41.22-.01.4.15.41.37l.36,6.57c.01.21-.15.4-.37.41,0,0-.01,0-.02,0Z"/>
      <path class="cls-4" d="M286.33,268.25c-.2,0-.37-.16-.39-.36l-.44-6.48c-.01-.21.15-.4.36-.42.23,0,.4.15.42.36l.44,6.48c.01.21-.15.4-.36.42,0,0-.02,0-.03,0Z"/>
      <path class="cls-4" d="M283.31,268.89c-.2,0-.37-.16-.39-.36l-.33-4.5c-.02-.21.15-.4.36-.42.21-.01.4.15.42.36l.33,4.5c.02.21-.15.4-.36.42,0,0-.02,0-.03,0Z"/>
      <path class="cls-4" d="M280.13,268.54c-.2,0-.36-.15-.39-.35l-.22-2.01c-.02-.21.13-.41.34-.43.21-.02.41.13.43.34l.22,2.01c.02.21-.13.41-.34.43-.01,0-.03,0-.04,0Z"/>
      <path class="cls-4" d="M277.75,270.81c-.2,0-.38-.16-.39-.37l-.19-3.27c-.01-.21.15-.4.37-.41.22-.01.4.15.41.37l.19,3.27c.01.21-.15.4-.37.41,0,0-.02,0-.02,0Z"/>
      <path class="cls-4" d="M274.93,271.36c-.2,0-.38-.16-.39-.37l-.19-3.12c-.01-.21.15-.4.36-.41.22-.01.4.15.41.36l.19,3.12c.01.21-.15.4-.36.41,0,0-.02,0-.02,0Z"/>
      <path class="cls-4" d="M271.75,271.36c-.22,0-.39-.17-.39-.39v-3.52c0-.22.17-.39.39-.39s.39.17.39.39v3.52c0,.22-.17.39-.39.39Z"/>
      <path class="cls-4" d="M269.15,270.17s-.02,0-.04,0c-.21-.02-.37-.21-.35-.42l.3-3.18c.02-.21.21-.37.42-.35.21.02.37.21.35.42l-.3,3.18c-.02.2-.19.35-.39.35Z"/>
      <path class="cls-4" d="M267.21,267.84s-.05,0-.08,0c-.21-.04-.35-.25-.3-.46l.77-3.76c.04-.21.25-.35.46-.3.21.04.35.25.3.46l-.77,3.76c-.04.18-.2.31-.38.31Z"/>
      <path class="cls-4" d="M264.52,266.24c-.2,0-.38-.16-.39-.37l-.19-3.32c-.01-.21.15-.4.37-.41.22-.01.4.15.41.37l.19,3.32c.01.21-.15.4-.37.41,0,0-.02,0-.02,0Z"/>
      <path class="cls-4" d="M268.18,278.72c-.2,0-.37-.15-.39-.36l-.19-2.3c-.02-.21.14-.4.36-.42.22-.02.4.14.42.36l.19,2.3c.02.21-.14.4-.36.42-.01,0-.02,0-.03,0Z"/>
      <path class="cls-4" d="M265.85,279.28c-.2,0-.37-.15-.39-.35l-.25-2.46c-.02-.21.13-.41.35-.43.22-.02.41.13.43.35l.25,2.46c.02.21-.13.41-.35.43-.01,0-.03,0-.04,0Z"/>
      <path class="cls-4" d="M263.34,279.28c-.22,0-.39-.17-.39-.39v-2.08c0-.22.17-.39.39-.39s.39.17.39.39v2.08c0,.22-.17.39-.39.39Z"/>
      <path class="cls-4" d="M256.67,275.43c-.22,0-.39-.17-.39-.39v-2.55c0-.22.17-.39.39-.39s.39.17.39.39v2.55c0,.22-.17.39-.39.39Z"/>
      <path class="cls-4" d="M255.06,275.43c-.2,0-.37-.16-.39-.36l-.19-2.55c-.02-.21.14-.4.36-.42.22-.02.4.14.42.36l.19,2.55c.02.21-.14.4-.36.42-.01,0-.02,0-.03,0Z"/>
      <path class="cls-4" d="M252.77,276.03c-.21,0-.38-.16-.39-.37l-.14-3.64c0-.21.16-.4.37-.4.21-.01.4.16.4.37l.14,3.64c0,.21-.16.4-.37.4,0,0-.01,0-.02,0Z"/>
      <path class="cls-4" d="M249.94,275.43c-.22,0-.39-.17-.39-.39v-4.87c0-.22.17-.39.39-.39s.39.17.39.39v4.87c0,.22-.17.39-.39.39Z"/>
      <path class="cls-4" d="M247.54,273.47c-.21,0-.38-.17-.39-.38l-.14-4.57c0-.22.16-.39.38-.4.22,0,.39.16.4.38l.14,4.57c0,.22-.16.39-.38.4,0,0,0,0-.01,0Z"/>
      <path class="cls-4" d="M244.38,271.06c-.21,0-.38-.16-.39-.37l-.38-6.97c-.01-.21.15-.4.37-.41.21-.01.4.15.41.37l.38,6.97c.01.21-.15.4-.37.41,0,0-.01,0-.02,0Z"/>
      <path class="cls-4" d="M240.59,268.25c-.21,0-.38-.17-.39-.38l-.19-5.32c0-.22.16-.4.37-.4.2,0,.4.16.4.37l.19,5.32c0,.22-.16.4-.37.4,0,0,0,0-.01,0Z"/>
      <path class="cls-4" d="M238.07,266.24c-.16,0-.31-.1-.37-.26l-1.74-4.93c-.07-.2.03-.43.24-.5.2-.07.43.03.5.24l1.74,4.93c.07.2-.03.43-.24.5-.04.02-.09.02-.13.02Z"/>
      <path class="cls-4" d="M277.22,290.33c-.2,0-.36-.15-.39-.35l-.67-5.84c-.02-.21.13-.41.34-.43.22-.03.41.13.43.34l.67,5.84c.02.21-.13.41-.34.43-.02,0-.03,0-.04,0Z"/>
      <path class="cls-4" d="M280.09,291.19c-.2,0-.37-.16-.39-.36l-.26-3.78c-.01-.21.15-.4.36-.42.21-.02.4.15.42.36l.26,3.78c.01.21-.15.4-.36.42,0,0-.02,0-.03,0Z"/>
      <path class="cls-4" d="M282.53,293.96c-.21,0-.38-.17-.39-.38l-.15-4.3c0-.21.16-.4.38-.4.21-.01.4.16.4.38l.15,4.3c0,.21-.16.4-.38.4,0,0,0,0-.01,0Z"/>
      <path class="cls-4" d="M286.11,301.34c-.22,0-.39-.17-.39-.39v-4.18c0-.22.17-.39.39-.39s.39.17.39.39v4.18c0,.22-.17.39-.39.39Z"/>
      <path class="cls-4" d="M290.2,308.52c-.22,0-.39-.17-.39-.39v-7.56c0-.22.17-.39.39-.39s.39.17.39.39v7.56c0,.22-.17.39-.39.39Z"/>
      <path class="cls-4" d="M288.46,306.99c-.22,0-.39-.17-.39-.39v-7.56c0-.22.17-.39.39-.39s.39.17.39.39v7.56c0,.22-.17.39-.39.39Z"/>
      <path class="cls-4" d="M293.89,312.03c-.21,0-.38-.16-.39-.37l-.23-5.08c0-.21.16-.4.37-.41.21,0,.4.16.41.37l.23,5.08c0,.21-.16.4-.37.41,0,0-.01,0-.02,0Z"/>
      <path class="cls-4" d="M291.78,310.34c-.21,0-.38-.16-.39-.37l-.23-2.15c0-.21.16-.4.37-.41.21,0,.4.16.41.37l.23,2.15c0,.21-.16.4-.37.41,0,0-.01,0-.02,0Z"/>
      <path class="cls-4" d="M296.41,313.61s0,0-.01,0c-.21.04-.41-.11-.45-.32l-.53-3.09c-.04-.21.11-.41.32-.45.21-.04.41.11.45.32l.53,3.09c.04.21-.1.4-.3.45Z"/>
      <path class="cls-4" d="M300.85,315.56c-.18,0-.34-.12-.38-.3l-.7-3.11c-.05-.21.08-.42.29-.47.21-.05.42.08.47.29l.7,3.11c.05.21-.08.42-.29.47-.03,0-.06,0-.09,0Z"/>
      <path class="cls-4" d="M298.81,314.97c-.18,0-.34-.12-.38-.3l-.7-3.11c-.05-.21.08-.42.29-.47.21-.05.42.08.47.29l.7,3.11c.05.21-.08.42-.29.47-.03,0-.06,0-.09,0Z"/>
      <g>
        <path class="cls-1" d="M298.51,255.2c-.83-.79-1.52-1.52-2.14-2.16-.56-.59-1.06-1.11-1.51-1.52-.05-.04-.1-.07-.16-.09-1.85-.64-2.25-.23-6.5,5.33-.51.67-1.07,1.4-1.69,2.21-5.44,6.51-9.65,8.48-12.76,8.48-1.46,0-2.68-.44-3.67-1.04l-.06-.04c-1.9-1.37-2.51-2.61-2.52-3.82,0-1,.4-2,.84-3.06l.11-.25c.96-1.92,5.77-7.67,10.2-12.91.42-.49.78-.93,1.08-1.28.08-.09.16-.18.25-.26.32-.33.65-.65,1-.95,10.57-9.3,32.88-3.69,40.42-1.8l.22.06c7.78,2.55,11.43-.62,11.58-.75l.06-.05c.14-.1,13.55-10.28,20.58-17.32.17-.18.45-.17.62,0,.18.17.18.45,0,.63-7.15,7.16-20.67,17.4-20.67,17.4,0,0-4.01,3.7-12.43.94,0,0-.02,0-.02,0-7.59-1.91-31.28-7.95-40.92,2.68-2.5,2.98-10,11.73-11.16,14,0,.01-.01.02-.02.04-.99,2.41-1.67,3.83,1.29,5.98.02.01.03.02.04.03,1.58.96,6.51,3.23,15.26-7.24,5.87-7.63,6.35-8.85,9.35-7.77.05.02.11.05.15.09,2.37,2.1,5.48,6.65,15.11,11.88,0,0,.02.01.03.02,5.17,2.45,13.35,3.29,18.76-.57.19-.14.46-.11.61.09.06.08.09.18.09.27,0,.14-.06.27-.18.35-.21.15-.44.3-.66.44-4.51,2.81-10.69,2.9-15.77,1.43-1.15-.33-2.25-.74-3.25-1.22l-.04-.02c-5.69-3.09-9.14-5.93-11.51-8.2Z"/>
        <path class="cls-1" d="M348.43,278.52c-4.71,4.14-7.07,6.26-7.24,8.63h0c-.04,1.02-.39,1.96-1.02,2.82-.94,1.21-2.3,2.42-4.61,2.42-.51,0-1.07-.04-1.71-.13-.45-.07-.93-.17-1.44-.3h0c-1.8-.49-3.96-1.45-6.44-3.26-7.53-5.47-14.72-10.75-16.54-12.09-.12-.09-.18-.22-.18-.35,0-.09.03-.19.09-.26.14-.19.42-.24.62-.09,1.65,1.21,8.8,6.48,16.53,12.08,8.08,5.85,11.77,3.02,12.98,1.46,2.88-3.92-2.37-9-4.62-10.33l-21.53-14.48h0c5.08,1.46,11.26,1.38,15.77-1.43.05.97.05,3.68-6.48,3.98-.3.02-.44.39-.21.59,2.08,1.83,7.3,6.08,12.74,8.5,3.94,1.75,8.42,1.74,12.38.04,3.53-1.53,7.79-3.86,10.62-6.4.1-.09.21-.12.33-.12.16,0,.32.08.42.23.15.22.11.52-.1.69-2.2,1.76-10.35,7.81-10.35,7.81Z"/>
        <path class="cls-1" d="M325.51,303.26c-.37-.14-.75-.31-1.13-.5-1.05-.5-2.15-1.14-3.31-1.93-7.44-5.09-16.69-11.07-18.64-12.32-.13-.08-.2-.22-.2-.37,0-.08.02-.17.07-.24.13-.21.4-.26.61-.13,1.95,1.25,11.18,7.2,18.67,12.34,8.42,5.77,11.54,2.96,12.52,2.04,3.63-3.51-.17-8.64-1.69-10.19.51.14.99.23,1.44.3,1.05,1.3,2.68,3.77,2.65,6.43-.02,1.58-.62,2.95-1.79,4.08-1.11,1.04-2.49,1.56-4.13,1.56-1.49,0-3.18-.32-5.06-1.08Z"/>
        <path class="cls-1" d="M308.88,307.53c-.35-.25-.71-.51-1.08-.76-6.51-4.6-14.21-10.08-15.95-11.32-.12-.09-.19-.22-.19-.36,0-.09.03-.18.09-.26.14-.2.42-.25.62-.1,1.95,1.39,11.46,8.16,18.38,13.03,7.74,5.45,10.9,4.02,12.76,2.34,1.86-1.73,1.69-5.71.88-7.33.39.19.76.35,1.13.5.65,2.21.47,5.74-1.41,7.48-1.04.94-2.38,1.77-4.37,1.77-2.21,0-5.22-1.02-9.5-4.03-.44-.31-.9-.63-1.36-.95Z"/>
        <path class="cls-1" d="M308.88,307.53c.63,2.72,1.25,5.77-2.5,8.05l-.09.05-.1.04c-.81.26-1.68.4-2.58.4-3.67,0-8.1-2.18-13.42-6.62-.65-.54-1.31-1.11-1.98-1.72-.1-.09-.15-.21-.15-.33,0-.11.04-.21.12-.3.16-.18.44-.19.62-.03.65.58,1.28,1.13,1.89,1.64,8.44,7.04,12.86,6.89,15.23,6.11,3.58-2.18,2.57-4.92,1.88-8.05.37.25.72.51,1.08.76Z"/>
        <path class="cls-1" d="M296.38,253.04c.62.64,1.31,1.36,2.14,2.16-1.6-.87-2.68-1.2-3.99-.73-.79.28-1.47.81-2,1.45-6.32,7.62-11.43,11.34-16.16,12.36-1.64.35-3.35.3-4.95-.17-3.63-1.05-4.16-3.25-3.89-5.55,0,1.21.62,2.44,2.52,3.82l.06.04c.99.6,2.2,1.04,3.67,1.04,3.11,0,7.33-1.97,12.76-8.48.62-.81,1.18-1.54,1.69-2.21,4.24-5.56,4.65-5.98,6.5-5.33.06.02.11.05.16.09.45.41.95.93,1.51,1.52Z"/>
        <path class="cls-1" d="M250.01,275.64l-18.8-14.26c-.19-.14-.23-.42-.09-.62.09-.12.22-.18.35-.18.09,0,.19.03.26.09l19.61,14.87c2.46-.7,5.43-2.62,10.56,1.56,1.22.91,1.99,1.81,4.92.91,1.43-.37,2.69-.58,3.91-.53,2.88.12,5.33,2.23,5.75,5.08.18,1.29.07,2.86-.67,4.7-.36.9.26,1.89,1.22,1.98,2.26.23,5.5,1.03,6.4,4.93.35,1.46.21,4.36,1.81,5.51,1.6,1.15,4.8,3.33,5.44,9.01-.61-.51-1.24-1.06-1.89-1.64-.18-.16-.46-.15-.62.03-.08.08-.12.19-.12.3,0,.12.05.25.15.33.67.61,1.34,1.18,1.98,1.72-1.76,2.55-3.97,5.23-6.71,6.2-2.2.79-4.71.17-6.33-1.52-1.24-1.3-1.48-2.8-1.62-3.94-.05-.38-.49-.55-.79-.31-2.81,2.22-5.54,1.6-7.43.81-.97-.4-1.85-1.02-2.5-1.85-.92-1.17-1.21-2.46-1.18-3.94,0-.32-.32-.53-.61-.39-.72.35-1.67.66-2.71.81-3.49.51-6.9-1.64-7.93-5.02-.58-1.9-.13-3.36.27-4.88.09-.35-.21-.67-.56-.59-2.85.6-4.76.14-6.11-1.57-2.44-3.66-1.95-7.64.42-11.41,2.48-3.11,3.7-5.1,3.59-6.21ZM285.96,307.99c2.46-2.8,1.34-4.92,0-6.43-3.8-2.18-5.09.33-5.09.33l-2.35,3.36c-.54.77-1.12,3.35.67,4.53,3.63,1.51,5.31-.39,6.76-1.79ZM279.31,300.95c4.19-4.25,2.29-7.21.67-8.84-3.8-2.68-6.04-.56-6.66.28s-4.25,5.98-5.31,7.04c-1.5,2.59-1.41,4.74-.63,6.32.33.67.97,1.14,1.71,1.27,4.51.78,7.68-2.87,10.22-6.08ZM272.54,289.65c3.36-4.61,2.67-7.86,1.02-9.66-.66-.73-1.58-1.17-2.56-1.29-4.49-.53-7.22,1.98-8.19,4.4-1.06,2.68-2.85,5.7-5.54,8.72-.58.7-.96,1.43-1.18,2.15-1.48,4.63,3.8,8.38,7.84,5.67,3.17-2.13,6.09-6.51,8.61-10ZM257.27,286.35c5.87-5.81,3.47-8.94,2.18-9.84-4.64-1.68-6.71-.06-10.01,3.19-4.19,4.92-3.33,8.82-1.62,9.9,3.08,1.96,5.54.22,9.45-3.25Z"/>
        <path class="cls-1" d="M280.97,243.84h0c-.35.3-.68.62-1,.96,0,0-5.51.41-7.18-.03-6.39-1.69-9.75-3.48-12.85-6.15,0,0-12.19-10.04-15.82-13.49-.18-.17-.18-.45,0-.63.09-.09.2-.13.32-.13.11,0,.22.04.3.12,3.56,3.39,15.64,13.35,15.77,13.45,2.76,2.39,5.81,4.21,12.52,5.98,1.25.33,6.49.04,7.95-.07Z"/>
      </g>
    </g>
  </g>
</svg>