<?xml version="1.0" encoding="UTF-8"?>
<svg id="Layer_1" data-name="Layer 1" xmlns="http://www.w3.org/2000/svg" viewBox="0 0 400 352">
  <defs>
    <style>
      .cls-1 {
        fill: #101011;
      }

      .cls-2 {
        fill: #fff;
      }

      .cls-3 {
        fill: #009193;
      }

      .cls-4 {
        fill: #fffffd;
      }

      .cls-5 {
        fill: #fafdfc;
      }

      .cls-6 {
        fill: #013737;
      }

      .cls-7 {
        fill: #00b7b9;
      }

      .cls-8 {
        fill: #0c0c0c;
      }
    </style>
  </defs>
  <rect class="cls-6" y="3.13" width="400" height="173"/>
  <rect class="cls-2" y="175.87" width="400" height="173"/>
  <g>
    <g>
      <path class="cls-5" d="M207.08,74.77c.71.74.71,1.93-.03,2.64-6.43,6.32-15.4,9.97-25.21,9.2-15.83-1.25-28.58-14.21-29.81-30.29-1.47-19.36,13.65-35.59,32.43-35.59,7.39,0,14.2,2.51,19.66,6.73.88.67.94,1.99.17,2.78-.65.65-1.67.72-2.39.16-5.23-4.02-11.83-6.29-18.97-5.91-14.78.79-26.72,13.06-27.29,28.08-.65,16.7,12.51,30.43,28.83,30.43,7.8,0,14.86-3.13,20.06-8.23.35-.35.81-.53,1.27-.53s.93.18,1.29.54Z"/>
      <path class="cls-3" d="M208.55,73.3c.71.74.71,1.93-.03,2.64-6.43,6.32-15.4,9.97-25.21,9.2-15.83-1.25-28.58-14.21-29.81-30.29-1.47-19.36,13.65-35.59,32.43-35.59,7.39,0,14.2,2.51,19.66,6.73.88.67.94,1.99.17,2.78-.65.65-1.67.72-2.39.16-5.23-4.02-11.83-6.29-18.97-5.91-14.78.79-26.72,13.06-27.29,28.08-.65,16.7,12.51,30.43,28.83,30.43,7.8,0,14.86-3.13,20.06-8.23.35-.35.81-.53,1.27-.53s.93.18,1.29.54Z"/>
    </g>
    <g>
      <path class="cls-7" d="M75.13,74.77c.72.74.72,1.93-.01,2.64-6.43,6.32-15.42,9.97-25.21,9.2-15.83-1.25-28.58-14.21-29.81-30.29-1.47-19.36,13.65-35.59,32.43-35.59,7.37,0,14.19,2.51,19.66,6.73.88.67.94,1.99.17,2.78-.65.65-1.67.72-2.39.16-5.23-4.02-11.83-6.29-18.97-5.91-14.78.79-26.72,13.06-27.29,28.08-.65,16.7,12.51,30.43,28.83,30.43,7.79,0,14.86-3.13,20.06-8.23.35-.35.81-.53,1.27-.53s.93.18,1.28.54Z"/>
      <path class="cls-4" d="M76.6,73.3c.72.74.72,1.93-.01,2.64-6.43,6.32-15.42,9.97-25.21,9.2-15.83-1.25-28.58-14.21-29.81-30.29-1.47-19.36,13.65-35.59,32.43-35.59,7.37,0,14.19,2.51,19.66,6.73.88.67.94,1.99.17,2.78-.65.65-1.67.72-2.39.16-5.23-4.02-11.83-6.29-18.97-5.91-14.78.79-26.72,13.06-27.29,28.08-.65,16.7,12.51,30.43,28.83,30.43,7.79,0,14.86-3.13,20.06-8.23.35-.35.81-.53,1.27-.53s.93.18,1.28.54Z"/>
    </g>
    <g>
      <path class="cls-7" d="M120.05,83.05c1.02,0,1.84.81,1.84,1.82s-.81,1.84-1.84,1.84h-30.42c-.41,0-.74-.34-.74-.74V22.54c0-1.01.81-1.82,1.84-1.82s1.82.81,1.82,1.82v59.75c0,.41.34.75.75.75h26.75Z"/>
      <path class="cls-4" d="M121.52,81.58c1.02,0,1.84.81,1.84,1.82s-.81,1.84-1.84,1.84h-30.42c-.41,0-.74-.34-.74-.74V21.08c0-1.01.81-1.82,1.84-1.82s1.82.81,1.82,1.82v59.75c0,.41.34.75.75.75h26.75Z"/>
    </g>
    <g>
      <path class="cls-7" d="M138.75,22.54v62.33c0,1.02-.83,1.84-1.84,1.84s-1.84-.81-1.84-1.84V22.54c0-1.01.83-1.82,1.84-1.82s1.84.81,1.84,1.82Z"/>
      <path class="cls-4" d="M140.22,21.08v62.33c0,1.02-.83,1.84-1.84,1.84s-1.84-.81-1.84-1.84V21.08c0-1.01.83-1.82,1.84-1.82s1.84.81,1.84,1.82Z"/>
    </g>
    <g>
      <path class="cls-7" d="M378.53,51.1v5.21c0,14.96-12.21,27.16-26.46,29.84-1.82.35-3.69.45-5.54.47l-11.24.04h-.03c-1.01,0-1.82-.83-1.82-1.82s.81-1.84,1.82-1.84l11.23-.05c1.95,0,3.51-.13,4.89-.39,13.39-2.51,23.49-13.8,23.49-26.24v-5.21c0-12.44-10.1-23.72-23.49-26.23-1.38-.26-2.94-.39-4.89-.39l-17.82-.08c-.4-.01-.72.31-.72.71v59.75c0,1.01-.81,1.82-1.82,1.82-1.02.01-1.85-.81-1.85-1.82V21.43c0-.39.32-.71.72-.71l21.53.09c1.85.01,3.71.12,5.54.45,14.25,2.69,26.46,14.87,26.46,29.84Z"/>
      <path class="cls-4" d="M380,49.63v5.21c0,14.96-12.21,27.16-26.46,29.84-1.82.35-3.69.45-5.54.47l-11.24.04h-.03c-1.01,0-1.82-.83-1.82-1.82s.81-1.84,1.82-1.84l11.23-.05c1.95,0,3.51-.13,4.89-.39,13.39-2.51,23.49-13.8,23.49-26.24v-5.21c0-12.44-10.1-23.72-23.49-26.23-1.38-.26-2.94-.39-4.89-.39l-17.82-.08c-.4-.01-.72.31-.72.71v59.75c0,1.01-.81,1.82-1.82,1.82-1.02.01-1.85-.81-1.85-1.82V19.96c0-.39.32-.71.72-.71l21.53.09c1.85.01,3.71.12,5.54.45,14.25,2.69,26.46,14.87,26.46,29.84Z"/>
    </g>
    <g>
      <g>
        <path class="cls-7" d="M309.25,20.72c1.01,0,1.82.81,1.82,1.82s-.81,1.84-1.82,1.84h-26.76c-.41,0-.74.34-.74.74v57.18c0,.41.32.75.74.75h26.76c1.01,0,1.82.81,1.82,1.82s-.81,1.84-1.82,1.84h-30.42c-.41,0-.75-.34-.75-.74V21.46c0-.41.34-.74.75-.74h30.42Z"/>
        <path class="cls-7" d="M307.19,58.32c1.14,0,2.06.81,2.06,1.82s-.92,1.84-2.06,1.84h-17.9c-1.13,0-2.04-.81-2.04-1.84s.92-1.82,2.04-1.82h17.9Z"/>
      </g>
      <g>
        <path class="cls-4" d="M310.71,19.25c1.01,0,1.82.81,1.82,1.82s-.81,1.84-1.82,1.84h-26.76c-.41,0-.74.34-.74.74v57.18c0,.41.32.75.74.75h26.76c1.01,0,1.82.81,1.82,1.82s-.81,1.84-1.82,1.84h-30.42c-.41,0-.75-.34-.75-.74V19.99c0-.41.34-.74.75-.74h30.42Z"/>
        <path class="cls-4" d="M308.66,56.85c1.14,0,2.06.81,2.06,1.82s-.92,1.84-2.06,1.84h-17.9c-1.13,0-2.04-.81-2.04-1.84s.92-1.82,2.04-1.82h17.9Z"/>
      </g>
    </g>
    <g>
      <g>
        <path class="cls-7" d="M264.34,22.01c.36.36.54.83.54,1.29s-.18.93-.54,1.29l-28.83,28.83c-.18.19-.18.49,0,.69l28.83,28.82c.72.72.72,1.89,0,2.6-.36.35-.83.53-1.29.53s-.93-.18-1.29-.53l-31.43-31.43c-.18-.18-.18-.49,0-.67l31.43-31.42c.71-.72,1.88-.72,2.59,0Z"/>
        <path class="cls-7" d="M224.49,22.54v62.33c0,1.02-.83,1.84-1.84,1.84s-1.84-.81-1.84-1.84V22.54c0-1.01.83-1.82,1.84-1.82s1.84.81,1.84,1.82Z"/>
      </g>
      <g>
        <path class="cls-4" d="M265.81,20.54c.36.36.54.83.54,1.29s-.18.93-.54,1.29l-28.83,28.83c-.18.19-.18.49,0,.69l28.83,28.82c.72.72.72,1.89,0,2.6-.36.35-.83.53-1.29.53s-.93-.18-1.29-.53l-31.43-31.43c-.18-.18-.18-.49,0-.67l31.43-31.42c.71-.72,1.88-.72,2.59,0Z"/>
        <path class="cls-4" d="M225.96,21.08v62.33c0,1.02-.83,1.84-1.84,1.84s-1.84-.81-1.84-1.84V21.08c0-1.01.83-1.82,1.84-1.82s1.84.81,1.84,1.82Z"/>
      </g>
    </g>
    <g>
      <g>
        <g>
          <path class="cls-5" d="M264.36,111.22c10.95,3.44,18.68,14.24,17.34,26.58-1.25,11.64-10.72,20.98-22.38,22.1-9.8.93-18.61-3.84-23.46-11.39-.21-.31-.3-.66-.3-1.01,0-.58.28-1.15.8-1.51.84-.58,2-.34,2.56.53,4.22,6.58,11.96,10.7,20.56,9.67,9.66-1.15,17.43-8.95,18.55-18.61,1.22-10.59-5.33-19.85-14.68-22.84-.76-.23-1.29-.91-1.29-1.69v-.12c0-1.19,1.15-2.07,2.29-1.71Z"/>
          <path class="cls-5" d="M275.75,97.7c.39,0,.54.5.23.72l-24.47,17.23c-.79.56-1.88.4-2.48-.34-.28-.35-.41-.75-.41-1.16,0-.57.27-1.14.78-1.5l15.02-10.57c.32-.22.16-.72-.23-.72h-22.28c-1.02,0-1.84-.81-1.84-1.82s.81-1.84,1.84-1.84h33.86Z"/>
        </g>
        <g>
          <path class="cls-3" d="M265.82,109.75c10.95,3.44,18.68,14.24,17.34,26.58-1.25,11.64-10.72,20.98-22.38,22.1-9.8.93-18.61-3.84-23.46-11.39-.21-.31-.3-.66-.3-1.01,0-.58.28-1.15.8-1.51.84-.58,2-.34,2.56.53,4.22,6.58,11.96,10.7,20.56,9.67,9.66-1.15,17.43-8.95,18.55-18.61,1.22-10.59-5.33-19.85-14.68-22.84-.76-.23-1.29-.91-1.29-1.69v-.12c0-1.19,1.15-2.07,2.29-1.71Z"/>
          <path class="cls-3" d="M277.22,96.23c.39,0,.54.5.23.72l-24.47,17.23c-.79.56-1.88.4-2.48-.34-.28-.35-.41-.75-.41-1.16,0-.57.27-1.14.78-1.5l15.02-10.57c.32-.22.16-.72-.23-.72h-22.28c-1.02,0-1.84-.81-1.84-1.82s.81-1.84,1.84-1.84h33.86Z"/>
        </g>
      </g>
      <g>
        <g>
          <path class="cls-5" d="M378.4,135.31c1.41,12.57-8.45,23.27-20.75,23.27-1.91,0-3.76-.26-5.52-.74h-.05c-6.96-1.77-14.41-8.55-20.44-18.6-3.93-6.74-7.89-11.9-11.5-14.94l-.03-.03c-3.52-2.83-8.19-4.32-13.21-3.63-7.7,1.03-13.85,7.36-14.71,15.09-1.15,10.39,6.96,19.18,17.11,19.18,5.72,0,10.79-2.79,13.92-7.09.69-.93,2-1.07,2.81-.25.35.35.53.81.53,1.28,0,.38-.13.76-.36,1.1-4.16,5.72-11.16,9.25-18.91,8.52-9.6-.91-17.49-8.52-18.7-18.08-.87-6.82,1.59-13.11,5.98-17.49l.14-.17,19.21-23.49c.69-.84,1.95-.91,2.72-.14.35.36.53.83.53,1.31,0,.4-.13.81-.41,1.15l-13.04,15.91s0,.08.05.06c1.77-.48,3.62-.75,5.55-.75,4.99,0,9.58,1.77,13.18,4.69v.03c1.77,1.49,6.34,5.64,12.29,15.84,5.29,8.81,12,15.34,18.16,16.89l.05.03c2.22.62,4.63.8,7.11.47,7.68-1.07,13.8-7.39,14.65-15.09,1.15-10.39-6.96-19.18-17.11-19.18-6.29,0-11.78,3.36-14.78,8.39-.57.93-1.8,1.22-2.68.57-.48-.36-.75-.92-.75-1.47,0-.34.09-.66.27-.96,4.04-6.74,11.74-11.03,20.34-10.06,9.56,1.07,17.28,8.81,18.34,18.37Z"/>
          <path class="cls-5" d="M369.07,97.7c1.01,0,1.82.81,1.82,1.84s-.81,1.82-1.82,1.82h-26.76c-.41,0-.74.34-.74.75v13.15c0,1.01-.83,1.84-1.84,1.84s-1.84-.83-1.84-1.84v-16.83c0-.4.34-.74.74-.74h30.43Z"/>
        </g>
        <g>
          <path class="cls-3" d="M379.86,133.84c1.41,12.57-8.45,23.27-20.75,23.27-1.91,0-3.76-.26-5.52-.74h-.05c-6.96-1.77-14.41-8.55-20.44-18.6-3.93-6.74-7.89-11.9-11.5-14.94l-.03-.03c-3.52-2.83-8.19-4.32-13.21-3.63-7.7,1.03-13.85,7.36-14.71,15.09-1.15,10.39,6.96,19.18,17.11,19.18,5.72,0,10.79-2.79,13.92-7.09.69-.93,2-1.07,2.81-.25.35.35.53.81.53,1.28,0,.38-.13.76-.36,1.1-4.16,5.72-11.16,9.25-18.91,8.52-9.6-.91-17.49-8.52-18.7-18.08-.87-6.82,1.59-13.11,5.98-17.49l.14-.17,19.21-23.49c.69-.84,1.95-.91,2.72-.14.35.36.53.83.53,1.31,0,.4-.13.81-.41,1.15l-13.04,15.91s0,.08.05.06c1.77-.48,3.62-.75,5.55-.75,4.99,0,9.58,1.77,13.18,4.69v.03c1.77,1.49,6.34,5.64,12.29,15.84,5.29,8.81,12,15.34,18.16,16.89l.05.03c2.22.62,4.63.8,7.11.47,7.68-1.07,13.8-7.39,14.65-15.09,1.15-10.39-6.96-19.18-17.11-19.18-6.29,0-11.78,3.36-14.78,8.39-.57.93-1.8,1.22-2.68.57-.48-.36-.75-.92-.75-1.47,0-.34.09-.66.27-.96,4.04-6.74,11.74-11.03,20.34-10.06,9.56,1.07,17.28,8.81,18.34,18.37Z"/>
          <path class="cls-3" d="M370.54,96.23c1.01,0,1.82.81,1.82,1.84s-.81,1.82-1.82,1.82h-26.76c-.41,0-.74.34-.74.75v13.15c0,1.01-.83,1.84-1.84,1.84s-1.84-.83-1.84-1.84v-16.83c0-.4.34-.74.74-.74h30.43Z"/>
        </g>
      </g>
    </g>
  </g>
  <g>
    <g>
      <path class="cls-7" d="M207.07,247.5c.72.74.72,1.93-.01,2.65-6.43,6.31-15.42,9.97-25.21,9.18-15.84-1.25-28.58-14.2-29.81-30.28-1.47-19.37,13.65-35.61,32.42-35.61,7.37,0,14.19,2.51,19.66,6.74.87.67.94,1.98.17,2.77-.65.66-1.67.72-2.39.17-5.23-4.02-11.83-6.29-18.97-5.91-14.78.78-26.72,13.06-27.3,28.07-.63,16.7,12.52,30.45,28.84,30.45,7.79,0,14.86-3.14,20.05-8.24.36-.35.83-.52,1.28-.52s.93.17,1.28.53Z"/>
      <path class="cls-8" d="M208.54,246.03c.72.74.72,1.93-.01,2.65-6.43,6.31-15.42,9.97-25.21,9.18-15.84-1.25-28.58-14.2-29.81-30.28-1.47-19.37,13.65-35.61,32.42-35.61,7.37,0,14.19,2.51,19.66,6.74.87.67.94,1.98.17,2.77-.65.66-1.67.72-2.39.17-5.23-4.02-11.83-6.29-18.97-5.91-14.78.78-26.72,13.06-27.3,28.07-.63,16.7,12.52,30.45,28.84,30.45,7.79,0,14.86-3.14,20.05-8.24.36-.35.83-.52,1.28-.52s.93.17,1.28.53Z"/>
    </g>
    <g>
      <path class="cls-1" d="M75.13,247.5c.72.74.71,1.93-.01,2.65-6.43,6.31-15.42,9.97-25.21,9.18-15.84-1.25-28.6-14.2-29.81-30.28-1.47-19.37,13.63-35.61,32.41-35.61,7.39,0,14.2,2.51,19.67,6.74.87.67.94,1.98.17,2.77-.65.66-1.67.72-2.39.17-5.23-4.02-11.83-6.29-18.99-5.91-14.78.78-26.71,13.06-27.29,28.07-.63,16.7,12.52,30.45,28.83,30.45,7.8,0,14.87-3.14,20.06-8.24.36-.35.83-.52,1.28-.52s.93.17,1.28.53Z"/>
      <path class="cls-3" d="M76.6,246.03c.72.74.71,1.93-.01,2.65-6.43,6.31-15.42,9.97-25.21,9.18-15.84-1.25-28.6-14.2-29.81-30.28-1.47-19.37,13.63-35.61,32.41-35.61,7.39,0,14.2,2.51,19.67,6.74.87.67.94,1.98.17,2.77-.65.66-1.67.72-2.39.17-5.23-4.02-11.83-6.29-18.99-5.91-14.78.78-26.71,13.06-27.29,28.07-.63,16.7,12.52,30.45,28.83,30.45,7.8,0,14.87-3.14,20.06-8.24.36-.35.83-.52,1.28-.52s.93.17,1.28.53Z"/>
    </g>
    <g>
      <path class="cls-1" d="M120.05,255.78c1.01,0,1.84.81,1.84,1.84s-.83,1.82-1.84,1.82h-30.42c-.41,0-.74-.32-.74-.74v-63.41c0-1.02.81-1.84,1.82-1.84s1.84.83,1.84,1.84v59.75c0,.4.34.74.74.74h26.76Z"/>
      <path class="cls-3" d="M121.52,254.31c1.01,0,1.84.81,1.84,1.84s-.83,1.82-1.84,1.82h-30.42c-.41,0-.74-.32-.74-.74v-63.41c0-1.02.81-1.84,1.82-1.84s1.84.83,1.84,1.84v59.75c0,.4.34.74.74.74h26.76Z"/>
    </g>
    <g>
      <path class="cls-1" d="M138.74,195.29v62.33c0,1.01-.81,1.82-1.84,1.82s-1.82-.81-1.82-1.82v-62.33c0-1.01.81-1.84,1.82-1.84s1.84.83,1.84,1.84Z"/>
      <path class="cls-3" d="M140.21,193.82v62.33c0,1.01-.81,1.82-1.84,1.82s-1.82-.81-1.82-1.82v-62.33c0-1.01.81-1.84,1.82-1.84s1.84.83,1.84,1.84Z"/>
    </g>
    <g>
      <path class="cls-1" d="M378.53,223.85v5.21c0,14.96-12.21,27.15-26.46,29.84-1.82.34-3.69.44-5.55.45l-11.24.05c-1.01,0-1.84-.81-1.84-1.84s.81-1.82,1.82-1.84l11.23-.04c1.95-.01,3.51-.14,4.89-.4,13.39-2.51,23.47-13.79,23.47-26.23v-5.21c0-12.44-10.09-23.72-23.47-26.24-1.38-.26-2.94-.39-4.89-.39l-17.84-.08c-.39,0-.71.32-.71.71v59.75c-.01,1.01-.83,1.82-1.84,1.84-1.01,0-1.84-.81-1.84-1.84v-63.43c0-.4.32-.72.72-.72l21.52.09c1.86.01,3.72.12,5.55.47,14.25,2.68,26.46,14.87,26.46,29.84Z"/>
      <path class="cls-3" d="M380,222.38v5.21c0,14.96-12.21,27.15-26.46,29.84-1.82.34-3.69.44-5.55.45l-11.24.05c-1.01,0-1.84-.81-1.84-1.84s.81-1.82,1.82-1.84l11.23-.04c1.95-.01,3.51-.14,4.89-.4,13.39-2.51,23.47-13.79,23.47-26.23v-5.21c0-12.44-10.09-23.72-23.47-26.24-1.38-.26-2.94-.39-4.89-.39l-17.84-.08c-.39,0-.71.32-.71.71v59.75c-.01,1.01-.83,1.82-1.84,1.84-1.01,0-1.84-.81-1.84-1.84v-63.43c0-.4.32-.72.72-.72l21.52.09c1.86.01,3.72.12,5.55.47,14.25,2.68,26.46,14.87,26.46,29.84Z"/>
    </g>
    <g>
      <g>
        <path class="cls-1" d="M309.23,193.45c1.02,0,1.84.81,1.84,1.84s-.81,1.84-1.84,1.84h-26.75c-.41,0-.75.32-.75.74v57.18c0,.4.34.74.75.74h26.75c1.02,0,1.84.81,1.84,1.84s-.81,1.82-1.84,1.82h-30.42c-.4,0-.74-.32-.74-.74v-64.51c0-.4.34-.74.74-.74h30.42Z"/>
        <path class="cls-1" d="M307.19,231.05c1.13,0,2.04.83,2.04,1.84s-.92,1.84-2.04,1.84h-17.9c-1.13,0-2.04-.83-2.04-1.84s.92-1.84,2.04-1.84h17.9Z"/>
      </g>
      <g>
        <path class="cls-3" d="M310.7,191.98c1.02,0,1.84.81,1.84,1.84s-.81,1.84-1.84,1.84h-26.75c-.41,0-.75.32-.75.74v57.18c0,.4.34.74.75.74h26.75c1.02,0,1.84.81,1.84,1.84s-.81,1.82-1.84,1.82h-30.42c-.4,0-.74-.32-.74-.74v-64.51c0-.4.34-.74.74-.74h30.42Z"/>
        <path class="cls-3" d="M308.66,229.58c1.13,0,2.04.83,2.04,1.84s-.92,1.84-2.04,1.84h-17.9c-1.13,0-2.04-.83-2.04-1.84s.92-1.84,2.04-1.84h17.9Z"/>
      </g>
    </g>
    <g>
      <g>
        <path class="cls-1" d="M264.34,194.74c.35.36.53.83.53,1.29s-.18.94-.53,1.31l-28.83,28.83c-.19.18-.19.49,0,.67l28.83,28.83c.71.71.71,1.88,0,2.59-.35.36-.83.54-1.29.54s-.94-.18-1.29-.54l-31.43-31.42c-.19-.19-.19-.5,0-.69l31.43-31.42c.71-.71,1.88-.71,2.59,0Z"/>
        <path class="cls-1" d="M224.48,195.29v62.33c0,1.01-.81,1.82-1.82,1.82s-1.84-.81-1.84-1.82v-62.33c0-1.01.81-1.84,1.84-1.84s1.82.83,1.82,1.84Z"/>
      </g>
      <g>
        <path class="cls-3" d="M265.81,193.28c.35.36.53.83.53,1.29s-.18.94-.53,1.31l-28.83,28.83c-.19.18-.19.49,0,.67l28.83,28.83c.71.71.71,1.88,0,2.59-.35.36-.83.54-1.29.54s-.94-.18-1.29-.54l-31.43-31.42c-.19-.19-.19-.5,0-.69l31.43-31.42c.71-.71,1.88-.71,2.59,0Z"/>
        <path class="cls-3" d="M225.95,193.82v62.33c0,1.01-.81,1.82-1.82,1.82s-1.84-.81-1.84-1.82v-62.33c0-1.01.81-1.84,1.84-1.84s1.82.83,1.82,1.84Z"/>
      </g>
    </g>
    <g>
      <g>
        <g>
          <path class="cls-7" d="M264.36,283.95c10.95,3.45,18.68,14.25,17.34,26.58-1.25,11.64-10.72,20.99-22.38,22.1-9.82.94-18.62-3.84-23.47-11.39-.19-.31-.28-.65-.28-1,0-.58.27-1.16.79-1.51.85-.58,2-.35,2.56.52,4.22,6.6,11.96,10.71,20.58,9.69,9.65-1.15,17.42-8.96,18.55-18.62,1.22-10.58-5.33-19.85-14.69-22.83-.75-.25-1.28-.92-1.28-1.71v-.1c-.01-1.2,1.15-2.07,2.29-1.72Z"/>
          <path class="cls-7" d="M275.75,270.43c.39,0,.54.5.22.72l-24.47,17.23c-.79.56-1.86.41-2.47-.34-.28-.35-.41-.75-.41-1.16,0-.57.27-1.13.78-1.49l15.02-10.57c.31-.23.16-.72-.23-.72h-22.3c-1.01,0-1.84-.83-1.84-1.84s.83-1.84,1.84-1.84h33.87Z"/>
        </g>
        <g>
          <path class="cls-8" d="M265.82,282.48c10.95,3.45,18.68,14.25,17.34,26.58-1.25,11.64-10.72,20.99-22.38,22.1-9.82.94-18.62-3.84-23.47-11.39-.19-.31-.28-.65-.28-1,0-.58.27-1.16.79-1.51.85-.58,2-.35,2.56.52,4.22,6.6,11.96,10.71,20.58,9.69,9.65-1.15,17.42-8.96,18.55-18.62,1.22-10.58-5.33-19.85-14.69-22.83-.75-.25-1.28-.92-1.28-1.71v-.1c-.01-1.2,1.15-2.07,2.29-1.72Z"/>
          <path class="cls-8" d="M277.22,268.97c.39,0,.54.5.22.72l-24.47,17.23c-.79.56-1.86.41-2.47-.34-.28-.35-.41-.75-.41-1.16,0-.57.27-1.13.78-1.49l15.02-10.57c.31-.23.16-.72-.23-.72h-22.3c-1.01,0-1.84-.83-1.84-1.84s.83-1.84,1.84-1.84h33.87Z"/>
        </g>
      </g>
      <g>
        <g>
          <path class="cls-7" d="M378.4,308.04c1.41,12.58-8.45,23.28-20.75,23.28-1.91,0-3.76-.26-5.52-.75h-.05c-6.96-1.77-14.41-8.54-20.44-18.59-3.93-6.75-7.9-11.91-11.5-14.94l-.03-.03c-3.53-2.85-8.19-4.32-13.21-3.65-7.7,1.03-13.85,7.37-14.71,15.09-1.15,10.39,6.95,19.18,17.11,19.18,5.72,0,10.79-2.79,13.92-7.09.67-.92,2-1.06,2.81-.25.35.35.53.81.53,1.29,0,.38-.13.76-.36,1.09-4.16,5.73-11.16,9.26-18.92,8.52-9.58-.91-17.47-8.51-18.69-18.07-.87-6.83,1.59-13.13,5.96-17.5l.16-.17,19.21-23.49c.69-.83,1.94-.89,2.72-.13.35.35.53.81.53,1.28,0,.41-.14.83-.41,1.16l-13.04,15.91s0,.09.05.08c1.76-.49,3.62-.75,5.55-.75,4.99,0,9.57,1.76,13.17,4.69h.03c1.76,1.5,6.32,5.65,12.27,15.86,5.29,8.82,12,15.34,18.16,16.9h.05c2.22.63,4.63.83,7.11.48,7.68-1.06,13.8-7.39,14.65-15.09,1.14-10.39-6.96-19.18-17.11-19.18-6.29,0-11.78,3.36-14.8,8.39-.56.94-1.78,1.23-2.66.57-.48-.35-.75-.91-.75-1.47,0-.32.09-.66.27-.96,4.02-6.74,11.74-11.02,20.34-10.06,9.56,1.09,17.28,8.81,18.34,18.37Z"/>
          <path class="cls-7" d="M370.89,272.27c0,1.01-.81,1.84-1.84,1.84h-26.75c-.41,0-.75.32-.75.74v13.17c0,1.01-.81,1.82-1.82,1.82s-1.84-.81-1.84-1.82v-16.83c0-.41.32-.75.74-.75h30.42c1.01,0,1.84.83,1.84,1.84Z"/>
        </g>
        <g>
          <path class="cls-8" d="M379.86,306.58c1.41,12.58-8.45,23.28-20.75,23.28-1.91,0-3.76-.26-5.52-.75h-.05c-6.96-1.77-14.41-8.54-20.44-18.59-3.93-6.75-7.9-11.91-11.5-14.94l-.03-.03c-3.53-2.85-8.19-4.32-13.21-3.65-7.7,1.03-13.85,7.37-14.71,15.09-1.15,10.39,6.95,19.18,17.11,19.18,5.72,0,10.79-2.79,13.92-7.09.67-.92,2-1.06,2.81-.25.35.35.53.81.53,1.29,0,.38-.13.76-.36,1.09-4.16,5.73-11.16,9.26-18.92,8.52-9.58-.91-17.47-8.51-18.69-18.07-.87-6.83,1.59-13.13,5.96-17.5l.16-.17,19.21-23.49c.69-.83,1.94-.89,2.72-.13.35.35.53.81.53,1.28,0,.41-.14.83-.41,1.16l-13.04,15.91s0,.09.05.08c1.76-.49,3.62-.75,5.55-.75,4.99,0,9.57,1.76,13.17,4.69h.03c1.76,1.5,6.32,5.65,12.27,15.86,5.29,8.82,12,15.34,18.16,16.9h.05c2.22.63,4.63.83,7.11.48,7.68-1.06,13.8-7.39,14.65-15.09,1.14-10.39-6.96-19.18-17.11-19.18-6.29,0-11.78,3.36-14.8,8.39-.56.94-1.78,1.23-2.66.57-.48-.35-.75-.91-.75-1.47,0-.32.09-.66.27-.96,4.02-6.74,11.74-11.02,20.34-10.06,9.56,1.09,17.28,8.81,18.34,18.37Z"/>
          <path class="cls-8" d="M372.36,270.8c0,1.01-.81,1.84-1.84,1.84h-26.75c-.41,0-.75.32-.75.74v13.17c0,1.01-.81,1.82-1.82,1.82s-1.84-.81-1.84-1.82v-16.83c0-.41.32-.75.74-.75h30.42c1.01,0,1.84.83,1.84,1.84Z"/>
        </g>
      </g>
    </g>
  </g>
</svg>