<?xml version="1.0" encoding="UTF-8"?><svg id="a" xmlns="http://www.w3.org/2000/svg" xmlns:xlink="http://www.w3.org/1999/xlink" viewBox="0 0 46.51 50"><defs><style>.c{fill:url(#b);}</style><linearGradient id="b" x1="0" y1="25" x2="46.51" y2="25" gradientUnits="userSpaceOnUse"><stop offset="0" stop-color="#94a3b7"/><stop offset="1" stop-color="#65748b"/></linearGradient></defs><path class="c" d="M36.35,20.1c2.21,0,4.01,1.8,4.01,4.01s-1.8,4.01-4.01,4.01-4.01-1.8-4.01-4.01,1.8-4.01,4.01-4.01ZM39.65,24.1c0-1.82-1.48-3.3-3.3-3.3s-3.3,1.48-3.3,3.3,1.48,3.3,3.3,3.3,3.3-1.48,3.3-3.3ZM18.73,13.82c-.19,0-.35.16-.35.35s.16.35.35.35h12.04c.19,0,.35-.16.35-.35s-.16-.35-.35-.35h-12.04ZM18.73,39.25c-.19,0-.35.16-.35.35s.16.35.35.35h6.82c.19,0,.35-.16.35-.35s-.16-.35-.35-.35h-6.82ZM18.73,34.94c-.19,0-.35.16-.35.35s.16.35.35.35h12.04c.19,0,.35-.16.35-.35s-.16-.35-.35-.35h-12.04ZM15.02,34.28v6.35c0,.19-.16.35-.35.35h-6.36c-.19,0-.35-.16-.35-.35v-6.35c0-.19.16-.35.35-.35h6.36c.19,0,.35.16.35.35ZM14.31,40.28v-5.65h-5.65v5.65h5.65ZM16.14,24.13c.13.15.11.37-.04.5l-1.09.91v4.44c0,.19-.15.35-.34.35h-6.36c-.19,0-.35-.16-.35-.35v-6.36c0-.19.16-.35.35-.35h6.36c.19,0,.35.16.35.35v.99s.62-.52.62-.52c.15-.13.37-.11.5.04ZM14.31,29.63v-3.47s-2.28,1.92-2.28,1.92c-.06.05-.14.08-.23.08h-.08c-.09,0-.18-.04-.25-.1l-1.35-1.35c-.14-.14-.14-.36,0-.5.14-.14.36-.14.5,0l1.16,1.16,2.54-2.14v-1.26h-5.66v5.65h5.65ZM16.14,13.5c.13.15.11.37-.04.5l-1.09.91v4.41c0,.19-.15.35-.35.35h-6.36c-.19,0-.35-.16-.35-.35v-6.35c0-.2.16-.35.35-.35h6.36c.19,0,.35.16.35.35v1.01s.62-.51.62-.51c.15-.13.37-.11.5.04ZM14.31,18.96v-3.45s-2.28,1.93-2.28,1.93c-.06.05-.14.08-.23.08h-.08c-.09,0-.18-.04-.25-.1l-1.35-1.35c-.14-.14-.14-.36,0-.5.14-.14.36-.14.5,0l1.16,1.16,2.54-2.15v-1.27h-5.65v5.65h5.65ZM46.51,22.4v3.81c0,.17-.13.32-.3.35l-1.93.29-.53,1.23,1.15,1.73c.09.14.07.33-.05.45l-2.59,2.54c-.12.11-.29.13-.43.05l-1.92-1.19-1.11.54-.36,1.87h0v11.66c0,2.36-1.91,4.27-4.27,4.27H4.27c-2.36,0-4.27-1.91-4.27-4.27V8.29c0-2.36,1.91-4.27,4.27-4.27h6.3v-1.3c0-.19.16-.35.35-.35h4.18c.29-1.36,2-2.37,4.13-2.37s3.84,1.01,4.13,2.37h4.04c.2,0,.35.16.35.35v1.3h6.42c2.36,0,4.27,1.91,4.27,4.27v6.29l.36,1.84,1.11.54,1.92-1.19c.14-.09.32-.07.43.05l2.59,2.54c.12.12.14.31.05.45l-1.15,1.73.53,1.23,1.93.29c.17.03.3.17.3.35ZM45.8,25.91v-3.21l-1.82-.28c-.12-.02-.22-.1-.27-.21l-.68-1.58c-.05-.11-.04-.24.03-.34l1.1-1.65-2.18-2.14-1.85,1.15c-.1.06-.23.07-.34.02l-1.44-.71c-.1-.05-.17-.14-.19-.25l-.38-1.99h-2.8l-.38,1.99c-.02.11-.09.2-.19.25l-1.44.71c-.11.05-.24.05-.34-.02l-1.79-1.11s-.08-.02-.11.01l-2.08,2.04s-.04.08-.01.11l1.06,1.59c.07.1.08.23.03.34l-.68,1.58c-.05.11-.15.19-.27.21l-1.82.28v3.21l1.82.28c.12.02.22.1.27.21l.68,1.58c.05.11.04.24-.03.34l-1.1,1.65,2.18,2.14,1.85-1.15c.1-.06.23-.07.34-.02l1.44.71c.1.05.17.14.19.25l.38,1.99h2.8l.38-1.99c.02-.11.09-.2.19-.25l1.44-.71c.11-.05.24-.05.34.02l1.85,1.15,2.18-2.14-1.1-1.65c-.07-.1-.08-.23-.03-.34l.68-1.58c.05-.11.15-.19.27-.21l1.82-.28ZM37.75,45.73v-11.14h-2.38v5.53c0,.09-.05.17-.1.23l-6.36,6.35c-.07.07-.16.1-.25.1H4.92c-1,0-1.82-.81-1.82-1.82V8.62c0-1,.81-1.82,1.82-1.82h5.65v-2.08h-6.3c-1.96,0-3.56,1.6-3.56,3.56v37.45c0,1.96,1.6,3.56,3.56,3.56h29.92c1.96,0,3.56-1.6,3.56-3.56ZM37.75,14.03v-5.74c0-1.96-1.6-3.56-3.56-3.56h-6.42v2.08h5.79c1,0,1.82.82,1.82,1.82v5.41h2.38ZM34.66,39.67v-5.08c-.17,0-.3-.12-.33-.29l-.4-2.11-1.1-.54-1.92,1.19c-.14.09-.32.07-.43-.05l-2.59-2.54c-.12-.12-.14-.31-.05-.45l.48-.73h-9.58c-.19,0-.35-.15-.35-.35s.16-.35.35-.35h10.06l.2-.3-.53-1.23-1.93-.29c-.17-.03-.3-.17-.3-.35v-1.13h-7.5c-.19,0-.35-.16-.35-.35s.16-.35.35-.35h7.5v-1.98c0-.17.13-.32.3-.35l1.93-.29.53-1.23-1.15-1.73s-.04-.08-.05-.12c0-.02-.02-.03-.04-.03h-9c-.18,0-.35-.13-.37-.32-.02-.21.14-.39.35-.39h9.55s.03,0,.04-.01l2.16-2.11c.12-.11.29-.13.43-.05l1.92,1.19,1.1-.54.4-2.11c.03-.17.16-.29.33-.29v-5.41c0-.61-.5-1.11-1.11-1.11h-5.79v.87c0,.19-.16.35-.35.35H10.92c-.19,0-.35-.16-.35-.35v-.87h-5.65c-.62,0-1.11.5-1.11,1.11v36.36c0,.62.5,1.11,1.11,1.11h23.28c.06,0,.11-.05.11-.11v-5.89c0-.19.16-.35.35-.35h5.94s.07-.03.07-.07ZM29.06,45.55l5.1-5.1h-5.08s-.07.03-.07.07v5.02s.03.04.05.02ZM27.06,8.02V3.07h-15.78v4.95h15.78ZM15.89,2.37h6.68c-.34-.91-1.73-1.61-3.34-1.61s-3,.7-3.34,1.61Z"/></svg>