<?xml version="1.0" encoding="UTF-8"?><svg id="a" xmlns="http://www.w3.org/2000/svg" xmlns:xlink="http://www.w3.org/1999/xlink" viewBox="0 0 50 47.6"><defs><style>.c{fill:url(#b);}</style><linearGradient id="b" x1="0" y1="23.8" x2="50" y2="23.8" gradientUnits="userSpaceOnUse"><stop offset="0" stop-color="#94a3b7"/><stop offset="1" stop-color="#65748b"/></linearGradient></defs><path class="c" d="M15.97,38.91c-.08,0-.15-.02-.21-.07-.11-.08-.16-.21-.14-.35l1.65-9.61-6.9-7.03c-.09-.09-.13-.23-.08-.36s.15-.22.28-.24l9.75-1.56,1.39-2.76c.09-.18.3-.25.48-.16.18.09.25.3.16.48l-1.47,2.93c-.05.1-.15.17-.26.19l-9.25,1.48,6.54,6.67c.08.08.12.2.1.31l-1.56,9.1,8.46-4.2c.1-.05.22-.05.32,0l8.38,4.21-1.44-9.2c-.02-.11.02-.22.1-.3l6.43-6.53-9.1-1.7c-.11-.02-.2-.09-.25-.19l-4.27-8.19-1.47,2.93c-.09.18-.3.25-.48.16-.18-.09-.25-.3-.16-.48l1.78-3.55c.06-.12.18-.19.31-.2h0c.13,0,.25.07.31.19l4.51,8.65,9.59,1.79c.13.02.23.12.27.24.04.13,0,.26-.09.36l-6.77,6.88,1.52,9.7c.02.13-.03.26-.14.34-.11.08-.25.09-.37.03l-8.84-4.44-8.93,4.44c-.05.02-.1.04-.16.04ZM46.84,47.43c.11-.08.16-.22.13-.36l-1.3-6.03,4.22-4.42c.09-.09.12-.23.08-.35-.04-.12-.14-.22-.27-.24l-5.86-1.1-2.82-5.4c-.06-.12-.18-.19-.31-.19h0c-.13,0-.25.08-.31.19l-2.73,5.35-1.1.22c-.19.04-.32.23-.28.42s.23.32.42.28l1.27-.25c.11-.02.2-.09.25-.19l2.5-4.89,2.58,4.94c.05.1.14.16.25.18l5.39,1.01-3.9,4.09c-.08.09-.12.2-.09.32l1.18,5.49-5.35-2.72c-.1-.05-.23-.05-.33,0l-5.05,2.72,1.05-6.19c.03-.19-.1-.38-.29-.41-.19-.03-.38.1-.41.29l-1.17,6.91c-.02.13.03.27.14.35.11.08.26.09.38.02l5.53-2.98,5.85,2.98c.05.03.11.04.16.04.08,0,.15-.02.22-.07ZM3.68,47.55l5.68-3.13,5.66,3.13c.12.07.27.06.38-.02.11-.08.17-.22.14-.35l-1.27-7.14c-.03-.19-.22-.32-.41-.29-.19.03-.32.22-.29.41l1.14,6.41-5.18-2.86c-.11-.06-.24-.06-.34,0l-5.2,2.87,1.02-5.81c.02-.11-.02-.23-.1-.31l-3.83-3.93,5.39-.84c.11-.02.21-.09.26-.19l2.6-5.04,2.74,5.05c.05.09.13.15.23.18l.92.21c.19.04.38-.08.42-.27.04-.19-.08-.38-.27-.42l-.76-.17-2.99-5.5c-.06-.12-.18-.18-.32-.19-.13,0-.25.08-.31.19l-2.83,5.48-5.89.92c-.13.02-.24.11-.28.24-.04.13-.01.26.08.36l4.18,4.29-1.12,6.36c-.02.13.03.27.14.35.06.04.13.07.21.07.06,0,.12-.01.17-.04ZM8.35,17.95c.08-.18,0-.39-.18-.47l-5.41-2.38c-.18-.08-.39,0-.47.18-.08.18,0,.39.18.47l5.41,2.38s.1.03.14.03c.14,0,.27-.08.33-.21ZM12.34,12.05c.14-.14.14-.36,0-.5l-4.3-4.35c-.14-.14-.36-.14-.5,0-.14.14-.14.36,0,.5l4.3,4.35c.07.07.16.11.25.11s.18-.03.25-.1ZM18.23,8.18c.18-.08.26-.29.18-.47l-2.45-5.55c-.08-.18-.29-.26-.47-.18-.18.08-.26.29-.18.47l2.45,5.55c.06.13.19.21.33.21.05,0,.1,0,.14-.03ZM25.41,6.46V.36c0-.2-.16-.36-.36-.36s-.36.16-.36.36v6.1c0,.2.16.36.36.36s.36-.16.36-.36ZM32.4,7.99l2.3-5.55c.07-.18-.01-.39-.19-.46-.18-.08-.39.01-.46.19l-2.3,5.55c-.07.18.01.39.19.46.04.02.09.03.14.03.14,0,.27-.08.33-.22ZM38.14,12.05l4.43-4.35c.14-.14.14-.36,0-.5-.14-.14-.36-.14-.5,0l-4.43,4.35c-.14.14-.14.36,0,.5.07.07.16.11.25.11s.18-.03.25-.1ZM42.17,18.13l5.55-2.38c.18-.08.26-.29.19-.47-.08-.18-.29-.26-.47-.19l-5.55,2.38c-.18.08-.26.29-.19.47.06.13.19.22.33.22.05,0,.09,0,.14-.03Z"/></svg>