<?xml version="1.0" encoding="UTF-8"?><svg id="a" xmlns="http://www.w3.org/2000/svg" xmlns:xlink="http://www.w3.org/1999/xlink" viewBox="0 0 48.08 50"><defs><style>.c{fill:url(#b);}</style><linearGradient id="b" x1="0" y1="25" x2="48.08" y2="25" gradientUnits="userSpaceOnUse"><stop offset="0" stop-color="#94a3b7"/><stop offset="1" stop-color="#65748b"/></linearGradient></defs><path class="c" d="M5.63,23.76c.18,0,.33.15.33.33s-.15.33-.33.33H.33c-.18,0-.33-.15-.33-.33s.15-.33.33-.33h5.3ZM7.95,33.01l-4.63,2.69c-.16.09-.21.29-.12.45.06.1.17.16.28.16.06,0,.11-.01.17-.04l4.62-2.69c.16-.09.21-.29.12-.45-.09-.16-.29-.21-.45-.12ZM40.14,33.09c-.16-.09-.36-.04-.45.12-.09.16-.04.36.12.45l4.62,2.69c.05.03.11.04.16.04.11,0,.22-.06.28-.16.09-.16.04-.36-.12-.45l-4.62-2.69ZM42.45,23.76c-.18,0-.33.15-.33.33s.15.33.33.33h5.3c.18,0,.33-.15.33-.33s-.15-.33-.33-.33h-5.3ZM44.44,11.96l-4.62,2.69c-.16.09-.21.29-.12.45.06.1.17.16.28.16.06,0,.11-.01.17-.04l4.62-2.69c.16-.09.21-.29.12-.45-.09-.16-.29-.21-.45-.12ZM35.63,3.5l-2.72,4.57c-.09.16-.04.36.11.45.05.03.11.05.17.05.11,0,.22-.06.28-.16l2.72-4.57c.09-.16.04-.36-.11-.45-.15-.09-.36-.04-.45.11ZM32.98,11.57c-3.57-2.37-7.44-2.99-8.99-2.99-.09,0-.17.03-.23.1-.06.06-.1.14-.1.23v5.23c0,.13.08.25.2.3s.26.03.35-.06c.58-.54,1.33-.83,2.12-.83,1.72,0,3.11,1.4,3.11,3.11s-1.4,3.11-3.11,3.11c-.79,0-1.54-.3-2.12-.83-.09-.09-.23-.11-.35-.06-.12.05-.2.17-.2.3v4.89s-4.12,0-4.12,0c.44-.63.68-1.37.68-2.15,0-2.08-1.69-3.77-3.77-3.77s-3.77,1.69-3.77,3.77c0,.78.24,1.53.68,2.15h-4.63c-.09,0-.17.03-.23.09s-.1.15-.1.23c0,5.25,2.63,9.66,8.04,13.5.39.28.66.69.76,1.14.23,1.06.19,1.6.16,2.13-.01.18-.02.36-.02.55v2.34c0,1.09.89,1.98,1.98,1.98h.05c.12,2.59,1.71,3.95,4.61,3.95s4.49-1.36,4.61-3.95h.05c1.09,0,1.98-.89,1.98-1.98v-2.34c0-.19-.01-.37-.02-.55-.03-.53-.06-1.08.16-2.13.1-.46.37-.86.76-1.14,5.41-3.84,8.04-8.26,8.04-13.5,0-6.99-3.58-10.83-6.59-12.83ZM31.16,37.37c-.53.37-.89.92-1.02,1.54-.24,1.14-.21,1.76-.18,2.31v.18h-5.64v-7.11c0-.13-.08-.25-.2-.3-.12-.05-.26-.02-.36.07-.58.56-1.35.87-2.18.87-1.72,0-3.11-1.4-3.11-3.11s1.4-3.11,3.11-3.11c.81,0,1.61.32,2.18.86.09.09.23.12.36.07s.2-.17.2-.3v-4.6h4.04c-.32.56-.49,1.19-.49,1.85,0,2.08,1.69,3.77,3.77,3.77s3.77-1.69,3.77-3.77c0-.66-.17-1.29-.49-1.85h4c-.02,2.11-.41,7.42-7.76,12.64ZM34,24.26c-.05.11-.04.25.04.35.47.56.71,1.24.71,1.97,0,1.72-1.4,3.11-3.11,3.11s-3.11-1.4-3.11-3.11c0-.72.25-1.4.71-1.97.08-.1.1-.23.04-.35-.05-.12-.17-.19-.3-.19h-4.66v-4.23c.6.38,1.29.58,2.02.58,2.08,0,3.77-1.69,3.77-3.77s-1.69-3.77-3.77-3.77c-.72,0-1.42.2-2.01.58v-4.23c1.83.09,5.3.89,8.3,2.87,4.1,2.72,6.21,6.74,6.3,11.95h-4.63c-.13,0-.24.07-.3.19ZM28.65,45.4h-9.32c-.73,0-1.32-.59-1.32-1.32v-2.01h11.96v2.01c0,.73-.59,1.32-1.32,1.32ZM24,49.34c-2.55,0-3.84-1.07-3.96-3.29h7.91c-.11,2.22-1.41,3.29-3.96,3.29ZM18.03,41.4v-.18c.04-.55.07-1.16-.17-2.31-.13-.62-.5-1.17-1.02-1.54-7.35-5.22-7.74-10.53-7.76-12.64h5.02c.13,0,.25-.08.3-.2s.02-.27-.08-.36c-.62-.59-.96-1.39-.96-2.24,0-1.72,1.4-3.11,3.11-3.11s3.11,1.4,3.11,3.11c0,.85-.34,1.65-.97,2.24-.1.09-.13.23-.08.36s.17.21.3.21h4.83s0,3.93,0,3.93c-.61-.39-1.34-.61-2.08-.61-2.08,0-3.77,1.69-3.77,3.77s1.69,3.77,3.77,3.77c.75,0,1.47-.21,2.08-.61v6.43s-5.64,0-5.64,0ZM24.03,0c-.18,0-.33.15-.33.33v5.3c0,.18.15.33.33.33s.33-.15.33-.33V.33c0-.18-.15-.33-.33-.33ZM16.45,5.54V.82c0-.18-.15-.33-.33-.33-1.55,0-5.42.62-8.99,2.99C4.13,5.48.55,9.32.55,16.31c0,.09.03.17.1.23s.14.1.23.1h5.44c.13,0,.26-.09.3-.21.05-.13.02-.27-.08-.36-.63-.59-.99-1.42-.99-2.28,0-1.72,1.4-3.11,3.11-3.11s3.11,1.4,3.11,3.11c0,.86-.36,1.69-.99,2.28-.1.09-.13.23-.08.36.05.13.17.21.3.21h5.13c.09,0,.17-.03.23-.09s.1-.14.1-.23v-4.71c.64.48,1.43.74,2.24.74,2.08,0,3.77-1.69,3.77-3.77s-1.69-3.77-3.77-3.77c-.81,0-1.59.26-2.24.74ZM18.69,11.68c-.88,0-1.73-.38-2.32-1.04-.09-.1-.23-.14-.36-.09-.13.05-.21.17-.21.31v5.13s-4.08,0-4.08,0c.45-.64.7-1.4.7-2.19,0-2.08-1.69-3.77-3.77-3.77s-3.77,1.69-3.77,3.77c0,.79.25,1.55.7,2.19H1.2c.09-5.21,2.2-9.23,6.3-11.95,3-1.99,6.46-2.79,8.3-2.87v5.13c0,.13.09.26.21.31.13.05.27.01.36-.09.59-.66,1.44-1.04,2.32-1.04,1.72,0,3.11,1.4,3.11,3.11s-1.4,3.11-3.11,3.11Z"/></svg>