<?xml version="1.0" encoding="UTF-8"?><svg id="a" xmlns="http://www.w3.org/2000/svg" xmlns:xlink="http://www.w3.org/1999/xlink" viewBox="0 0 50 21.56"><defs><style>.c{fill:url(#b);}</style><linearGradient id="b" x1="14.69" y1="21.09" x2="42.64" y2="-6.86" gradientUnits="userSpaceOnUse"><stop offset="0" stop-color="#81d2e7"/><stop offset="1" stop-color="#ed1e80"/></linearGradient></defs><path class="c" d="M.86,0h48.28c.48,0,.86.39.86.86v5.17c0,.48-.39.86-.86.86H.86c-.48,0-.86-.39-.86-.86V.86c0-.48.39-.86.86-.86ZM20.69,15.53v5.17c0,.48.39.86.86.86h27.58c.48,0,.86-.39.86-.86v-5.17c0-.48-.39-.86-.86-.86h-27.58c-.48,0-.86.39-.86.86Z"/></svg>