<?xml version="1.0" encoding="UTF-8"?><svg id="a" xmlns="http://www.w3.org/2000/svg" xmlns:xlink="http://www.w3.org/1999/xlink" viewBox="0 0 50 50"><defs><style>.c{fill:url(#b);}</style><linearGradient id="b" x1="0" y1="25" x2="50" y2="25" gradientUnits="userSpaceOnUse"><stop offset="0" stop-color="#94a3b7"/><stop offset="1" stop-color="#65748b"/></linearGradient></defs><path class="c" d="M25,0c13.79,0,25,11.22,25,25s-11.21,25-25,25S0,38.78,0,25,11.21,0,25,0ZM39.02,24.16h9.3c-.21-5.99-2.69-11.4-6.6-15.42-.7.66-1.48,1.24-2.31,1.74-.83.5-1.71.93-2.61,1.3.68,1.81,1.21,3.76,1.59,5.84.38,2.07.6,4.26.64,6.54ZM48.31,25.84h-9.29c-.08,4.46-.83,8.58-2.14,12.15,1.84.76,3.57,1.76,4.97,3.13,3.84-4,6.25-9.35,6.46-15.28ZM40.65,42.28c-1.22-1.19-2.74-2.07-4.39-2.74-1.49,3.46-3.52,6.25-5.96,8.18,3.93-.91,7.45-2.81,10.35-5.44ZM36.16,10.22c1.61-.65,3.13-1.5,4.35-2.64-1.43-1.28-3.02-2.38-4.73-3.27s-3.54-1.58-5.47-2.03c1.19.94,2.28,2.09,3.27,3.43.98,1.33,1.85,2.85,2.58,4.51ZM25.71,24.17h11.64c-.08-4.38-.82-8.39-2.1-11.82-3.8,1.24-7.68,1.5-9.54,1.55v10.27ZM37.35,25.84h-11.64v10c1.87.05,5.78.31,9.62,1.58,1.22-3.37,1.93-7.31,2.02-11.58ZM25.88,48.3c3.74-1.32,6.8-4.67,8.82-9.33-3.6-1.16-7.33-1.41-8.99-1.47v10.8c.1,0,.16,0,.16,0ZM34.6,10.79c-1.02-2.3-2.31-4.27-3.81-5.83s-3.21-2.7-5.08-3.32v10.58c1.65-.05,5.32-.3,8.89-1.43ZM24.04,24.17v-10.27c-1.91-.06-5.76-.33-9.53-1.56-1.28,3.43-2.03,7.45-2.11,11.82h11.64ZM24.04,35.84v-10s-11.64,0-11.64,0c.08,4.27.79,8.2,2.02,11.58,3.8-1.25,7.69-1.52,9.62-1.58ZM24.04,48.31v-10.8c-1.72.06-5.42.33-8.99,1.47,2.02,4.64,5.07,7.99,8.8,9.31,0,0,.11,0,.19.01ZM24.04,12.22V1.64c-3.75,1.26-6.84,4.54-8.89,9.14,3.53,1.12,7.18,1.38,8.89,1.44ZM13.6,10.22c1.45-3.28,3.41-5.98,5.74-7.85-1.89.47-3.68,1.17-5.35,2.07-1.67.9-3.22,1.99-4.62,3.26,1.2,1.08,2.67,1.9,4.23,2.53ZM19.35,47.64c-2.4-1.92-4.39-4.69-5.85-8.09-1.59.65-3.09,1.5-4.29,2.62,2.83,2.61,6.29,4.52,10.14,5.47ZM10.73,24.16c.09-4.56.88-8.77,2.23-12.39-1.76-.71-3.43-1.65-4.8-2.91-3.85,4.01-6.27,9.37-6.48,15.31h9.05ZM12.87,37.99c-1.3-3.56-2.06-7.69-2.14-12.16H1.68c.21,5.86,2.57,11.18,6.34,15.17,1.38-1.31,3.06-2.28,4.85-3.01Z"/></svg>