<?xml version="1.0" encoding="UTF-8"?>
<svg id="Layer_1" data-name="Layer 1" xmlns="http://www.w3.org/2000/svg" xmlns:xlink="http://www.w3.org/1999/xlink" viewBox="0 0 30 30">
  <defs>
    <style>
      .cls-1 {
        fill: url(#linear-gradient);
      }
    </style>
    <linearGradient id="linear-gradient" x1="0" y1="15" x2="30" y2="15" gradientUnits="userSpaceOnUse">
      <stop offset="0" stop-color="#94a3b7"/>
      <stop offset="1" stop-color="#81d2e7"/>
    </linearGradient>
  </defs>
  <path class="cls-1" d="M15,0c8.27,0,15,6.73,15,15s-6.73,15-15,15S0,23.27,0,15,6.73,0,15,0ZM23.41,14.5h5.58c-.12-3.59-1.61-6.84-3.96-9.25-.42.4-.89.74-1.38,1.04-.5.3-1.03.56-1.57.78.41,1.09.73,2.26.95,3.5.23,1.24.36,2.56.38,3.93ZM28.99,15.5h-5.58c-.05,2.68-.5,5.15-1.28,7.29,1.1.45,2.14,1.06,2.98,1.88,2.3-2.4,3.75-5.61,3.88-9.17ZM24.39,25.37c-.73-.71-1.65-1.24-2.63-1.64-.89,2.07-2.11,3.75-3.58,4.91,2.36-.55,4.47-1.68,6.21-3.26ZM21.69,6.13c.96-.39,1.88-.9,2.61-1.58-.86-.77-1.81-1.43-2.84-1.96s-2.13-.95-3.28-1.22c.71.57,1.37,1.26,1.96,2.06.59.8,1.11,1.71,1.55,2.71ZM15.43,14.5h6.98c-.05-2.63-.49-5.03-1.26-7.09-2.28.74-4.61.9-5.72.93v6.16ZM22.41,15.5h-6.98v6c1.12.03,3.47.18,5.77.95.73-2.02,1.16-4.39,1.21-6.95ZM15.53,28.98c2.25-.79,4.08-2.8,5.29-5.6-2.16-.7-4.4-.85-5.39-.88v6.48c.06,0,.1,0,.1,0ZM20.76,6.47c-.61-1.38-1.39-2.56-2.28-3.5s-1.92-1.62-3.05-1.99v6.35c.99-.03,3.19-.18,5.33-.86ZM14.43,14.5v-6.16c-1.14-.04-3.46-.2-5.72-.93-.77,2.06-1.22,4.47-1.27,7.09h6.98ZM14.42,21.5v-6s-6.98,0-6.98,0c.05,2.56.47,4.92,1.21,6.95,2.28-.75,4.61-.91,5.77-.95ZM14.42,28.99v-6.48c-1.03.04-3.25.2-5.4.88,1.21,2.78,3.04,4.79,5.28,5.59,0,0,.07,0,.11,0ZM14.42,7.33V.98c-2.25.75-4.1,2.73-5.33,5.48,2.12.67,4.31.83,5.33.87ZM8.16,6.13c.87-1.97,2.04-3.59,3.44-4.71-1.13.28-2.21.7-3.21,1.24-1,.54-1.93,1.2-2.77,1.95.72.65,1.6,1.14,2.54,1.52ZM11.61,28.58c-1.44-1.15-2.63-2.81-3.51-4.86-.95.39-1.85.9-2.57,1.57,1.7,1.56,3.77,2.71,6.08,3.28ZM6.44,14.5c.05-2.74.53-5.26,1.34-7.44-1.06-.43-2.06-.99-2.88-1.75-2.31,2.4-3.76,5.62-3.89,9.18h5.43ZM7.72,22.8c-.78-2.14-1.23-4.62-1.29-7.29H1.01c.12,3.52,1.54,6.71,3.8,9.1.83-.78,1.84-1.37,2.91-1.81Z"/>
</svg>