<?xml version="1.0" encoding="UTF-8"?><svg id="a" xmlns="http://www.w3.org/2000/svg" xmlns:xlink="http://www.w3.org/1999/xlink" viewBox="0 0 50 44.75"><defs><style>.c{fill:url(#b);}</style><linearGradient id="b" x1="12.31" y1="-.91" x2="37.48" y2="42.69" gradientUnits="userSpaceOnUse"><stop offset="0" stop-color="#94a3b7"/><stop offset="1" stop-color="#65748b"/></linearGradient></defs><path class="c" d="M50,23.05v5.02c0,.39-.31.71-.7.7h-5.02c-.39,0-.7-.31-.7-.7v-5.02c0-.39.32-.7.71-.7h1.83s.03-.01.03-.03c-.21-4.68-2.44-9.14-6.34-12.62-3.36-3-7.6-4.93-11.23-5.12h-.01c-.41,1.62-1.86,2.8-3.59,2.8s-3.16-1.12-3.57-2.73c-.03-.06-.08-.06-.13-.06-3.61.21-7.76,2.13-11.09,5.1-3.89,3.48-6.11,7.94-6.32,12.61,0,.02,0,.03.03.03h1.83c.39,0,.7.32.7.7v5.02c0,.39-.31.71-.7.7H.7c-.39,0-.7-.32-.7-.7v-5.02c0-.39.31-.7.71-.7h1.71s.03-.01.03-.03c.35-8.54,6.7-14.92,13.08-17.67.04-.02.03-.07-.02-.08h-5.25s-.08.03-.1.07c-.36.89-1.32,1.49-2.37,1.27-.81-.16-1.46-.81-1.62-1.63-.26-1.34.76-2.51,2.05-2.51.88,0,1.63.55,1.94,1.32.02.04.06.07.11.07h11.02s.05-.03.05-.06c.3-1.86,1.98-3.26,3.95-3.1,1.7.14,3.09,1.46,3.35,3.11,0,.03.03.05.05.05h11.1s.04-.02.05-.04c.35-.91,1.32-1.52,2.39-1.31.81.16,1.46.81,1.62,1.63.27,1.34-.76,2.51-2.05,2.51-.89,0-1.66-.56-1.96-1.35,0-.02-.03-.03-.05-.04h-5.28s-.06.06-.02.08c6.38,2.74,12.73,9.13,13.07,17.66,0,.01.01.03.03.03h1.71c.39,0,.7.32.7.7ZM48.6,27.36v-3.61h-3.61v3.61s3.61,0,3.61,0ZM42.48,3.87c0-.37-.31-.68-.69-.68s-.68.31-.68.68.31.69.68.69.69-.31.69-.69ZM27.27,3.7c0-1.26-1.03-2.29-2.29-2.29s-2.29,1.02-2.29,2.29,1.03,2.29,2.29,2.29,2.29-1.03,2.29-2.29ZM8.89,3.87c0-.37-.31-.68-.68-.68-.38,0-.68.31-.68.68s.31.69.68.69c.38,0,.68-.31.68-.69ZM5.02,27.36v-3.61H1.41v3.6h3.61ZM31.11,37.6s.06-.01.07-.04l3.54-7.89-8.23-18.92s-.06-.07-.1-.07h-.59c-.06,0-.11.05-.11.11v14.2s.02.05.04.05c2.04.35,3.57,2.14,3.54,4.28-.03,2.22-1.83,4.1-4.05,4.21-2.47.13-4.52-1.84-4.51-4.28,0-2.12,1.52-3.87,3.54-4.22.03,0,.04-.03.04-.05v-14.2c0-.06-.05-.11-.11-.11h-.56s-.08.03-.1.07l-8.22,18.92,3.54,7.9s.04.04.07.04h12.22ZM36.14,29.39c.08.18.08.39,0,.57l-3.74,8.34s-.01.05,0,.08l2.01,5.42c.08.22.05.46-.08.65s-.35.3-.58.3h-17.47c-.23,0-.45-.11-.58-.3-.13-.19-.17-.43-.08-.65l2.01-5.42s.01-.06,0-.09l-3.75-8.33c-.08-.18-.08-.39,0-.57l8.57-19.69c.11-.26.37-.43.65-.43h3.85c.28,0,.53.17.65.42l8.56,19.7ZM32.72,43.34l-1.59-4.28s-.04-.05-.07-.05h-12.14s-.06.02-.07.05l-1.59,4.28h15.45ZM27.86,29.27c0-1.59-1.29-2.88-2.88-2.88s-2.88,1.29-2.88,2.88,1.29,2.88,2.88,2.88,2.88-1.29,2.88-2.88Z"/></svg>