<?xml version="1.0" encoding="UTF-8"?><svg id="a" xmlns="http://www.w3.org/2000/svg" xmlns:xlink="http://www.w3.org/1999/xlink" viewBox="0 0 50 44.6"><defs><style>.c{fill:url(#b);}</style><linearGradient id="b" x1="11.63" y1="-4.94" x2="38.57" y2="41.72" gradientUnits="userSpaceOnUse"><stop offset="0" stop-color="#94a3b7"/><stop offset="1" stop-color="#65748b"/></linearGradient></defs><path class="c" d="M50,4.19v28.07c0,2.31-1.87,4.19-4.19,4.19h-13.54s-.06.04-.05.07l2.53,5.33c.26.54.28,1.17.02,1.7-.33.66-.98,1.06-1.69,1.06h-16.04c-.59,0-1.17-.24-1.54-.71-.46-.57-.54-1.33-.24-1.98l2.62-5.39s0-.07-.05-.07H4.19c-2.31,0-4.19-1.87-4.19-4.19V4.19C0,1.87,1.87,0,4.19,0h41.63c2.31,0,4.19,1.87,4.19,4.19ZM48.72,32.26v-.7c0-.06-.05-.11-.11-.11H1.38c-.06,0-.1.05-.1.1v.71c0,1.61,1.3,2.9,2.9,2.9h41.63c1.61,0,2.9-1.3,2.9-2.9ZM48.72,30.07V4.19c0-1.61-1.3-2.9-2.9-2.9h-16.62c-.1,0-.19.08-.19.19v28.51c0,.1.08.19.19.19h19.42c.06,0,.11-.05.11-.11ZM33.68,43.06c.12-.2.12-.43.02-.64l-2.82-5.94s-.03-.03-.05-.03h-11.56s-.04.01-.05.03l-2.89,5.95c-.09.2-.08.43.03.63.13.22.38.34.64.34h16.02c.23,0,.53-.15.64-.35ZM27.72,29.98V1.47c0-.1-.08-.19-.19-.19H4.19c-1.6,0-2.9,1.3-2.9,2.9v25.88c0,.06.05.1.1.1h26.15c.11,0,.19-.08.19-.19ZM32.44,17.46c-.35,0-.63.28-.63.63s.28.63.63.63h12.98c.35,0,.63-.28.63-.63s-.28-.63-.63-.63h-12.98ZM32.44,21.74c-.35,0-.63.28-.63.63s.28.63.63.63h12.98c.35,0,.63-.28.63-.63s-.28-.63-.63-.63h-12.98ZM32.44,25.96c-.35,0-.63.28-.63.63s.28.63.63.63h12.98c.35,0,.63-.28.63-.63s-.28-.63-.63-.63h-12.98ZM43.03,5.17c-.22-.27-.61-.32-.88-.1-.27.22-.32.61-.1.88l2.36,2.97-2.36,2.99c-.22.27-.17.67.11.88.12.09.25.14.39.14.18,0,.37-.08.49-.24l2.67-3.38c.18-.23.18-.55,0-.78l-2.67-3.36ZM38.69,5.23l-1.81,7.08c-.09.34.12.68.45.77.05.01.1.02.15.02.28,0,.54-.19.61-.47l1.81-7.08c.08-.34-.12-.68-.46-.76-.34-.09-.68.12-.76.45ZM33.91,5.17l-2.67,3.36c-.18.23-.18.55,0,.78l2.67,3.38c.12.16.31.24.49.24.14,0,.27-.05.39-.14.27-.22.32-.61.11-.88l-2.36-2.99,2.36-2.97c.22-.27.17-.67-.1-.88-.27-.22-.67-.17-.88.1ZM25.63,18.22v8.29c0,.35-.28.63-.63.63h-8.29c-.35,0-.63-.28-.63-.63v-8.29c0-.35.28-.63.63-.63h8.29c.35,0,.63.28.63.63ZM24.37,25.61v-6.49c0-.15-.12-.27-.27-.27h-6.49c-.15,0-.27.12-.27.27v6.49c0,.15.12.27.27.27h6.49c.15,0,.27-.12.27-.27ZM25.63,4.78v10.09c0,.35-.28.63-.63.63H4.96c-.35,0-.63-.28-.63-.63V4.78c0-.35.28-.63.63-.63h20.04c.35,0,.63.28.63.63ZM24.37,13.98V5.67c0-.15-.12-.26-.26-.26H5.86c-.15,0-.26.12-.26.26v8.3c0,.15.12.26.26.26h18.25c.14,0,.26-.12.26-.26ZM13.88,18.22v8.29c0,.35-.28.63-.63.63H4.96c-.35,0-.63-.28-.63-.63v-8.29c0-.35.28-.63.63-.63h8.29c.35,0,.63.28.63.63ZM12.62,25.62v-6.5c0-.15-.12-.26-.26-.26h-6.5c-.14,0-.26.12-.26.26v6.5c0,.14.12.26.26.26h6.5c.15,0,.26-.12.26-.26Z"/></svg>