<?xml version="1.0" encoding="UTF-8"?><svg id="a" xmlns="http://www.w3.org/2000/svg" xmlns:xlink="http://www.w3.org/1999/xlink" viewBox="0 0 50 38.82"><defs><style>.c{fill:url(#b);}</style><linearGradient id="b" x1="11.07" y1="-5.18" x2="39.39" y2="43.87" gradientUnits="userSpaceOnUse"><stop offset="0" stop-color="#94a3b7"/><stop offset="1" stop-color="#65748b"/></linearGradient></defs><path class="c" d="M49.31,34.51c.95,1.01.92,2.58-.06,3.56-.5.5-1.16.75-1.81.75s-1.25-.23-1.75-.69l-19.85-18.59c-.05-.05-.09-.11-.12-.18l-2.06-5.95c-.09-.26-.03-.55.17-.75s.48-.26.75-.17l5.95,2.06c.07.02.13.06.18.11l18.6,19.85ZM48.61,37.43c.63-.63.65-1.64.04-2.3l-11.87-12.67s-.08-.03-.11,0l-3.03,3.03s-.03.08,0,.11l12.67,11.87c.66.61,1.66.6,2.3-.04ZM36.06,21.79s.03-.07,0-.1l-5.64-6.02s-.07-.03-.1,0l-3.46,3.46s-.03.08,0,.1l6.02,5.64s.07.03.1,0l3.09-3.09ZM29.52,15.21s.01-.05-.01-.06l-4.87-1.68,1.68,4.85s.04.03.06.01l3.14-3.12ZM9.67,28.7v2.07c0,.6-.49,1.08-1.08,1.08h-4.41c-.6,0-1.09-.49-1.09-1.08v-2.07c0-.6.49-1.08,1.09-1.08h4.41c.6,0,1.08.49,1.08,1.08ZM8.67,30.78v-2.07s-.04-.08-.08-.08h-4.41s-.09.04-.09.08v2.07s.04.08.09.08h4.41s.08-.04.08-.08ZM9.67,21.92v2.07c0,.6-.49,1.09-1.08,1.09h-4.41c-.6,0-1.09-.49-1.09-1.09v-2.07c0-.6.49-1.08,1.09-1.08h4.41c.6,0,1.08.49,1.08,1.08ZM8.67,24v-2.07s-.04-.08-.08-.08h-4.41s-.09.04-.09.08v2.07s.04.09.09.09h4.41s.08-.04.08-.09ZM9.67,15.14v2.07c0,.6-.49,1.08-1.08,1.08h-4.41c-.6,0-1.09-.49-1.09-1.08v-2.07c0-.6.49-1.09,1.09-1.09h4.41c.6,0,1.08.49,1.08,1.09ZM8.67,17.22v-2.07s-.04-.09-.08-.09h-4.41s-.09.04-.09.09v2.07s.04.08.09.08h4.41s.08-.04.08-.08ZM6.3,4.03c1.71,0,3.1,1.39,3.1,3.1s-1.39,3.1-3.1,3.1-3.1-1.39-3.1-3.1,1.39-3.1,3.1-3.1ZM8.41,7.13c0-1.16-.94-2.1-2.1-2.1s-2.1.94-2.1,2.1.94,2.1,2.1,2.1,2.1-.94,2.1-2.1ZM43.72,4.6v4.98c0,.19-.16.35-.35.35h-4.98c-.19,0-.35-.16-.35-.35v-2.09s-.02-.05-.05-.05h-5.76c-8.2,0-13.65,8.46-13.65,14.05v5.41s.02.05.05.05h2.1c.19,0,.35.16.35.35v4.98c0,.19-.16.35-.35.35h-4.98c-.19,0-.35-.16-.35-.35v-4.98c0-.19.16-.35.35-.35h2.06s.06-.02.06-.05V9.99s-.03-.06-.06-.06h-1.2c-.68,0-1.23-.55-1.23-1.23v-3.21c0-.68.55-1.23,1.23-1.23h3.21c.68,0,1.23.55,1.23,1.23v1.2s.03.06.06.06h16.86s.05-.02.05-.05v-2.09c0-.19.16-.35.35-.35h4.98c.19,0,.35.16.35.35ZM43.02,9.09v-4c0-.08-.06-.14-.14-.14h-4c-.08,0-.14.06-.14.14v4c0,.08.06.14.14.14h4c.08,0,.14-.06.14-.14ZM27.98,7.5s.02-.05-.01-.05h-6.85s-.06.03-.06.06v1.2c0,.68-.55,1.23-1.23,1.23h-1.2s-.06.02-.06.06v7.41s.04.04.05,0c.67-1.87,1.75-3.79,3.11-5.42,1.78-2.13,3.92-3.65,6.25-4.49ZM20.38,31.8v-4c0-.08-.06-.14-.14-.14h-4c-.08,0-.14.06-.14.14v4c0,.08.06.14.14.14h4c.08,0,.14-.06.14-.14ZM20.36,8.7v-3.21c0-.29-.24-.53-.53-.53h-3.21c-.3,0-.53.24-.53.53v3.21c0,.29.24.53.53.53h3.21c.29,0,.53-.24.53-.53ZM48.95,2.86v28.42c0,.09-.11.13-.17.07l-.8-.8s-.03-.04-.03-.07V2.86c0-1.03-.83-1.86-1.86-1.86H12.79s-.08.04-.08.08v33.92s.04.08.08.08h27.06s.04,0,.06.02l.84.84c.05.05.02.14-.06.14H2.86c-1.58,0-2.86-1.28-2.86-2.86V2.86C0,1.28,1.28,0,2.86,0h43.24c1.58,0,2.86,1.28,2.86,2.86ZM11.71,35V1.08s-.04-.08-.08-.08H2.86c-1.02,0-1.85.83-1.85,1.86v30.37c0,1.02.83,1.86,1.85,1.86h8.77s.08-.04.08-.08Z"/></svg>