<?xml version="1.0" encoding="UTF-8"?>
<svg id="Logo" xmlns="http://www.w3.org/2000/svg" xmlns:xlink="http://www.w3.org/1999/xlink" viewBox="0 0 150 142.51">
  <defs>
    <style>
      .cls-1 {
        fill: url(#linear-gradient-2);
      }

      .cls-2 {
        fill: url(#linear-gradient);
        opacity: .5;
      }
    </style>
    <linearGradient id="linear-gradient" x1="0" y1="63.19" x2="131.5" y2="63.19" gradientUnits="userSpaceOnUse">
      <stop offset="0" stop-color="#94a3b7"/>
      <stop offset="1" stop-color="#65748b"/>
    </linearGradient>
    <linearGradient id="linear-gradient-2" x1="6.37" y1="71.33" x2="150" y2="71.33" gradientUnits="userSpaceOnUse">
      <stop offset="0" stop-color="#ed1e80"/>
      <stop offset="1" stop-color="#81d2e7"/>
    </linearGradient>
  </defs>
  <path class="cls-2" d="M131.5,110.13V34.11h-5.34v76.01c0,6.02-4.9,10.91-10.91,10.91v5.34c8.96,0,16.25-7.29,16.25-16.25ZM5.34,50.64h3.63v-5.34h-3.63V5.34h5.03V0H0v95.94h56.07v-5.34H5.34v-39.96Z"/>
  <path class="cls-1" d="M150,103.38V30.47h-8.89v72.92c0,16.67-13.56,30.23-30.23,30.23h-8.74v8.89h8.74c21.57,0,39.13-17.55,39.13-39.13ZM20.52,103.17v-26.7h-8.89v35.6h69.16v-8.89H20.52ZM6.37,52.08v8.89h51.48v-8.89H6.37ZM11.62.14v35.61h8.89V9.03h56.77V.14H11.62Z"/>
</svg>