<?xml version="1.0" encoding="UTF-8"?><svg id="a" xmlns="http://www.w3.org/2000/svg" xmlns:xlink="http://www.w3.org/1999/xlink" viewBox="0 0 47.64 50"><defs><style>.c{fill:url(#b);}</style><linearGradient id="b" x1="0" y1="25" x2="47.64" y2="25" gradientUnits="userSpaceOnUse"><stop offset="0" stop-color="#ed1e80"/><stop offset="1" stop-color="#81d2e7"/></linearGradient></defs><path class="c" d="M38.5,8.16c.42,0,.76.34.76.76s-.34.76-.76.76h-13.55c-.42,0-.76-.34-.76-.76s.34-.76.76-.76h13.55ZM24.95,14.4c-.42,0-.76.34-.76.76s.34.76.76.76h13.55c.42,0,.76-.34.76-.76s-.34-.76-.76-.76h-13.55ZM36.87,37.04c-.42,0-.76.34-.76.76s.34.76.76.76h4.34c.42,0,.76-.34.76-.76s-.34-.76-.76-.76h-4.34ZM20.78,28.97c0,.67.54,1.22,1.22,1.22s1.22-.54,1.22-1.22-.55-1.22-1.22-1.22-1.22.55-1.22,1.22ZM14.74,28.97c0,.67.55,1.22,1.22,1.22s1.22-.54,1.22-1.22-.54-1.22-1.22-1.22-1.22.54-1.22,1.22ZM8.67,28.97c0,.67.54,1.22,1.22,1.22s1.22-.54,1.22-1.22-.55-1.22-1.22-1.22-1.22.55-1.22,1.22ZM43.72,0h-23.92c-2.17,0-3.92,1.75-3.92,3.92v12.82c0,.06-.05.11-.11.11H3.92c-2.17,0-3.92,1.75-3.92,3.92v16.27c0,2.17,1.75,3.92,3.92,3.92h2.68c.18,0,.33.15.33.33v8.54c0,.16.19.24.3.12l8.87-8.89c.06-.06.15-.09.23-.09h11.51c2.17,0,3.92-1.76,3.92-3.92v-12.4c0-.08.09-.12.15-.06l8.5,8.53c.11.11.3.03.3-.13v-8.53c0-.18.15-.33.33-.33h2.68c2.17,0,3.92-1.76,3.92-3.92V3.92c0-2.17-1.75-3.92-3.92-3.92ZM43.72,22.59h-3.07c-.8,0-1.46.65-1.46,1.46v5.25c0,.16-.19.24-.3.12l-6.38-6.4c-.27-.27-.65-.43-1.03-.43h-11.67c-1.32,0-2.4-1.07-2.4-2.4V3.92c0-1.32,1.07-2.4,2.4-2.4h23.92c1.33,0,2.4,1.07,2.4,2.4v16.28c0,1.32-1.07,2.4-2.4,2.4ZM27.84,39.44h-11.67c-.39,0-.76.16-1.03.43l-6.38,6.4c-.11.11-.3.03-.3-.12v-5.25c0-.8-.65-1.45-1.46-1.45h-3.07c-1.32,0-2.4-1.07-2.4-2.4v-16.28c0-1.33,1.07-2.4,2.4-2.4h11.86c.06,0,.11.05.11.1v1.73c0,2.16,1.75,3.92,3.92,3.92h10.35s.09.04.09.09v12.84c0,1.33-1.07,2.4-2.4,2.4ZM6.4,9.76c-.42,0-.76.34-.76.76s.34.76.76.76h4.35c.42,0,.76-.34.76-.76s-.34-.76-.76-.76h-4.35Z"/></svg>