<?xml version="1.0" encoding="UTF-8"?><svg id="a" xmlns="http://www.w3.org/2000/svg" xmlns:xlink="http://www.w3.org/1999/xlink" viewBox="0 0 50 50"><defs><style>.c{fill:url(#b);}</style><linearGradient id="b" x1="12.5" y1="46.65" x2="37.5" y2="3.35" gradientUnits="userSpaceOnUse"><stop offset="0" stop-color="#ed1e80"/><stop offset="1" stop-color="#81d2e7"/></linearGradient></defs><path class="c" d="M25,50C11.21,50,0,38.79,0,25S11.21,0,25,0s25,11.21,25,25-11.21,25-25,25ZM25,1.5C12.04,1.5,1.5,12.04,1.5,25s10.54,23.5,23.5,23.5,23.5-10.54,23.5-23.5S37.96,1.5,25,1.5ZM4.85,25.36c.18-10.34,6.22-18.06,15.76-20.13.4-.09.66-.49.57-.89-.09-.4-.49-.66-.89-.57-5.03,1.09-9.26,3.7-12.26,7.54-2.97,3.81-4.59,8.66-4.68,14.03,0,.41.32.76.74.76,0,0,0,0,.01,0,.41,0,.74-.33.75-.74ZM23.14,4.83c.78-.08,1.6-.13,2.41-.14.41,0,.75-.35.74-.76,0-.41-.34-.74-.75-.74h0c-.86.01-1.72.06-2.55.15-.41.04-.71.41-.67.82.04.39.37.67.74.67.03,0,.05,0,.08,0ZM25,18.44c-2.31,0-4.18-1.88-4.18-4.18s1.88-4.18,4.18-4.18,4.18,1.88,4.18,4.18-1.88,4.18-4.18,4.18ZM25,11.57c-1.48,0-2.68,1.2-2.68,2.68s1.2,2.68,2.68,2.68,2.68-1.2,2.68-2.68-1.2-2.68-2.68-2.68ZM25,41.65c-2.27,0-4.13-1.85-4.13-4.13v-10.69h-.38c-1.8,0-3.26-1.46-3.26-3.26s1.46-3.26,3.26-3.26h4.87c2.07,0,3.76,1.69,3.76,3.76v13.45c0,2.27-1.85,4.13-4.13,4.13ZM20.49,21.7c-1.03,0-1.88.84-1.88,1.88s.84,1.88,1.88,1.88h1.07c.38,0,.69.31.69.69v11.38c0,1.51,1.23,2.74,2.74,2.74s2.74-1.23,2.74-2.74v-13.45c0-1.31-1.06-2.37-2.37-2.37h-4.87Z"/></svg>