<?xml version="1.0" encoding="UTF-8"?><svg id="a" xmlns="http://www.w3.org/2000/svg" xmlns:xlink="http://www.w3.org/1999/xlink" viewBox="0 0 50 46.54"><defs><style>.e{fill:url(#c);}.f{fill:url(#d);}.g{fill:#101212;}.h{fill:url(#b);}</style><linearGradient id="b" x1="0" y1="22.06" x2="47.98" y2="22.06" gradientUnits="userSpaceOnUse"><stop offset="0" stop-color="#ed1e80"/><stop offset="1" stop-color="#81d2e7"/></linearGradient><linearGradient id="c" x1="26.21" y1="34.65" x2="50" y2="34.65" xlink:href="#b"/><linearGradient id="d" x1="14.53" y1="28.7" x2="49.79" y2="28.7" xlink:href="#b"/></defs><path class="h" d="M43.39,2.92c1.09,0,1.97.88,1.97,1.97s-.88,1.97-1.97,1.97-1.97-.88-1.97-1.97.88-1.97,1.97-1.97ZM44.03,4.89c0-.36-.29-.64-.64-.64s-.64.29-.64.64.29.64.64.64.64-.29.64-.64ZM38.96,2.92c1.09,0,1.97.88,1.97,1.97s-.88,1.97-1.97,1.97-1.97-.88-1.97-1.97.88-1.97,1.97-1.97ZM39.6,4.89c0-.36-.29-.64-.64-.64s-.64.29-.64.64.29.64.64.64.64-.29.64-.64ZM34.54,2.92c1.09,0,1.97.88,1.97,1.97s-.88,1.97-1.97,1.97-1.97-.88-1.97-1.97.88-1.97,1.97-1.97ZM35.18,4.89c0-.36-.29-.64-.64-.64s-.64.29-.64.64.29.64.64.64.64-.29.64-.64ZM47.98,27.6v7.7c0,1.25-1.02,2.27-2.27,2.27h-2.86c-.06,0-.11.05-.11.11v4.18c0,1.25-1.02,2.27-2.27,2.27H2.27c-1.25,0-2.27-1.02-2.27-2.27V8.82c0-1.25,1.02-2.27,2.27-2.27h2.86c.06,0,.11-.05.11-.11V2.27c0-1.25,1.02-2.27,2.27-2.27h38.2c1.25,0,2.27,1.02,2.27,2.27v12.25s0,.03-.02.04l-1.2,1.24s-.11.01-.11-.04v-5.94c0-.06-.05-.1-.11-.1h-24.7c-.18,0-.35-.07-.47-.19l-3.37-3.37s-.08-.06-.14-.06h-5.83c-.06,0-.11.05-.11.11v2.85c0,.37-.3.66-.66.66h-4.6c-.06,0-.11.05-.11.11v25.49c0,.52.42.94.94.94h38.2c.52,0,.94-.42.94-.94v-8.9c0-.05.06-.08.1-.04l1.21,1.2s.02.03.02.04ZM46.65,8.28V2.27c0-.52-.42-.94-.94-.94H7.5c-.52,0-.94.42-.94.94v6c0,.06.05.11.11.11h3.84c.06,0,.1-.05.1-.11v-2.85c0-.37.3-.66.66-.66h6.95c.18,0,.35.07.47.2l3.35,3.35s.11.07.18.07h24.32c.06,0,.11-.05.11-.1ZM41.41,41.85v-4.18c0-.06-.05-.11-.11-.11H7.5c-1.25,0-2.27-1.01-2.27-2.27V7.99c0-.06-.05-.11-.11-.11h-2.86c-.52,0-.94.42-.94.94v33.03c0,.52.42.94.94.94h38.2c.52,0,.94-.42.94-.94Z"/><circle class="g" cx="37.51" cy="34.07" r="2.07"/><path class="g" d="M48.62,37.3l-7.87,7.87-1.37-2.99s0-.05.01-.06l6.18-6.18s.04-.02.06-.01l2.99,1.37Z"/><path class="g" d="M44.89,35.14s0,.05-.01.06l-6.22,6.22s-.04.02-.06.01l-5.83-2.22-5.44-13.82s0-.06.02-.08l.29-.29s.08-.03.11,0l7.23,7.23s.01.03,0,.05c-.85,1.2-.73,2.88.35,3.95,1.24,1.24,3.29,1.2,4.48-.12,1.07-1.19,1.04-3.06-.08-4.21-1.08-1.11-2.77-1.24-3.98-.38-.01.01-.03,0-.05,0l-7.23-7.23s-.03-.08,0-.11l.3-.3s.06-.03.08-.02l13.82,5.44,2.22,5.82Z"/><path class="e" d="M49.99,37.05c.03.16-.02.33-.14.45l-8.9,8.9c-.12.12-.28.17-.45.14-.16-.03-.3-.14-.37-.29l-1.74-3.78s-.03-.04-.05-.05l-6.15-2.34c-.13-.05-.24-.15-.29-.29l-5.67-14.39c-.07-.19-.03-.4.11-.54l1.96-1.96c.14-.14.36-.19.54-.11l14.39,5.67c.13.05.24.16.29.29l2.34,6.15s.02.03.04.05l3.78,1.74c.15.07.26.21.29.37ZM40.75,45.16l7.87-7.87-2.99-1.37s-.05,0-.06.01l-6.18,6.18s-.02.04-.01.06l1.37,2.99ZM44.87,35.2s.02-.04.01-.06l-2.22-5.82-13.82-5.44s-.06,0-.08.02l-.3.3s-.03.08,0,.11l7.23,7.23s.03.02.05,0c1.22-.86,2.91-.73,3.98.38,1.12,1.15,1.16,3.02.08,4.21-1.19,1.32-3.24,1.36-4.48.12-1.08-1.08-1.2-2.75-.35-3.95.01-.01,0-.03,0-.05l-7.23-7.23s-.08-.03-.11,0l-.29.29s-.03.06-.02.08l5.44,13.82,5.83,2.22s.04,0,.06-.01l6.22-6.22ZM38.98,35.53c.81-.81.81-2.12,0-2.93s-2.12-.81-2.93,0-.81,2.12,0,2.93,2.12.81,2.93,0Z"/><path class="f" d="M49.64,20.72c.2.2.2.52,0,.72l-2.56,2.56c-.2.2-.52.2-.72,0l-2.55-2.56c-.2-.2-.2-.52,0-.72l.93-.93s0-.02,0-.03c-2.49-2.27-5.9-3.41-9.65-3.2-3.24.18-6.38,1.36-8.32,3.11h0c.61,1.04.47,2.38-.41,3.26-.88.88-2.18,1.04-3.21.43-.04-.02-.07,0-.1.03-1.73,1.95-2.87,5.04-3.05,8.25-.21,3.75.93,7.16,3.2,9.64,0,.01.02.01.03,0l.93-.93c.2-.2.52-.2.72,0l2.56,2.56c.2.2.2.52,0,.72l-2.56,2.56c-.2.2-.52.2-.72,0l-2.55-2.56c-.2-.2-.2-.52,0-.72l.87-.87s0-.02,0-.03c-4.17-4.52-4.18-11.01-2.34-15.66.01-.03-.02-.05-.05-.03l-2.67,2.67s-.03.06-.02.09c.27.64.08,1.43-.56,1.86-.5.33-1.16.33-1.65,0-.82-.55-.89-1.67-.24-2.32.45-.45,1.11-.56,1.66-.32.03.01.07,0,.09-.02l5.61-5.62s.01-.03,0-.05c-.8-1.1-.65-2.67.43-3.59.93-.79,2.32-.83,3.29-.12.02.01.04.01.05,0l5.65-5.65s.01-.03,0-.04c-.29-.64-.11-1.45.55-1.88.5-.33,1.16-.33,1.65,0,.82.55.9,1.67.24,2.32-.45.46-1.13.56-1.69.31-.01,0-.03,0-.04,0l-2.69,2.69s0,.06.03.05c4.65-1.85,11.13-1.83,15.65,2.34,0,0,.02,0,.03,0l.87-.87c.2-.2.52-.2.72,0l2.56,2.56ZM46.73,22.92l1.84-1.84-1.84-1.84-1.84,1.84,1.84,1.84ZM33.49,12.93c.19-.19.19-.5,0-.7s-.5-.19-.7,0-.19.5,0,.7.5.19.7,0ZM24.53,45.11l1.84-1.84-1.84-1.84-1.84,1.84,1.84,1.84ZM25.65,22.21c.64-.64.64-1.69,0-2.33s-1.69-.64-2.33,0-.64,1.69,0,2.33,1.69.64,2.33,0ZM16.38,30.03c.19-.19.19-.5,0-.7s-.5-.19-.7,0c-.19.19-.19.5,0,.7.19.19.5.19.7,0Z"/></svg>