<?xml version="1.0" encoding="UTF-8"?>
<svg id="Layer_1" data-name="Layer 1" xmlns="http://www.w3.org/2000/svg" xmlns:xlink="http://www.w3.org/1999/xlink" viewBox="0 0 30 26.85">
  <defs>
    <style>
      .cls-1 {
        fill: url(#linear-gradient);
      }
    </style>
    <linearGradient id="linear-gradient" x1="7.38" y1="-.54" x2="22.49" y2="25.62" gradientUnits="userSpaceOnUse">
      <stop offset="0" stop-color="#95a3b8"/>
      <stop offset="1" stop-color="#65758c"/>
    </linearGradient>
  </defs>
  <path class="cls-1" d="M30,13.83v3.01c0,.23-.19.42-.42.42h-3.01c-.23,0-.42-.19-.42-.42v-3.01c0-.23.19-.42.42-.42h1.1s.02,0,.02-.02c-.13-2.81-1.47-5.48-3.8-7.57-2.01-1.8-4.56-2.96-6.74-3.07h0c-.25.97-1.12,1.68-2.15,1.68s-1.9-.67-2.14-1.64c-.02-.04-.05-.04-.08-.04-2.17.13-4.66,1.28-6.66,3.06-2.33,2.09-3.67,4.76-3.79,7.57,0,.01,0,.02.02.02h1.1c.23,0,.42.19.42.42v3.01c0,.23-.19.42-.42.42H.42c-.23,0-.42-.19-.42-.42v-3.01c0-.23.19-.42.42-.42h1.03s.02,0,.02-.02c.21-5.12,4.02-8.95,7.85-10.6.02-.01.02-.04-.01-.05h-3.15s-.05.02-.06.04c-.21.54-.79.89-1.42.76-.49-.1-.88-.49-.97-.98-.16-.8.46-1.51,1.23-1.51.53,0,.98.33,1.17.79.01.03.04.04.06.04h6.61s.03-.02.03-.04C12.98.75,13.99-.09,15.17,0c1.02.08,1.85.88,2.01,1.87,0,.02.02.03.03.03h6.66s.02-.01.03-.02c.21-.55.79-.91,1.43-.79.49.1.88.49.97.98.16.8-.46,1.51-1.23,1.51-.54,0-.99-.34-1.17-.81,0-.01-.02-.02-.03-.02h-3.17s-.04.04-.01.05c3.83,1.65,7.64,5.48,7.84,10.6,0,0,0,.02.02.02h1.03c.23,0,.42.19.42.42ZM29.16,16.42v-2.16h-2.16v2.16s2.16,0,2.16,0ZM25.49,2.32c0-.22-.19-.41-.41-.41s-.41.19-.41.41.19.41.41.41.41-.19.41-.41ZM16.36,2.22c0-.76-.62-1.37-1.37-1.37s-1.37.61-1.37,1.37.62,1.37,1.37,1.37,1.37-.62,1.37-1.37ZM5.33,2.32c0-.22-.18-.41-.41-.41-.23,0-.41.18-.41.41s.18.41.41.41c.23,0,.41-.19.41-.41ZM3.01,16.42v-2.16H.85v2.16h2.16ZM18.67,22.56s.03,0,.04-.03l2.13-4.73-4.94-11.35s-.04-.04-.06-.04h-.36s-.07.03-.07.07v8.52s.01.03.03.03c1.22.21,2.14,1.28,2.12,2.57-.02,1.33-1.1,2.46-2.43,2.53-1.48.08-2.71-1.1-2.71-2.57,0-1.27.91-2.32,2.12-2.53.02,0,.02-.02.02-.03V6.47s-.03-.07-.06-.07h-.34s-.05.02-.06.04l-4.93,11.35,2.13,4.74s.02.03.04.03h7.33ZM21.68,17.63c.05.11.05.23,0,.34l-2.25,5s0,.03,0,.05l1.21,3.25c.05.13.03.28-.05.39s-.21.18-.35.18h-10.48c-.14,0-.27-.07-.35-.18-.08-.11-.1-.26-.05-.39l1.2-3.25s0-.04,0-.05l-2.25-5c-.05-.11-.05-.23,0-.34l5.14-11.82c.07-.15.22-.26.39-.26h2.31c.17,0,.32.1.39.25l5.14,11.82ZM19.63,26l-.95-2.57s-.02-.03-.04-.03h-7.28s-.04.01-.04.03l-.95,2.57h9.27ZM16.72,17.56c0-.95-.77-1.73-1.73-1.73s-1.73.77-1.73,1.73.77,1.73,1.73,1.73,1.73-.77,1.73-1.73Z"/>
</svg>