<?xml version="1.0" encoding="UTF-8"?><svg id="a" xmlns="http://www.w3.org/2000/svg" xmlns:xlink="http://www.w3.org/1999/xlink" viewBox="0 0 50 43.75"><defs><style>.c{fill:url(#b);}</style><linearGradient id="b" x1="0" y1="21.88" x2="50" y2="21.88" gradientUnits="userSpaceOnUse"><stop offset="0" stop-color="#94a3b7"/><stop offset="1" stop-color="#65748b"/></linearGradient></defs><path class="c" d="M40.84,14.18c-.53-.18-1.05-.34-1.58-.5.09-.36.17-.72.24-1.08,1.2-5.82.41-10.5-2.26-12.04-2.57-1.47-6.76.06-11,3.75-.42.36-.83.74-1.22,1.12-.26-.25-.54-.51-.81-.75C19.78.73,15.32-.93,12.66.62c-2.56,1.48-3.32,5.89-2.25,11.4.11.55.22,1.08.36,1.63-.63.18-1.24.37-1.82.58C3.74,16.03,0,18.89,0,21.83s3.98,6.1,9.4,7.96c.44.15.88.29,1.33.42-.15.59-.27,1.16-.39,1.76-1.03,5.42-.22,9.72,2.33,11.19,2.64,1.52,7.07-.04,11.39-3.82.34-.3.68-.62,1.03-.95.43.42.88.82,1.33,1.21,4.18,3.59,8.31,5.05,10.86,3.57,2.64-1.52,3.5-6.14,2.38-11.77-.09-.43-.19-.87-.29-1.32.31-.09.62-.19.92-.28,5.63-1.87,9.72-4.88,9.72-7.98s-3.85-5.83-9.16-7.66h0ZM27.63,5.89c3.63-3.16,7.02-4.4,8.56-3.52,1.65.95,2.29,4.78,1.25,9.8-.07.33-.14.65-.22.98-2.17-.49-4.37-.84-6.57-1.04-1.27-1.82-2.66-3.55-4.16-5.19.38-.36.75-.7,1.14-1.04ZM16.33,26.9c.5.85,1.01,1.7,1.54,2.53-1.52-.17-3.04-.41-4.53-.73.43-1.41.97-2.86,1.59-4.35.45.86.91,1.71,1.4,2.55h0ZM13.37,15.16c1.41-.31,2.9-.57,4.45-.76-.52.81-1.03,1.64-1.5,2.48-.48.83-.95,1.68-1.39,2.54-.62-1.46-1.13-2.88-1.56-4.26h0ZM16.04,21.88c.64-1.35,1.35-2.67,2.09-3.96s1.54-2.56,2.38-3.8c1.46-.11,2.96-.17,4.48-.17s3.03.06,4.48.17c.83,1.23,1.62,2.49,2.37,3.78s1.46,2.61,2.12,3.95c-.65,1.35-1.36,2.68-2.11,3.98-.74,1.3-1.53,2.56-2.36,3.81-1.46.11-2.97.16-4.5.16s-3.02-.05-4.45-.14c-.85-1.24-1.65-2.51-2.4-3.81s-1.45-2.62-2.1-3.96h0ZM33.68,26.88c.5-.86.97-1.73,1.43-2.61.62,1.42,1.17,2.85,1.65,4.33-1.51.34-3.05.61-4.59.78.53-.82,1.03-1.66,1.51-2.5h0ZM35.09,19.41c-.46-.86-.93-1.72-1.42-2.56-.48-.83-.98-1.65-1.49-2.46,1.57.2,3.08.46,4.48.78-.45,1.45-.98,2.85-1.57,4.24ZM25.02,8.43c1.03,1.11,1.99,2.29,2.89,3.5-1.93-.09-3.88-.09-5.81,0,.96-1.26,1.94-2.43,2.92-3.5ZM13.69,2.44c1.64-.96,5.28.41,9.12,3.81.24.21.49.45.74.68-1.51,1.63-2.91,3.37-4.19,5.19-2.21.2-4.39.54-6.56,1.02-.13-.5-.23-1.01-.34-1.51-.92-4.73-.31-8.29,1.23-9.18h0ZM11.3,28.18c-.41-.12-.81-.24-1.21-.38-2.08-.65-4.44-1.69-6.15-3.05-.99-.68-1.65-1.74-1.84-2.92,0-1.79,3.09-4.07,7.54-5.63.56-.2,1.12-.37,1.69-.54.66,2.12,1.46,4.2,2.39,6.21-.94,2.04-1.75,4.15-2.42,6.3ZM22.69,37.75c-1.61,1.47-3.48,2.65-5.51,3.45-1.08.52-2.33.57-3.45.13-1.55-.9-2.2-4.35-1.32-8.98.11-.55.22-1.09.36-1.63,2.19.47,4.39.79,6.63.96,1.29,1.83,2.71,3.57,4.22,5.21-.31.3-.62.6-.94.87h0ZM25.08,35.38c-1-1.07-1.99-2.27-2.96-3.54.94.04,1.9.06,2.88.06s1.99-.02,2.97-.07c-.9,1.24-1.87,2.42-2.89,3.55ZM37.84,38.31c-.09,1.19-.67,2.3-1.61,3.06-1.55.9-4.86-.27-8.44-3.34-.41-.35-.82-.73-1.24-1.12,1.49-1.65,2.87-3.4,4.12-5.23,2.24-.19,4.46-.53,6.66-1.03.1.4.19.8.26,1.19.48,2.11.56,4.31.24,6.47h0ZM39.62,27.81c-.27.09-.55.18-.83.25-.68-2.13-1.52-4.21-2.49-6.23.94-1.99,1.73-4.04,2.39-6.14.51.15,1,.3,1.46.46,4.55,1.56,7.74,3.89,7.74,5.66,0,1.91-3.41,4.38-8.28,6ZM25,26.35c2.47,0,4.47-2,4.47-4.47s-2-4.47-4.47-4.47-4.47,2-4.47,4.47,2,4.47,4.47,4.47h0Z"/></svg>