<?xml version="1.0" encoding="UTF-8"?><svg id="a" xmlns="http://www.w3.org/2000/svg" xmlns:xlink="http://www.w3.org/1999/xlink" viewBox="0 0 50 50"><defs><style>.c{fill:url(#b);}</style><linearGradient id="b" x1="0" y1="25" x2="50" y2="25" gradientUnits="userSpaceOnUse"><stop offset="0" stop-color="#94a3b7"/><stop offset="1" stop-color="#65748b"/></linearGradient></defs><path class="c" d="M42,0H0v42c0,2.12.85,4.15,2.34,5.66,1.5,1.51,3.54,2.34,5.66,2.34h34c2.12,0,4.15-.85,5.66-2.34s2.34-3.54,2.34-5.66V8c0-2.12-.85-4.15-2.34-5.66s-3.54-2.34-5.66-2.34h0ZM37.1,44.58c-.86-.95-1.31-2.31-1.34-4.08h3.49c.02,1.57.57,2.35,1.65,2.35.55,0,.94-.18,1.17-.52.22-.35.33-.89.33-1.65,0-.6-.15-1.1-.45-1.5-.39-.47-.9-.84-1.47-1.06l-1.29-.61c-1.15-.55-1.99-1.21-2.51-1.96-.5-.76-.75-1.82-.75-3.17,0-1.52.45-2.75,1.32-3.69.9-.95,2.13-1.42,3.71-1.42s2.69.47,3.52,1.4c.84.94,1.28,2.27,1.32,4.01h-3.36c.02-.57-.1-1.14-.33-1.65-.19-.38-.56-.57-1.12-.57-.98,0-1.47.58-1.47,1.75,0,.59.12,1.05.36,1.41.35.39.78.69,1.27.87l1.24.55c1.28.59,2.2,1.31,2.77,2.17.57.86.85,2.01.85,3.46,0,1.73-.45,3.06-1.37,3.98-.92.93-2.18,1.4-3.81,1.4s-2.86-.47-3.73-1.42v-.02ZM25.83,44.58c-.86-.95-1.31-2.31-1.34-4.08h3.49c.02,1.57.57,2.35,1.65,2.35.55,0,.94-.18,1.16-.52s.33-.89.33-1.65c0-.6-.15-1.1-.44-1.5-.39-.47-.9-.84-1.47-1.06l-1.29-.61c-1.15-.55-1.99-1.21-2.51-1.96-.5-.76-.75-1.82-.75-3.17,0-1.52.45-2.75,1.32-3.69.9-.95,2.13-1.42,3.71-1.42s2.69.47,3.5,1.4c.85.94,1.28,2.27,1.33,4.01h-3.36c.02-.57-.1-1.14-.33-1.65-.19-.38-.56-.57-1.12-.57-.98,0-1.47.58-1.47,1.75,0,.59.12,1.05.36,1.41.35.39.78.69,1.27.87l1.24.55c1.28.59,2.2,1.31,2.77,2.17.57.86.85,2.01.85,3.46,0,1.73-.46,3.06-1.37,3.98s-2.18,1.4-3.81,1.4-2.86-.47-3.73-1.42v-.02ZM14.04,44.7c-.94-.86-1.4-2.14-1.4-3.85v-8.42c0-1.7.49-2.98,1.47-3.86.99-.87,2.31-1.32,3.93-1.32s2.81.45,3.73,1.34c.93.89,1.4,2.23,1.4,4.01v.67h-3.69v-.65c0-.68-.15-1.19-.45-1.52-.12-.17-.29-.3-.48-.39s-.39-.13-.6-.12c-.6,0-1.03.2-1.27.63-.26.58-.37,1.21-.33,1.83v7.31c0,1.53.54,2.3,1.61,2.32.5,0,.88-.18,1.14-.54.28-.46.41-.98.39-1.52v-.55h3.69v.57c0,1.18-.23,2.18-.69,2.97-.45.77-1.1,1.4-1.91,1.79-.86.41-1.8.61-2.75.59-1.58,0-2.85-.44-3.77-1.29h-.01Z"/></svg>