<?xml version="1.0" encoding="UTF-8"?><svg id="a" xmlns="http://www.w3.org/2000/svg" xmlns:xlink="http://www.w3.org/1999/xlink" viewBox="0 0 50 47.25"><defs><style>.c{fill:url(#b);}</style><linearGradient id="b" x1="0" y1="23.63" x2="50" y2="23.63" gradientUnits="userSpaceOnUse"><stop offset="0" stop-color="#94a3b7"/><stop offset="1" stop-color="#65748b"/></linearGradient></defs><path class="c" d="M25.47,32.26c.63,0,1.15.52,1.15,1.15s-.51,1.15-1.15,1.15-1.15-.51-1.15-1.15.51-1.15,1.15-1.15ZM13.14,10.41c-.28,0-.5.23-.5.5v6.27c0,1.31-1.07,2.38-2.38,2.38s-2.38-1.07-2.38-2.38v-6.27c0-.28-.23-.5-.5-.5s-.5.23-.5.5v6.27c0,1.87,1.52,3.39,3.39,3.39s3.39-1.52,3.39-3.39v-6.27c0-.28-.23-.5-.5-.5ZM47.87,0H2.13C.95,0,0,.95,0,2.13v32.71c0,1.17.95,2.13,2.13,2.13h15.84s.06.03.06.06v5.79h-.25s-.03,0-.05.01l-2.8,1.38s-.06.06-.06.1v2.81c0,.08.06.14.14.14h20.14c.08,0,.14-.06.14-.14v-2.79s-.02-.08-.06-.1l-3.07-1.4s-.03,0-.04-.01h-.1v-5.79s.02-.05.05-.05h15.81c1.17,0,2.13-.95,2.13-2.13V2.13c0-1.17-.95-2.13-2.13-2.13ZM48.87,29.85H1.14c-.07,0-.12-.05-.12-.12V2.13c-.01-.62.49-1.12,1.1-1.12h45.62c.68,0,1.24.56,1.24,1.24v27.48c0,.07-.05.12-.12.12ZM30.97,42.81h-11.87s-.06-.02-.06-.06v-5.73s.03-.06.06-.06h11.86s.05.02.05.05v5.75s-.02.04-.04.04ZM25.47,35.57c-1.19,0-2.16-.97-2.16-2.16s.97-2.16,2.16-2.16,2.16.97,2.16,2.16-.97,2.16-2.16,2.16ZM6.72,3.72c-.28,0-.5.23-.5.5s.23.5.5.5h36.54c.28,0,.5-.22.5-.5s-.23-.5-.5-.5H6.72ZM6.92,26.44c-.28,0-.5.23-.5.5s.23.5.5.5h36.33c.28,0,.5-.23.5-.5s-.23-.5-.5-.5H6.92ZM42.78,10.52c-.28,0-.5.23-.5.5v9.12c0,.28.23.5.5.5s.5-.23.5-.5v-9.12c0-.28-.23-.5-.5-.5ZM39.12,10.41c-.28,0-.5.23-.5.5v6.27c0,1.31-1.07,2.38-2.38,2.38s-2.38-1.07-2.38-2.38v-6.27c0-.28-.23-.5-.5-.5s-.5.23-.5.5v6.27c0,1.87,1.52,3.39,3.39,3.39s3.39-1.52,3.39-3.39v-6.27c0-.28-.23-.5-.5-.5ZM30.34,7.63l-5.89,15.42c-.1.26.03.55.29.65.06.02.12.03.18.03.2,0,.39-.12.47-.32l5.89-15.42c.1-.26-.03-.55-.29-.65-.26-.1-.55.03-.65.29ZM19.49,15.52s-.01-.04,0-.06l2.3-4.21c.12-.25.02-.55-.23-.67s-.55-.02-.67.23l-1.93,3.53s-.08.04-.11,0l-1.93-3.53c-.12-.25-.43-.35-.68-.23s-.35.42-.23.67l2.3,4.22s0,.04,0,.06l-2.29,4.21c-.12.25-.02.55.23.68.07.03.15.05.22.05.19,0,.37-.1.45-.28l1.93-3.53s.08-.04.11,0l1.93,3.53c.09.18.27.28.45.28.07,0,.15-.02.22-.05.25-.12.35-.43.29-.56l-2.36-4.33Z"/></svg>