<?xml version="1.0" encoding="UTF-8"?>
<svg id="Layer_1" data-name="Layer 1" xmlns="http://www.w3.org/2000/svg" xmlns:xlink="http://www.w3.org/1999/xlink" viewBox="0 0 30 24.19">
  <defs>
    <style>
      .cls-1 {
        fill: url(#linear-gradient);
      }
    </style>
    <linearGradient id="linear-gradient" x1="0" y1="12.1" x2="30" y2="12.1" gradientUnits="userSpaceOnUse">
      <stop offset="0" stop-color="#95a3b8"/>
      <stop offset="1" stop-color="#65758c"/>
    </linearGradient>
  </defs>
  <path class="cls-1" d="M12.67,6.38h-4.65c-2.34-.62-7.65-.46-7.65,4.38,0,1.76.88,3,2.05,3.57-1.47,1.35-2.17,1.98-2.17,2.88,0,.64.26,1.24,1.05,1.57-.84.79-1.31,1.35-1.31,2.43,0,1.88,1.64,2.98,5.95,2.98s6.55-1.55,6.55-4.29c0-3.44-2.65-3.31-8.88-3.69l.79-1.27c1.6.45,6.96.59,6.96-3.98,0-1.1-.45-1.86-.88-2.41l2.19-.16v-2.02h0ZM8.96,20.55c0,1.88-6.15,1.88-6.15.14,0-.47.31-.88.62-1.26,4.55.31,5.53.2,5.53,1.12ZM5.98,12.67c-3.09,0-2.96-4.17.07-4.17s2.98,4.17-.07,4.17ZM13.79,18.56v-1.88c1.56-.22,1.59-.12,1.59-.64v-7c0-.5-.12-.43-1.59-.96l.26-1.93h4.93v9.88c0,.38.02.43.38.47l1.21.16v1.88h-6.79ZM16.87,4.24c-1.36,0-2.14-.79-2.14-2.14s.79-2.1,2.14-2.1,2.17.74,2.17,2.1-.79,2.14-2.17,2.14ZM30,17.64c-1.03.5-2.53.96-3.88.96-2.84,0-3.91-1.14-3.91-3.84v-6.24c0-.32.06-.24-1.86-.24v-2.12c2.1-.24,2.93-1.29,3.19-3.88h2.26c0,3.86-.08,3.62.19,3.62h3.36v2.38h-3.55v5.69c0,.4-.29,3.01,3.55,1.57l.64,2.1h0Z"/>
</svg>