<?xml version="1.0" encoding="UTF-8"?><svg id="a" xmlns="http://www.w3.org/2000/svg" xmlns:xlink="http://www.w3.org/1999/xlink" viewBox="0 0 50 50"><defs><style>.c{fill:url(#b);}</style><linearGradient id="b" x1="0" y1="25" x2="50" y2="25" gradientUnits="userSpaceOnUse"><stop offset="0" stop-color="#94a3b7"/><stop offset="1" stop-color="#65748b"/></linearGradient></defs><path class="c" d="M0,0v50h50V0H0ZM27.21,39c0,4.87-2.86,7.09-7.02,7.09-3.76,0-5.94-1.94-7.05-4.3l3.83-2.31c.74,1.31,1.41,2.41,3.02,2.41s2.52-.6,2.52-2.96v-15.97h4.7v16.04h0ZM38.33,46.08c-4.36,0-7.19-2.08-8.56-4.8l3.83-2.21c1,1.64,2.32,2.86,4.63,2.86,1.94,0,3.19-.97,3.19-2.32,0-1.61-1.27-2.18-3.43-3.12l-1.17-.5c-3.39-1.44-5.64-3.26-5.64-7.09,0-3.53,2.69-6.21,6.88-6.21,2.99,0,5.13,1.04,6.67,3.76l-3.66,2.34c-.8-1.44-1.67-2.01-3.02-2.01s-2.24.87-2.24,2.01c0,1.41.87,1.98,2.89,2.86l1.17.5c4,1.71,6.24,3.46,6.24,7.39,0,4.22-3.33,6.54-7.78,6.54h0Z"/></svg>