<?xml version="1.0" encoding="UTF-8"?>
<svg id="Layer_1" data-name="Layer 1" xmlns="http://www.w3.org/2000/svg" xmlns:xlink="http://www.w3.org/1999/xlink" viewBox="0 0 30 26.76">
  <defs>
    <style>
      .cls-1 {
        fill: url(#linear-gradient);
      }
    </style>
    <linearGradient id="linear-gradient" x1="6.98" y1="-2.97" x2="23.14" y2="25.03" gradientUnits="userSpaceOnUse">
      <stop offset="0" stop-color="#95a3b8"/>
      <stop offset="1" stop-color="#65758c"/>
    </linearGradient>
  </defs>
  <path class="cls-1" d="M30,2.51v16.84c0,1.39-1.12,2.51-2.51,2.51h-8.13s-.04.02-.03.04l1.52,3.2c.15.32.17.7.01,1.02-.2.39-.59.63-1.02.63h-9.62c-.35,0-.7-.15-.92-.42-.27-.34-.32-.8-.14-1.19l1.57-3.24s0-.04-.03-.04H2.51c-1.39,0-2.51-1.12-2.51-2.51V2.51C0,1.12,1.12,0,2.51,0h24.98c1.39,0,2.51,1.12,2.51,2.51ZM29.23,19.36v-.42s-.03-.06-.06-.06H.83s-.06.03-.06.06v.42c0,.96.78,1.74,1.74,1.74h24.98c.96,0,1.74-.78,1.74-1.74ZM29.23,18.04V2.51c0-.96-.78-1.74-1.74-1.74h-9.97c-.06,0-.11.05-.11.11v17.11c0,.06.05.11.11.11h11.65s.06-.03.06-.06ZM20.21,25.84c.07-.12.07-.26.01-.39l-1.69-3.56s-.02-.02-.03-.02h-6.94s-.02,0-.03.02l-1.73,3.57c-.06.12-.05.26.02.38.08.13.23.21.38.21h9.61c.14,0,.32-.09.39-.21ZM16.63,17.99V.88c0-.06-.05-.11-.11-.11H2.51c-.96,0-1.74.78-1.74,1.74v15.53s.03.06.06.06h15.69c.06,0,.11-.05.11-.11ZM19.47,10.48c-.21,0-.38.17-.38.38s.17.38.38.38h7.79c.21,0,.38-.17.38-.38s-.17-.38-.38-.38h-7.79ZM19.47,13.04c-.21,0-.38.17-.38.38s.17.38.38.38h7.79c.21,0,.38-.17.38-.38s-.17-.38-.38-.38h-7.79ZM19.47,15.58c-.21,0-.38.17-.38.38s.17.38.38.38h7.79c.21,0,.38-.17.38-.38s-.17-.38-.38-.38h-7.79ZM25.82,3.1c-.13-.16-.37-.19-.53-.06-.16.13-.19.37-.06.53l1.42,1.78-1.42,1.79c-.13.16-.1.4.06.53.07.05.15.08.23.08.11,0,.22-.05.3-.14l1.6-2.03c.11-.14.11-.33,0-.47l-1.6-2.02ZM23.21,3.14l-1.08,4.25c-.05.2.07.41.27.46.03,0,.06.01.09.01.17,0,.32-.11.37-.28l1.08-4.25c.05-.2-.07-.41-.27-.46-.2-.05-.41.07-.46.27ZM20.34,3.1l-1.6,2.02c-.11.14-.11.33,0,.47l1.6,2.03c.07.1.18.14.3.14.08,0,.16-.03.23-.08.16-.13.19-.37.06-.53l-1.42-1.79,1.42-1.78c.13-.16.1-.4-.06-.53-.16-.13-.4-.1-.53.06ZM15.38,10.93v4.97c0,.21-.17.38-.38.38h-4.97c-.21,0-.38-.17-.38-.38v-4.97c0-.21.17-.38.38-.38h4.97c.21,0,.38.17.38.38ZM14.62,15.37v-3.9c0-.09-.07-.16-.16-.16h-3.9c-.09,0-.16.07-.16.16v3.9c0,.09.07.16.16.16h3.9c.09,0,.16-.07.16-.16ZM15.38,2.87v6.06c0,.21-.17.38-.38.38H2.98c-.21,0-.38-.17-.38-.38V2.87c0-.21.17-.38.38-.38h12.02c.21,0,.38.17.38.38ZM14.62,8.39V3.4c0-.09-.07-.16-.16-.16H3.51c-.09,0-.16.07-.16.16v4.98c0,.09.07.16.16.16h10.95c.09,0,.16-.07.16-.16ZM8.33,10.93v4.97c0,.21-.17.38-.38.38H2.98c-.21,0-.38-.17-.38-.38v-4.97c0-.21.17-.38.38-.38h4.97c.21,0,.38.17.38.38ZM7.57,15.37v-3.9c0-.09-.07-.16-.16-.16h-3.9c-.09,0-.16.07-.16.16v3.9c0,.09.07.16.16.16h3.9c.09,0,.16-.07.16-.16Z"/>
</svg>