<?xml version="1.0" encoding="UTF-8"?><svg id="a" xmlns="http://www.w3.org/2000/svg" xmlns:xlink="http://www.w3.org/1999/xlink" viewBox="0 0 50 39.85"><defs><style>.c{fill:url(#b);}</style><linearGradient id="b" x1="0" y1="19.92" x2="50" y2="19.92" gradientUnits="userSpaceOnUse"><stop offset="0" stop-color="#94a3b7"/><stop offset="1" stop-color="#65748b"/></linearGradient></defs><path class="c" d="M29.05,15.07c0-1.97-1.39-3.05-3.83-3.05h-4.48v6.33h3.78c2.92,0,4.53-1.18,4.53-3.28ZM45.37,13.93c-.85-2.75-.97-6.12-.87-8.73.1-2.71-2.02-5.2-4.87-5.2H10.38c-2.86,0-4.96,2.5-4.87,5.2.09,2.61-.03,5.98-.87,8.73-.85,2.76-2.29,4.5-4.64,4.72v2.54c2.35.22,3.79,1.97,4.64,4.72.85,2.75.97,6.12.87,8.73-.1,2.71,2.02,5.2,4.87,5.2h29.24c2.86,0,4.96-2.5,4.87-5.2-.09-2.61.03-5.98.87-8.73.85-2.76,2.29-4.5,4.64-4.72v-2.54c-2.34-.22-3.78-1.97-4.63-4.72ZM26.09,30.52h-8.71V9.32h8.67c3.85,0,6.38,2.08,6.38,5.28,0,2.25-1.7,4.26-3.87,4.61v.12c2.95.32,4.94,2.37,4.94,5.19,0,3.75-2.78,6.01-7.4,6.01ZM25.2,20.85h-4.46v6.98h4.65c3.04,0,4.65-1.22,4.65-3.51,0-2.29-1.65-3.46-4.85-3.46Z"/></svg>