<?xml version="1.0" encoding="UTF-8"?><svg id="a" xmlns="http://www.w3.org/2000/svg" xmlns:xlink="http://www.w3.org/1999/xlink" viewBox="0 0 34.77 50"><defs><style>.c{fill:url(#b);}</style><linearGradient id="b" x1="0" y1="25" x2="34.77" y2="25" gradientUnits="userSpaceOnUse"><stop offset="0" stop-color="#94a3b7"/><stop offset="1" stop-color="#65748b"/></linearGradient></defs><path class="c" d="M0,9.36C0,4.19,4.19,0,9.36,0h16.05c5.17,0,9.36,4.19,9.36,9.36,0,3.27-1.68,6.15-4.23,7.82,2.55,1.67,4.23,4.55,4.23,7.82,0,5.17-4.19,9.36-9.36,9.36h-.21c-2.42,0-4.63-.92-6.29-2.43v8.62c0,5.23-4.3,9.45-9.51,9.45S0,45.82,0,40.64c0-3.27,1.68-6.15,4.22-7.82-2.54-1.67-4.22-4.55-4.22-7.82s1.68-6.15,4.22-7.82C1.68,15.51,0,12.63,0,9.36ZM15.85,18.71h-6.49c-3.48,0-6.29,2.81-6.29,6.29s2.79,6.27,6.25,6.29h6.53v-12.58ZM18.92,25c0,3.48,2.81,6.29,6.29,6.29h.21c3.47,0,6.29-2.81,6.29-6.29s-2.82-6.29-6.29-6.29h-.21c-3.48,0-6.29,2.81-6.29,6.29ZM9.36,34.36h-.04c-3.46.02-6.25,2.83-6.25,6.29s2.85,6.29,6.34,6.29,6.45-2.87,6.45-6.39v-6.19h-6.49ZM9.36,3.07c-3.48,0-6.29,2.81-6.29,6.29s2.81,6.29,6.29,6.29h6.49V3.07h-6.49ZM18.92,15.64h6.49c3.47,0,6.29-2.81,6.29-6.29s-2.82-6.29-6.29-6.29h-6.49v12.58Z"/></svg>