<?xml version="1.0" encoding="UTF-8"?><svg id="a" xmlns="http://www.w3.org/2000/svg" xmlns:xlink="http://www.w3.org/1999/xlink" viewBox="0 0 50 37.45"><defs><style>.c{fill:url(#b);}</style><linearGradient id="b" x1="0" y1="18.73" x2="50" y2="18.73" gradientUnits="userSpaceOnUse"><stop offset="0" stop-color="#94a3b7"/><stop offset="1" stop-color="#65748b"/></linearGradient></defs><path class="c" d="M43.67,21.5c5.08.14,6.33,4.28,6.33,5.2,0,3.19-2.69,3.64-3.46,3.57,2.04-.9,2.4-2.36,2.41-3.09,0-3.64-6.6-5.04-9.82-3.48-.11.05-.16.19-.12.3.91,2.55-.24,3.41-1.17,4.48-3.38,2.32-4.23.93-4.22.21.19-2.77,2.53-4.54,2.9-4.99-.71-.9-1.33-3.12-1.33-3.93,0,0-2.05,3.4-2.93,4.73-.17.25-.19.58-.04.84.21.4.48,1.08.48,2.03,0,1.5-1.02,2.5-2.04,3.12-.91.55-1.94.86-2.99.94l-.38.03c-.85.07-1.36-.92-.81-1.57,1.32-1.57,3.09-3.72,3.48-4.3-1.01-2.08-1.45-3.2-1.5-4.57-.79,2.21-4.58,11.2-6.45,11.2-1.51-.4-1.32-2.33-1.19-4.12-1.59,4.07-2.69,4.76-3.46,4.76-1.98,0-2.64-3.67-2.64-4.41,0-1.27.37-3.44.76-4.21l-2.54,1.45c-.18.08-.36.17-.53.25-.03.01-.03.04-.02.06.5.91.8,1.92.8,3.13,0,1-1.21,8.31-7.67,8.31-2.11,0-3.86-.68-3.86-3.8,0-2.19,1.86-4.44,8.02-7.85.08-.04.09-.14.03-.2C6.53,22.51,0,19.45,0,15.51c0-1.64.8-3.62,2.76-6.13C9.15,2.5,18.97,0,22.64,0c7.16,0,8.82,3.92,8.82,6.19,0,7.38-9.23,11.06-13.75,11.06-5.41,0-6.35-3.4-6.33-3.93,3.41,3.93,8.97,1.53,10.96.76,6.5-3.21,6.43-6.48,6.43-7.36,0-2.82-3.94-6.18-14.39-1.63-3.79,2.05-10.64,5.32-10.64,10.28,0,4.3,5.02,6.09,7.74,9.34,0,.01.03.02.04,0,.45-.23.9-.47,1.39-.71.62-.31,1.84-.93,2.7-1.43.56-.33,1.06-.74,1.48-1.22.97-1.11,2.49-2.48,3.95-2.48.82,0,1.95.98,1.48,3.15.72-.35,1.24-.11,1.53.19.13.13.17.32.11.49-.62,1.68-1.26,4.86-1.36,6.48-.01.2.25.28.35.1,1.41-2.57,4.36-9.92,5.08-11.74.1-.25.34-.41.61-.41h1.65c.45,0,.75.43.62.86-.88,2.81-.12,4.83.26,5.45.79-1.03,2.69-4.73,3.06-5.76.14-.61.51-1.41.68-1.77.05-.12.17-.19.3-.19h2.16c.23,0,.39.23.31.45-1.14,3.05-.09,5.12.6,6.44,2.33-.95,4.1-1.11,5.21-1.11ZM37.13,26.86c.28-.78.39-1.42.12-1.97-.06-.11-.21-.14-.31-.05-1.01.93-1.58,2.45-1.75,3.25-.03.14.1.27.24.22.58-.19,1.4-.77,1.69-1.45ZM30.68,27.12c.02-.1-.11-.16-.18-.08l-2.29,2.77c-.07.08.02.2.12.16.44-.16,1.18-.52,1.56-.93.45-.55.7-1.38.8-1.92ZM18.11,29.81c1.81-2.24,3.16-7.3,3.08-8.68,0-.16-.17-.28-.32-.23-1.61.5-2.58,2.25-3.28,4.2-.85,2.87-.37,4.04.13,4.7.1.13.29.13.39,0ZM11.29,28.69c0-.6,0-1.31-.36-1.9-.03-.05-.09-.06-.14-.03-7.69,4.28-6.26,7.94-5,7.94,5.15-.04,5.5-6,5.5-6Z"/></svg>