<?xml version="1.0" encoding="UTF-8"?>
<svg id="Layer_1" data-name="Layer 1" xmlns="http://www.w3.org/2000/svg" xmlns:xlink="http://www.w3.org/1999/xlink" viewBox="0 0 30 29.87">
  <defs>
    <style>
      .cls-1 {
        fill: url(#linear-gradient);
      }
    </style>
    <linearGradient id="linear-gradient" x1="0" y1="14.93" x2="30" y2="14.93" gradientUnits="userSpaceOnUse">
      <stop offset="0" stop-color="#95a3b8"/>
      <stop offset="1" stop-color="#65758c"/>
    </linearGradient>
  </defs>
  <path class="cls-1" d="M30,0v29.87H0V0h30ZM25.83,12.32l-.04-1.1h-5.59s0,1.11,0,1.11l2.17.02v6.67s1.27,0,1.27,0v-6.65s2.18-.04,2.18-.04ZM19.76,19.03v-1.1s-2.99-.01-2.99-.01v-2.26s2.59-.03,2.59-.03v-1.07s-2.59-.02-2.59-.02v-2.18s2.78-.01,2.78-.01l.02-1.12h-4.09s0,7.82,0,7.82h4.28ZM13.83,18.96v-7.72s-1.22-.01-1.22-.01l-.07,5.83-3.68-5.81-1.5-.03v7.79s1.22,0,1.22,0l.06-5.94,3.78,5.93c.5.03,1.01.02,1.41-.05ZM5.6,19.11c.4-.13.6-.57.45-.98-.11-.3-.57-.54-.96-.41-.52.18-.63.69-.43,1.05.16.29.62.44.94.34Z"/>
</svg>