<?xml version="1.0" encoding="UTF-8"?><svg id="a" xmlns="http://www.w3.org/2000/svg" xmlns:xlink="http://www.w3.org/1999/xlink" viewBox="0 0 50 33.12"><defs><style>.c{fill:url(#b);}</style><linearGradient id="b" x1="0" y1="16.56" x2="50" y2="16.56" gradientUnits="userSpaceOnUse"><stop offset="0" stop-color="#94a3b7"/><stop offset="1" stop-color="#65748b"/></linearGradient></defs><path class="c" d="M50,16.66v14.99c0,.81-.66,1.47-1.47,1.47h-8.26c-.81,0-1.47-.66-1.47-1.47v-14.99c0-.81.66-1.47,1.47-1.47h8.26c.81,0,1.47.66,1.47,1.47ZM48.87,31.65v-1.87c0-.07-.05-.12-.12-.12h-8.71c-.07,0-.12.05-.12.12v1.87c0,.19.15.34.34.34h8.26c.19,0,.34-.15.34-.34ZM48.87,28.42v-8.65c0-.06-.05-.12-.12-.12h-8.71c-.06,0-.12.05-.12.12v8.65c0,.06.05.11.11.11h8.71c.06,0,.11-.05.11-.11ZM48.87,18.41v-1.76c0-.19-.15-.34-.34-.34h-8.26c-.19,0-.34.15-.34.34v1.76c0,.06.05.11.11.11h8.72c.06,0,.11-.05.11-.11ZM32.38,28.53c-.31,0-.57.25-.57.57s.25.57.57.57h2.21c.31,0,.57-.25.57-.57s-.25-.57-.57-.57h-2.21ZM27.48,16.52c-.31,0-.57.25-.57.57v5.54c0,.31.25.57.57.57s.57-.25.57-.57v-5.54c0-.31-.25-.57-.57-.57ZM27.48,11.46c-.31,0-.57.25-.57.57v2.24c0,.31.25.57.57.57s.57-.25.57-.57v-2.24c0-.31-.25-.57-.57-.57ZM43.38,6.43v6.13c0,.3-.21.57-.51.59-.34.03-.62-.23-.62-.56v-3.07c0-.06-.05-.12-.12-.12h-17.26c-.06,0-.12.05-.12.12v15.55c0,.06.05.11.11.11h11.31c.3,0,.57.21.59.51.03.34-.23.62-.56.62h-11.34c-.06,0-.11.05-.11.11v5.21c0,.2.16.36.36.36h10.98c.29,0,.56.21.59.51.03.34-.23.62-.56.62h-11.01c-.82,0-1.49-.67-1.49-1.49V6.43c0-.82.67-1.49,1.49-1.49h16.77c.83,0,1.49.67,1.49,1.49ZM42.25,8.16v-1.73c0-.2-.16-.36-.36-.36h-16.77c-.2,0-.36.16-.36.36v1.73c0,.06.05.11.11.11h17.26c.06,0,.11-.05.11-.11ZM17.09,23.59c-.31,0-.57.25-.57.57s.25.57.57.57h2.23c.31,0,.57-.25.57-.57s-.25-.57-.57-.57h-2.23ZM3.88,11.46c-.31,0-.57.25-.57.57v5.59c0,.31.25.57.57.57s.57-.25.57-.57v-5.59c0-.31-.25-.57-.57-.57ZM3.88,6.43c-.31,0-.57.25-.57.57v2.19c0,.31.25.57.57.57s.57-.25.57-.57v-2.19c0-.31-.25-.57-.57-.57ZM35.07,0H1.51C.67,0,0,.67,0,1.5v25.17c0,.83.67,1.5,1.51,1.5h12.85s.02,0,.01.02c-.17,1.3-.85,3.79-2.87,3.79h-1.14c-.33,0-.59.29-.56.62.03.29.3.51.59.51h10.63c.29,0,.57-.21.59-.51.03-.34-.23-.62-.56-.62h-6.99s-.03-.02-.02-.04c.93-1.05,1.37-2.61,1.48-3.76,0,0,0-.01.01-.01h5.52c.33,0,.6-.29.56-.62-.03-.3-.3-.51-.59-.51H1.51c-.21,0-.38-.17-.38-.37v-5.28c0-.06.05-.11.12-.11h19.8c.33,0,.6-.29.56-.62-.03-.29-.3-.51-.59-.51H1.25c-.06,0-.12-.05-.12-.12V1.5c0-.21.17-.37.38-.37h33.56c.21,0,.37.17.37.37v1.13c0,.33.29.6.62.56.29-.03.51-.3.51-.59v-1.09c0-.83-.67-1.5-1.5-1.5Z"/></svg>