<?xml version="1.0" encoding="UTF-8"?>
<svg id="Layer_1" data-name="Layer 1" xmlns="http://www.w3.org/2000/svg" xmlns:xlink="http://www.w3.org/1999/xlink" viewBox="0 0 30 30">
  <defs>
    <style>
      .cls-1 {
        fill: url(#linear-gradient);
      }
    </style>
    <linearGradient id="linear-gradient" x1="0" y1="15" x2="30" y2="15" gradientUnits="userSpaceOnUse">
      <stop offset="0" stop-color="#95a3b8"/>
      <stop offset="1" stop-color="#65758c"/>
    </linearGradient>
  </defs>
  <path class="cls-1" d="M23.01,25.78l-14-14s-.03,0-.04,0l-.8.8c-.1.1-.1.26,0,.35l13.68,13.69c.1.1.26.1.35,0l.79-.79s.01-.04,0-.05ZM11.42,9.39s-.03-.01-.05,0l-1.98,1.98s-.01.03,0,.04l13.99,14s.04.01.05,0l1.98-1.98s.01-.03,0-.04l-14-14ZM11.79,9.02l14,14s.03.01.04,0l.8-.8c.1-.1.1-.26,0-.35l-13.69-13.69c-.1-.1-.26-.1-.35,0l-.8.8s-.01.03,0,.05ZM29.99,29.64c.06.21-.14.41-.35.35l-7.72-2.09c-.15-.04-.29-.12-.4-.23L7.14,13.29c-.29-.29-.29-.77,0-1.07l5.08-5.08c.29-.29.78-.29,1.07,0l14.38,14.38c.11.11.19.25.23.4l2.09,7.72ZM27.96,25.68s.05-.09.04-.14l-.62-2.37c-.03-.11-.16-.15-.24-.07l-2.01,2.01-2.01,2.01c-.08.08-.04.22.06.24l2.37.62c.05.01.1,0,.14-.04l1.14-1.14,1.14-1.14ZM11.8,5.65c.3.3.3.78,0,1.08l-5.07,5.07c-.3.3-.78.3-1.08,0l-3.17-3.17c-.3-.3-.3-.78,0-1.08l1.65-1.65.35-.34.4-.4.14-.14,2.55-2.54s.06-.06.1-.08c.3-.21.71-.19.98.08l3.17,3.17ZM10.96,6.26c.06-.06.06-.15,0-.21l-.31-.31c-.06-.06-.15-.06-.21,0l-4.7,4.7c-.06.06-.06.15,0,.2l.31.31c.06.06.15.06.21,0l4.7-4.7ZM9.74,5.04c.06-.06.06-.15,0-.2l-.31-.31c-.06-.06-.15-.06-.21,0l-4.7,4.7c-.06.06-.06.15,0,.21l.31.31c.06.06.15.06.2,0l4.7-4.7ZM8.55,3.85c.06-.06.06-.15,0-.2l-.31-.31c-.06-.06-.15-.06-.2,0l-4.7,4.7c-.06.06-.06.15,0,.21l.31.3c.06.06.15.06.21,0l4.7-4.7ZM7.71,1.57c.21.21.21.54,0,.74-.02.02-.05.05-.08.07-.22.08-.26.09-.29.09-.14,0-.27-.05-.37-.15l-1.16-1.15c-.43-.43-1.14-.43-1.57,0l-1.53,1.53-.02.02-1.53,1.53c-.43.43-.43,1.14,0,1.57l.66.67c.06.06.17.06.24,0l2.05-2.05c.21-.21.54-.21.75,0,.1.1.15.24.15.37,0,.12-.05.25-.14.35l-.4.4-.35.34-1.65,1.65-.17.17c-.2.2-.53.2-.73,0l-.78-.78C-.26,5.88-.26,4.17.79,3.12l1.15-1.15.02-.02,1.15-1.15c1.05-1.05,2.77-1.05,3.82,0l.78.78Z"/>
</svg>