<?xml version="1.0" encoding="UTF-8"?><svg id="a" xmlns="http://www.w3.org/2000/svg" xmlns:xlink="http://www.w3.org/1999/xlink" viewBox="0 0 30 24"><defs><style>.c{fill:url(#b);}</style><linearGradient id="b" x1="0" y1="12" x2="30" y2="12" gradientUnits="userSpaceOnUse"><stop offset="0" stop-color="#94a3b7"/><stop offset="1" stop-color="#65748b"/></linearGradient></defs><path class="c" d="M28.2,2.14c-.08-.08-.2-.13-.32-.13H2.11c-.12,0-.24.05-.32.14.03.02,0,0,0,0l12.68,9.46c.33.25.73.25,1.05,0,2.29-1.7,12.68-9.47,12.68-9.47,0,0,0,0,0,0ZM11.89,12.02L1.59,4.33h0v17.03c0,.18.06.35.17.47l10.13-9.82ZM13.45,13.17l-8.73,8.83h20.57l-8.79-8.78-.85.63c-.39.3-.89.3-1.28,0l-.91-.68ZM28.23,21.84c.11-.12.17-.29.17-.47V4.33l-10.33,7.7,10.17,9.8ZM0,21.29V2.72C0,1.22.97,0,2.17,0h25.66c1.2,0,2.17,1.22,2.17,2.72v18.56c0,1.5-.97,2.72-2.17,2.72H2.17c-1.2,0-2.17-1.22-2.17-2.72Z"/></svg>