<?xml version="1.0" encoding="UTF-8"?><svg id="a" xmlns="http://www.w3.org/2000/svg" xmlns:xlink="http://www.w3.org/1999/xlink" viewBox="0 0 50 50"><defs><style>.c{fill:url(#b);}</style><linearGradient id="b" x1="0" y1="25" x2="50" y2="25" gradientUnits="userSpaceOnUse"><stop offset="0" stop-color="#94a3b7"/><stop offset="1" stop-color="#65748b"/></linearGradient></defs><path class="c" d="M11.19,50H.83V16.62h10.37v33.38ZM6,12.06c-3.31,0-6-2.75-6-6.06C0,2.69,2.69,0,6.01,0c3.32,0,6,2.69,6,6,0,3.31-2.69,6.06-6,6.06ZM49.99,50h-10.35v-16.25c0-3.87-.08-8.84-5.39-8.84s-6.22,4.21-6.22,8.56v16.53h-10.36V16.62h9.94v4.55h.15c1.38-2.62,4.77-5.39,9.81-5.39,10.49,0,12.42,6.91,12.42,15.88v18.34h-.01Z"/></svg>