<?xml version="1.0" encoding="UTF-8"?><svg id="a" xmlns="http://www.w3.org/2000/svg" xmlns:xlink="http://www.w3.org/1999/xlink" viewBox="0 0 50 48.75"><defs><style>.c{fill:url(#b);}</style><linearGradient id="b" x1="0" y1="24.38" x2="50" y2="24.38" gradientUnits="userSpaceOnUse"><stop offset="0" stop-color="#94a3b7"/><stop offset="1" stop-color="#65748b"/></linearGradient></defs><path class="c" d="M16.72,39.25c0,.2-.23.36-.52.36-.33.03-.56-.13-.56-.36,0-.2.23-.36.52-.36.3-.03.56.13.56.36ZM13.59,38.8c-.07.2.13.43.43.49.26.1.56,0,.62-.2s-.13-.43-.43-.52c-.26-.07-.55.03-.62.23h0ZM18.04,38.63c-.29.07-.49.26-.46.49.03.2.29.33.59.26.29-.07.49-.26.46-.46-.03-.19-.3-.32-.59-.29ZM24.68,0C10.7,0,0,10.61,0,24.6c0,11.18,7.04,20.75,17.09,24.11,1.29.23,1.74-.56,1.74-1.22s-.03-4.07-.03-6.19c0,0-7.06,1.51-8.54-3,0,0-1.15-2.93-2.8-3.69,0,0-2.31-1.58.16-1.55,0,0,2.51.2,3.89,2.6,2.21,3.89,5.91,2.77,7.35,2.11.23-1.61.89-2.73,1.61-3.4-5.64-.63-11.32-1.44-11.32-11.14,0-2.77.77-4.16,2.38-5.94-.26-.66-1.12-3.36.26-6.84,2.11-.66,6.96,2.72,6.96,2.72,2.02-.56,4.18-.86,6.33-.86s4.31.29,6.33.86c0,0,4.85-3.39,6.96-2.72,1.38,3.5.52,6.19.26,6.84,1.61,1.78,2.6,3.18,2.6,5.94,0,9.73-5.94,10.5-11.57,11.14.93.8,1.71,2.31,1.71,4.68,0,3.4-.03,7.6-.03,8.43,0,.66.46,1.45,1.74,1.22,10.08-3.35,16.92-12.91,16.92-24.09C50,10.61,38.66,0,24.68,0ZM9.8,34.77c-.13.1-.1.33.07.52.16.16.39.23.52.1.13-.1.1-.33-.07-.52-.16-.16-.39-.23-.52-.1ZM8.71,33.95c-.07.13.03.29.23.39.16.1.36.07.43-.07.07-.13-.03-.29-.23-.39-.2-.06-.36-.03-.43.07ZM11.98,37.54c-.16.13-.1.43.13.63.23.23.52.26.66.1.13-.13.07-.43-.13-.63-.22-.23-.52-.26-.66-.1ZM10.83,36.06c-.16.1-.16.36,0,.59s.43.33.56.23c.16-.13.16-.39,0-.63-.14-.23-.4-.33-.56-.2h0Z"/></svg>