<?xml version="1.0" encoding="UTF-8"?><svg id="a" xmlns="http://www.w3.org/2000/svg" xmlns:xlink="http://www.w3.org/1999/xlink" viewBox="0 0 50 49.99"><defs><style>.c{fill:url(#b);}</style><linearGradient id="b" x1="0" y1="24.99" x2="50" y2="24.99" gradientUnits="userSpaceOnUse"><stop offset="0" stop-color="#94a3b7"/><stop offset="1" stop-color="#65748b"/></linearGradient></defs><path class="c" d="M25.01,12.18c-7.09,0-12.82,5.72-12.82,12.82s5.72,12.82,12.82,12.82,12.82-5.72,12.82-12.82-5.72-12.82-12.82-12.82ZM25.01,33.33c-4.58,0-8.33-3.74-8.33-8.33s3.74-8.33,8.33-8.33,8.33,3.74,8.33,8.33-3.75,8.33-8.33,8.33h0ZM41.34,11.65c0,1.66-1.34,2.99-2.99,2.99s-2.99-1.34-2.99-2.99,1.34-2.99,2.99-2.99,2.99,1.34,2.99,2.99ZM49.82,14.69c-.19-4-1.1-7.55-4.04-10.47-2.92-2.92-6.47-3.84-10.47-4.04C31.19-.06,18.81-.06,14.69.18c-3.99.19-7.54,1.1-10.47,4.03S.38,10.67.18,14.68C-.06,18.8-.06,31.17.18,35.3c.19,4,1.1,7.55,4.04,10.47,2.93,2.92,6.47,3.84,10.47,4.04,4.13.23,16.5.23,20.62,0,4-.19,7.55-1.1,10.47-4.04,2.92-2.92,3.84-6.47,4.04-10.47.23-4.13.23-16.49,0-20.61h0ZM44.49,39.73c-.87,2.19-2.55,3.87-4.75,4.75-3.29,1.31-11.1,1-14.74,1s-11.46.29-14.74-1c-2.19-.87-3.87-2.55-4.75-4.75-1.31-3.29-1-11.1-1-14.74s-.29-11.46,1-14.74c.87-2.19,2.55-3.87,4.75-4.75,3.29-1.31,11.1-1,14.74-1s11.46-.29,14.74,1c2.19.87,3.87,2.55,4.75,4.75,1.31,3.29,1,11.1,1,14.74s.3,11.46-1,14.74Z"/></svg>