<?xml version="1.0" encoding="UTF-8"?><svg id="a" xmlns="http://www.w3.org/2000/svg" xmlns:xlink="http://www.w3.org/1999/xlink" viewBox="0 0 50 38.1"><defs><style>.c{fill:url(#b);}</style><linearGradient id="b" x1="0" y1="19.05" x2="50" y2="19.05" gradientUnits="userSpaceOnUse"><stop offset="0" stop-color="#94a3b7"/><stop offset="1" stop-color="#65748b"/></linearGradient></defs><path class="c" d="M42.39,3.22s-.04-.05-.07-.06C39.08,1.67,35.66.61,32.15,0c-.06-.01-.13.02-.16.08-.47.85-.89,1.71-1.27,2.6-3.79-.57-7.64-.57-11.43,0-.38-.89-.81-1.76-1.28-2.6-.03-.06-.1-.09-.16-.08-3.52.61-6.94,1.67-10.19,3.15-.03.01-.05.03-.07.06C1.11,12.9-.66,22.34.21,31.67c0,.05.03.09.07.12,3.77,2.79,8,4.92,12.48,6.3.07.02.14,0,.18-.06.96-1.31,1.82-2.7,2.55-4.15.04-.08,0-.18-.07-.22,0,0,0,0-.01,0-1.35-.52-2.65-1.14-3.9-1.86-.08-.05-.1-.15-.05-.22,0-.02.02-.03.04-.04.26-.2.53-.4.77-.6.04-.04.11-.05.16-.03,8.18,3.73,17.04,3.73,25.13,0,.05-.03.12-.02.16.02.25.2.51.42.77.61.07.06.08.16.02.23-.01.01-.03.03-.04.04-1.25.73-2.55,1.35-3.9,1.85-.08.03-.12.13-.09.21,0,0,0,0,0,.01.75,1.44,1.6,2.83,2.55,4.15.04.06.11.08.18.06,4.5-1.37,8.73-3.5,12.52-6.3.04-.03.06-.07.07-.12,1.04-10.77-1.75-20.14-7.4-28.44ZM16.71,25.99c-2.47,0-4.49-2.26-4.49-5.03s1.99-5.04,4.49-5.04,4.53,2.28,4.49,5.03c0,2.78-1.99,5.04-4.49,5.04ZM33.32,25.99c-2.47,0-4.49-2.26-4.49-5.03s1.98-5.04,4.49-5.04,4.53,2.28,4.49,5.03c0,2.78-1.97,5.04-4.49,5.04Z"/></svg>