<?xml version="1.0" encoding="UTF-8"?>
<svg id="Layer_1" data-name="Layer 1" xmlns="http://www.w3.org/2000/svg" xmlns:xlink="http://www.w3.org/1999/xlink" viewBox="0 0 52 52">
  <defs>
    <style>
      .cls-1 {
        fill: url(#linear-gradient);
      }
    </style>
    <linearGradient id="linear-gradient" x1="0" y1="26" x2="52" y2="26" gradientUnits="userSpaceOnUse">
      <stop offset="0" stop-color="#f26f63"/>
      <stop offset="1" stop-color="#f26f63" stop-opacity=".5"/>
    </linearGradient>
  </defs>
  <path class="cls-1" d="M39.88,44.68L15.62,20.42s-.05-.02-.06,0l-1.39,1.39c-.17.17-.17.44,0,.61l23.72,23.72c.17.17.44.17.61,0l1.38-1.38s.02-.07,0-.09ZM19.79,16.28s-.06-.02-.08,0l-3.44,3.44s-.02.05,0,.06l24.26,24.26s.07.02.09,0l3.43-3.43s.02-.05,0-.07l-24.26-24.26ZM20.43,15.63l24.26,24.26s.05.02.07,0l1.39-1.39c.17-.17.17-.44,0-.61L22.43,14.17c-.17-.17-.44-.17-.61,0l-1.38,1.38s-.02.06,0,.08ZM51.98,51.38c.1.37-.24.7-.6.6l-13.38-3.62c-.26-.07-.5-.21-.7-.4L12.38,23.03c-.51-.51-.51-1.34,0-1.85l8.8-8.8c.51-.51,1.34-.51,1.85,0l24.93,24.93c.19.19.33.43.4.69l3.62,13.38ZM48.47,44.52c.06-.06.09-.16.07-.24l-1.08-4.1c-.05-.19-.29-.25-.42-.12l-3.49,3.49-3.49,3.49c-.14.14-.08.37.11.42l4.11,1.08c.09.02.18,0,.24-.07l1.97-1.97,1.98-1.98ZM20.45,9.79c.51.51.51,1.35,0,1.86l-8.79,8.79c-.52.51-1.35.51-1.86,0l-5.5-5.5c-.52-.51-.52-1.35,0-1.86l2.85-2.86.6-.6.69-.69.23-.23,4.41-4.41c.05-.05.11-.1.17-.14.51-.37,1.23-.33,1.7.14l5.5,5.5ZM18.99,10.84c.1-.1.1-.26,0-.36l-.53-.53c-.1-.1-.26-.1-.36,0l-8.15,8.15c-.1.1-.1.26,0,.35l.53.53c.1.1.26.1.36,0l8.15-8.15ZM16.89,8.73c.1-.1.1-.26,0-.35l-.53-.53c-.1-.1-.26-.1-.36,0l-8.15,8.15c-.1.1-.1.26,0,.36l.53.53c.1.1.26.1.35,0l8.15-8.15ZM14.82,6.67c.1-.1.1-.26,0-.35l-.53-.53c-.1-.1-.26-.1-.35,0L5.79,13.94c-.1.1-.1.26,0,.36l.53.53c.1.1.26.1.36,0L14.82,6.67ZM13.37,2.71c.36.36.36.93,0,1.29-.04.04-.09.08-.14.12-.39.15-.44.15-.5.15-.23,0-.47-.09-.64-.27l-2-2c-.75-.75-1.97-.75-2.72,0l-2.66,2.65-.04.04-2.65,2.66c-.75.75-.75,1.97,0,2.72l1.15,1.16c.11.11.29.11.41,0l3.55-3.55c.36-.36.94-.36,1.29,0,.18.18.27.41.27.65,0,.22-.08.44-.24.61l-.69.69-.6.6-2.85,2.86-.3.3c-.35.35-.92.35-1.26,0l-1.36-1.36c-1.83-1.83-1.83-4.79,0-6.62l2-2,.04-.04,2-2c1.83-1.83,4.79-1.83,6.62,0l1.34,1.34Z"/>
</svg>