<?xml version="1.0" encoding="UTF-8"?>
<svg id="Layer_1" data-name="Layer 1" xmlns="http://www.w3.org/2000/svg" xmlns:xlink="http://www.w3.org/1999/xlink" viewBox="0 0 52 52">
  <defs>
    <style>
      .cls-1 {
        fill: url(#linear-gradient);
      }
    </style>
    <linearGradient id="linear-gradient" x1="0" y1="26" x2="52" y2="26" gradientUnits="userSpaceOnUse">
      <stop offset="0" stop-color="#f26f63"/>
      <stop offset="1" stop-color="#f26f63" stop-opacity=".5"/>
    </linearGradient>
  </defs>
  <path class="cls-1" d="M43.68,0H0v43.68c0,2.21.88,4.32,2.44,5.88,1.56,1.57,3.68,2.44,5.88,2.44h35.36c2.21,0,4.32-.88,5.88-2.44s2.44-3.68,2.44-5.88V8.32c0-2.21-.88-4.32-2.44-5.88s-3.68-2.44-5.88-2.44h0ZM38.58,46.36c-.89-.99-1.36-2.4-1.39-4.25h3.63c.02,1.64.59,2.45,1.72,2.45.57,0,.97-.19,1.22-.55.23-.36.35-.93.35-1.72,0-.63-.15-1.15-.46-1.56-.41-.49-.94-.87-1.53-1.1l-1.35-.64c-1.2-.57-2.07-1.25-2.61-2.04-.52-.79-.78-1.89-.78-3.3,0-1.58.46-2.86,1.37-3.84.94-.99,2.22-1.47,3.85-1.47s2.8.49,3.66,1.45c.87.97,1.33,2.36,1.37,4.17h-3.49c.02-.59-.1-1.18-.35-1.72-.2-.39-.58-.59-1.16-.59-1.02,0-1.53.6-1.53,1.82,0,.62.13,1.09.37,1.46.36.41.81.72,1.32.91l1.29.57c1.33.62,2.29,1.36,2.88,2.25.59.89.88,2.09.88,3.6,0,1.8-.46,3.18-1.43,4.14-.95.96-2.26,1.45-3.96,1.45s-2.97-.49-3.88-1.47v-.02ZM26.86,46.36c-.89-.99-1.36-2.4-1.39-4.25h3.63c.02,1.64.59,2.45,1.72,2.45.57,0,.97-.19,1.21-.55s.35-.93.35-1.72c0-.63-.15-1.15-.45-1.56-.41-.49-.94-.87-1.53-1.1l-1.35-.64c-1.2-.57-2.07-1.25-2.61-2.04-.52-.79-.78-1.89-.78-3.3,0-1.58.46-2.86,1.37-3.84.94-.99,2.22-1.47,3.85-1.47s2.8.49,3.64,1.45c.88.97,1.33,2.36,1.38,4.17h-3.49c.02-.59-.1-1.18-.35-1.72-.2-.39-.58-.59-1.16-.59-1.02,0-1.53.6-1.53,1.82,0,.62.13,1.09.37,1.46.36.41.81.72,1.32.91l1.29.57c1.33.62,2.29,1.36,2.88,2.25.59.89.88,2.09.88,3.6,0,1.8-.48,3.18-1.43,4.14s-2.26,1.45-3.96,1.45-2.97-.49-3.88-1.47v-.02ZM14.6,46.49c-.98-.89-1.45-2.23-1.45-4v-8.75c0-1.76.51-3.1,1.53-4.02,1.03-.91,2.4-1.37,4.09-1.37s2.92.46,3.88,1.39c.96.93,1.45,2.32,1.45,4.17v.7h-3.84v-.67c0-.71-.15-1.24-.46-1.58-.13-.17-.3-.31-.5-.41s-.41-.14-.63-.13c-.63,0-1.07.21-1.32.65-.27.6-.38,1.25-.35,1.9v7.6c0,1.59.56,2.39,1.67,2.41.52,0,.92-.19,1.18-.56.29-.48.43-1.02.41-1.58v-.57h3.84v.59c0,1.23-.24,2.26-.72,3.09-.46.8-1.15,1.45-1.98,1.86-.89.43-1.87.64-2.86.62-1.65,0-2.96-.45-3.92-1.35h-.01Z"/>
</svg>