<?xml version="1.0" encoding="UTF-8"?>
<svg id="Layer_1" data-name="Layer 1" xmlns="http://www.w3.org/2000/svg" xmlns:xlink="http://www.w3.org/1999/xlink" viewBox="0 0 66.97 52">
  <defs>
    <style>
      .cls-1 {
        fill: url(#linear-gradient);
      }
    </style>
    <linearGradient id="linear-gradient" x1="14.82" y1="-6.94" x2="52.75" y2="58.75" gradientUnits="userSpaceOnUse">
      <stop offset="0" stop-color="#f26f63"/>
      <stop offset="1" stop-color="#f26f63" stop-opacity=".5"/>
    </linearGradient>
  </defs>
  <path class="cls-1" d="M66.04,46.22c1.27,1.36,1.24,3.45-.08,4.77-.67.67-1.55,1.01-2.43,1.01s-1.68-.31-2.34-.93l-26.59-24.91c-.07-.07-.12-.15-.16-.24l-2.77-7.97c-.12-.35-.03-.74.23-1s.65-.35,1-.23l7.98,2.76c.09.03.17.08.24.15l24.92,26.59ZM65.11,50.13c.85-.85.87-2.2.05-3.08l-15.9-16.97s-.1-.04-.14,0l-4.06,4.06s-.04.1,0,.14l16.96,15.9c.88.82,2.23.8,3.08-.05ZM48.3,29.19s.03-.09,0-.13l-7.55-8.06s-.1-.04-.14,0l-4.64,4.64s-.04.1,0,.14l8.06,7.55s.09.03.13,0l4.14-4.13ZM39.54,20.37s.02-.07-.02-.08l-6.52-2.26,2.26,6.49s.05.04.08.02l4.2-4.18ZM12.95,38.45v2.78c0,.8-.65,1.45-1.45,1.45h-5.91c-.8,0-1.46-.65-1.46-1.45v-2.78c0-.8.65-1.45,1.46-1.45h5.91c.8,0,1.45.65,1.45,1.45ZM11.61,41.23v-2.78c0-.06-.05-.11-.11-.11h-5.91c-.06,0-.12.05-.12.11v2.78c0,.06.05.11.12.11h5.91c.06,0,.11-.05.11-.11ZM12.95,29.36v2.78c0,.8-.65,1.46-1.45,1.46h-5.91c-.8,0-1.46-.65-1.46-1.46v-2.78c0-.8.65-1.45,1.46-1.45h5.91c.8,0,1.45.65,1.45,1.45ZM11.61,32.14v-2.78c0-.06-.05-.11-.11-.11h-5.91c-.06,0-.12.05-.12.11v2.78c0,.06.05.12.12.12h5.91c.06,0,.11-.05.11-.12ZM12.95,20.28v2.78c0,.8-.65,1.45-1.45,1.45h-5.91c-.8,0-1.46-.65-1.46-1.45v-2.78c0-.8.65-1.46,1.46-1.46h5.91c.8,0,1.45.65,1.45,1.46ZM11.61,23.06v-2.78c0-.06-.05-.12-.11-.12h-5.91c-.06,0-.12.05-.12.12v2.78c0,.06.05.11.12.11h5.91c.06,0,.11-.05.11-.11ZM8.44,5.39c2.29,0,4.16,1.87,4.16,4.15s-1.87,4.16-4.16,4.16-4.15-1.87-4.15-4.16,1.86-4.15,4.15-4.15ZM11.26,9.55c0-1.55-1.26-2.81-2.82-2.81s-2.81,1.26-2.81,2.81,1.26,2.82,2.81,2.82,2.82-1.26,2.82-2.82ZM58.56,6.16v6.67c0,.26-.21.47-.47.47h-6.67c-.26,0-.47-.21-.47-.47v-2.8s-.03-.07-.07-.07h-7.72c-10.99,0-18.28,11.33-18.28,18.82v7.25s.03.07.07.07h2.82c.26,0,.47.21.47.47v6.67c0,.26-.21.47-.47.47h-6.67c-.26,0-.47-.21-.47-.47v-6.67c0-.26.21-.47.47-.47h2.77s.08-.03.08-.07V13.38s-.03-.08-.08-.08h-1.61c-.91,0-1.65-.74-1.65-1.65v-4.3c0-.91.74-1.65,1.65-1.65h4.3c.91,0,1.65.74,1.65,1.65v1.61s.03.08.08.08h22.59s.07-.03.07-.07v-2.8c0-.26.21-.47.47-.47h6.67c.26,0,.47.21.47.47ZM57.62,12.18v-5.35c0-.1-.09-.19-.19-.19h-5.35c-.1,0-.19.09-.19.19v5.35c0,.1.09.19.19.19h5.35c.1,0,.19-.09.19-.19ZM37.48,10.04s.03-.07-.01-.07h-9.17s-.08.03-.08.08v1.61c0,.91-.74,1.65-1.65,1.65h-1.61s-.08.03-.08.08v9.92s.06.05.07.01c.89-2.51,2.35-5.08,4.16-7.26,2.39-2.86,5.25-4.89,8.37-6.02ZM27.3,42.59v-5.36c0-.1-.08-.19-.18-.19h-5.36c-.1,0-.18.08-.18.19v5.36c0,.1.08.19.18.19h5.36c.1,0,.18-.08.18-.19ZM27.28,11.65v-4.3c0-.39-.32-.72-.72-.72h-4.3c-.4,0-.72.32-.72.72v4.3c0,.39.32.72.72.72h4.3c.39,0,.72-.32.72-.72ZM65.57,3.83v38.07c0,.12-.14.18-.23.09l-1.07-1.07s-.04-.06-.04-.09V3.83c0-1.37-1.11-2.49-2.49-2.49H17.13c-.06,0-.11.05-.11.11v45.43c0,.06.05.11.11.11h36.25s.06.01.08.03l1.12,1.12c.07.07.02.18-.08.18H3.82c-2.11,0-3.82-1.72-3.82-3.83V3.83C0,1.71,1.71,0,3.82,0h57.92c2.11,0,3.82,1.71,3.82,3.83ZM15.68,46.88V1.45c0-.06-.05-.11-.11-.11H3.82c-1.37,0-2.48,1.11-2.48,2.49v40.68c0,1.37,1.11,2.49,2.48,2.49h11.75c.06,0,.11-.05.11-.11Z"/>
</svg>