<?xml version="1.0" encoding="UTF-8"?>
<svg id="Layer_1" data-name="Layer 1" xmlns="http://www.w3.org/2000/svg" xmlns:xlink="http://www.w3.org/1999/xlink" viewBox="0 0 36.16 52">
  <defs>
    <style>
      .cls-1 {
        fill: url(#linear-gradient);
      }
    </style>
    <linearGradient id="linear-gradient" x1="0" y1="26" x2="36.16" y2="26" gradientUnits="userSpaceOnUse">
      <stop offset="0" stop-color="#f26f63"/>
      <stop offset="1" stop-color="#f26f63" stop-opacity=".5"/>
    </linearGradient>
  </defs>
  <path class="cls-1" d="M0,9.73C0,4.36,4.36,0,9.73,0h16.7c5.37,0,9.73,4.36,9.73,9.73,0,3.4-1.75,6.4-4.4,8.14,2.65,1.74,4.4,4.73,4.4,8.14,0,5.37-4.36,9.73-9.73,9.73h-.21c-2.52,0-4.81-.95-6.54-2.53v8.97c0,5.44-4.47,9.83-9.89,9.83S0,47.65,0,42.27c0-3.4,1.75-6.4,4.39-8.14-2.64-1.74-4.39-4.73-4.39-8.14s1.75-6.4,4.39-8.14C1.75,16.13,0,13.13,0,9.73ZM16.48,19.46h-6.75c-3.62,0-6.54,2.92-6.54,6.54s2.9,6.52,6.5,6.54h6.79v-13.08ZM19.67,26c0,3.62,2.93,6.54,6.54,6.54h.21c3.61,0,6.54-2.92,6.54-6.54s-2.94-6.54-6.54-6.54h-.21c-3.62,0-6.54,2.92-6.54,6.54ZM9.73,35.73h-.04c-3.6.02-6.5,2.95-6.5,6.54s2.97,6.54,6.59,6.54,6.7-2.99,6.7-6.64v-6.44h-6.75ZM9.73,3.19c-3.62,0-6.54,2.93-6.54,6.54s2.92,6.54,6.54,6.54h6.75V3.19h-6.75ZM19.67,16.27h6.75c3.61,0,6.54-2.93,6.54-6.54s-2.94-6.54-6.54-6.54h-6.75v13.08Z"/>
</svg>