<?xml version="1.0" encoding="UTF-8"?>
<svg id="Layer_1" data-name="Layer 1" xmlns="http://www.w3.org/2000/svg" xmlns:xlink="http://www.w3.org/1999/xlink" viewBox="0 0 64.48 52">
  <defs>
    <style>
      .cls-1 {
        fill: url(#linear-gradient);
      }
    </style>
    <linearGradient id="linear-gradient" x1="0" y1="26" x2="64.48" y2="26" gradientUnits="userSpaceOnUse">
      <stop offset="0" stop-color="#f26f63"/>
      <stop offset="1" stop-color="#f26f63" stop-opacity=".5"/>
    </linearGradient>
  </defs>
  <path class="cls-1" d="M27.24,13.71h-9.99C12.22,12.39.82,12.73.82,23.13c0,3.79,1.89,6.45,4.41,7.68-3.16,2.9-4.66,4.26-4.66,6.2,0,1.39.57,2.66,2.25,3.38-1.8,1.69-2.82,2.91-2.82,5.21,0,4.04,3.53,6.4,12.8,6.4s14.08-3.32,14.08-9.22c0-7.39-5.69-7.12-19.09-7.93l1.69-2.72c3.44.96,14.95,1.26,14.95-8.55,0-2.36-.97-3.99-1.89-5.18l4.71-.35v-4.34h0ZM19.26,44.18c0,4.04-13.21,4.04-13.21.3,0-1.02.67-1.89,1.33-2.71,9.79.67,11.88.43,11.88,2.41ZM12.86,27.23c-6.65,0-6.36-8.97.15-8.97s6.4,8.97-.15,8.97ZM29.65,39.88v-4.04c3.36-.47,3.43-.25,3.43-1.39v-15.05c0-1.07-.26-.93-3.43-2.05l.57-4.14h10.6v21.25c0,.82.05.92.82,1.02l2.61.35v4.04h-14.6ZM36.26,9.12c-2.92,0-4.61-1.69-4.61-4.61s1.69-4.51,4.61-4.51,4.66,1.59,4.66,4.51-1.69,4.61-4.66,4.61ZM64.48,37.91c-2.2,1.07-5.43,2.05-8.35,2.05-6.1,0-8.4-2.46-8.4-8.25v-13.41c0-.68.13-.52-3.99-.52v-4.56c4.51-.52,6.3-2.77,6.86-8.35h4.86c0,8.29-.16,7.78.42,7.78h7.22v5.11h-7.63v12.23c0,.87-.62,6.47,7.63,3.38l1.39,4.51v.03Z"/>
</svg>