<?xml version="1.0" encoding="UTF-8"?>
<svg id="Layer_1" data-name="Layer 1" xmlns="http://www.w3.org/2000/svg" xmlns:xlink="http://www.w3.org/1999/xlink" viewBox="0 0 58.11 52">
  <defs>
    <style>
      .cls-1 {
        fill: url(#linear-gradient);
      }
    </style>
    <linearGradient id="linear-gradient" x1="14.3" y1="-1.05" x2="43.56" y2="49.61" gradientUnits="userSpaceOnUse">
      <stop offset="0" stop-color="#f26f63"/>
      <stop offset="1" stop-color="#f26f63" stop-opacity=".5"/>
    </linearGradient>
  </defs>
  <path class="cls-1" d="M58.11,26.79v5.83c0,.45-.36.82-.82.82h-5.83c-.45,0-.82-.36-.82-.82v-5.83c0-.45.37-.82.82-.82h2.13s.03-.01.03-.03c-.25-5.44-2.84-10.62-7.36-14.66-3.9-3.49-8.83-5.73-13.04-5.95v.02c-.49,1.86-2.18,3.24-4.18,3.24s-3.68-1.3-4.15-3.17c-.03-.07-.09-.07-.15-.07-4.2.25-9.02,2.47-12.89,5.93-4.52,4.04-7.1,9.23-7.35,14.66,0,.02,0,.03.03.03h2.12c.45,0,.82.37.82.82v5.83c0,.45-.36.82-.82.82H.82c-.45,0-.81-.37-.82-.82v-5.83c0-.45.36-.82.82-.82h1.99s.03-.01.03-.03c.4-9.92,7.79-17.34,15.2-20.53.05-.02.03-.09-.02-.09h-6.1c-.05,0-.1.04-.12.09-.42,1.04-1.53,1.73-2.76,1.48-.94-.19-1.7-.95-1.89-1.89-.3-1.56.89-2.92,2.38-2.92,1.02,0,1.9.63,2.26,1.53.02.05.07.09.12.09h12.81s.06-.04.06-.07C25.13,1.46,27.1-.17,29.38.01c1.98.16,3.59,1.7,3.89,3.62,0,.03.03.06.06.06h12.9s.05-.02.06-.04c.4-1.06,1.53-1.77,2.77-1.52.94.19,1.7.95,1.89,1.89.31,1.56-.88,2.92-2.38,2.92-1.04,0-1.92-.66-2.28-1.57,0-.02-.03-.04-.06-.04h-6.14c-.05,0-.07.07-.02.09,7.41,3.19,14.79,10.61,15.19,20.53,0,.02.02.03.03.03h1.99c.45,0,.82.37.82.82ZM56.47,31.8v-4.19h-4.19v4.19s4.19,0,4.19,0ZM49.36,4.5c0-.43-.36-.79-.8-.79s-.79.36-.79.79.36.8.79.8.8-.36.8-.8ZM31.69,4.3c0-1.47-1.19-2.66-2.66-2.66s-2.66,1.19-2.66,2.66,1.19,2.66,2.66,2.66,2.66-1.19,2.66-2.66ZM10.33,4.5c0-.43-.36-.79-.79-.79-.44,0-.79.36-.79.79s.36.8.79.8c.44,0,.79-.36.79-.8ZM5.83,31.8v-4.19H1.64v4.19h4.19ZM36.15,43.69s.06-.02.08-.05l4.12-9.17-9.56-21.98s-.07-.08-.12-.08h-.69c-.07,0-.13.06-.13.13v16.5s.02.06.05.06c2.37.41,4.15,2.49,4.11,4.98-.03,2.58-2.13,4.76-4.71,4.9-2.87.15-5.25-2.14-5.25-4.97,0-2.46,1.77-4.5,4.11-4.91.03,0,.05-.03.05-.06V12.54c0-.07-.06-.13-.12-.13h-.66c-.05,0-.1.03-.12.08l-9.56,21.98,4.12,9.17s.05.05.08.05h14.2ZM42,34.15c.09.21.09.45,0,.66l-4.35,9.69s-.01.06,0,.09l2.34,6.3c.09.26.06.54-.1.75s-.4.35-.67.35h-20.3c-.27,0-.52-.13-.67-.35-.15-.22-.19-.5-.1-.75l2.33-6.3s.01-.07,0-.1l-4.35-9.68c-.09-.21-.09-.45,0-.66l9.95-22.88c.13-.3.42-.5.75-.5h4.48c.33,0,.62.2.75.49l9.95,22.89ZM38.03,50.36l-1.84-4.97s-.04-.06-.08-.06h-14.1s-.07.02-.08.06l-1.84,4.97h17.95ZM32.38,34.01c0-1.84-1.5-3.34-3.34-3.34s-3.34,1.5-3.34,3.34,1.5,3.34,3.34,3.34,3.34-1.5,3.34-3.34Z"/>
</svg>