<?xml version="1.0" encoding="UTF-8"?>
<svg id="Layer_1" data-name="Layer 1" xmlns="http://www.w3.org/2000/svg" xmlns:xlink="http://www.w3.org/1999/xlink" viewBox="0 0 52.23 52">
  <defs>
    <style>
      .cls-1 {
        fill: url(#linear-gradient);
      }
    </style>
    <linearGradient id="linear-gradient" x1="0" y1="26" x2="52.23" y2="26" gradientUnits="userSpaceOnUse">
      <stop offset="0" stop-color="#f26f63"/>
      <stop offset="1" stop-color="#f26f63" stop-opacity=".5"/>
    </linearGradient>
  </defs>
  <path class="cls-1" d="M52.23,0v52H0V0h52.23ZM44.97,21.45l-.06-1.92-9.73.02v1.92s3.78.03,3.78.03l.02,11.61h2.19s.01-11.59.01-11.59l3.79-.08ZM34.41,33.14l-.02-1.92-5.19-.03v-3.94s4.51-.05,4.51-.05l.02-1.87-4.54-.04v-3.79s4.85-.02,4.85-.02l.03-1.94h-7.12s0,13.61,0,13.61h7.46ZM24.08,33.02v-13.44s-2.13-.02-2.13-.02l-.12,10.15-6.4-10.12-2.6-.05v13.57s2.12.01,2.12.01l.1-10.34,6.58,10.32c.87.04,1.75.03,2.45-.1ZM9.75,33.28c.69-.23,1.05-.99.78-1.71-.19-.52-1-.94-1.66-.71-.91.31-1.1,1.2-.75,1.84.28.51,1.07.77,1.63.59Z"/>
</svg>