<?xml version="1.0" encoding="UTF-8"?>
<svg id="Layer_1" data-name="Layer 1" xmlns="http://www.w3.org/2000/svg" xmlns:xlink="http://www.w3.org/1999/xlink" viewBox="0 0 59.43 52">
  <defs>
    <style>
      .cls-1 {
        fill: url(#linear-gradient);
      }
    </style>
    <linearGradient id="linear-gradient" x1="0" y1="26" x2="59.43" y2="26" gradientUnits="userSpaceOnUse">
      <stop offset="0" stop-color="#f26f63"/>
      <stop offset="1" stop-color="#f26f63" stop-opacity=".5"/>
    </linearGradient>
  </defs>
  <path class="cls-1" d="M48.54,16.85c-.63-.21-1.25-.41-1.88-.59.1-.43.2-.86.29-1.29,1.43-6.92.49-12.48-2.68-14.31-3.05-1.75-8.03.07-13.07,4.46-.5.43-.99.88-1.45,1.33-.31-.3-.64-.6-.96-.89C23.5.87,18.21-1.1,15.04.74c-3.04,1.76-3.95,7-2.67,13.54.13.65.27,1.29.43,1.94-.74.21-1.47.44-2.16.68C4.45,19.06,0,22.45,0,25.95s4.74,7.25,11.18,9.46c.52.17,1.04.35,1.58.5-.17.7-.32,1.38-.46,2.09-1.22,6.44-.27,11.55,2.77,13.3,3.13,1.81,8.4-.05,13.53-4.54.41-.36.81-.73,1.22-1.13.51.5,1.04.97,1.58,1.44,4.97,4.27,9.88,6,12.91,4.25,3.13-1.81,4.16-7.3,2.83-13.99-.1-.51-.22-1.03-.35-1.57.37-.1.73-.22,1.09-.34,6.7-2.22,11.55-5.8,11.55-9.48s-4.57-6.93-10.89-9.1h0ZM32.83,7c4.32-3.76,8.35-5.23,10.18-4.18,1.96,1.13,2.72,5.68,1.49,11.65-.08.39-.16.78-.27,1.16-2.58-.58-5.19-1-7.81-1.23-1.51-2.16-3.16-4.22-4.94-6.16.45-.43.89-.84,1.36-1.24ZM19.41,31.97c.59,1.01,1.2,2.02,1.83,3.01-1.81-.2-3.61-.49-5.39-.87.51-1.67,1.15-3.4,1.89-5.16.53,1.02,1.08,2.03,1.66,3.03h0ZM15.89,18.01c1.67-.37,3.45-.67,5.29-.91-.62.96-1.22,1.95-1.79,2.95-.57.99-1.13,2-1.65,3.02-.73-1.73-1.35-3.42-1.86-5.06h0ZM19.07,26.01c.77-1.6,1.6-3.17,2.48-4.71s1.83-3.04,2.83-4.51c1.74-.13,3.52-.2,5.33-.2s3.6.07,5.33.2c.99,1.46,1.93,2.96,2.82,4.49s1.73,3.1,2.52,4.69c-.78,1.6-1.61,3.18-2.51,4.74-.88,1.54-1.82,3.04-2.81,4.53-1.73.13-3.53.19-5.35.19s-3.59-.06-5.29-.16c-1.01-1.47-1.96-2.98-2.86-4.53s-1.72-3.11-2.5-4.71h0ZM40.03,31.95c.59-1.02,1.15-2.05,1.69-3.1.74,1.68,1.39,3.39,1.96,5.14-1.8.41-3.62.72-5.46.93.63-.97,1.22-1.97,1.8-2.97h0ZM41.7,23.07c-.55-1.02-1.1-2.04-1.68-3.04-.57-.99-1.16-1.96-1.78-2.92,1.87.23,3.66.55,5.33.93-.53,1.72-1.16,3.39-1.87,5.04ZM29.74,10.01c1.22,1.32,2.37,2.72,3.44,4.16-2.3-.1-4.61-.1-6.91,0,1.14-1.5,2.31-2.89,3.47-4.16ZM16.27,2.9c1.95-1.14,6.28.49,10.84,4.53.29.26.58.53.88.81-1.8,1.94-3.46,4-4.98,6.16-2.62.23-5.22.64-7.8,1.21-.15-.59-.28-1.2-.41-1.8-1.09-5.62-.37-9.85,1.46-10.91h0ZM13.43,33.49c-.49-.14-.96-.29-1.44-.45-2.47-.78-5.28-2.01-7.31-3.62-1.17-.81-1.96-2.07-2.18-3.47,0-2.12,3.67-4.84,8.96-6.69.66-.23,1.33-.44,2.01-.64.79,2.52,1.74,4.99,2.84,7.38-1.11,2.43-2.08,4.93-2.88,7.49ZM26.96,44.87c-1.92,1.75-4.13,3.15-6.55,4.1-1.29.62-2.77.67-4.1.15-1.85-1.07-2.61-5.16-1.57-10.68.13-.65.27-1.3.43-1.94,2.6.56,5.22.94,7.88,1.14,1.53,2.17,3.22,4.25,5.01,6.2-.37.36-.74.71-1.11,1.03h0ZM29.81,42.05c-1.18-1.28-2.37-2.69-3.52-4.21,1.11.05,2.26.07,3.42.07s2.37-.02,3.53-.08c-1.07,1.47-2.22,2.88-3.44,4.22ZM44.98,45.53c-.1,1.42-.8,2.74-1.92,3.63-1.85,1.07-5.78-.32-10.03-3.97-.49-.42-.97-.87-1.47-1.33,1.78-1.96,3.41-4.04,4.9-6.22,2.66-.22,5.3-.63,7.92-1.22.12.48.22.95.31,1.42.57,2.51.66,5.12.29,7.7h0ZM47.09,33.05c-.32.1-.65.21-.99.3-.81-2.53-1.81-5-2.96-7.4,1.11-2.37,2.05-4.81,2.84-7.3.6.17,1.18.36,1.74.55,5.41,1.86,9.2,4.62,9.2,6.73,0,2.27-4.05,5.21-9.84,7.13ZM29.71,31.31c2.94,0,5.32-2.38,5.32-5.32s-2.38-5.32-5.32-5.32-5.32,2.38-5.32,5.32,2.38,5.32,5.32,5.32h0Z"/>
</svg>