<?xml version="1.0" encoding="UTF-8"?>
<svg id="Layer_1" data-name="Layer 1" xmlns="http://www.w3.org/2000/svg" xmlns:xlink="http://www.w3.org/1999/xlink" viewBox="0 0 78.5 52">
  <defs>
    <style>
      .cls-1 {
        fill: url(#linear-gradient);
      }
    </style>
    <linearGradient id="linear-gradient" x1="0" y1="26" x2="78.5" y2="26" gradientUnits="userSpaceOnUse">
      <stop offset="0" stop-color="#f26f63"/>
      <stop offset="1" stop-color="#f26f63" stop-opacity=".5"/>
    </linearGradient>
  </defs>
  <path class="cls-1" d="M78.5,26.15v23.54c0,1.27-1.04,2.31-2.31,2.31h-12.97c-1.28,0-2.31-1.04-2.31-2.31v-23.54c0-1.28,1.03-2.31,2.31-2.31h12.97c1.27,0,2.31,1.03,2.31,2.31ZM76.72,49.69v-2.93c0-.1-.09-.18-.18-.18h-13.67c-.1,0-.18.08-.18.18v2.93c0,.29.24.53.53.53h12.97c.29,0,.53-.24.53-.53ZM76.72,44.62v-13.59c0-.1-.08-.18-.18-.18h-13.67c-.1,0-.18.08-.18.18v13.59c0,.1.08.18.18.18h13.68c.1,0,.18-.08.18-.18ZM76.72,28.91v-2.76c0-.29-.24-.53-.53-.53h-12.97c-.29,0-.53.24-.53.53v2.76c0,.09.07.17.17.17h13.7c.09,0,.17-.08.17-.17ZM50.83,44.8c-.49,0-.89.4-.89.89s.4.89.89.89h3.47c.49,0,.89-.4.89-.89s-.4-.89-.89-.89h-3.47ZM43.15,25.93c-.49,0-.89.4-.89.89v8.7c0,.49.4.89.89.89s.89-.4.89-.89v-8.7c0-.49-.4-.89-.89-.89ZM43.15,18c-.49,0-.89.4-.89.89v3.51c0,.49.4.89.89.89s.89-.4.89-.89v-3.51c0-.49-.4-.89-.89-.89ZM68.11,10.09v9.62c0,.47-.33.89-.8.93-.53.05-.98-.36-.98-.88v-4.82c0-.1-.08-.18-.18-.18h-27.1c-.1,0-.18.08-.18.18v24.41c0,.1.08.17.17.17h17.75c.47,0,.89.33.93.8.05.53-.36.98-.88.98h-17.8c-.1,0-.17.08-.17.17v8.17c0,.31.26.57.57.57h17.24c.46,0,.88.33.93.8.05.53-.36.98-.88.98h-17.29c-1.29,0-2.34-1.05-2.34-2.34V10.09c0-1.29,1.05-2.34,2.34-2.34h26.32c1.3,0,2.34,1.05,2.34,2.34ZM66.34,12.82v-2.72c0-.31-.26-.57-.57-.57h-26.32c-.31,0-.57.26-.57.57v2.72c0,.1.08.17.18.17h27.1c.1,0,.18-.08.18-.17ZM26.83,37.03c-.49,0-.89.4-.89.89s.39.89.89.89h3.51c.49,0,.89-.4.89-.89s-.39-.89-.89-.89h-3.51ZM6.1,18c-.49,0-.89.4-.89.89v8.77c0,.49.4.89.89.89s.89-.4.89-.89v-8.77c0-.49-.4-.89-.89-.89ZM6.1,10.1c-.49,0-.89.4-.89.89v3.43c0,.49.4.89.89.89s.89-.4.89-.89v-3.43c0-.49-.4-.89-.89-.89ZM55.06,0H2.37C1.06,0,0,1.05,0,2.36v39.52c0,1.31,1.06,2.36,2.37,2.36h20.17s.02.01.02.02c-.26,2.04-1.33,5.95-4.51,5.95h-1.79c-.52,0-.93.45-.88.98.05.46.47.8.93.8h16.69c.46,0,.89-.33.93-.8.05-.53-.36-.98-.88-.98h-10.97s-.05-.04-.03-.06c1.46-1.65,2.15-4.09,2.32-5.9,0-.01.01-.02.02-.02h8.66c.52,0,.94-.45.88-.98-.05-.47-.47-.8-.93-.8H2.37c-.33,0-.59-.26-.59-.59v-8.29c0-.1.08-.18.18-.18h31.09c.52,0,.94-.45.88-.98-.05-.46-.47-.8-.93-.8H1.96c-.1,0-.18-.08-.18-.18V2.36c0-.32.26-.59.59-.59h52.7c.32,0,.59.26.59.59v1.77c0,.52.45.94.98.88.46-.05.8-.47.8-.93v-1.72c0-1.31-1.06-2.36-2.36-2.36Z"/>
</svg>