<?xml version="1.0" encoding="UTF-8"?>
<svg id="Layer_1" data-name="Layer 1" xmlns="http://www.w3.org/2000/svg" xmlns:xlink="http://www.w3.org/1999/xlink" viewBox="0 0 69.42 52">
  <defs>
    <style>
      .cls-1 {
        fill: url(#linear-gradient);
      }
    </style>
    <linearGradient id="linear-gradient" x1="0" y1="26" x2="69.42" y2="26" gradientUnits="userSpaceOnUse">
      <stop offset="0" stop-color="#f26f63"/>
      <stop offset="1" stop-color="#f26f63" stop-opacity=".5"/>
    </linearGradient>
  </defs>
  <path class="cls-1" d="M60.64,29.86c7.06.2,8.79,5.94,8.79,7.22,0,4.42-3.74,5.05-4.81,4.96,2.84-1.25,3.33-3.28,3.35-4.29,0-5.06-9.16-7-13.63-4.83-.15.08-.22.26-.16.42,1.27,3.54-.34,4.74-1.62,6.22-4.69,3.22-5.88,1.3-5.85.29.27-3.84,3.51-6.3,4.02-6.92-.98-1.25-1.85-4.33-1.85-5.45,0,0-2.85,4.72-4.07,6.56-.23.35-.26.8-.06,1.17.29.55.66,1.5.66,2.82,0,2.09-1.42,3.47-2.84,4.33-1.26.77-2.69,1.19-4.16,1.31l-.53.04c-1.17.09-1.88-1.28-1.13-2.18,1.83-2.18,4.3-5.17,4.83-5.96-1.41-2.88-2.01-4.44-2.08-6.34-1.1,3.07-6.37,15.55-8.96,15.55-2.1-.56-1.83-3.24-1.65-5.72-2.21,5.65-3.73,6.61-4.8,6.61-2.75,0-3.66-5.09-3.66-6.12,0-1.76.51-4.78,1.05-5.85l-3.53,2.01c-.25.12-.5.23-.74.35-.03.02-.05.05-.03.09.7,1.26,1.12,2.67,1.12,4.34,0,1.39-1.68,11.53-10.65,11.53-2.93,0-5.36-.94-5.36-5.28,0-3.03,2.58-6.17,11.14-10.9.1-.06.13-.2.04-.28C9.07,31.25,0,27,0,21.54c0-2.27,1.1-5.03,3.83-8.52C12.71,3.48,26.35,0,31.44,0c9.94,0,12.24,5.45,12.24,8.6,0,10.24-12.82,15.36-19.09,15.36-7.52,0-8.82-4.73-8.79-5.45,4.73,5.46,12.46,2.12,15.21,1.06,9.03-4.45,8.93-9,8.93-10.21,0-3.91-5.48-8.58-19.99-2.27-5.26,2.85-14.78,7.38-14.78,14.27,0,5.97,6.97,8.46,10.75,12.97.01.02.03.02.05.01.62-.32,1.25-.65,1.93-.99.86-.42,2.55-1.29,3.75-1.99.77-.45,1.47-1.02,2.05-1.7,1.35-1.54,3.46-3.44,5.48-3.44,1.14,0,2.7,1.36,2.05,4.38,1-.49,1.72-.15,2.13.27.18.18.23.44.15.68-.86,2.33-1.74,6.75-1.88,8.99-.02.28.35.39.49.14,1.96-3.57,6.05-13.78,7.05-16.3.14-.35.47-.57.84-.57h2.29c.62,0,1.05.6.86,1.19-1.22,3.9-.16,6.71.37,7.56,1.1-1.43,3.73-6.57,4.25-8,.2-.84.7-1.96.94-2.46.08-.16.24-.26.41-.26h3c.32,0,.54.32.43.62-1.58,4.24-.13,7.11.83,8.94,3.24-1.32,5.7-1.54,7.24-1.54ZM51.55,37.3c.39-1.09.55-1.97.17-2.73-.08-.16-.29-.19-.42-.07-1.4,1.3-2.19,3.4-2.43,4.51-.04.2.14.37.34.31.81-.26,1.95-1.07,2.34-2.02ZM42.6,37.65c.02-.14-.16-.23-.25-.11l-3.17,3.85c-.09.11.02.28.16.23.61-.23,1.64-.73,2.16-1.3.62-.76.97-1.92,1.1-2.66ZM25.15,41.4c2.52-3.11,4.39-10.13,4.28-12.05-.01-.23-.23-.38-.45-.32-2.24.7-3.58,3.13-4.56,5.83-1.18,3.99-.52,5.6.18,6.53.14.18.4.18.54,0ZM15.68,39.84c0-.83,0-1.82-.49-2.64-.04-.06-.13-.09-.2-.05-10.68,5.95-8.7,11.02-6.95,11.02,7.15-.06,7.64-8.33,7.64-8.33Z"/>
</svg>