<?xml version="1.0" encoding="UTF-8"?>
<svg id="Layer_1" data-name="Layer 1" xmlns="http://www.w3.org/2000/svg" xmlns:xlink="http://www.w3.org/1999/xlink" viewBox="0 0 55.02 52">
  <defs>
    <style>
      .cls-1 {
        fill: url(#linear-gradient);
      }
    </style>
    <linearGradient id="linear-gradient" x1="0" y1="26" x2="55.02" y2="26" gradientUnits="userSpaceOnUse">
      <stop offset="0" stop-color="#f26f63"/>
      <stop offset="1" stop-color="#f26f63" stop-opacity=".5"/>
    </linearGradient>
  </defs>
  <path class="cls-1" d="M28.03,35.51c.7,0,1.26.57,1.26,1.27s-.57,1.26-1.26,1.26-1.27-.57-1.27-1.26.57-1.27,1.27-1.27ZM14.46,11.45c-.31,0-.56.25-.56.56v6.9c0,1.44-1.17,2.62-2.62,2.62s-2.62-1.17-2.62-2.62v-6.9c0-.31-.25-.56-.56-.56s-.56.25-.56.56v6.9c0,2.05,1.67,3.73,3.73,3.73s3.73-1.67,3.73-3.73v-6.9c0-.31-.25-.56-.56-.56ZM52.68,0H2.34C1.05,0,0,1.05,0,2.34v36c0,1.29,1.05,2.34,2.34,2.34h17.43s.07.03.07.06v6.37h-.27s-.04,0-.06.01l-3.08,1.51s-.07.06-.07.11v3.09c0,.09.07.16.16.16h22.16c.09,0,.16-.07.16-.16v-3.07s-.03-.09-.07-.11l-3.38-1.54s-.03,0-.05-.01h-.11v-6.38s.02-.06.06-.06h17.4c1.29,0,2.34-1.05,2.34-2.34V2.34c0-1.29-1.05-2.34-2.34-2.34ZM53.78,32.85H1.26c-.07,0-.13-.06-.13-.14l-.02-30.37c0-.68.55-1.23,1.23-1.23h50.21c.75,0,1.36.61,1.36,1.36v30.24c0,.08-.06.14-.14.14ZM34.08,47.11h-13.06s-.06-.03-.06-.06v-6.31s.03-.06.06-.06h13.05s.06.02.06.06v6.33s-.02.04-.04.04ZM28.03,39.15c-1.31,0-2.38-1.07-2.38-2.37s1.07-2.38,2.38-2.38,2.37,1.07,2.37,2.38-1.07,2.37-2.37,2.37ZM7.39,4.09c-.31,0-.56.25-.56.56s.25.56.56.56h40.21c.31,0,.56-.25.56-.56s-.25-.56-.56-.56H7.39ZM7.62,29.09c-.31,0-.56.25-.56.56s.25.56.56.56h39.98c.31,0,.56-.25.56-.56s-.25-.56-.56-.56H7.62ZM47.08,11.58c-.31,0-.56.25-.56.56v10.04c0,.31.25.56.56.56s.56-.25.56-.56v-10.04c0-.31-.25-.56-.56-.56ZM43.05,11.45c-.31,0-.56.25-.56.56v6.9c0,1.44-1.17,2.62-2.62,2.62s-2.62-1.17-2.62-2.62v-6.9c0-.31-.25-.56-.56-.56s-.56.25-.56.56v6.9c0,2.05,1.67,3.73,3.73,3.73s3.73-1.67,3.73-3.73v-6.9c0-.31-.25-.56-.56-.56ZM33.39,8.39l-6.48,16.97c-.11.29.03.61.32.72.07.02.13.04.2.04.22,0,.43-.14.52-.36l6.48-16.97c.11-.29-.03-.61-.32-.72-.28-.11-.61.03-.72.32ZM21.45,17.08s-.01-.04,0-.06l2.54-4.64c.13-.28.02-.61-.26-.74s-.61-.02-.74.25l-2.12,3.88s-.09.05-.12,0l-2.13-3.88c-.14-.28-.47-.39-.74-.25s-.39.47-.25.74l2.53,4.64s0,.04,0,.06l-2.53,4.63c-.14.28-.02.61.25.74.08.04.16.06.24.06.21,0,.4-.11.5-.31l2.12-3.89s.09-.05.12,0l2.12,3.89c.1.2.29.31.5.31.08,0,.17-.02.24-.06.28-.14.39-.47.32-.62l-2.6-4.76Z"/>
</svg>