<?xml version="1.0" encoding="UTF-8"?>
<svg id="Layer_1" data-name="Layer 1" xmlns="http://www.w3.org/2000/svg" xmlns:xlink="http://www.w3.org/1999/xlink" viewBox="0 0 58.3 52">
  <defs>
    <style>
      .cls-1 {
        fill: url(#linear-gradient);
      }
    </style>
    <linearGradient id="linear-gradient" x1="13.55" y1="-5.76" x2="44.97" y2="48.64" gradientUnits="userSpaceOnUse">
      <stop offset="0" stop-color="#f26f63"/>
      <stop offset="1" stop-color="#f26f63" stop-opacity=".5"/>
    </linearGradient>
  </defs>
  <path class="cls-1" d="M58.3,4.88v32.73c0,2.7-2.19,4.88-4.88,4.88h-15.79s-.07.04-.05.09l2.94,6.21c.3.62.33,1.36.02,1.98-.38.77-1.14,1.23-1.98,1.23h-18.7c-.69,0-1.36-.28-1.79-.83-.53-.67-.63-1.55-.28-2.3l3.05-6.29s0-.09-.05-.09H4.88c-2.69,0-4.88-2.19-4.88-4.88V4.88C0,2.19,2.19,0,4.88,0h48.53c2.7,0,4.88,2.19,4.88,4.88ZM56.8,37.61v-.82c0-.07-.05-.13-.12-.13H1.61c-.07,0-.12.05-.12.12v.82c0,1.87,1.52,3.39,3.39,3.39h48.53c1.87,0,3.39-1.52,3.39-3.39ZM56.8,35.05V4.88c0-1.87-1.52-3.39-3.39-3.39h-19.38c-.12,0-.22.1-.22.22v33.24c0,.12.1.22.22.22h22.64c.07,0,.12-.05.12-.12ZM39.26,50.2c.13-.23.14-.51.03-.75l-3.29-6.93s-.03-.03-.05-.03h-13.48s-.04.01-.05.04l-3.37,6.94c-.11.24-.1.51.04.74.15.26.44.4.74.4h18.68c.27,0,.62-.17.75-.4ZM32.32,34.96V1.71c0-.12-.1-.22-.22-.22H4.88c-1.87,0-3.39,1.52-3.39,3.39v30.17c0,.07.05.12.12.12h30.49c.12,0,.22-.1.22-.22ZM37.83,20.36c-.41,0-.74.33-.74.73s.33.73.74.73h15.14c.41,0,.74-.33.74-.73s-.33-.73-.74-.73h-15.14ZM37.83,25.34c-.41,0-.74.33-.74.73s.33.74.74.74h15.14c.41,0,.74-.33.74-.74s-.33-.73-.74-.73h-15.14ZM37.83,30.27c-.41,0-.74.33-.74.73s.33.74.74.74h15.14c.41,0,.74-.33.74-.74s-.33-.73-.74-.73h-15.14ZM50.16,6.03c-.25-.32-.71-.37-1.03-.12-.32.25-.37.71-.12,1.03l2.75,3.46-2.75,3.49c-.25.32-.2.78.12,1.03.13.1.29.16.45.16.22,0,.43-.1.57-.28l3.11-3.94c.21-.27.21-.65,0-.91l-3.11-3.92ZM45.1,6.1l-2.1,8.26c-.1.39.13.79.53.89.06.01.12.02.18.02.33,0,.63-.22.71-.55l2.11-8.26c.1-.39-.14-.79-.53-.89-.39-.1-.79.13-.89.53ZM39.53,6.03l-3.11,3.92c-.21.27-.21.64,0,.91l3.11,3.94c.14.19.36.28.57.28.16,0,.32-.05.45-.16.32-.25.37-.71.12-1.03l-2.75-3.49,2.75-3.46c.25-.32.2-.78-.12-1.03-.32-.25-.78-.2-1.03.12ZM29.88,21.25v9.66c0,.4-.33.73-.73.73h-9.66c-.41,0-.74-.33-.74-.73v-9.66c0-.4.33-.73.74-.73h9.66c.4,0,.73.33.73.73ZM28.41,29.86v-7.57c0-.17-.14-.31-.31-.31h-7.57c-.17,0-.31.14-.31.31v7.57c0,.17.14.31.31.31h7.57c.17,0,.31-.14.31-.31ZM29.88,5.57v11.77c0,.41-.33.73-.73.73H5.79c-.41,0-.74-.33-.74-.73V5.57c0-.4.33-.73.74-.73h23.36c.4,0,.73.33.73.73ZM28.41,16.3V6.62c0-.17-.14-.31-.3-.31H6.83c-.17,0-.31.14-.31.31v9.68c0,.17.14.31.31.31h21.28c.17,0,.3-.14.3-.31ZM16.18,21.25v9.66c0,.4-.33.73-.73.73H5.79c-.41,0-.74-.33-.74-.73v-9.66c0-.4.33-.73.74-.73h9.66c.4,0,.73.33.73.73ZM14.71,29.87v-7.58c0-.17-.13-.3-.3-.3h-7.58c-.17,0-.3.13-.3.3v7.58c0,.17.14.3.3.3h7.58c.17,0,.3-.14.3-.3Z"/>
</svg>