<?xml version="1.0" encoding="UTF-8"?>
<svg id="Layer_1" data-name="Layer 1" xmlns="http://www.w3.org/2000/svg" xmlns:xlink="http://www.w3.org/1999/xlink" viewBox="0 0 30 30">
  <defs>
    <style>
      .cls-1 {
        fill: url(#linear-gradient);
      }
    </style>
    <linearGradient id="linear-gradient" x1="0" y1="15" x2="30" y2="15" gradientUnits="userSpaceOnUse">
      <stop offset="0" stop-color="#94a3b7"/>
      <stop offset="1" stop-color="#81d2e7"/>
    </linearGradient>
  </defs>
  <path class="cls-1" d="M30,5.72v18.56c0,1.5-.97,2.72-2.17,2.72H2.17c-1.2,0-2.17-1.22-2.17-2.72V5.72c0-1.5.97-2.72,2.17-2.72h25.66c1.2,0,2.17,1.22,2.17,2.72ZM28.4,24.36V7.33l-10.34,7.71,10.17,9.8c.11-.12.17-.29.17-.48ZM28.21,5.14c-.09-.09-.2-.14-.31-.14H2.11c-.12,0-.23.05-.32.14l12.68,9.46c.33.24.73.24,1.06,0,2.29-1.71,12.68-9.47,12.68-9.47ZM4.72,25h20.57l-8.79-8.79-.85.64c-.4.3-.89.3-1.29,0l-.9-.67-8.74,8.82ZM1.76,24.83l10.14-9.82L1.6,7.33v17.03c0,.19.06.36.17.47Z"/>
</svg>