<?xml version="1.0" encoding="UTF-8"?>
<svg id="Layer_1" data-name="Layer 1" xmlns="http://www.w3.org/2000/svg" xmlns:xlink="http://www.w3.org/1999/xlink" viewBox="0 0 30 30">
  <defs>
    <style>
      .cls-1 {
        fill: url(#linear-gradient);
      }
    </style>
    <linearGradient id="linear-gradient" x1="0" y1="15" x2="30" y2="15" gradientUnits="userSpaceOnUse">
      <stop offset="0" stop-color="#94a3b7"/>
      <stop offset="1" stop-color="#65748b"/>
    </linearGradient>
  </defs>
  <path class="cls-1" d="M25.43,5.5s-.02-.03-.04-.04c-1.94-.89-3.99-1.53-6.1-1.89-.04,0-.08.01-.1.05-.28.51-.53,1.03-.76,1.56-2.27-.34-4.58-.34-6.86,0-.23-.53-.49-1.06-.77-1.56-.02-.03-.06-.05-.1-.05-2.11.36-4.17,1-6.11,1.89-.02,0-.03.02-.04.04C.67,11.31-.4,16.98.12,22.57c0,.03.02.05.04.07,2.26,1.67,4.8,2.95,7.49,3.78.04.01.08,0,.11-.04.58-.79,1.09-1.62,1.53-2.49.02-.05,0-.11-.04-.13,0,0,0,0,0,0-.81-.31-1.59-.68-2.34-1.12-.05-.03-.06-.09-.03-.13,0,0,.01-.02.02-.02.16-.12.32-.24.46-.36.03-.02.06-.03.1-.02,4.91,2.24,10.22,2.24,15.08,0,.03-.02.07-.01.1.01.15.12.31.25.46.37.04.03.05.09.01.14,0,0-.02.02-.02.02-.75.44-1.53.81-2.34,1.11-.05.02-.07.08-.05.13,0,0,0,0,0,0,.45.87.96,1.7,1.53,2.49.02.03.07.05.11.04,2.7-.82,5.24-2.1,7.51-3.78.02-.02.04-.04.04-.07.62-6.46-1.05-12.08-4.44-17.07ZM10.03,19.16c-1.48,0-2.69-1.36-2.69-3.02s1.19-3.03,2.69-3.03,2.72,1.37,2.69,3.02c0,1.67-1.19,3.03-2.69,3.03ZM19.99,19.16c-1.48,0-2.69-1.36-2.69-3.02s1.19-3.03,2.69-3.03,2.72,1.37,2.69,3.02c0,1.67-1.18,3.03-2.69,3.03Z"/>
</svg>