<?xml version="1.0" encoding="UTF-8"?>
<svg id="Layer_1" data-name="Layer 1" xmlns="http://www.w3.org/2000/svg" viewBox="0 0 30 30">
  <defs>
    <style>
      .cls-1 {
        fill: #e4e4e4;
        opacity: .7;
      }
    </style>
  </defs>
  <path class="cls-1" d="M13.75,15L.26,1.51C-.09,1.16-.09.6.26.26S1.16-.09,1.51.26l13.49,13.49L28.49.26c.34-.34.9-.34,1.25,0s.34.9,0,1.25l-13.49,13.49,13.49,13.49c.34.34.34.9,0,1.25-.17.17-.4.26-.62.26s-.45-.09-.62-.26l-13.49-13.49L1.51,29.74c-.17.17-.4.26-.62.26s-.45-.09-.62-.26c-.34-.34-.34-.9,0-1.25l13.49-13.49Z"/>
</svg>