<?xml version="1.0" encoding="UTF-8"?>
<svg id="Layer_1" data-name="Layer 1" xmlns="http://www.w3.org/2000/svg" viewBox="0 0 29.93 30">
  <defs>
    <style>
      .cls-1 {
        fill: #e4e4e4;
      }

      .cls-2 {
        opacity: .7;
      }
    </style>
  </defs>
  <g class="cls-2">
    <g>
      <path class="cls-1" d="M29.37,16.14c.34.03.59.33.56.67,0,0,0,.02,0,.03-.93,7.5-7.34,13.16-14.91,13.16C6.74,30,0,23.26,0,14.98,0,7.19,6.07.62,13.82,0c.3-.02.57.17.65.45.08.29-.05.59-.31.73-3.66,1.93-5.93,5.66-5.93,9.74,0,6.07,4.94,11.02,11.02,11.02,3.87,0,7.5-2.09,9.49-5.46.11-.23.36-.38.63-.35ZM28.05,19.45c-2.29,2.36-5.47,3.75-8.8,3.75-6.77,0-12.27-5.51-12.27-12.27,0-3.54,1.53-6.84,4.13-9.15C5.4,3.48,1.26,8.82,1.26,14.98c0,7.59,6.17,13.77,13.77,13.77,5.97,0,11.16-3.84,13.03-9.3Z"/>
      <path class="cls-1" d="M22.78,16.83c-.73,0-1.09.45-1.09,1.36v.15c0,.14-.11.25-.25.25s-.25-.11-.25-.25v-.14h0c0-.92-.36-1.36-1.09-1.36h-.34c-.14,0-.25-.11-.25-.25s.11-.25.25-.25h.34c.73,0,1.09-.45,1.09-1.36v-.15c0-.14.11-.25.25-.25s.25.11.25.25v.15c0,.91.36,1.36,1.09,1.36h.24c.14,0,.25.11.25.25s-.11.25-.25.25h-.24Z"/>
      <path class="cls-1" d="M17.37,8.71v-.02c0-1.7-.67-2.53-2.04-2.53h-.63c-.26,0-.47-.21-.47-.47s.21-.47.47-.47h.63c1.37,0,2.04-.83,2.04-2.53v-.29c0-.26.21-.47.47-.47s.47.21.47.47v.29c0,1.7.67,2.53,2.04,2.53h.44c.26,0,.47.21.47.47s-.21.47-.47.47h-.44c-1.37,0-2.04.83-2.04,2.53v.29c0,.26-.21.47-.47.47s-.47-.21-.47-.47v-.27Z"/>
    </g>
  </g>
</svg>