<?xml version="1.0" encoding="UTF-8"?>
<svg id="Layer_1" data-name="Layer 1" xmlns="http://www.w3.org/2000/svg" viewBox="0 0 23.53 30">
  <defs>
    <style>
      .cls-1 {
        fill: #e4e4e4;
        opacity: .7;
      }
    </style>
  </defs>
  <path class="cls-1" d="M11.24,18.13v-.02c0-1.77-.69-2.62-2.12-2.62h-.65c-.27,0-.49-.22-.49-.49s.22-.49.49-.49h.65c1.43,0,2.12-.86,2.12-2.63v-.3c0-.27.22-.49.49-.49s.49.22.49.49v.3c0,1.77.69,2.63,2.12,2.63h.45c.27,0,.49.22.49.49s-.22.49-.49.49h-.45c-1.42,0-2.12.86-2.12,2.62v.3c0,.27-.22.49-.49.49s-.49-.22-.49-.49v-.28ZM12.15,29.62c0-4.28,1.07-14.24,11-14.24.21,0,.38-.17.38-.38s-.17-.38-.38-.38C13.22,14.62,12.15,4.66,12.15.38c0-.21-.17-.38-.38-.38s-.38.17-.38.38c0,4.27-1.07,14.18-10.92,14.24-.03,0-.06,0-.09,0H.38c-.21,0-.38.17-.38.38s.17.38.38.38c9.93,0,11,9.96,11,14.24,0,.21.17.38.38.38s.38-.17.38-.38ZM9.6,10.64c1.16-1.78,1.81-3.83,2.17-5.8.36,1.96,1.01,4.01,2.17,5.8,1.46,2.26,3.47,3.72,6,4.36-2.52.64-4.53,2.1-6,4.36-1.16,1.78-1.81,3.83-2.17,5.8-.36-1.96-1.01-4.01-2.17-5.8-1.46-2.26-3.47-3.72-6-4.36,2.52-.64,4.53-2.1,6-4.36ZM5.99,9.12c.15-.15.14-.39,0-.54l-3.45-3.34c-.15-.15-.39-.14-.54,0-.15.15-.14.39,0,.54l3.45,3.34c.07.07.17.11.27.11s.2-.04.27-.12ZM18.08,9.13l3.45-3.34c.15-.15.15-.39,0-.54-.15-.15-.39-.16-.54,0l-3.45,3.34c-.15.15-.15.39,0,.54.07.08.17.12.27.12s.19-.04.27-.11ZM2.53,23.84l3.45-3.34c.15-.15.15-.39,0-.54-.15-.15-.39-.16-.54,0l-3.45,3.34c-.15.15-.15.39,0,.54.07.08.17.12.27.12s.19-.04.27-.11ZM22.03,24.31c.15-.15.14-.39,0-.54l-3.45-3.34c-.15-.15-.39-.14-.54,0-.15.15-.14.39,0,.54l3.45,3.34c.07.07.17.11.27.11s.2-.04.27-.12Z"/>
</svg>