<?xml version="1.0" encoding="UTF-8"?>
<svg id="Layer_1" data-name="Layer 1" xmlns="http://www.w3.org/2000/svg" viewBox="0 0 28.24 30">
  <defs>
    <style>
      .cls-1, .cls-2 {
        fill: #e4e4e4;
      }

      .cls-2, .cls-3 {
        opacity: .7;
      }
    </style>
  </defs>
  <path class="cls-2" d="M13.49,23.27l-6.27-6.27c-.17-.17-.26-.4-.26-.62s.09-.45.26-.62c.34-.34.9-.34,1.25,0l4.76,4.76V.88c0-.49.4-.88.88-.88s.88.4.88.88v19.63l4.76-4.76c.34-.34.9-.34,1.25,0s.34.9,0,1.25l-6.27,6.27c-.34.34-.9.34-1.25,0"/>
  <g class="cls-3">
    <path class="cls-1" d="M23,30H5.23c-2.89,0-5.23-2.66-5.23-5.93v-3.17c0-.49.35-.88.78-.88s.78.4.78.88v3.17c0,2.29,1.65,4.16,3.67,4.16h17.77c2.03,0,3.67-1.87,3.67-4.16v-3.17c0-.49.35-.88.78-.88s.78.4.78.88v3.17c0,3.27-2.35,5.93-5.23,5.93Z"/>
  </g>
</svg>