<?xml version="1.0" encoding="UTF-8"?>
<svg id="Layer_1" data-name="Layer 1" xmlns="http://www.w3.org/2000/svg" xmlns:xlink="http://www.w3.org/1999/xlink" viewBox="0 0 32 32">
  <defs>
    <style>
      .cls-1 {
        fill: url(#linear-gradient);
      }
    </style>
    <linearGradient id="linear-gradient" x1="0" y1="16" x2="32" y2="16" gradientUnits="userSpaceOnUse">
      <stop offset="0" stop-color="#f26f63"/>
      <stop offset="1" stop-color="#f26f63" stop-opacity=".5"/>
    </linearGradient>
  </defs>
  <path class="cls-1" d="M24.54,27.5l-14.93-14.93s-.03,0-.04,0l-.85.86c-.1.1-.1.27,0,.38l14.6,14.6c.1.1.27.1.38,0l.85-.85s.01-.04,0-.06ZM12.18,10.02s-.04-.01-.05,0l-2.11,2.12s-.01.03,0,.04l14.93,14.93s.04.01.06,0l2.11-2.11s.01-.03,0-.04l-14.93-14.93ZM12.57,9.62l14.93,14.93s.03.01.04,0l.85-.85c.1-.1.1-.27,0-.38l-14.6-14.6c-.1-.1-.27-.1-.38,0l-.85.85s-.01.04,0,.05ZM31.99,31.62c.06.23-.15.43-.37.37l-8.23-2.23c-.16-.04-.31-.13-.43-.25L7.62,14.17c-.31-.31-.31-.82,0-1.14l5.41-5.41c.31-.31.83-.31,1.14,0l15.34,15.34c.12.12.2.26.25.43l2.23,8.23ZM29.83,27.4s.05-.1.04-.15l-.66-2.53c-.03-.12-.18-.16-.26-.07l-2.15,2.15-2.15,2.15c-.09.08-.05.23.07.26l2.53.66c.05.01.11,0,.15-.04l1.21-1.21,1.22-1.22ZM12.58,6.03c.32.32.32.83,0,1.15l-5.41,5.41c-.32.32-.83.32-1.15,0l-3.39-3.39c-.32-.32-.32-.83,0-1.15l1.76-1.76.37-.37.42-.42.14-.14,2.72-2.71s.07-.06.1-.09c.32-.23.76-.2,1.04.09l3.39,3.39ZM11.69,6.67c.06-.06.06-.16,0-.22l-.33-.33c-.06-.06-.16-.06-.22,0l-5.02,5.02c-.06.06-.06.16,0,.22l.33.33c.06.06.16.06.22,0l5.02-5.02ZM10.39,5.37c.06-.06.06-.16,0-.22l-.33-.33c-.06-.06-.16-.06-.22,0l-5.02,5.02c-.06.06-.06.16,0,.22l.33.33c.06.06.16.06.22,0l5.02-5.02ZM9.12,4.11c.06-.06.06-.16,0-.22l-.33-.33c-.06-.06-.16-.06-.22,0l-5.02,5.02c-.06.06-.06.16,0,.22l.33.32c.06.06.16.06.22,0l5.02-5.02ZM8.23,1.67c.22.22.22.57,0,.79-.03.03-.06.05-.09.07-.24.09-.27.09-.31.09-.14,0-.29-.06-.4-.16l-1.23-1.23c-.46-.46-1.21-.46-1.68,0l-1.64,1.63-.02.02-1.63,1.64c-.46.46-.46,1.21,0,1.68l.71.71c.07.07.18.07.25,0l2.18-2.19c.22-.22.58-.22.8,0,.11.11.16.25.16.4,0,.13-.05.27-.15.38l-.42.42-.37.37-1.76,1.76-.19.18c-.22.22-.56.22-.78,0l-.83-.83C-.28,6.27-.28,4.45.84,3.32l1.23-1.23.02-.02,1.23-1.23C4.45-.28,6.27-.28,7.4.84l.83.83Z"/>
</svg>