<?xml version="1.0" encoding="UTF-8"?>
<svg id="Layer_1" data-name="Layer 1" xmlns="http://www.w3.org/2000/svg" xmlns:xlink="http://www.w3.org/1999/xlink" viewBox="0 0 30 29.25">
  <defs>
    <style>
      .cls-1 {
        fill: url(#linear-gradient);
      }
    </style>
    <linearGradient id="linear-gradient" x1="0" y1="14.63" x2="30" y2="14.63" gradientUnits="userSpaceOnUse">
      <stop offset="0" stop-color="#f26f63"/>
      <stop offset="1" stop-color="#f26f63" stop-opacity=".5"/>
    </linearGradient>
  </defs>
  <path class="cls-1" d="M10.03,23.55c0,.12-.14.22-.31.22-.2.02-.34-.08-.34-.22,0-.12.14-.22.31-.22.18-.02.34.08.34.22ZM8.15,23.28c-.04.12.08.26.26.3.16.06.34,0,.37-.12s-.08-.26-.26-.31c-.16-.04-.33.02-.37.14h0ZM10.83,23.18c-.18.04-.3.16-.28.3.02.12.18.2.36.16.18-.04.3-.16.28-.28-.02-.11-.18-.19-.36-.18ZM14.81,0C6.42,0,0,6.37,0,14.76c0,6.71,4.22,12.45,10.25,14.47.77.14,1.05-.34,1.05-.73s-.02-2.44-.02-3.71c0,0-4.23.91-5.12-1.8,0,0-.69-1.76-1.68-2.21,0,0-1.39-.95.1-.93,0,0,1.51.12,2.33,1.56,1.32,2.33,3.54,1.66,4.41,1.26.14-.97.53-1.64.97-2.04-3.38-.38-6.79-.86-6.79-6.68,0-1.66.46-2.5,1.43-3.56-.16-.39-.67-2.01.16-4.11,1.26-.39,4.17,1.63,4.17,1.63,1.21-.34,2.51-.51,3.8-.51s2.59.18,3.8.51c0,0,2.91-2.03,4.17-1.63.83,2.1.31,3.71.16,4.11.97,1.07,1.56,1.91,1.56,3.56,0,5.84-3.56,6.3-6.94,6.68.56.48,1.03,1.39,1.03,2.81,0,2.04-.02,4.56-.02,5.06,0,.39.28.87,1.05.73,6.05-2.01,10.15-7.75,10.15-14.46C30,6.37,23.2,0,14.81,0ZM5.88,20.86c-.08.06-.06.2.04.31.1.1.24.14.31.06.08-.06.06-.2-.04-.31-.1-.1-.24-.14-.31-.06ZM5.23,20.37c-.04.08.02.18.14.24.1.06.22.04.26-.04.04-.08-.02-.18-.14-.24-.12-.04-.22-.02-.26.04ZM7.19,22.52c-.1.08-.06.26.08.38.14.14.31.16.39.06.08-.08.04-.26-.08-.38-.13-.14-.31-.16-.39-.06ZM6.5,21.64c-.1.06-.1.22,0,.36s.26.2.34.14c.1-.08.1-.24,0-.38-.08-.14-.24-.2-.34-.12h0Z"/>
</svg>