<?xml version="1.0" encoding="UTF-8"?>
<svg id="Layer_1" data-name="Layer 1" xmlns="http://www.w3.org/2000/svg" xmlns:xlink="http://www.w3.org/1999/xlink" viewBox="0 0 30 29.99">
  <defs>
    <style>
      .cls-1 {
        fill: url(#linear-gradient);
      }
    </style>
    <linearGradient id="linear-gradient" x1="0" y1="15" x2="30" y2="15" gradientUnits="userSpaceOnUse">
      <stop offset="0" stop-color="#f26f63"/>
      <stop offset="1" stop-color="#f26f63" stop-opacity=".5"/>
    </linearGradient>
  </defs>
  <path class="cls-1" d="M15,7.31c-4.26,0-7.69,3.43-7.69,7.69s3.43,7.69,7.69,7.69,7.69-3.43,7.69-7.69-3.43-7.69-7.69-7.69ZM15,20c-2.75,0-5-2.24-5-5s2.24-5,5-5,5,2.24,5,5-2.25,5-5,5h0ZM24.8,6.99c0,1-.8,1.79-1.79,1.79s-1.79-.8-1.79-1.79.8-1.79,1.79-1.79,1.79.8,1.79,1.79ZM29.89,8.81c-.11-2.4-.66-4.53-2.42-6.28C25.72.77,23.59.23,21.19.11,18.71-.04,11.29-.04,8.81.11c-2.4.11-4.52.66-6.28,2.42S.23,6.4.11,8.81C-.04,11.28-.04,18.7.11,21.18c.11,2.4.66,4.53,2.42,6.28,1.76,1.75,3.88,2.3,6.28,2.42,2.48.14,9.9.14,12.37,0,2.4-.11,4.53-.66,6.28-2.42,1.75-1.75,2.3-3.88,2.42-6.28.14-2.48.14-9.89,0-12.37h0ZM26.7,23.84c-.52,1.31-1.53,2.32-2.85,2.85-1.97.78-6.66.6-8.84.6s-6.87.17-8.84-.6c-1.31-.52-2.32-1.53-2.85-2.85-.78-1.97-.6-6.66-.6-8.84s-.17-6.87.6-8.84c.52-1.31,1.53-2.32,2.85-2.85,1.97-.78,6.66-.6,8.84-.6s6.87-.17,8.84.6c1.31.52,2.32,1.53,2.85,2.85.78,1.97.6,6.66.6,8.84s.18,6.87-.6,8.84Z"/>
</svg>