<?xml version="1.0" encoding="UTF-8"?>
<svg id="Layer_1" data-name="Layer 1" xmlns="http://www.w3.org/2000/svg" xmlns:xlink="http://www.w3.org/1999/xlink" viewBox="0 0 32 27.72">
  <defs>
    <style>
      .cls-1 {
        fill: url(#linear-gradient);
      }
    </style>
    <linearGradient id="linear-gradient" x1="0" y1="13.86" x2="32" y2="13.86" gradientUnits="userSpaceOnUse">
      <stop offset="0" stop-color="#f26f63"/>
      <stop offset="1" stop-color="#f26f63" stop-opacity=".5"/>
    </linearGradient>
  </defs>
  <path class="cls-1" d="M20.83,7.94c.14.13-.54.42-.61.47-1.53,1.08-2.14,3.14-2.22,4.94,1.34.06,2.57-.74,3.41-1.72.55-.64,1.04-1.49.51-2.29-.32-.49-.72-.53-1.24-.28-.48.23-1.6,1.97-1.74,2.5-.13.49-.15,1.06-.29,1.55-.1.17-.28-.21-.28-.34-.02-.83.85-2.24,1.35-2.89.47-.61,1.03-1.52,1.89-.97,1.15.73.56,2.03-.14,2.84-1.08,1.26-3.89,2.86-5.22,1.17-.16-.07-.09.36-.06.43.38.83,2.33.54,3.04.34.42-.12.8-.35,1.23-.46-.12.24-1.08.56-1.16.69-.13.23.21.34.3.48-.44-.11-.88-.35-1.35-.21.53.8,1.66,1,2.56,1.07,1.33.1,1.92-.01,3.03-.7.05-.03.13-.15.19-.06-1.48,1.24-3.28,1.24-5,.51-.4-.17-.78-.45-1.16-.62-.25-.11-1.52-.59-1.71-.57-.39.04-.79.82-1.07,1.14-.73.84-1.95,1.73-3.01,2.09-.98.33-2.57.18-2.74,1.47-.11.01-.06-.13-.05-.2.03-.18.23-.67.14-.79l-.9-.18c.14,2.39-.48,4.75-.68,7.13l1.23-5.47.05.33c-.5,2.83-1.15,5.64-1.96,8.39-.11.01-.07-.21-.06-.28.06-.75.15-1.52.25-2.27.28-2.04.97-4.35,1.1-6.34.17-2.64-1.1-1.94-2.55-.77-.1-.06.02-.14.06-.18.17-.2.6-.58.68-.8.1-.29-.46-.33-.66-.29s-.72.4-.87.54c-.68.63-1.6,1.88-2.21,2.65-.74.92-1.83,2.2-2.4,3.19-.05.09-.2.26-.13.36l1.78-1.54s.04.06.03.09c-.04.08-.9.92-1.04,1.05-.16.14-.36.33-.53.46-.07.05-.6.48-.64.43.36-1.07,1.07-2.05,1.76-2.94,1.29-1.66,2.84-3.12,4.14-4.77-.57-.51-1.44-.87-1.94-1.44-1.33-1.55-1.81-4.37-.67-6.14l-.34,1.5c-.13,1.76.38,3.73,1.63,5.01l.06-.12c.19.34.5.5.83.68-.34-1.06-.89-2.02-1.09-3.12-.34-1.92.23-4.23,1.83-5.45.75-.57,1.49-.72,2.42-.78.07,0,.34-.04.34.06-2.1.17-3.81,1.54-4.28,3.61-.22.98-.25,2.33.06,3.28.02.06.02.19.1.17l-.06-.82c.07-.54.12-1.05.27-1.58.94-3.37,4.79-4.91,8.02-4.18l-.31-.37.59-.06,2.41-2.75c.43-.67-.44-1.2.01-1.89.68-1.05,2.65.19,2.65,1.17,0,.48-.57,1.18-1.08,1.19-.17,0-.38-.12-.54-.1-.33.05-.82,1.23-1.02,1.57-.17.29-1.03,1.48-1.05,1.65-.06.41.54.89.76,1.26.35.58.56,1.45.64,2.12.08.61-.03,1.66.35,2.11.2.24.95.58,1.19.34.12-.11.19-.95.25-1.22.37-1.53,1.26-3.59,2.88-4.09ZM16.39,1.75c-.77.17.43,1.36.77,1.53.6.31,1.58.42.95-.52-.31-.47-1.13-1.14-1.73-1.01ZM17.88,3.82c-.46-.08-.88-.35-1.23-.65-.12-.1-.74-.84-.86-.71-.05.29.19.55.37.77.35.43,1.06,1.1,1.64.72.06-.04.11,0,.08-.14ZM16.53,3.95c-.12-.03-.18-.07-.31-.04-.69.16-2.51,2.36-2.88,3.03-.23.41-.5.96-.31,1.42.6.12,1.07-.52,1.4-.95.82-1.04,1.5-2.29,2.09-3.47ZM7.93,8.74c.37-.52,1.54-1.02,2.15-1.2.9-.25,1.78-.27,2.7-.22.01-.09-.1-.08-.17-.11-.83-.31-2.56-.07-3.43.16-2.99.78-4.7,3.56-3.94,6.6.13.53.36.94.66,1.4l.12-.03c-.13-1.34-.52-2.65-.11-3.98.23-.74.68-1.38,1.18-1.95.05.13-.08.23-.09.4-.15,1.41,1.49,3.03,2.67,3.6.43.21,1.11.5.83-.28-.24-.68-1.62-1.64-2.15-2.27-.21-.26-.47-.61-.63-.91-.15-.28-.12-.77-.54-.6.2-.22.48-.5.74-.61-.18.26-.22.44-.18.76.08.56,1.04,1.58,1.47,1.97.46.42,1.02.74,1.51,1.13.13-.08.06-.1.05-.17-.06-.63-.71-.81-1.13-1.15-.44-.36-.93-1.05-1.11-1.6-.08-.26-.12-.88-.21-1.02-.07-.1-.3.02-.4.06ZM11.1,7.52c-.06.01-.22.09-.22.14l.51.83c.1,0,.19-.77.14-.88l-.09-.09c-.12-.02-.23-.02-.35,0ZM11.18,14.39c.66-2.22.93-4.53.86-6.85,0-.07-.07,0-.09.03-.66.95-.64,4.56-1.17,6.02-.43,1.18-1.23,1.92-1.75,2.92-.11.22-.22.45-.18.71.82.18,1.13-.82,1.59-1.29l-.74,1.32c.94.37,1.8-.38,1.81-1.32-.1.07-.86,1.23-.95,1.11.1-.84.74-1.5,1.09-2.26.81-1.76.76-3.68.88-5.57.01-.22.23-1.58.02-1.63h-.2c-.09,1-.08,1.98-.2,2.97-.15,1.21-.42,2.54-.87,3.68-.03.07-.02.18-.11.17ZM10.69,7.7c-.7.1-.21.97.07,1.32.05.07.49.53.55.46.14-.72-.41-1.16-.62-1.78ZM10.08,7.82c-1.33.12-.32,2.14.21,2.64.22.21.79.49.93.06.31-.94-1.22-1.76-1.14-2.71ZM12.9,9.87c-.03.34.02.73,0,1.08l.18-.16c-.09.57-.19,1.15-.24,1.72-.06.67-.15,1.49-.12,2.15,0,.07-.05.23.06.21.28-1.41.7-2.78,1.02-4.18.17-.76.46-1.87.52-2.61,0-.04.02-.1-.03-.09-.51.53-.79,1.25-.95,1.97-.11.01-.05-.13-.04-.2.03-.25.16-.59.16-.82,0-.1.01-.14-.09-.21-.27.31-.42.73-.46,1.14ZM14.19,12.67l.8-3.96c.03-.2-.04-.55-.28-.58-.12-.02-.08.03-.11.08-.54.93-.56,2.62-.84,3.71-.15.6-.42,1.2-.59,1.8-.28.99-.57,1.98-.77,2.98l.12.03c.36-.62.77-1.21.99-1.9.12-.01.05.12.03.19-.06.26-.22.52-.19.8.43-.28.71-.84.9-1.31.43-1.04.63-2.31.94-3.42.21-.75.67-1.38.17-2.13-.05-.08-.07-.17-.2-.14l-.5,2.3-.49,1.57ZM9.09,8.19c-.97.4-.25,1.68.16,2.27.2.28,1.26,1.31,1.59,1.23.51-.12-.68-.98-.76-1.07-.6-.7-.94-1.5-.99-2.43ZM10.38,13.9c-1.43-.3-2.44-1.51-3.18-2.69-.15-.24-.29-.62-.45-.84-.05-.07-.07-.13-.17-.1-.63,1.24.69,2.42,1.6,3.1.55.41,1.59,1.16,2.21.53ZM13.52,16.11c1.08-.81,1.65-2.32,2.04-3.58.13-.42.7-2.01.2-2.26-.14-.03-.09.06-.09.15-.09,1.42-.45,2.73-1.1,4.01l-1.05,1.68ZM7.62,14.15c-.61-.34-1.13-.77-1.66-1.23-.02.95.84,1.63,1.58,2.08.53.32,1.48.9,1.98.29,0-.09-.93-.43-1.09-.51-.32-.17-.55-.41-.82-.63.53.3,1.62.82,2.21.65.08-.02.15-.01.12-.12-1.09-.5-2.13-1.07-2.92-2-.1-.11-.82-1.22-.89-1.17-.49,1.16.7,2,1.47,2.64ZM15.55,13.9c.35-.72.84-1.6.46-2.4-.02.83-.21,1.63-.58,2.37l.12.03ZM11.55,16.91c.34-.3.65-.84.78-1.28.27-.94.3-2.11.39-3.09l-1.17,4.36ZM9.03,15.81c-.75-.22-1.41-.62-2.05-1.06-.23-.16-.46-.41-.69-.54-.26-.15-.07.3-.02.39.26.47,1.4,1.25,1.93,1.33.2.03.71.07.82-.12ZM8.66,16.36c-.18-.21-.54-.23-.8-.34-.55-.24-1.04-.57-1.54-.89.07,1.01,1.57,1.08,2.33,1.23ZM8.54,16.6c-.73-.09-1.42-.38-2.09-.68-.12.48.47.9.87,1,.33.08,1.24.17,1.22-.33ZM11.55,5.7c.03.12.17.26.31.21l.98-3.6c0-.16-.52-.32-.58-.21l-.4,1.41c0-.48.43-1.22.15-1.66-.09-.14-.27-.19-.37-.31-.3-.35-.14-1.09.22-1.36.1.81,1.37,1.42,2.09,1.07.07-.31-.35-.67-.6-.81l-1.37-.38c1.05-.38,2.85.78,1.87,1.9-.17.2-.51.22-.71.4-.33.31-.33.93-.44,1.34-.25.86-.88,1.96-.23,2.75-.81-.18-1.63-.2-2.46-.12l.98-.4c-1.06-.38-2.5.11-3.58.42-3.07.89-3.92,2.59-3.61,5.73.1,1,.31,2.01.74,2.92-.17-.15-.29-.43-.38-.63-.89-2.01-1.04-4.73.35-6.55,1.28-1.67,4.03-2.36,6.05-2.28-.14-.17-.56-.27-.77-.3-2.01-.23-4.48,1.08-5.83,2.51-.1-.07.03-.13.06-.18,1.08-1.41,2.82-2.15,4.56-2.39.92-.13,1.74-.08,2.6.3l.37-1.11c.17.03,0,.3,0,.34,0,.26-.05.76,0,.98ZM13.95,1.61c-.87.06-1.67-.23-2.4-.68-.07.07.45.55.52.61.55.44,1.44.83,1.87.06ZM20.52,14.7l1.34-.23c1.09-.43,2.02-1.05,2.54-2.13,1.53-3.13-2.32-6.76.39-9.93,1.64-1.92,5.77-1.55,7.03.53.33.54.23,1.2-.48.88,0-.11.15-.05.25-.15.6-.65-1.1-1.82-1.64-2-1.32-.44-3.05-.54-4.26.22-.9.56-1.75,2.07-1.73,3.13.05,2.54,2.02,4.84.64,7.4-.48.9-2,2.28-3.07,2.28h-1.01ZM25.69,2.59c-1.71,1.93-.25,4.44,0,6.61.19,1.66.06,3.55-1.13,4.82-.06.06-.33.37-.4.31.75-.81,1.25-1.81,1.34-2.93.2-2.4-1.52-5.73-.54-7.91.05-.12.59-1.03.73-.9ZM21.75,12.36c.57-.78,1.29-1.62,1.16-2.66l-.27-.96c.67,1.05.71,2.09-.16,3.04l-.74.58ZM30.54,3.15c-1.06-1.08-2.42-1.55-3.9-1.05l-.83.34c1.2-1.01,3.25-.92,4.37.18.05.05.41.48.37.53ZM22.18,8.12c-.31-.15-.47-.21-.82-.18-.08,0-.4.19-.34.03.17-.53.98-.27,1.17.15Z"/>
</svg>