<?xml version="1.0" encoding="UTF-8"?>
<svg id="Layer_1" data-name="Layer 1" xmlns="http://www.w3.org/2000/svg" xmlns:xlink="http://www.w3.org/1999/xlink" viewBox="0 0 32 25.58">
  <defs>
    <style>
      .cls-1 {
        fill: #f8f6f2;
      }

      .cls-2 {
        fill: url(#linear-gradient);
      }
    </style>
    <linearGradient id="linear-gradient" x1="0" y1="12.79" x2="32" y2="12.79" gradientUnits="userSpaceOnUse">
      <stop offset="0" stop-color="#f26f63"/>
      <stop offset="1" stop-color="#f26f63" stop-opacity=".5"/>
    </linearGradient>
  </defs>
  <path class="cls-2" d="M10.45,0c13.96.07,13.3,18.04-.51,17.59-1.4-.05-4.31-1.23-4.92-1.19-.43.03-2.03.83-2.78.98-4.46.86-.82-1.39-.21-3.28C-3.29,7.2,2.66-.04,10.45,0ZM24.67,25.34c.68-.14,1.99-.78,2.46-.78.43,0,1.48.54,2.05.68.45.11,2.68.66,2.8.09l-1.99-3.06c5.01-6.16-.06-14.42-7.55-14.2.44,5.52-4.18,9.97-9.36,10.89,1.63,4.91,6.56,7.41,11.58,6.38Z"/>
  <g>
    <path class="cls-1" d="M22.1,16.67c-.2.02-.3.07-.3.16,0,.04.02.09.05.14l.65,1.18h.02c.03-.1.08-.21.14-.31l.69-1.11c-.11-.03-.21-.05-.3-.06,0-.05,0-.11.02-.18h.86c0,.06,0,.13-.02.18-.1.01-.17.04-.22.08s-.1.1-.16.19l-.86,1.4v1.08c.1.03.22.05.37.06,0,.06,0,.13-.02.19h-1.24v-.07s0-.07.01-.12c.12-.02.21-.04.26-.08.05-.03.08-.1.08-.18v-.84l-.96-1.66c-.09-.03-.18-.04-.27-.05-.01-.09-.02-.15-.02-.18h1.21c.02.06.03.12.03.18Z"/>
    <path class="cls-1" d="M24.64,18.38v.09c0,.31.06.54.19.7.13.16.31.24.54.24s.48-.07.73-.22l.07.12c-.27.29-.59.43-.96.43-.28,0-.53-.1-.75-.31-.22-.21-.34-.5-.34-.89s.12-.7.36-.92c.24-.23.5-.34.78-.34s.51.08.68.25c.17.17.26.41.26.74-.02.04-.04.08-.07.12h-1.48ZM25.55,17.67c-.08-.1-.19-.15-.31-.15s-.25.05-.36.16c-.11.11-.19.27-.22.49l.54-.04h.48c0-.22-.05-.37-.13-.47Z"/>
    <path class="cls-1" d="M27.71,19.39c.09-.07.13-.15.13-.24s-.04-.18-.12-.25-.17-.13-.29-.18c-.11-.05-.23-.11-.34-.17-.11-.06-.21-.14-.29-.24-.08-.1-.12-.22-.12-.35,0-.23.08-.39.24-.51.16-.11.35-.17.58-.17s.44.03.65.1c0,.05,0,.13,0,.23s-.01.23-.03.38c-.05,0-.1,0-.16-.02,0-.03,0-.06,0-.09,0-.25-.14-.37-.42-.37-.12,0-.22.03-.29.09-.08.06-.11.14-.11.24s.04.18.12.25c.08.07.18.13.29.18.12.05.23.11.35.16s.21.14.29.24c.08.1.12.22.12.35,0,.21-.09.39-.27.52-.18.13-.41.2-.67.2s-.51-.04-.74-.11c0-.07,0-.17,0-.27s0-.23.03-.38c.04,0,.1,0,.16.01v.06c0,.3.18.45.54.45.14,0,.26-.03.35-.1Z"/>
  </g>
  <path class="cls-1" d="M11.28,5.95c-.02-.21-.29-.39-.64-.54-.16-.06-.25-.11-.25-.16,0-.04.07-.07.25-.08.41.02.68.13.96.18.22.06.28.11.28.21,0,.09-.04.2-.04.39v4.14c0,1.23-.09,1.72-.19,1.97-.07.21-.17.33-.24.33-.06,0-.12-.11-.12-.33v-2.85l-.34.05c-.29.04-.36.12-.5.12-.16,0-.73-.23-.71-.37-.27.42-.77.73-1.46.73-1.1,0-1.71-.79-1.71-1.57,0-.65.43-1.29,1.37-1.45.19,0,.29-.13.29-.18,0-.05-.02-.09-.06-.14-.07-.07-.11-.12-.11-.16s.04-.06.11-.06c.23,0,.53.17.53.29,0,.08-.11.17-.15.27,1.01.19,1.45.83,1.45,1.47,0,.29-.07.54-.25.76.09,0,.55.02.66.02.37,0,.7-.03.87-.06v-1.4l-.34.04c-.29.03-.38.09-.5.09-.17,0-.72-.22-.72-.34,0-.03.04-.06.12-.06.02,0,.05,0,.08,0,.18.02.38.03.55.03.36,0,.67-.03.8-.04v-1.33ZM7.11,8.25c0,.56.38,1.13,1.15,1.13.83,0,1.24-.57,1.24-1.13s-.41-1.14-1.24-1.14c-.77,0-1.15.57-1.15,1.14ZM12.69,5.32c0-.15-.37-.4-.78-.58-.13-.06-.23-.12-.23-.17,0-.04.07-.06.28-.07.37.05.6.12,1.13.28.18.06.23.13.23.22,0,.08-.03.17-.03.31v4.35c0,2.24-.06,2.8-.23,3.18-.07.15-.17.24-.24.24s-.13-.08-.13-.26v-7.5Z"/>
</svg>