<?xml version="1.0" encoding="UTF-8"?>
<svg id="Layer_1" data-name="Layer 1" xmlns="http://www.w3.org/2000/svg" viewBox="0 0 30 22.5">
  <defs>
    <style>
      .cls-1 {
        fill: #e4e4e4;
      }

      .cls-2 {
        opacity: .7;
      }
    </style>
  </defs>
  <g class="cls-2">
    <path class="cls-1" d="M28.62,2.68H1.38c-.76,0-1.38-.6-1.38-1.34S.62,0,1.38,0h27.23c.76,0,1.38.6,1.38,1.34s-.62,1.34-1.38,1.34Z"/>
  </g>
  <g class="cls-2">
    <path class="cls-1" d="M28.62,12.59H1.38c-.76,0-1.38-.6-1.38-1.34s.62-1.34,1.38-1.34h27.23c.76,0,1.38.6,1.38,1.34s-.62,1.34-1.38,1.34Z"/>
  </g>
  <g class="cls-2">
    <path class="cls-1" d="M28.62,22.5H1.38c-.76,0-1.38-.6-1.38-1.34s.62-1.34,1.38-1.34h27.23c.76,0,1.38.6,1.38,1.34s-.62,1.34-1.38,1.34Z"/>
  </g>
</svg>