<?xml version="1.0" encoding="UTF-8"?>
<svg id="Layer_1" data-name="Layer 1" xmlns="http://www.w3.org/2000/svg" xmlns:xlink="http://www.w3.org/1999/xlink" viewBox="0 0 32 23.04">
  <defs>
    <style>
      .cls-1 {
        fill: url(#linear-gradient-2);
      }

      .cls-2 {
        fill: url(#linear-gradient-3);
      }

      .cls-3 {
        fill: url(#linear-gradient);
      }
    </style>
    <linearGradient id="linear-gradient" x1="13.91" y1="7.47" x2="32" y2="7.47" gradientUnits="userSpaceOnUse">
      <stop offset="0" stop-color="#f26f63"/>
      <stop offset="1" stop-color="#f26f63" stop-opacity=".5"/>
    </linearGradient>
    <linearGradient id="linear-gradient-2" x1="3.39" y1="17.05" x2="24.08" y2="17.05" gradientUnits="userSpaceOnUse">
      <stop offset="0" stop-color="#7e7e7e" stop-opacity=".5"/>
      <stop offset="1" stop-color="#f4e7d7"/>
    </linearGradient>
    <linearGradient id="linear-gradient-3" x1="0" y1="8.9" x2="19.34" y2="8.9" xlink:href="#linear-gradient-2"/>
  </defs>
  <path class="cls-3" d="M26.1,8.44c.11-.09.34-.28.49-.19.03.02.39.58.39.62.02.27-.53.58-.72.74l.34,4.35-1.24.98-2.17-7.1-4.28,2.42-.71,3.93c0,.1-.32.31-.38.25l-.81-3.12-.25.08-.3-.36.17-.22-2.75-1.84.43-.23,3.92.6,3.66-3.36L15.83,1.69l1.28-.89,4.1,1.72c.27-.12.62-.53.93-.42.05.02.42.53.43.58.04.18-.11.21-.19.29-.05.05-.08.03,0,.1l2.13.97c1.52-1.05,3.04-2.16,4.67-3.04.45-.24,2.37-1.25,2.77-.96.05.04.05.1.05.15.02.58-1.45,2.02-1.89,2.44-1.3,1.22-2.77,2.28-4.18,3.37l.18,2.42Z"/>
  <g>
    <path class="cls-1" d="M23.68,11.07l.4,1.18S14.24,20.54,3.39,23.04c1.43-.7,12.92-4.94,20.29-11.97Z"/>
    <path class="cls-2" d="M18.27,4.04l1.06.78c-3.27,1.78-10.43,6.36-19.34,8.93.19-.08,12.61-5.38,18.27-9.71Z"/>
  </g>
</svg>