<?xml version="1.0" encoding="UTF-8"?><svg xmlns="http://www.w3.org/2000/svg" xmlns:xlink="http://www.w3.org/1999/xlink" viewBox="0 0 564.7 114.53"><defs><style>.cls-1{mix-blend-mode:lighten;}.cls-2{fill:#f9f073;}.cls-3{fill:url(#linear-gradient-2);}.cls-4{mix-blend-mode:color-dodge;}.cls-5{fill:url(#linear-gradient-4);}.cls-6{fill:url(#linear-gradient-3);}.cls-7{isolation:isolate;}.cls-8{fill:#faf9f6;}.cls-9{fill:url(#linear-gradient);}</style><linearGradient id="linear-gradient" x1="21.59" y1="64.57" x2="51.89" y2="47.08" gradientUnits="userSpaceOnUse"><stop offset=".04" stop-color="#f9f073"/><stop offset=".34" stop-color="#faf9f6"/><stop offset=".85" stop-color="#f7ee7c" stop-opacity=".98"/><stop offset="1" stop-color="#f9f073"/></linearGradient><linearGradient id="linear-gradient-2" x1="19.42" y1="38.41" x2="44.48" y2="23.94" xlink:href="#linear-gradient"/><linearGradient id="linear-gradient-3" x1="22.7" y1="114.1" x2="22.7" y2=".47" gradientUnits="userSpaceOnUse"><stop offset=".04" stop-color="#f9f073"/><stop offset=".34" stop-color="#faf9f6" stop-opacity=".1"/><stop offset="1" stop-color="#f9f073"/></linearGradient><linearGradient id="linear-gradient-4" x1="30.43" y1="21.39" x2="30.43" y2="6.7" xlink:href="#linear-gradient-3"/></defs><g class="cls-7"><g id="text"><path class="cls-9" d="M45.23,55.22c.05.12-.04.27-.17.27-6.18.13-15.12.47-15.87.58-.35.09-2.06,3.03-2.69,4.15-.08.14.04.29.19.27l6.32-1.07c.56-.1,1.13-.1,1.69-.02l2.46.38c-2.27,5.93-17.97,35.63-26.89,48.62h-.01c5.36-11.13,16.91-35.23,23.81-47.58.05-.09-.03-.18-.12-.16-1.54.4-7.42,1.89-10.64,2.63-.22.05-.43-.13-.58-.38-.22-.36-.2-.81-.02-1.19,3.14-6.43,9.04-18.94,14.13-26.44.03-.05-.01-.11-.07-.1-.82.16-4.76.94-9.82,2.19-.17.04-.32-.1-.29-.27.54-2.63,5.16-16,5.35-15.82v.02s13.23,33.93,13.23,33.93Z"/><path class="cls-3" d="M17.87,27.74l11.21-19.72c-.5,1.01-11.97,22.24-12.55,23.31-.04.08-.31.58-.05.5,2.19-1.45,4.62-3.19,6.99-4.41.08-.04.15.05.1.12-1.68,1.92-10.83,12.79-13.65,18.78-.88,1.87-3.52,7.49-4.12,8.59-.05.09.03.18.12.15,1.3-.4,11.27-4.28,13.29-4.97.14-.05.28.08.23.22-.52,1.55-6.03,19.1-7.63,22.84-.02.05.03.1.08.08.76-.39,8.46-3.07,10.15-3.66.13-.04.25.08.21.21,0,0-.07.23-.21.66l-12.57,5.58c-.11.05-.23-.06-.2-.18l7.08-22.17L.14,59.02C1.5,54.83,19.42,15.87,25.96,2.26c.11-.23.75-1.57.82-1.64.12,0,2.07,6.23,2.07,6.23h0c.04.14.01.27-.08.36-1.68,2.01-6.68,9.29-10.91,20.53Z"/><path class="cls-8" d="M68.78,14.43v42.12h17.71l-1.01,7.63h-26.06V14.43h9.36Z"/><path class="cls-8" d="M99.81,14.43v49.75h-9.36V14.43h9.36Z"/><path class="cls-8" d="M134.62,14.82c2.33.98,4.52,2.44,6.59,4.36l-4.82,4.97c-1.63-1.34-3.16-2.3-4.57-2.88-1.42-.58-3.04-.86-4.86-.86-3.46,0-6.23,1.48-8.32,4.43-2.09,2.95-3.13,7.76-3.13,14.44,0,4.71.37,8.44,1.12,11.2.74,2.76,1.86,4.73,3.35,5.9,1.49,1.18,3.38,1.76,5.69,1.76,2.5,0,4.78-.62,6.84-1.87v-13.25h-6.48l-.94-6.91h16.42v24.26c-2.3,1.54-4.8,2.74-7.49,3.6-2.69.86-5.42,1.3-8.21,1.3-13.34,0-20.02-8.66-20.02-25.99,0-5.62.92-10.37,2.77-14.26,1.85-3.89,4.34-6.8,7.49-8.75,3.14-1.94,6.68-2.92,10.62-2.92,2.98,0,5.63.49,7.96,1.48Z"/><path class="cls-8" d="M172.38,64.18v-22.32h-14.98v22.32h-9.36V14.43h9.36v20.02h14.98V14.43h9.36v49.75h-9.36Z"/><path class="cls-8" d="M219.25,14.43l-1.01,7.34h-11.45v42.41h-9.29V21.77h-11.95v-7.34h33.7Z"/><path class="cls-8" d="M256.26,64.18h-11.95l-14.54-40.54.22,1.94c.67,6.72,1.01,12.7,1.01,17.93v20.66h-8.35V14.43h11.81l14.69,40.54c-.29-1.87-.56-4.38-.83-7.52-.26-3.14-.4-6.28-.4-9.4V14.43h8.35v49.75Z"/><path class="cls-8" d="M273.76,14.43v49.75h-9.36V14.43h9.36Z"/><path class="cls-8" d="M315.52,64.18h-11.95l-14.54-40.54.22,1.94c.67,6.72,1.01,12.7,1.01,17.93v20.66h-8.35V14.43h11.81l14.69,40.54c-.29-1.87-.56-4.38-.83-7.52-.26-3.14-.4-6.28-.4-9.4V14.43h8.35v49.75Z"/><path class="cls-8" d="M350.33,14.82c2.33.98,4.52,2.44,6.59,4.36l-4.82,4.97c-1.63-1.34-3.16-2.3-4.57-2.88-1.42-.58-3.04-.86-4.86-.86-3.46,0-6.23,1.48-8.32,4.43-2.09,2.95-3.13,7.76-3.13,14.44,0,4.71.37,8.44,1.12,11.2.74,2.76,1.86,4.73,3.35,5.9,1.49,1.18,3.38,1.76,5.69,1.76,2.5,0,4.78-.62,6.84-1.87v-13.25h-6.48l-.94-6.91h16.42v24.26c-2.3,1.54-4.8,2.74-7.49,3.6-2.69.86-5.42,1.3-8.21,1.3-13.34,0-20.02-8.66-20.02-25.99,0-5.62.92-10.37,2.77-14.26,1.85-3.89,4.34-6.8,7.49-8.75,3.14-1.94,6.68-2.92,10.62-2.92,2.98,0,5.63.49,7.96,1.48Z"/><path class="cls-8" d="M402.74,14.64c2.09.86,4.14,2.16,6.16,3.89l-4.61,5.4c-2.69-2.26-5.45-3.38-8.28-3.38-3.26,0-5.83,1.46-7.7,4.39-1.87,2.93-2.81,7.68-2.81,14.26s.94,11.14,2.81,14.11c1.87,2.98,4.46,4.46,7.78,4.46,1.73,0,3.24-.32,4.54-.97,1.3-.65,2.74-1.6,4.32-2.84l4.46,5.33c-1.68,1.73-3.67,3.16-5.98,4.28-2.3,1.13-4.9,1.69-7.78,1.69-3.98,0-7.48-.97-10.48-2.92-3-1.94-5.33-4.87-6.98-8.78-1.66-3.91-2.48-8.7-2.48-14.36s.86-10.3,2.59-14.18c1.73-3.89,4.08-6.8,7.06-8.75,2.98-1.94,6.36-2.92,10.15-2.92,2.74,0,5.15.43,7.24,1.3Z"/><path class="cls-8" d="M422.65,14.43v42.12h17.71l-1.01,7.63h-26.06V14.43h9.36Z"/><path class="cls-8" d="M453.68,14.43v49.75h-9.36V14.43h9.36Z"/><path class="cls-8" d="M486.69,14.64c2.09.86,4.14,2.16,6.16,3.89l-4.61,5.4c-2.69-2.26-5.45-3.38-8.28-3.38-3.26,0-5.83,1.46-7.7,4.39-1.87,2.93-2.81,7.68-2.81,14.26s.94,11.14,2.81,14.11c1.87,2.98,4.46,4.46,7.78,4.46,1.73,0,3.24-.32,4.54-.97,1.3-.65,2.74-1.6,4.32-2.84l4.46,5.33c-1.68,1.73-3.67,3.16-5.98,4.28-2.3,1.13-4.9,1.69-7.78,1.69-3.98,0-7.48-.97-10.48-2.92-3-1.94-5.33-4.87-6.98-8.78-1.66-3.91-2.48-8.7-2.48-14.36s.86-10.3,2.59-14.18c1.73-3.89,4.08-6.8,7.06-8.75,2.98-1.94,6.36-2.92,10.15-2.92,2.74,0,5.15.43,7.24,1.3Z"/><path class="cls-8" d="M506.6,14.43v49.75h-9.36V14.43h9.36ZM531.95,14.43l-15.26,22.54,16.42,27.22h-10.58l-15.62-26.57,15.26-23.18h9.79Z"/><path class="cls-8" d="M556.82,14.86c2.38,1.01,4.57,2.54,6.59,4.61l-4.46,5.11c-1.58-1.39-3.17-2.42-4.75-3.1-1.58-.67-3.29-1.01-5.11-1.01-2.02,0-3.64.53-4.86,1.58-1.22,1.06-1.84,2.52-1.84,4.39,0,1.25.25,2.3.76,3.17.5.86,1.4,1.67,2.7,2.41,1.3.75,3.17,1.55,5.62,2.41,4.46,1.63,7.79,3.58,9.97,5.83,2.18,2.26,3.28,5.5,3.28,9.72,0,2.93-.7,5.54-2.09,7.85-1.39,2.3-3.4,4.12-6.01,5.44-2.62,1.32-5.68,1.98-9.18,1.98-6.58,0-12.07-2.26-16.49-6.77l4.75-5.26c1.82,1.58,3.64,2.79,5.44,3.6,1.8.82,3.78,1.22,5.94,1.22,2.45,0,4.38-.67,5.8-2.02,1.42-1.34,2.12-3.19,2.12-5.54,0-2.11-.6-3.78-1.8-5-1.2-1.22-3.48-2.41-6.84-3.56-4.8-1.68-8.26-3.67-10.37-5.98-2.11-2.3-3.17-5.26-3.17-8.86,0-2.64.67-5,2.02-7.09s3.22-3.72,5.62-4.9c2.4-1.17,5.09-1.76,8.06-1.76,3.17,0,5.94.5,8.32,1.51Z"/><path class="cls-2" d="M60.02,101.23c-.19,0-.33-.06-.44-.17-.11-.11-.16-.27-.16-.47v-12.94c0-.21.06-.37.17-.48.11-.11.26-.16.45-.16h4.7c1.49,0,2.64.36,3.44,1.08.8.72,1.2,1.75,1.2,3.08s-.4,2.34-1.2,3.07c-.8.73-1.95,1.09-3.44,1.09h-4.1v5.26c0,.2-.05.36-.15.47-.1.11-.26.17-.47.17ZM60.64,94.25h4c1.16,0,2.03-.26,2.62-.78.59-.52.88-1.29.88-2.3s-.29-1.78-.88-2.31c-.59-.53-1.46-.79-2.62-.79h-4v6.18Z"/><path class="cls-2" d="M72.5,101.23c-.19,0-.33-.06-.44-.17-.11-.11-.16-.27-.16-.47v-12.94c0-.21.06-.37.17-.48.11-.11.26-.16.45-.16h4.7c1.49,0,2.64.35,3.44,1.04.8.69,1.2,1.68,1.2,2.96,0,.83-.18,1.54-.54,2.13-.36.59-.89,1.04-1.59,1.35-.7.31-1.54.46-2.51.46l.22-.26h.28c.51,0,.95.13,1.33.4.38.27.72.7,1.03,1.3l2.12,3.94c.09.15.14.29.13.43,0,.14-.06.25-.15.34-.09.09-.21.13-.36.13-.17,0-.32-.04-.43-.12s-.21-.19-.29-.34l-2.24-4.18c-.35-.64-.73-1.06-1.16-1.27-.43-.21-1-.31-1.72-.31h-2.86v5.58c0,.2-.05.36-.15.47-.1.11-.26.17-.47.17ZM73.12,93.97h3.94c1.19,0,2.08-.25,2.67-.75s.89-1.24.89-2.21-.3-1.69-.89-2.19-1.48-.75-2.67-.75h-3.94v5.9Z"/><path class="cls-2" d="M90.76,101.27c-1.28,0-2.39-.29-3.34-.88-.95-.59-1.68-1.42-2.19-2.5s-.77-2.36-.77-3.84c0-1.12.14-2.12.43-3.01s.7-1.64,1.25-2.26c.55-.62,1.21-1.1,1.99-1.43.78-.33,1.66-.5,2.63-.5,1.31,0,2.43.29,3.38.87s1.67,1.41,2.18,2.48c.51,1.07.76,2.35.76,3.83,0,1.12-.15,2.13-.44,3.02-.29.89-.71,1.65-1.26,2.28-.55.63-1.21,1.11-1.99,1.44-.78.33-1.66.5-2.63.5ZM90.76,100.15c1.07,0,1.97-.24,2.72-.72.75-.48,1.32-1.17,1.71-2.08.39-.91.59-2.01.59-3.3,0-1.93-.44-3.43-1.31-4.49-.87-1.06-2.11-1.59-3.71-1.59-1.05,0-1.95.24-2.7.72-.75.48-1.32,1.17-1.71,2.08-.39.91-.59,2-.59,3.28,0,1.92.44,3.42,1.32,4.49.88,1.07,2.11,1.61,3.68,1.61Z"/><path class="cls-2" d="M106.46,101.27c-1.48,0-2.73-.28-3.74-.85-1.01-.57-1.78-1.39-2.3-2.47-.52-1.08-.78-2.38-.78-3.9,0-1.12.15-2.12.44-3.01s.72-1.64,1.27-2.26c.55-.62,1.23-1.1,2.04-1.43.81-.33,1.72-.5,2.75-.5.89,0,1.74.13,2.54.38.8.25,1.49.65,2.08,1.2.12.11.19.22.22.33.03.11.02.23-.02.34s-.1.21-.19.28c-.09.07-.19.11-.3.12-.11,0-.24-.04-.37-.13-.55-.49-1.15-.85-1.81-1.06s-1.38-.32-2.17-.32c-1.11,0-2.05.24-2.82.71-.77.47-1.36,1.16-1.76,2.07-.4.91-.6,2-.6,3.28,0,1.99.46,3.5,1.38,4.54.92,1.04,2.31,1.56,4.16,1.56.69,0,1.36-.07,2-.2.64-.13,1.24-.32,1.8-.56l-.3.84v-5.3h-3.16c-.19,0-.33-.05-.43-.15-.1-.1-.15-.23-.15-.39s.05-.28.15-.37c.1-.09.24-.13.43-.13h3.7c.19,0,.33.05.42.15.09.1.14.24.14.41v5.38c0,.16-.02.29-.07.4-.05.11-.13.19-.25.24-.53.23-1.2.42-1.99.57-.79.15-1.56.23-2.31.23Z"/><path class="cls-2" d="M115.24,101.23c-.19,0-.33-.06-.44-.17s-.16-.27-.16-.47v-12.94c0-.21.06-.37.17-.48.11-.11.26-.16.45-.16h4.7c1.49,0,2.64.35,3.44,1.04.8.69,1.2,1.68,1.2,2.96,0,.83-.18,1.54-.54,2.13-.36.59-.89,1.04-1.59,1.35s-1.54.46-2.51.46l.22-.26h.28c.51,0,.95.13,1.33.4s.72.7,1.03,1.3l2.12,3.94c.09.15.14.29.13.43,0,.14-.06.25-.15.34-.09.09-.21.13-.36.13-.17,0-.32-.04-.43-.12s-.21-.19-.29-.34l-2.24-4.18c-.35-.64-.73-1.06-1.16-1.27-.43-.21-1-.31-1.72-.31h-2.86v5.58c0,.2-.05.36-.15.47-.1.11-.26.17-.47.17ZM115.86,93.97h3.94c1.19,0,2.08-.25,2.67-.75.59-.5.89-1.24.89-2.21s-.3-1.69-.89-2.19c-.59-.5-1.48-.75-2.67-.75h-3.94v5.9Z"/><path class="cls-2" d="M127.14,101.23c-.17,0-.31-.04-.41-.11-.1-.07-.15-.18-.16-.31,0-.13.02-.28.09-.44l5.62-12.92c.09-.2.21-.34.34-.43.13-.09.27-.13.4-.13.16,0,.3.04.43.13.13.09.23.23.31.43l5.62,12.92c.08.16.12.31.11.44,0,.13-.05.24-.14.31s-.22.11-.39.11c-.19,0-.34-.05-.45-.15-.11-.1-.21-.24-.29-.41l-1.54-3.62.66.3h-8.66l.68-.3-1.54,3.62c-.08.2-.18.34-.29.43-.11.09-.24.13-.39.13ZM133,88.53l-3.4,8-.46-.24h7.74l-.42.24-3.42-8h-.04Z"/><path class="cls-2" d="M142.68,101.23c-.17,0-.31-.05-.41-.16-.1-.11-.15-.25-.15-.44v-13.14c0-.2.05-.35.15-.45s.23-.15.39-.15c.17,0,.31.03.4.1.09.07.18.17.26.32l5.72,10.86h-.56l5.68-10.86c.09-.15.18-.25.27-.32.09-.07.22-.1.39-.1.16,0,.29.05.39.15s.15.25.15.45v13.14c0,.19-.05.33-.14.44-.09.11-.23.16-.42.16s-.33-.05-.43-.16c-.1-.11-.15-.25-.15-.44v-12.14h.48l-5.36,10.16c-.07.13-.14.23-.22.3-.08.07-.19.1-.34.1-.16,0-.28-.04-.37-.11s-.16-.17-.23-.29l-5.42-10.18h.48v12.16c0,.19-.05.33-.14.44-.09.11-.23.16-.42.16Z"/><path class="cls-2" d="M159.66,101.23c-.17,0-.31-.05-.41-.16-.1-.11-.15-.25-.15-.44v-13.14c0-.2.05-.35.15-.45s.23-.15.39-.15c.17,0,.31.03.4.1.09.07.18.17.26.32l5.72,10.86h-.56l5.68-10.86c.09-.15.18-.25.27-.32.09-.07.22-.1.39-.1.16,0,.29.05.39.15s.15.25.15.45v13.14c0,.19-.05.33-.14.44-.09.11-.23.16-.42.16s-.33-.05-.43-.16c-.1-.11-.15-.25-.15-.44v-12.14h.48l-5.36,10.16c-.07.13-.14.23-.22.3-.08.07-.19.1-.34.1-.16,0-.28-.04-.37-.11s-.16-.17-.23-.29l-5.42-10.18h.48v12.16c0,.19-.05.33-.14.44-.09.11-.23.16-.42.16Z"/><path class="cls-2" d="M175.54,101.23c-.17,0-.31-.04-.41-.11-.1-.07-.15-.18-.16-.31,0-.13.02-.28.09-.44l5.62-12.92c.09-.2.21-.34.34-.43.13-.09.27-.13.4-.13.16,0,.3.04.43.13.13.09.23.23.31.43l5.62,12.92c.08.16.12.31.11.44,0,.13-.05.24-.14.31s-.22.11-.39.11c-.19,0-.34-.05-.45-.15-.11-.1-.21-.24-.29-.41l-1.54-3.62.66.3h-8.66l.68-.3-1.54,3.62c-.08.2-.18.34-.29.43-.11.09-.24.13-.39.13ZM181.4,88.53l-3.4,8-.46-.24h7.74l-.42.24-3.42-8h-.04Z"/><path class="cls-2" d="M193.06,101.23c-.2,0-.35-.06-.46-.17-.11-.11-.16-.27-.16-.47v-12.48h-4.78c-.19,0-.33-.05-.44-.16s-.16-.24-.16-.4c0-.17.05-.31.16-.4.11-.09.25-.14.44-.14h10.82c.19,0,.33.05.43.14.1.09.15.23.15.4s-.05.31-.15.41c-.1.1-.24.15-.43.15h-4.8v12.48c0,.2-.05.36-.15.47-.1.11-.26.17-.47.17Z"/><path class="cls-2" d="M201.44,101.23c-.19,0-.33-.06-.44-.17s-.16-.27-.16-.47v-13.06c0-.21.05-.37.16-.48.11-.11.25-.16.44-.16.2,0,.35.05.46.16s.16.27.16.48v13.06c0,.2-.05.36-.15.47-.1.11-.26.17-.47.17Z"/><path class="cls-2" d="M211.62,101.27c-1.35,0-2.5-.29-3.46-.87s-1.7-1.41-2.21-2.49-.77-2.37-.77-3.86c0-1.12.14-2.12.43-3.01.29-.89.71-1.64,1.26-2.26.55-.62,1.23-1.1,2.04-1.43s1.71-.5,2.71-.5c.88,0,1.7.13,2.46.38.76.25,1.41.63,1.96,1.12.13.12.22.25.26.38.04.13.04.26,0,.37s-.1.21-.19.28c-.09.07-.2.11-.33.1s-.26-.07-.41-.19c-.51-.44-1.07-.77-1.69-.98s-1.3-.32-2.05-.32c-1.11,0-2.04.24-2.81.71-.77.47-1.35,1.16-1.74,2.07-.39.91-.59,2-.59,3.28s.2,2.39.59,3.3c.39.91.97,1.6,1.74,2.07.77.47,1.7.71,2.81.71.73,0,1.41-.11,2.04-.33.63-.22,1.2-.55,1.72-.99.15-.12.28-.18.41-.18s.23.04.32.11c.09.07.15.17.19.28s.04.23,0,.35-.11.23-.23.34c-.57.52-1.24.91-1.99,1.17-.75.26-1.58.39-2.49.39Z"/><path class="cls-2" d="M222.74,101.21c-.2.01-.36-.04-.47-.15s-.17-.25-.17-.41c0-.12.04-.23.13-.33.09-.1.21-.16.37-.17l.66-.06c.71-.05,1.25-.31,1.64-.78s.58-1.09.58-1.86v-9.94c0-.2.05-.35.16-.46.11-.11.26-.16.46-.16s.35.05.46.16c.11.11.16.26.16.46v9.96c0,.73-.13,1.37-.38,1.9-.25.53-.63.95-1.13,1.25s-1.11.48-1.83.55l-.64.04Z"/><path class="cls-2" d="M236.12,101.27c-1.28,0-2.39-.29-3.34-.88-.95-.59-1.68-1.42-2.19-2.5s-.77-2.36-.77-3.84c0-1.12.14-2.12.43-3.01.29-.89.7-1.64,1.25-2.26s1.21-1.1,1.99-1.43,1.66-.5,2.63-.5c1.31,0,2.43.29,3.38.87.95.58,1.67,1.41,2.18,2.48s.76,2.35.76,3.83c0,1.12-.15,2.13-.44,3.02-.29.89-.71,1.65-1.26,2.28-.55.63-1.21,1.11-1.99,1.44s-1.66.5-2.63.5ZM236.12,100.15c1.07,0,1.97-.24,2.72-.72.75-.48,1.32-1.17,1.71-2.08.39-.91.59-2.01.59-3.3,0-1.93-.44-3.43-1.31-4.49-.87-1.06-2.11-1.59-3.71-1.59-1.05,0-1.95.24-2.7.72-.75.48-1.32,1.17-1.71,2.08s-.59,2-.59,3.28c0,1.92.44,3.42,1.32,4.49.88,1.07,2.11,1.61,3.68,1.61Z"/><path class="cls-2" d="M246.24,101.11c-.21,0-.38-.06-.5-.18-.12-.12-.18-.29-.18-.52v-12.7c0-.23.06-.4.18-.52.12-.12.29-.18.5-.18h4.7c.97,0,1.79.14,2.46.43s1.18.7,1.54,1.25c.36.55.54,1.22.54,2.02,0,.88-.26,1.61-.79,2.2-.53.59-1.24.97-2.13,1.16v-.28c1,.11,1.79.46,2.37,1.07s.87,1.41.87,2.41c0,1.25-.4,2.21-1.2,2.86-.8.65-1.93.98-3.4.98h-4.96ZM246.76,93.45h4.04c1.12,0,1.97-.23,2.56-.69s.88-1.13.88-2.01-.29-1.55-.88-2.01-1.44-.69-2.56-.69h-4.04v5.4ZM246.76,100.07h4.34c1.16,0,2.03-.23,2.6-.69.57-.46.86-1.16.86-2.09s-.29-1.67-.86-2.12c-.57-.45-1.44-.68-2.6-.68h-4.34v5.58Z"/><path class="cls-2" d="M263.52,101.23c-.17,0-.31-.04-.41-.11-.1-.07-.15-.18-.16-.31,0-.13.02-.28.09-.44l5.62-12.92c.09-.2.21-.34.34-.43.13-.09.27-.13.4-.13.16,0,.3.04.43.13.13.09.23.23.31.43l5.62,12.92c.08.16.12.31.11.44,0,.13-.05.24-.14.31s-.22.11-.39.11c-.19,0-.34-.05-.45-.15-.11-.1-.21-.24-.29-.41l-1.54-3.62.66.3h-8.66l.68-.3-1.54,3.62c-.08.2-.18.34-.29.43-.11.09-.24.13-.39.13ZM269.38,88.53l-3.4,8-.46-.24h7.74l-.42.24-3.42-8h-.04Z"/><path class="cls-2" d="M279.13,101.11c-.21,0-.38-.06-.5-.18-.12-.12-.18-.29-.18-.52v-12.7c0-.23.06-.4.18-.52.12-.12.29-.18.5-.18h3.86c2.24,0,3.97.6,5.19,1.8,1.22,1.2,1.83,2.95,1.83,5.24,0,1.15-.16,2.16-.47,3.04-.31.88-.77,1.62-1.37,2.21-.6.59-1.33,1.04-2.2,1.35-.87.31-1.86.46-2.98.46h-3.86ZM279.67,100.03h3.22c.97,0,1.82-.13,2.55-.38s1.33-.63,1.81-1.12c.48-.49.84-1.12,1.08-1.87.24-.75.36-1.62.36-2.61,0-1.99-.48-3.48-1.45-4.47-.97-.99-2.42-1.49-4.35-1.49h-3.22v11.94Z"/><path class="cls-2" d="M297.74,101.23c-.19,0-.34-.05-.47-.15-.13-.1-.24-.24-.33-.43l-5.62-12.98c-.05-.17-.07-.32-.04-.43.03-.11.09-.2.2-.26.11-.06.23-.09.36-.09.19,0,.33.04.42.12.09.08.18.2.26.36l5.52,12.84h-.56l5.52-12.84c.07-.16.15-.28.26-.36s.25-.12.42-.12c.15,0,.27.03.36.1.09.07.15.16.17.27s0,.25-.07.41l-5.62,12.98c-.07.19-.16.33-.29.43-.13.1-.29.15-.49.15Z"/><path class="cls-2" d="M307.04,101.11c-.21,0-.38-.06-.5-.18-.12-.12-.18-.29-.18-.52v-12.7c0-.23.06-.4.18-.52.12-.12.29-.18.5-.18h7.56c.19,0,.33.05.42.14.09.09.14.22.14.38,0,.19-.05.32-.14.41-.09.09-.23.13-.42.13h-7.04v5.36h6.64c.19,0,.33.04.42.13.09.09.14.22.14.39s-.05.31-.14.4-.23.14-.42.14h-6.64v5.56h7.04c.19,0,.33.04.42.13.09.09.14.22.14.39s-.05.31-.14.4c-.09.09-.23.14-.42.14h-7.56Z"/><path class="cls-2" d="M318.48,101.23c-.19,0-.33-.06-.44-.17s-.16-.27-.16-.47v-12.94c0-.21.06-.37.17-.48.11-.11.26-.16.45-.16h4.7c1.49,0,2.64.35,3.44,1.04.8.69,1.2,1.68,1.2,2.96,0,.83-.18,1.54-.54,2.13-.36.59-.89,1.04-1.59,1.35s-1.54.46-2.51.46l.22-.26h.28c.51,0,.95.13,1.33.4s.72.7,1.03,1.3l2.12,3.94c.09.15.14.29.13.43,0,.14-.06.25-.15.34-.09.09-.21.13-.36.13-.17,0-.32-.04-.43-.12s-.21-.19-.29-.34l-2.24-4.18c-.35-.64-.73-1.06-1.16-1.27-.43-.21-1-.31-1.72-.31h-2.86v5.58c0,.2-.05.36-.15.47-.1.11-.26.17-.47.17ZM319.09,93.97h3.94c1.19,0,2.08-.25,2.67-.75.59-.5.89-1.24.89-2.21s-.3-1.69-.89-2.19c-.59-.5-1.48-.75-2.67-.75h-3.94v5.9Z"/><path class="cls-2" d="M334.8,101.23c-.2,0-.35-.06-.46-.17-.11-.11-.16-.27-.16-.47v-12.48h-4.78c-.19,0-.33-.05-.44-.16s-.16-.24-.16-.4c0-.17.05-.31.16-.4.11-.09.25-.14.44-.14h10.82c.19,0,.33.05.43.14.1.09.15.23.15.4s-.05.31-.15.41c-.1.1-.24.15-.43.15h-4.8v12.48c0,.2-.05.36-.15.47-.1.11-.26.17-.47.17Z"/><path class="cls-2" d="M343.18,101.23c-.19,0-.33-.06-.44-.17s-.16-.27-.16-.47v-13.06c0-.21.05-.37.16-.48.11-.11.25-.16.44-.16.2,0,.35.05.46.16s.16.27.16.48v13.06c0,.2-.05.36-.15.47-.1.11-.26.17-.47.17Z"/><path class="cls-2" d="M351.88,101.27c-.64,0-1.26-.05-1.86-.16-.6-.11-1.16-.27-1.67-.49-.51-.22-.98-.49-1.39-.81-.13-.09-.22-.2-.27-.33s-.05-.25-.02-.36c.03-.11.09-.21.18-.29s.19-.12.31-.13c.12,0,.25.04.38.13.61.45,1.26.79,1.95,1,.69.21,1.48.32,2.39.32,1.27,0,2.22-.25,2.85-.74s.95-1.14.95-1.94c0-.67-.23-1.19-.69-1.56-.46-.37-1.22-.67-2.27-.88l-2.02-.42c-1.27-.25-2.21-.68-2.82-1.28-.61-.6-.92-1.4-.92-2.4,0-.61.12-1.17.36-1.67.24-.5.58-.93,1.02-1.29.44-.36.96-.64,1.57-.83.61-.19,1.28-.29,2.01-.29.87,0,1.66.12,2.39.36.73.24,1.39.62,1.99,1.14.12.09.2.2.24.33s.04.25,0,.36-.1.2-.18.27-.18.1-.3.11c-.12,0-.25-.04-.38-.15-.56-.45-1.14-.78-1.75-.99-.61-.21-1.28-.31-2.01-.31s-1.4.12-1.95.36c-.55.24-.98.58-1.29,1.02-.31.44-.46.96-.46,1.56,0,.69.21,1.25.64,1.66s1.11.71,2.06.9l2.04.42c1.35.28,2.35.7,3,1.25.65.55.98,1.31.98,2.27,0,.57-.12,1.1-.35,1.57s-.57.88-1.01,1.23c-.44.35-.97.61-1.59.79-.62.18-1.32.27-2.11.27Z"/><path class="cls-2" d="M360.22,101.23c-.19,0-.33-.06-.44-.17s-.16-.27-.16-.47v-13.06c0-.21.05-.37.16-.48.11-.11.25-.16.44-.16.2,0,.35.05.46.16s.16.27.16.48v13.06c0,.2-.05.36-.15.47-.1.11-.26.17-.47.17Z"/><path class="cls-2" d="M365.09,101.23c-.19,0-.33-.05-.43-.16-.1-.11-.15-.26-.15-.46v-13.08c0-.21.05-.37.14-.48.09-.11.22-.16.38-.16.17,0,.3.03.38.08.08.05.17.15.26.3l9.2,12.38h-.46v-12.16c0-.2.05-.35.15-.45.1-.1.24-.15.43-.15.17,0,.31.05.41.15.1.1.15.25.15.45v13.12c0,.2-.04.35-.13.46s-.21.16-.37.16c-.15,0-.27-.03-.36-.09-.09-.06-.19-.16-.3-.29l-9.18-12.38h.44v12.14c0,.2-.05.35-.15.46s-.24.16-.41.16Z"/><path class="cls-2" d="M385.49,101.27c-1.48,0-2.73-.28-3.74-.85-1.01-.57-1.78-1.39-2.3-2.47-.52-1.08-.78-2.38-.78-3.9,0-1.12.15-2.12.44-3.01s.72-1.64,1.27-2.26c.55-.62,1.23-1.1,2.04-1.43.81-.33,1.72-.5,2.75-.5.89,0,1.74.13,2.54.38.8.25,1.49.65,2.08,1.2.12.11.19.22.22.33.03.11.02.23-.02.34s-.1.21-.19.28c-.09.07-.19.11-.3.12-.11,0-.24-.04-.37-.13-.55-.49-1.15-.85-1.81-1.06s-1.38-.32-2.17-.32c-1.11,0-2.05.24-2.82.71-.77.47-1.36,1.16-1.76,2.07-.4.91-.6,2-.6,3.28,0,1.99.46,3.5,1.38,4.54.92,1.04,2.31,1.56,4.16,1.56.69,0,1.36-.07,2-.2.64-.13,1.24-.32,1.8-.56l-.3.84v-5.3h-3.16c-.19,0-.33-.05-.43-.15-.1-.1-.15-.23-.15-.39s.05-.28.15-.37c.1-.09.24-.13.43-.13h3.7c.19,0,.33.05.42.15.09.1.14.24.14.41v5.38c0,.16-.02.29-.07.4-.05.11-.13.19-.25.24-.53.23-1.2.42-1.99.57-.79.15-1.56.23-2.31.23Z"/><g class="cls-1"><g class="cls-4"><path class="cls-6" d="M10.27,108.99c4.51-6.58,8.48-13.53,12.37-20.49s7.71-14.03,11.28-21.19c1.14-2.28,2.32-4.57,3.24-6.95.04-.11.01-1.25,0-1.25-1.83-.28-3.45-.48-5.28-.17l-3.33.57c-.26.04-2.02.57-2.05.07v1.23c.49-.87,1-1.74,1.53-2.58.3-.48.67-1.33,1.21-1.57.34-.15.97-.07,1.34-.09.96-.05,1.91-.09,2.87-.13,2.65-.11,5.31-.2,7.96-.27.62-.02,1.25-.03,1.87-.05.38,0,1.52.16,1.78-.04.29-.22.23-.96.18-1.33-.15-1.06-.78-2.17-1.17-3.17l-3.1-7.95c-2.41-6.17-4.81-12.34-7.22-18.51l-1.12-2.87c-.1-.26-.34-1.37-.59-1.51-.23-.13-.34.47-.46.79-.54,1.38-1.03,2.79-1.52,4.19-.71,2.03-1.39,4.07-2.05,6.11-.46,1.44-1.09,2.96-1.33,4.46-.06.36-.17,1.02-.04,1.35.24.59.92.16,1.45.04.86-.21,1.73-.41,2.6-.61,1.35-.31,2.71-.61,4.06-.89.43-.09,1.63-.56,2.07-.38v-1.07c0,.12-.58.76-.65.87-.19.29-.38.58-.56.87-.45.71-.89,1.43-1.32,2.16-.92,1.55-1.8,3.11-2.66,4.69-1.69,3.1-3.3,6.25-4.87,9.41-1.33,2.68-2.74,5.35-3.95,8.09-.29.65-.38,1.53-.24,2.24.28,1.42,2.17.48,3.11.26,1.67-.41,3.35-.82,5.02-1.24.38-.1,3.34-.96,3.36-.66v-1.25c-8.56,15.35-15.99,31.35-23.62,47.18-.64,1.32-1.27,2.64-1.91,3.96-.2.42-.41.84-.62,1.26-.09.18-.33.85-.48.7v1.25c.61-2.15,1.57-4.23,2.36-6.32.69-1.83,1.34-3.68,1.98-5.53,1.64-4.76,3.21-9.54,4.76-14.33,1.4-4.32,2.77-8.65,4.13-12.98.4-1.29.81-2.57,1.21-3.86.16-.52.33-.97.35-1.5,0-.17.09-.7,0-.87-.2-.35-.62-.07-.98.06-1.18.41-2.37.83-3.55,1.24-.47.17-5.91,2.04-5.9,2.07v1.25c2.36-5.59,4-11.54,5.85-17.31.41-1.27.81-2.54,1.22-3.81.18-.56.46-1.17.56-1.75.05-.28.1-.89,0-1.14-.18-.48-.54-.21-.98-.04-1.39.51-2.78,1.04-4.16,1.57-1.77.67-3.54,1.35-5.31,2.02-.32.12-3.16,1.28-3.19.97v1.25c1.31-2.42,2.42-4.96,3.59-7.45s2.7-5.03,4.35-7.39c1.93-2.76,4-5.44,6.11-8.06.82-1.02,1.65-2.03,2.49-3.03.32-.38,1.22-1.1,1.23-1.62,0-.11.05-1.15,0-1.16-.41-.09-1.34.66-1.68.86-.67.4-1.33.81-1.98,1.24-.59.38-1.17.77-1.75,1.16-.28.19-1.47,1.2-1.79,1.09v1.25c.12-.93,1-2.02,1.44-2.83.98-1.82,1.97-3.64,2.95-5.46,2.24-4.15,4.48-8.3,6.71-12.45.54-1.01,1.17-2.02,1.63-3.08.15-.34-.18-.94,0-1.25-3.27,5.75-6.53,11.51-9.8,17.26l-1.42,2.5v1.25c1.86-4.93,4.07-9.73,6.73-14.28.84-1.44,1.72-2.85,2.67-4.22.5-.72,1.47-1.61,1.59-2.48.1-.72-.05-1.31-.26-1.98-.44-1.4-.89-2.81-1.36-4.2-.03-.1-.31-1.17-.43-1.18-.2-.02-.69,1.27-.8,1.49-.53,1.1-1.06,2.21-1.58,3.31-6.27,13.23-12.39,26.53-18.39,39.89-2.02,4.49-4.36,9-5.9,13.68-.05.15.08,1.22,0,1.25,5.4-1.78,10.8-3.56,16.2-5.35v-1.25c-1.74,5.45-3.48,10.9-5.22,16.35l-1.31,4.09c-.18.56-.45,1.15-.55,1.73-.05.27-.11.92,0,1.17.16.36.18.23.53.11,1.24-.42,2.44-1.08,3.64-1.61,2.89-1.28,5.77-2.56,8.66-3.84.16-.07-.15-1.19,0-1.25-2.18.97-4.36,1.93-6.54,2.9l-4.32,1.92c-.27.12-1.84,1.04-1.96.61v1.25c2.06-6.46,4.13-12.93,6.19-19.39.3-.93.59-1.85.89-2.78.05-.15-.08-1.22,0-1.25-5.4,1.78-10.8,3.56-16.2,5.35v1.25c.88-2.67,2.15-5.25,3.29-7.81,2.15-4.87,4.34-9.71,6.55-14.56,4.74-10.4,9.52-20.78,14.41-31.1.47-.99.94-1.99,1.42-2.98.24-.51.44-1.23.8-1.65.31-.36.1-.34.33.04.58.96.8,2.37,1.14,3.43.26.81.52,1.63.77,2.45v-1.25c-.19.91-1.24,1.88-1.77,2.66-.97,1.42-1.87,2.88-2.72,4.37-2.55,4.43-4.68,9.09-6.49,13.87-.13.34.18.94,0,1.25,3.27-5.75,6.53-11.51,9.8-17.26l1.42-2.5v-1.25c-1.19,2.73-2.85,5.34-4.26,7.96-2.23,4.14-4.47,8.28-6.7,12.42-.39.72-.78,1.43-1.16,2.15-.21.39-.54.84-.6,1.28-.02.13-.06,1.23,0,1.25.34.11,1.31-.77,1.6-.97.64-.43,1.29-.87,1.94-1.29.59-.38,1.18-.76,1.78-1.12.34-.2,1.48-1.07,1.88-.98v-1.16c0,.24-.71.84-.87,1.02-.45.53-.9,1.07-1.34,1.61-1.22,1.47-2.42,2.97-3.59,4.48-2.57,3.3-5.15,6.69-7.17,10.37-1.68,3.05-2.97,6.32-4.55,9.42-.2.4-.26.58-.26,1.03s-.13.77.28.82c.32.04.98-.35,1.27-.46.75-.28,1.5-.56,2.24-.84,1.92-.73,3.83-1.46,5.75-2.19.82-.31,1.63-.62,2.45-.92.34-.12,1.55-.77,1.67-.29v-1.25c-1.58,4.74-3.04,9.53-4.61,14.28-.84,2.53-1.66,5.06-2.61,7.55-.22.58-.66,1.43-.41,2.08.12.31-.05.18.3.16.42-.03,1-.39,1.4-.54,1.62-.6,3.25-1.17,4.88-1.75.8-.28,1.6-.56,2.4-.84.31-.11,1.36-.67,1.46-.22v-1.25c-3.53,11.38-7.09,22.77-11.05,34.02-1.19,3.37-2.76,6.69-3.74,10.12-.05.16-.11,1.15,0,1.25.15.15.44-.61.53-.79.25-.5.49-.99.73-1.49.75-1.54,1.49-3.08,2.23-4.62,2.23-4.63,4.46-9.27,6.72-13.89,5.02-10.31,10.04-20.65,15.55-30.71.47-.85,1.02-1.53.89-2.54-.06-.44.07-.42-.42-.4-.53.02-1.13.29-1.64.42-1.66.42-3.32.84-4.98,1.25-.87.21-1.74.42-2.6.63s-1.48.51-1.85-.5v.62c0-.14,0-.27,0-.41v.62c.68-2.15,1.98-4.24,2.97-6.27,1.23-2.5,2.47-5,3.75-7.48s2.69-5.11,4.13-7.62c.65-1.12,1.31-2.23,1.99-3.32.41-.65,1.39-1.63,1.4-2.41,0-.12.08-1.03,0-1.07-.27-.11-.86.13-1.14.19-.81.16-1.61.33-2.42.51-1.07.23-2.13.47-3.2.72-.62.14-3.23,1.09-3.43.49v1.25c.94-4.4,2.68-8.75,4.21-12.98.1-.28.91-2.86,1.15-2.81s.74,1.89.82,2.11l9.44,24.22c.99,2.53,1.97,5.06,2.96,7.59v-1.25c-.05.54-2.88.33-3.44.35-1.39.04-2.78.08-4.17.13-2.31.08-4.62.16-6.93.27-.41.02-1.08-.07-1.47.09-.55.23-.97,1.22-1.26,1.69-.44.71-1.24,1.65-1.45,2.47-.11.41-.01.98,0,1.41v.02c.53.22,1.5-.15,2.04-.24l3.33-.57c1.83-.31,3.45-.11,5.28.17v-1.25c-2.06,5.32-4.96,10.41-7.62,15.44-4.03,7.62-8.2,15.18-12.61,22.59-2.13,3.58-4.31,7.14-6.67,10.58-.2.29.19.97,0,1.25h0Z"/></g><g class="cls-4"><path class="cls-5" d="M28.86,7.45c.92,4.21,1.84,8.43,2.76,12.64l.39,1.8c-.09-.4.09-.85,0-1.25-.92-4.21-1.84-8.43-2.76-12.64l-.39-1.8c.09.4-.09.85,0,1.25h0Z"/></g></g></g></g></svg>