<?xml version="1.0" encoding="UTF-8"?>
<svg xmlns="http://www.w3.org/2000/svg" xmlns:xlink="http://www.w3.org/1999/xlink" viewBox="0 0 400 360">
  <defs>
    <style>
      .cls-1 {
        fill: url(#linear-gradient-15);
      }

      .cls-2 {
        fill: url(#linear-gradient-13);
      }

      .cls-3 {
        fill: url(#linear-gradient-2);
      }

      .cls-4 {
        fill: url(#linear-gradient-10);
      }

      .cls-5 {
        fill: url(#linear-gradient-12);
      }

      .cls-6 {
        stroke-linecap: round;
        stroke-linejoin: round;
      }

      .cls-6, .cls-7, .cls-8 {
        stroke: #36454f;
      }

      .cls-6, .cls-7, .cls-8, .cls-9, .cls-10 {
        fill: none;
      }

      .cls-6, .cls-8 {
        stroke-width: .48px;
      }

      .cls-7 {
        stroke-width: .36px;
      }

      .cls-7, .cls-8 {
        mix-blend-mode: multiply;
        opacity: .5;
      }

      .cls-7, .cls-8, .cls-9, .cls-10 {
        stroke-miterlimit: 10;
      }

      .cls-11 {
        fill: #fff9e9;
      }

      .cls-12 {
        fill: url(#linear-gradient-4);
      }

      .cls-13 {
        fill: url(#linear-gradient-3);
      }

      .cls-14 {
        fill: url(#linear-gradient-5);
      }

      .cls-9 {
        stroke: #fffffd;
      }

      .cls-9, .cls-10 {
        stroke-width: .48px;
      }

      .cls-15 {
        isolation: isolate;
      }

      .cls-16 {
        fill: url(#linear-gradient-8);
      }

      .cls-17 {
        fill: url(#linear-gradient-14);
      }

      .cls-18 {
        fill: url(#linear-gradient-7);
      }

      .cls-19 {
        fill: url(#linear-gradient-9);
      }

      .cls-20 {
        fill: url(#linear-gradient-11);
      }

      .cls-21 {
        fill: url(#linear-gradient-6);
      }

      .cls-10 {
        stroke: #fac212;
      }

      .cls-22 {
        fill: url(#linear-gradient);
      }
    </style>
    <linearGradient id="linear-gradient" x1="141.31" y1="215.07" x2="187.2" y2="215.07" gradientUnits="userSpaceOnUse">
      <stop offset="0" stop-color="#fff9e9"/>
      <stop offset="1" stop-color="#fff1c2"/>
    </linearGradient>
    <linearGradient id="linear-gradient-2" x1="252.6" y1="215.07" x2="293.64" y2="215.07" gradientUnits="userSpaceOnUse">
      <stop offset="0" stop-color="#ffe385"/>
      <stop offset="1" stop-color="#ffda60"/>
    </linearGradient>
    <linearGradient id="linear-gradient-3" x1="298.8" y1="215.07" x2="338.5" y2="215.07" gradientUnits="userSpaceOnUse">
      <stop offset="0" stop-color="#ffda60"/>
      <stop offset="1" stop-color="#ffd239"/>
    </linearGradient>
    <linearGradient id="linear-gradient-4" x1="343.69" y1="215.07" x2="387.6" y2="215.07" gradientUnits="userSpaceOnUse">
      <stop offset="0" stop-color="#ffd239"/>
      <stop offset="1" stop-color="#fac113"/>
    </linearGradient>
    <linearGradient id="linear-gradient-5" x1="192.39" y1="215.07" x2="228.09" y2="215.07" gradientUnits="userSpaceOnUse">
      <stop offset="0" stop-color="#fff1c2"/>
      <stop offset="1" stop-color="#ffe385"/>
    </linearGradient>
    <linearGradient id="linear-gradient-6" x1="10" y1="215.06" x2="58.03" y2="215.06" xlink:href="#linear-gradient-3"/>
    <linearGradient id="linear-gradient-7" x1="63.24" y1="215.14" x2="105.54" y2="215.14" xlink:href="#linear-gradient-2"/>
    <linearGradient id="linear-gradient-8" x1="117.89" y1="146.73" x2="136.1" y2="146.73" gradientUnits="userSpaceOnUse">
      <stop offset="0" stop-color="#36454f"/>
      <stop offset="1" stop-color="#4f6573"/>
    </linearGradient>
    <linearGradient id="linear-gradient-9" x1="141.31" y1="146.73" x2="187.2" y2="146.73" gradientUnits="userSpaceOnUse">
      <stop offset="0" stop-color="#4f6573"/>
      <stop offset="1" stop-color="#678294"/>
    </linearGradient>
    <linearGradient id="linear-gradient-10" x1="252.6" y1="146.73" x2="293.64" y2="146.73" gradientUnits="userSpaceOnUse">
      <stop offset="0" stop-color="#a0b2be"/>
      <stop offset="1" stop-color="#678294"/>
    </linearGradient>
    <linearGradient id="linear-gradient-11" x1="298.8" y1="146.73" x2="338.5" y2="146.73" gradientUnits="userSpaceOnUse">
      <stop offset="0" stop-color="#678294"/>
      <stop offset="1" stop-color="#4f6573"/>
    </linearGradient>
    <linearGradient id="linear-gradient-12" x1="343.69" y1="146.73" x2="387.6" y2="146.73" gradientUnits="userSpaceOnUse">
      <stop offset="0" stop-color="#4f6573"/>
      <stop offset="1" stop-color="#36454f"/>
    </linearGradient>
    <linearGradient id="linear-gradient-13" x1="192.39" y1="146.73" x2="228.09" y2="146.73" gradientUnits="userSpaceOnUse">
      <stop offset="0" stop-color="#678294"/>
      <stop offset="1" stop-color="#a0b2be"/>
    </linearGradient>
    <linearGradient id="linear-gradient-14" x1="10" y1="146.72" x2="58.03" y2="146.72" xlink:href="#linear-gradient-9"/>
    <linearGradient id="linear-gradient-15" x1="63.24" y1="146.8" x2="105.54" y2="146.8" xlink:href="#linear-gradient-13"/>
  </defs>
  <g class="cls-15">
    <g id="Layer_1" data-name="Layer 1">
      <g>
        <g>
          <path class="cls-9" d="M120.29,231.15h3.14c2.38,0,4.66-.95,6.34-2.63h0c1.7-1.7,2.66-4.02,2.66-6.43v-32.09"/>
          <path class="cls-9" d="M138.5,190.01v33.74c0,3.4-1.35,6.66-3.76,9.06h0c-2.4,2.4-5.65,3.74-9.04,3.74h-5.41"/>
          <path class="cls-9" d="M162.62,230.75c1.29.31,2.64.48,4.03.48h0c9.37,0,16.96-7.59,16.96-16.96v-1.98c0-3.8-1.25-7.31-3.36-10.14"/>
          <path class="cls-9" d="M170.38,195.74c-1.2-.27-2.44-.41-3.72-.41h0c-9.37,0-16.96,7.59-16.96,16.96v.99s0,.99,0,.99c0,3.65,1.15,7.03,3.11,9.8"/>
          <path class="cls-9" d="M189.6,213.28v.33c0,12.67-10.27,22.94-22.94,22.94h0c-12.67,0-22.94-10.27-22.94-22.94v-.33s0-.33,0-.33c0-12.67,10.27-22.94,22.94-22.94h0c12.67,0,22.94,10.27,22.94,22.94v.33Z"/>
          <path class="cls-9" d="M197.73,231.05h-1.78s-1.17,1.15-1.17,1.15v3.18l1.16,1.16h23.44c6.06,0,10.98-4.91,10.98-10.98v-2.33c0-6.04-4.88-10.94-10.91-10.98h0s.32,0,.32,0c5.45,0,9.91-4.46,9.91-9.91v-2.18c0-5.28-6.37-10.16-11.26-10.16h-18.56"/>
          <path class="cls-9" d="M194.79,193.13v30.62s1.16,1.17,1.16,1.17h3.83l1.18-1.16v-27.32s1.16-.95,1.16-.95h14.24c3.95,0,7.19,3.23,7.19,7.19h0c0,3.95-3.2,7.16-7.16,7.16h-7.42s-1.16,1.16-1.16,1.16v3.16l1.16,1.16h7.35c4.4,0,7.96,3.59,7.9,8-.05,4.32-3.75,7.72-8.07,7.72h-6.2"/>
          <path class="cls-9" d="M284.24,226.26c3.46-3.24,5.63-7.85,5.63-12.97h0v-.02h0c0-9.81-7.95-17.77-17.77-17.77h-15.95s-1.16-1.17-1.16-1.17v-3.15l1.16-1.16h5.63"/>
          <path class="cls-9" d="M277.17,190.3c9.79,1.7,18.86,10.77,18.86,21.35v1.62c0,13.43-11.94,23.28-22.87,23.28h-17l-1.16-1.16v-32.59l1.16-1.16h3.83l1.16,1.16v27.1s1.16,1.16,1.16,1.16h9.79c.2,0,.41,0,.61-.01"/>
          <line class="cls-9" x1="334.74" y1="225.3" x2="334.74" y2="190.01"/>
          <polyline class="cls-9" points="301.2 233.1 301.2 191.17 302.36 190.01 306.43 190.01 307.89 190.72"/>
          <polyline class="cls-9" points="340.9 190.01 340.9 235.38 339.73 236.55 335.77 236.54 334.27 235.93 307.36 200.24 307.36 235.38 306.19 236.55 304.19 236.55"/>
          <polyline class="cls-9" points="372.24 190.01 390 235.87 389.6 236.55 384.78 236.55 383.84 235.87 368.04 196.1 358.46 220.25 358.78 220.8 370.65 220.8 371.82 221.96 371.82 225.13 370.65 226.29 356.49 226.29 355.89 226.72 352.25 235.87 351.3 236.55 346.51 236.55 346.09 235.87 346.51 234.77"/>
        </g>
        <path class="cls-9" d="M47.56,211.28l6.7-11.05v34.97s0,.18,0,.18l1.16,1.16h3.83s1.16-1.16,1.16-1.16v-.18s0-44.03,0-44.03l-1.16-1.16h-4.07s-1.45.71-1.45.71l-17.14,27.67c-.09.14-.29.14-.38,0l-17.14-27.67-1.45-.71h-4.07l-1.16,1.16v44.21"/>
        <path class="cls-9" d="M18.55,235.37v-35.15s17.67,29.13,17.67,29.13c.09.14.29.14.38,0l4.66-7.68"/>
        <path class="cls-9" d="M82.17,207.38l4.36,6.92c.12.19.4.19.52,0l14.83-23.57,1.05-.5,4.7.87.31.75-17.97,29.11c-.09.14-.13.3-.13.46v14.03s-1.17,1.16-1.17,1.16h-3.83l-1.16-1.16v-14.11c0-.16-.04-.32-.12-.46l-17.91-29.03.31-.75,4.7-.87,1.05.5,5.45,8.66"/>
        <path class="cls-11" d="M136.1,192.95v32.59c0,3.39-1.35,6.65-3.76,9.06-1.2,1.2-2.61,2.13-4.15,2.77-1.54.64-3.2.98-4.89.98h-4.26l-1.15-1.15v-3.1l1.15-1.15h1.99c2.38,0,4.66-.95,6.34-2.63.85-.85,1.52-1.85,1.97-2.95.45-1.09.7-2.27.7-3.48v-30.94l1.14-1.14h3.78l1.15,1.14Z"/>
        <path class="cls-22" d="M181.22,215.07v-.99c0-9.37-7.6-16.96-16.96-16.96-4.68,0-8.92,1.9-11.99,4.97s-4.97,7.31-4.97,11.99v1.98c0,9.37,7.6,16.96,16.96,16.96s16.96-7.59,16.96-16.96v-.99ZM180.48,198.53c4.15,4.15,6.72,9.88,6.72,16.22v.65c0,12.67-10.28,22.95-22.95,22.95-6.34,0-12.07-2.57-16.22-6.72s-6.72-9.89-6.72-16.22v-.65c0-12.67,10.28-22.94,22.95-22.94,6.34,0,12.07,2.57,16.22,6.72Z"/>
        <path class="cls-3" d="M287.48,215.06c0-9.82-7.96-17.77-17.77-17.77h-15.95l-1.16-1.17v-3.15l1.16-1.16h17.76c10.93,0,22.11,9.89,22.11,21.64v1.62c0,13.43-11.94,23.28-22.87,23.28h-17l-1.16-1.16v-32.59l1.16-1.16h3.83l1.16,1.16v27.1l1.16,1.16h9.79c4.91,0,9.35-1.99,12.56-5.21s5.21-7.66,5.21-12.56v-.02Z"/>
        <path class="cls-13" d="M338.5,192.97v44.21l-1.16,1.16h-3.96s-1.5-.62-1.5-.62l-26.91-35.69v34.97s0,.18,0,.18l-1.16,1.16h-3.83l-1.16-1.16v-44.21l1.16-1.16h4.07l1.45.7,26.49,35.11c.12.15.36.07.36-.12v-34.53l1.16-1.16h3.83l1.16,1.16Z"/>
        <polygon class="cls-12" points="370.18 192.66 387.6 237.66 387.16 238.34 382.38 238.34 381.44 237.66 365.65 197.89 356.06 222.04 356.39 222.6 368.26 222.6 369.42 223.76 369.42 226.92 368.26 228.09 354.09 228.09 353.49 228.51 349.86 237.66 348.9 238.34 344.11 238.34 343.69 237.66 361.11 192.65 362.48 191.8 368.8 191.8 370.18 192.66"/>
        <path class="cls-14" d="M216.71,214.12c3.29.07,6.14,1.45,8.16,3.65,2.02,2.19,3.23,5.19,3.23,8.49,0,6.7-5.44,12.09-12.14,12.09h-22.4l-1.16-1.16v-3.09l1.17-1.25h6.15s14.03,0,14.03,0c4.32,0,8.07-3.4,8.07-7.72,0-5.37-5.34-8-11.63-8h-3.62l-1.16-1.16v-3.16l1.16-1.16h3.66c5.58,0,10.92-3.11,10.92-7.16,0-1.97-.81-3.77-2.11-5.07-1.3-1.3-3.1-2.11-5.08-2.11h-14.23l-1.16.95v27.32l-1.17,1.16h-3.83l-1.15-1.17v-32.59l1.16-1.15h22.67c6.15,0,11.14,5.02,11.14,11.17s-4.51,11.14-10.66,11.14Z"/>
        <path class="cls-21" d="M58.03,192.95v44.21l-1.16,1.16h-3.83l-1.16-1.16v-35.15s-17.67,29.14-17.67,29.14c-.09.14-.29.14-.38,0l-17.66-29.14v34.97s0,.18,0,.18l-1.16,1.16h-3.83l-1.16-1.16v-44.21l1.16-1.16h4.07l1.45.71,17.14,27.67c.09.14.29.14.38,0l17.14-27.67,1.45-.71h4.07l1.16,1.16Z"/>
        <path class="cls-18" d="M84.65,216.01l14.83-23.57,1.05-.5,4.7.87.31.75-17.97,29.11c-.08.14-.13.29-.13.46v14.03s-1.17,1.16-1.17,1.16h-3.83l-1.16-1.16v-14.11c0-.16-.03-.32-.12-.46l-17.91-29.03.31-.75,4.7-.87,1.05.5,14.83,23.57c.12.19.4.19.51,0Z"/>
        <path class="cls-10" d="M130.03,192.95l1.15-1.15h3.78l1.15,1.15v32.59c0,3.4-1.35,6.66-3.76,9.06h0c-2.4,2.4-5.65,3.74-9.04,3.74h-4.26s-1.15-1.15-1.15-1.15v-3.1l1.15-1.15h1.99c2.38,0,4.66-.95,6.34-2.63h0c1.7-1.7,2.66-4.02,2.66-6.43v-30.94Z"/>
        <path class="cls-10" d="M164.26,233.02h0c9.37,0,16.96-7.59,16.96-16.96v-1.98c0-9.37-7.59-16.96-16.96-16.96h0c-9.37,0-16.96,7.59-16.96,16.96v.99s0,.99,0,.99c0,9.37,7.59,16.96,16.96,16.96h0Z"/>
        <path class="cls-10" d="M187.2,215.07v.33c0,12.67-10.27,22.94-22.94,22.94h0c-12.67,0-22.94-10.27-22.94-22.94v-.33s0-.33,0-.33c0-12.67,10.27-22.94,22.94-22.94h0c12.67,0,22.94,10.27,22.94,22.94v.33Z"/>
        <path class="cls-10" d="M269.71,232.85h-9.79s-1.16-1.16-1.16-1.16v-27.1s-1.16-1.16-1.16-1.16h-3.83l-1.16,1.16v32.59l1.16,1.16h17c10.93,0,22.87-9.85,22.87-23.28v-1.62c0-11.75-11.18-21.64-22.11-21.64h-17.76l-1.16,1.16v3.15l1.16,1.17h15.95c9.81,0,17.77,7.95,17.77,17.77h0v.02h0c0,9.81-7.95,17.77-17.77,17.77Z"/>
        <path class="cls-10" d="M331.98,227.62c.12.15.36.07.36-.12v-34.53s1.16-1.16,1.16-1.16h3.83l1.16,1.16v44.21l-1.16,1.16h-3.96s-1.5-.62-1.5-.62l-26.91-35.69v34.97s0,.18,0,.18l-1.16,1.16h-3.83l-1.16-1.16v-44.21l1.16-1.16h4.07l1.45.71,26.49,35.11Z"/>
        <polygon class="cls-10" points="368.26 228.08 354.09 228.08 353.49 228.51 349.86 237.66 348.9 238.34 344.11 238.34 343.69 237.66 361.11 192.65 362.49 191.8 368.8 191.8 370.18 192.66 387.6 237.66 387.16 238.34 382.38 238.34 381.44 237.66 365.65 197.9 356.06 222.04 356.39 222.59 368.26 222.59 369.42 223.76 369.42 226.92 368.26 228.08"/>
        <path class="cls-10" d="M198.55,225.56l-1.18,1.16h-3.83l-1.16-1.17v-32.59s1.16-1.15,1.16-1.15h22.67c6.15,0,11.14,5.02,11.14,11.17s-4.51,11.14-10.66,11.14h0c6.58.15,11.39,5.52,11.39,12.14s-5.44,12.08-12.14,12.08h-22.4s-1.16-1.16-1.16-1.16v-3.08l1.17-1.25h6.15s14.03,0,14.03,0c4.32,0,8.07-3.4,8.07-7.72,0-5.37-5.33-8-11.63-8h-3.62l-1.16-1.16v-3.16l1.16-1.16h3.66c5.58,0,10.92-3.11,10.92-7.16h0c0-3.95-3.23-7.19-7.19-7.19h-14.24s-1.16.95-1.16.95v27.32Z"/>
        <path class="cls-10" d="M34.2,231.15l17.66-29.13v35.15s1.17,1.16,1.17,1.16h3.83s1.16-1.16,1.16-1.16v-44.21s-1.16-1.16-1.16-1.16h-4.07s-1.45.71-1.45.71l-17.14,27.67c-.09.14-.29.14-.38,0l-17.14-27.67-1.45-.71h-4.07l-1.16,1.16v44.21l1.16,1.16h3.83l1.16-1.16v-35.15s17.67,29.13,17.67,29.13c.09.14.29.14.38,0Z"/>
        <path class="cls-10" d="M87.44,237.17l-1.17,1.16h-3.83l-1.16-1.16v-14.11c0-.16-.04-.32-.12-.46l-17.91-29.03.31-.75,4.7-.87,1.05.5,14.83,23.57c.12.19.4.19.52,0l14.83-23.57,1.05-.5,4.7.87.31.75-17.97,29.11c-.09.14-.13.3-.13.46v14.03Z"/>
      </g>
      <g>
        <g>
          <path class="cls-6" d="M120.29,162.81h3.14c2.38,0,4.66-.95,6.34-2.63h0c1.7-1.7,2.66-4.02,2.66-6.43v-32.09"/>
          <path class="cls-6" d="M138.5,121.67v33.74c0,3.4-1.35,6.66-3.76,9.06h0c-2.4,2.4-5.65,3.74-9.04,3.74h-5.41"/>
          <path class="cls-6" d="M162.62,162.41c1.29.31,2.64.48,4.03.48h0c9.37,0,16.96-7.59,16.96-16.96v-1.98c0-3.8-1.25-7.31-3.36-10.14"/>
          <path class="cls-6" d="M170.38,127.4c-1.2-.27-2.44-.41-3.72-.41h0c-9.37,0-16.96,7.59-16.96,16.96v.99s0,.99,0,.99c0,3.65,1.15,7.03,3.11,9.8"/>
          <path class="cls-6" d="M189.6,144.94v.33c0,12.67-10.27,22.94-22.94,22.94h0c-12.67,0-22.94-10.27-22.94-22.94v-.33s0-.33,0-.33c0-12.67,10.27-22.94,22.94-22.94h0c12.67,0,22.94,10.27,22.94,22.94v.33Z"/>
          <path class="cls-6" d="M197.73,162.71h-1.78s-1.17,1.15-1.17,1.15v3.18l1.16,1.16h23.44c6.06,0,10.98-4.91,10.98-10.98v-2.33c0-6.04-4.88-10.94-10.91-10.98h0s.32,0,.32,0c5.45,0,9.91-4.46,9.91-9.91v-2.18c0-5.28-6.37-10.16-11.26-10.16h-18.56"/>
          <path class="cls-6" d="M194.79,124.79v30.62s1.16,1.17,1.16,1.17h3.83l1.18-1.16v-27.32s1.16-.95,1.16-.95h14.24c3.95,0,7.19,3.23,7.19,7.19h0c0,3.95-3.2,7.16-7.16,7.16h-7.42s-1.16,1.16-1.16,1.16v3.16l1.16,1.16h7.35c4.4,0,7.96,3.59,7.9,8-.05,4.32-3.75,7.72-8.07,7.72h-6.2"/>
          <path class="cls-6" d="M284.24,157.92c3.46-3.24,5.63-7.85,5.63-12.97h0v-.02h0c0-9.81-7.95-17.77-17.77-17.77h-15.95s-1.16-1.17-1.16-1.17v-3.15l1.16-1.16h5.63"/>
          <path class="cls-6" d="M277.17,121.96c9.79,1.7,18.86,10.77,18.86,21.35v1.62c0,13.43-11.94,23.28-22.87,23.28h-17l-1.16-1.16v-32.59l1.16-1.16h3.83l1.16,1.16v27.1s1.16,1.16,1.16,1.16h9.79c.2,0,.41,0,.61-.01"/>
          <line class="cls-6" x1="334.74" y1="156.96" x2="334.74" y2="121.67"/>
          <polyline class="cls-6" points="301.2 164.76 301.2 122.83 302.36 121.67 306.43 121.67 307.89 122.38"/>
          <polyline class="cls-6" points="340.9 121.67 340.9 167.04 339.73 168.21 335.77 168.2 334.27 167.59 307.36 131.9 307.36 167.04 306.19 168.21 304.19 168.21"/>
          <polyline class="cls-6" points="372.24 121.67 390 167.53 389.6 168.21 384.78 168.21 383.84 167.53 368.04 127.76 358.46 151.91 358.78 152.46 370.65 152.46 371.82 153.62 371.82 156.79 370.65 157.95 356.49 157.95 355.89 158.38 352.25 167.53 351.3 168.21 346.51 168.21 346.09 167.53 346.51 166.43"/>
        </g>
        <path class="cls-6" d="M47.56,142.94l6.7-11.05v34.97s0,.18,0,.18l1.16,1.16h3.83s1.16-1.16,1.16-1.16v-.18s0-44.03,0-44.03l-1.16-1.16h-4.07s-1.45.71-1.45.71l-17.14,27.67c-.09.14-.29.14-.38,0l-17.14-27.67-1.45-.71h-4.07l-1.16,1.16v44.21"/>
        <path class="cls-6" d="M18.55,167.03v-35.15s17.67,29.13,17.67,29.13c.09.14.29.14.38,0l4.66-7.68"/>
        <path class="cls-6" d="M82.17,139.04l4.36,6.92c.12.19.4.19.52,0l14.83-23.57,1.05-.5,4.7.87.31.75-17.97,29.11c-.09.14-.13.3-.13.46v14.03s-1.17,1.16-1.17,1.16h-3.83l-1.16-1.16v-14.11c0-.16-.04-.32-.12-.46l-17.91-29.03.31-.75,4.7-.87,1.05.5,5.45,8.66"/>
        <path class="cls-16" d="M136.1,124.61v32.59c0,3.4-1.35,6.66-3.76,9.06-1.2,1.2-2.61,2.13-4.15,2.77-1.54.63-3.2.97-4.89.97h-4.26l-1.15-1.14v-3.1l1.15-1.14h1.99c2.38,0,4.66-.95,6.34-2.63.85-.85,1.52-1.86,1.97-2.95.45-1.09.7-2.27.7-3.48v-30.94l1.14-1.14h3.78l1.15,1.14Z"/>
        <path class="cls-19" d="M187.2,146.73v.32c0,12.67-10.28,22.94-22.95,22.94-6.34,0-12.07-2.57-16.22-6.72-4.15-4.15-6.72-9.88-6.72-16.22v-.65c0-12.67,10.28-22.94,22.95-22.94,6.34,0,12.07,2.57,16.22,6.72,4.15,4.15,6.72,9.89,6.72,16.22v.33ZM181.22,147.72v-1.97c0-9.37-7.6-16.96-16.96-16.96-4.68,0-8.92,1.9-11.99,4.97s-4.97,7.31-4.97,11.99v1.97c0,9.37,7.6,16.96,16.96,16.96s16.96-7.6,16.96-16.96Z"/>
        <path class="cls-4" d="M293.64,145.1v1.62c0,13.43-11.94,23.28-22.87,23.28h-17l-1.16-1.16v-32.58l1.16-1.16h3.83l1.16,1.16v27.09l1.16,1.16h9.79c4.91,0,9.35-1.99,12.56-5.2,3.22-3.22,5.21-7.66,5.21-12.56v-.02c0-9.81-7.96-17.76-17.77-17.76h-15.95l-1.16-1.17v-3.15l1.16-1.16h17.76c10.93,0,22.11,9.89,22.11,21.63Z"/>
        <path class="cls-20" d="M338.5,124.63v44.21l-1.16,1.16h-3.96s-1.5-.62-1.5-.62l-26.91-35.69v34.97s0,.17,0,.17l-1.16,1.16h-3.83l-1.16-1.16v-44.21l1.16-1.16h4.07l1.45.7,26.49,35.11c.12.15.36.07.36-.12v-34.53l1.16-1.16h3.83l1.16,1.16Z"/>
        <polygon class="cls-5" points="370.18 124.32 387.6 169.32 387.16 170 382.38 170 381.44 169.32 365.65 129.55 356.06 153.7 356.39 154.25 368.26 154.25 369.42 155.42 369.42 158.58 368.26 159.74 354.09 159.74 353.49 160.17 349.86 169.32 348.9 170 344.11 170 343.69 169.32 361.11 124.31 362.49 123.47 368.8 123.47 370.18 124.32"/>
        <path class="cls-2" d="M224.87,149.42c2.02,2.19,3.23,5.19,3.23,8.5,0,6.7-5.44,12.08-12.14,12.08h-22.4l-1.16-1.16v-3.08l1.17-1.25h6.15s14.03,0,14.03,0c4.32,0,8.07-3.39,8.07-7.72,0-5.37-5.34-8-11.63-8h-3.62l-1.16-1.16v-3.16l1.16-1.16h3.66c5.58,0,10.92-3.11,10.92-7.16,0-1.98-.81-3.78-2.11-5.07s-3.1-2.11-5.08-2.11h-14.23l-1.16.95v27.32l-1.17,1.15h-3.83l-1.15-1.17v-32.59l1.16-1.15h22.67c6.15,0,11.14,5.02,11.14,11.17s-4.51,11.14-10.66,11.14c3.29.07,6.14,1.45,8.16,3.64Z"/>
        <path class="cls-17" d="M58.03,168.65v.18l-1.16,1.16h-3.83l-1.16-1.16v-35.15s-17.67,29.13-17.67,29.13c-.09.14-.29.14-.38,0l-17.66-29.13v34.97s0,.18,0,.18l-1.16,1.16h-3.83l-1.16-1.16v-44.21l1.16-1.16h4.07l1.45.7,17.14,27.67c.09.14.29.14.38,0l17.14-27.67,1.45-.7h4.07l1.16,1.16v44.03Z"/>
        <path class="cls-1" d="M105.23,124.48l.31.75-17.97,29.11c-.08.14-.13.3-.13.46v14.03s-1.17,1.16-1.17,1.16h-3.83l-1.16-1.16v-14.11c0-.16-.03-.32-.12-.46l-17.91-29.02.31-.75,4.7-.87,1.05.5,14.83,23.57c.12.19.4.19.51,0l14.83-23.57,1.05-.5,4.7.87Z"/>
        <path class="cls-7" d="M130.03,124.61l1.15-1.15h3.78l1.15,1.15v32.59c0,3.4-1.35,6.66-3.76,9.06h0c-2.4,2.4-5.65,3.74-9.04,3.74h-4.26s-1.15-1.15-1.15-1.15v-3.1l1.15-1.15h1.99c2.38,0,4.66-.95,6.34-2.63h0c1.7-1.7,2.66-4.02,2.66-6.43v-30.94Z"/>
        <path class="cls-7" d="M164.26,164.68h0c9.37,0,16.96-7.59,16.96-16.96v-1.98c0-9.37-7.59-16.96-16.96-16.96h0c-9.37,0-16.96,7.59-16.96,16.96v.99s0,.99,0,.99c0,9.37,7.59,16.96,16.96,16.96h0Z"/>
        <path class="cls-7" d="M187.2,146.73v.33c0,12.67-10.27,22.94-22.94,22.94h0c-12.67,0-22.94-10.27-22.94-22.94v-.33s0-.33,0-.33c0-12.67,10.27-22.94,22.94-22.94h0c12.67,0,22.94,10.27,22.94,22.94v.33Z"/>
        <path class="cls-8" d="M269.71,164.51h-9.79s-1.16-1.16-1.16-1.16v-27.1s-1.16-1.16-1.16-1.16h-3.83l-1.16,1.16v32.59l1.16,1.16h17c10.93,0,22.87-9.85,22.87-23.28v-1.62c0-11.75-11.18-21.64-22.11-21.64h-17.76l-1.16,1.16v3.15l1.16,1.17h15.95c9.81,0,17.77,7.95,17.77,17.77h0v.02h0c0,9.81-7.95,17.77-17.77,17.77Z"/>
        <path class="cls-8" d="M331.98,159.28c.12.15.36.07.36-.12v-34.53s1.16-1.16,1.16-1.16h3.83l1.16,1.16v44.21l-1.16,1.16h-3.96s-1.5-.62-1.5-.62l-26.91-35.69v34.97s0,.18,0,.18l-1.16,1.16h-3.83l-1.16-1.16v-44.21l1.16-1.16h4.07l1.45.71,26.49,35.11Z"/>
        <polygon class="cls-8" points="368.26 159.74 354.09 159.74 353.49 160.17 349.86 169.32 348.9 170 344.11 170 343.69 169.32 361.11 124.31 362.49 123.46 368.8 123.46 370.18 124.32 387.6 169.32 387.16 170 382.38 170 381.44 169.32 365.65 129.56 356.06 153.7 356.39 154.25 368.26 154.25 369.42 155.42 369.42 158.58 368.26 159.74"/>
        <path class="cls-7" d="M198.55,157.22l-1.18,1.16h-3.83l-1.16-1.17v-32.59s1.16-1.15,1.16-1.15h22.67c6.15,0,11.14,5.02,11.14,11.17s-4.51,11.14-10.66,11.14h0c6.58.15,11.39,5.52,11.39,12.14s-5.44,12.08-12.14,12.08h-22.4s-1.16-1.16-1.16-1.16v-3.08l1.17-1.25h6.15s14.03,0,14.03,0c4.32,0,8.07-3.4,8.07-7.72,0-5.37-5.33-8-11.63-8h-3.62l-1.16-1.16v-3.16l1.16-1.16h3.66c5.58,0,10.92-3.11,10.92-7.16h0c0-3.95-3.23-7.19-7.19-7.19h-14.24s-1.16.95-1.16.95v27.32Z"/>
        <path class="cls-7" d="M34.2,162.81l17.66-29.13v35.15s1.17,1.16,1.17,1.16h3.83s1.16-1.16,1.16-1.16v-44.21s-1.16-1.16-1.16-1.16h-4.07s-1.45.71-1.45.71l-17.14,27.67c-.09.14-.29.14-.38,0l-17.14-27.67-1.45-.71h-4.07l-1.16,1.16v44.21l1.16,1.16h3.83l1.16-1.16v-35.15s17.67,29.13,17.67,29.13c.09.14.29.14.38,0Z"/>
        <path class="cls-7" d="M87.44,168.83l-1.17,1.16h-3.83l-1.16-1.16v-14.11c0-.16-.04-.32-.12-.46l-17.91-29.03.31-.75,4.7-.87,1.05.5,14.83,23.57c.12.19.4.19.52,0l14.83-23.57,1.05-.5,4.7.87.31.75-17.97,29.11c-.09.14-.13.3-.13.46v14.03Z"/>
      </g>
    </g>
  </g>
</svg>