<?xml version="1.0" encoding="UTF-8"?>
<svg id="Layer_1" data-name="Layer 1" xmlns="http://www.w3.org/2000/svg" viewBox="0 0 400 360">
  <defs>
    <style>
      .cls-1 {
        fill: #2b2b2b;
      }

      .cls-2, .cls-3 {
        fill: #231f20;
      }

      .cls-4 {
        fill: #fff;
      }

      .cls-5 {
        fill: #36454f;
      }

      .cls-6 {
        fill: #ddd;
      }

      .cls-7 {
        fill: #454546;
      }

      .cls-8 {
        fill: #9a9a9a;
      }

      .cls-9 {
        fill: none;
        stroke: #fff;
        stroke-miterlimit: 10;
        stroke-width: .42px;
      }

      .cls-3 {
        font-family: Muli-SemiBold, Muli;
        font-size: 53.75px;
        font-weight: 600;
      }
    </style>
  </defs>
  <rect class="cls-4" width="400" height="360"/>
  <g>
    <g>
      <g>
        <polygon class="cls-7" points="79.17 83.64 79.78 84.71 65.01 84.71 65.62 83.64 65.01 82.58 79.78 82.58 79.17 83.64"/>
        <path class="cls-8" d="M65.01,82.58l.61,1.06-.61,1.07-5.33,9.22h-11.89s-5.94-10.29-5.94-10.29l5.94-10.29h11.89s5.33,9.23,5.33,9.23ZM63.1,83.64l-4.68-8.11h-9.36s-4.68,8.11-4.68,8.11l4.68,8.11h9.36s4.68-8.11,4.68-8.11Z"/>
      </g>
      <g>
        <polygon class="cls-7" points="88.72 37.32 89.34 38.39 65.01 38.39 65.62 37.32 65.01 36.26 89.34 36.26 88.72 37.32"/>
        <path class="cls-8" d="M65.01,36.26l.61,1.06-.61,1.07-5.33,9.22h-11.89s-5.94-10.29-5.94-10.29l5.94-10.29h11.89s5.33,9.23,5.33,9.23ZM63.1,37.32l-4.68-8.11h-9.36s-4.68,8.11-4.68,8.11l4.68,8.11h9.36s4.68-8.11,4.68-8.11Z"/>
      </g>
      <g>
        <path class="cls-2" d="M17.87,74.11l-7.87-13.63,7.87-13.63h15.73s7.39,12.8,7.39,12.8l.47.82-.47.82-7.39,12.81h-15.73ZM12.67,60.49l6.53,11.31h13.06s6.53-11.31,6.53-11.31l-6.53-11.32h-13.06s-6.53,11.32-6.53,11.32Z"/>
        <path class="cls-2" d="M15.83,61.01c-.29-.16-.39-.54-.22-.82l4.8-8.32c.12-.19.31-.3.53-.3.1,0,.21.02.3.08.29.17.39.54.22.83l-4.8,8.32c-.16.28-.53.39-.82.22Z"/>
        <path class="cls-2" d="M20.93,69.41c-.34,0-.61-.27-.61-.61,0-.33.27-.61.61-.61h9.61c.33,0,.61.27.61.61,0,.33-.27.61-.61.61h-9.61Z"/>
        <polygon class="cls-7" points="41.47 60.49 41 59.66 89.24 59.66 88.77 60.49 89.24 61.3 41 61.3 41.47 60.49"/>
      </g>
    </g>
    <g>
      <g>
        <polygon class="cls-7" points="104.85 83.64 104.23 84.71 334.99 84.71 334.38 83.64 334.99 82.58 104.23 82.58 104.85 83.64"/>
        <path class="cls-8" d="M334.99,82.58l-.61,1.06.61,1.07,5.33,9.22h11.89l5.94-10.29-5.94-10.29h-11.89l-5.33,9.23ZM336.9,83.64l4.69-8.11h9.36l4.68,8.11-4.68,8.11h-9.36l-4.69-8.11Z"/>
      </g>
      <g>
        <polygon class="cls-7" points="303.93 37.32 303.31 38.39 334.99 38.39 334.38 37.32 334.99 36.26 303.31 36.26 303.93 37.32"/>
        <path class="cls-8" d="M334.99,36.26l-.61,1.06.61,1.07,5.33,9.22h11.89l5.94-10.29-5.94-10.29h-11.89l-5.33,9.23ZM336.9,37.32l4.69-8.11h9.36l4.68,8.11-4.68,8.11h-9.36l-4.69-8.11Z"/>
      </g>
      <g>
        <path class="cls-2" d="M382.13,74.11l7.87-13.63-7.87-13.63h-15.73l-7.39,12.8-.47.82.47.82,7.39,12.81h15.73ZM387.33,60.49l-6.53,11.31h-13.07l-6.53-11.31,6.53-11.32h13.07l6.53,11.32Z"/>
        <path class="cls-2" d="M384.17,61.01c.29-.16.39-.54.22-.82l-4.8-8.32c-.12-.19-.32-.3-.53-.3-.1,0-.21.02-.3.08-.29.17-.39.54-.22.83l4.8,8.32c.17.28.54.39.83.22Z"/>
        <path class="cls-2" d="M379.07,69.41c.33,0,.61-.27.61-.61s-.27-.61-.61-.61h-9.61c-.33,0-.61.27-.61.61s.27.61.61.61h9.61Z"/>
        <polygon class="cls-7" points="358.53 60.49 359 59.66 315.22 59.66 315.69 60.49 315.22 61.3 359 61.3 358.53 60.49"/>
      </g>
    </g>
    <text class="cls-3" transform="translate(84.04 76.15)"><tspan x="0" y="0">JOB DNA</tspan></text>
  </g>
  <g>
    <path class="cls-6" d="M25.14,224.08c101.31,24.86,133.6-29.36,158.85-57.92,40.56-56.29,122.48-29.17,136.1-24.42-24.43-11.22-100.33-40.04-147.1,13.44-26.99,32.73-60.61,88.17-147.85,68.9Z"/>
    <path class="cls-1" d="M176.58,177.28c9.07,28.46,28.65,48.72,49.48,53.98,54.42,13.05,99.56-20.78,118.1-42.84,16.17-18.88,28.58-42.5,45.84-53.47-9.78,5.51-21.16,12.62-48.2,45.41-22.14,24.61-61.32,55.83-115.74,42.77-20.84-5.26-38.98-17.39-49.48-45.85Z"/>
    <g>
      <g>
        <path class="cls-2" d="M144.38,190.54v2.76c0,7.17-5.82,12.99-12.99,12.99h-28.19c-.51,0-.91-.41-.91-.91v-53.24c0-.5.4-.91.91-.91h27.06c5.79,0,13.33,5.76,13.33,12.02v2.57c0,6.44-5.28,11.72-11.73,11.72h-.38c3.57.02,6.8,1.49,9.13,3.84,2.34,2.36,3.78,5.59,3.78,9.16ZM137.08,190.65c.06-5.21-4.14-9.46-9.35-9.46h-9.16c-.5,0-.91-.41-.91-.91v-4.67c0-.5.41-.91.91-.91h9.24c2.34,0,4.46-.95,5.99-2.48,1.54-1.53,2.49-3.65,2.49-5.99,0-4.68-3.83-8.5-8.51-8.5h-17.53c-.38,0-.69.31-.69.69v40.7c0,.37.3.67.67.67h17.3c5.11,0,9.49-4.02,9.54-9.13Z"/>
        <path class="cls-2" d="M94.99,178.74v.4c0,15.44-12.52,27.95-27.95,27.95-7.72,0-14.7-3.12-19.76-8.18s-8.18-12.04-8.18-19.76v-.79c0-15.43,12.51-27.94,27.95-27.94,7.72,0,14.7,3.12,19.76,8.18,5.06,5.05,8.18,12.04,8.18,19.75v.4ZM87.71,179.94v-2.4c0-11.41-9.25-20.66-20.66-20.66-5.71,0-10.87,2.31-14.61,6.05-3.73,3.74-6.05,8.91-6.05,14.61v2.4c0,11.41,9.25,20.66,20.66,20.66s20.66-9.25,20.66-20.66Z"/>
        <path class="cls-2" d="M31.86,152.14v39.58c0,4.08-1.63,7.99-4.51,10.87-1.44,1.44-3.13,2.57-4.98,3.33s-3.84,1.17-5.88,1.17h-5.57c-.51,0-.93-.41-.93-.93v-4.61c0-.52.42-.93.93-.93h2.83c2.86,0,5.6-1.13,7.62-3.16,1.03-1.02,1.82-2.23,2.36-3.54s.83-2.73.83-4.18v-37.6c0-.5.4-.91.91-.91h5.46c.5,0,.91.41.91.91Z"/>
      </g>
      <g>
        <path class="cls-9" d="M16.5,207.08h-5.57c-.51,0-.93-.41-.93-.93v-4.61c0-.52.42-.93.93-.93h2.83c2.86,0,5.6-1.13,7.62-3.16,1.03-1.02,1.82-2.23,2.36-3.54s.83-2.73.83-4.18v-37.6c0-.5.4-.91.91-.91h5.46c.5,0,.91.41.91.91v39.58c0,4.08-1.63,7.99-4.51,10.87-1.44,1.44-3.13,2.57-4.98,3.33s-3.84,1.17-5.88,1.17Z"/>
        <path class="cls-9" d="M67.05,200.6c11.41,0,20.66-9.25,20.66-20.66v-2.4c0-11.41-9.25-20.66-20.66-20.66-5.71,0-10.87,2.31-14.61,6.05-3.73,3.74-6.05,8.91-6.05,14.61v2.4c0,11.41,9.25,20.66,20.66,20.66Z"/>
        <path class="cls-9" d="M94.99,178.74v.4c0,15.44-12.52,27.95-27.95,27.95-7.72,0-14.7-3.12-19.76-8.18s-8.18-12.04-8.18-19.76v-.79c0-15.43,12.51-27.94,27.95-27.94,7.72,0,14.7,3.12,19.76,8.18,5.06,5.05,8.18,12.04,8.18,19.75v.4Z"/>
        <path class="cls-9" d="M137.08,190.65c-.06,5.12-4.44,9.13-9.54,9.13h-17.3c-.37,0-.67-.3-.67-.67v-40.7c0-.38.31-.69.69-.69h17.53c4.68,0,8.51,3.82,8.51,8.5,0,2.34-.95,4.46-2.49,5.99-1.53,1.53-3.65,2.48-5.99,2.48h-9.24c-.5,0-.91.41-.91.91v4.67c0,.5.41.91.91.91h9.16c5.21,0,9.42,4.25,9.35,9.46Z"/>
        <path class="cls-9" d="M130.25,151.22c5.79,0,13.33,5.76,13.33,12.02v2.57c0,6.44-5.28,11.72-11.73,11.72h-.38c3.57.02,6.8,1.49,9.13,3.84,2.34,2.36,3.78,5.59,3.78,9.16v2.76c0,7.17-5.82,12.99-12.99,12.99h-28.19c-.51,0-.91-.41-.91-.91v-53.24c0-.5.4-.91.91-.91h27.06Z"/>
      </g>
    </g>
    <g>
      <g>
        <path class="cls-2" d="M335.17,205.02c.23.61-.21,1.25-.86,1.25h-5.32c-.37,0-.71-.23-.85-.58l-18.56-46.74c-.08-.19-.35-.19-.42,0l-11.28,28.39c-.06.15.05.3.2.3h14.82c.51,0,.92.41.92.92v4.65c0,.51-.41.92-.92.92h-17.58c-.09,0-.17.06-.2.14l-4.53,11.41c-.14.35-.48.58-.86.58h-5.32c-.65,0-1.09-.65-.86-1.25l20.6-53.24c.14-.35.48-.58.85-.58h8.7c.38,0,.72.23.86.58l20.6,53.23Z"/>
        <path class="cls-2" d="M277.41,152.12v53.22c0,.52-.41.93-.92.93h-6.01c-.22,0-.42-.11-.55-.28l-31.77-42.12c-.14-.18-.43-.08-.43.15v41.34c0,.51-.42.92-.93.92h-5.44c-.51,0-.92-.41-.92-.92v-53.21c0-.52.42-.93.93-.93h6.03c.21,0,.41.1.53.27l31.77,42.11c.14.18.42.08.42-.15v-41.32c0-.5.41-.91.91-.91h5.46c.5,0,.91.41.91.91Z"/>
        <path class="cls-2" d="M223.16,176.81v1.92c0,15.89-14.13,27.55-27.06,27.55h-20.57c-.51,0-.92-.41-.92-.92v-39.47c0-.51.41-.92.92-.92h5.44c.51,0,.92.41.92.92v33.22c0,.36.3.66.67.66h12.29c11.61,0,21.02-9.41,21.02-21.02v-.03c0-11.61-9.42-21.02-21.02-21.02h-19.32c-.52,0-.93-.42-.93-.93v-4.64c0-.52.41-.93.93-.93h21.46c12.94,0,26.17,11.71,26.17,25.6Z"/>
      </g>
      <g>
        <path class="cls-9" d="M215.87,178.72c0-11.61-9.42-21.02-21.02-21.02h-19.32c-.52,0-.93-.42-.93-.93v-4.64c0-.52.41-.93.93-.93h21.46c12.94,0,26.17,11.71,26.17,25.6v1.92c0,15.89-14.13,27.55-27.06,27.55h-20.57c-.51,0-.92-.41-.92-.92v-39.47c0-.51.41-.92.92-.92h5.44c.51,0,.92.41.92.92v33.22c0,.36.3.66.67.66h12.29c11.61,0,21.02-9.41,21.02-21.02"/>
        <path class="cls-9" d="M277.41,205.34v-53.22c0-.5-.4-.91-.91-.91h-5.46c-.5,0-.91.41-.91.91v41.32c0,.23-.28.32-.42.15l-31.77-42.11c-.12-.17-.32-.27-.53-.27h-6.03c-.51,0-.93.41-.93.93v53.21c0,.51.41.92.92.92h5.44c.51,0,.92-.41.92-.92v-41.34c0-.23.3-.32.44-.15l31.77,42.12c.13.17.33.28.55.28h6.01c.51,0,.92-.4.92-.92Z"/>
        <path class="cls-9" d="M295.13,194.28l-4.53,11.41c-.14.35-.48.58-.86.58h-5.32c-.65,0-1.09-.65-.86-1.25l20.6-53.24c.14-.35.48-.58.85-.58h8.7c.38,0,.72.23.86.58l20.6,53.23c.23.61-.21,1.25-.86,1.25h-5.32c-.37,0-.71-.23-.85-.58l-18.56-46.74c-.08-.19-.35-.19-.42,0l-11.28,28.39c-.06.15.05.3.2.3h14.82c.51,0,.92.41.92.92v4.65c0,.51-.41.92-.92.92h-17.58c-.09,0-.17.06-.2.14Z"/>
      </g>
    </g>
  </g>
  <g>
    <path class="cls-5" d="M389.89,329.66c.19.49.14,1.03-.12,1.48l-.57.96c-.31.51-.86.83-1.46.83h-6.77c-.36,0-.71-.12-.99-.32l-1.32-.96c-.26-.19-.47-.45-.58-.75l-20.61-51.9-11.28,28.41h14.94c.45,0,.88.18,1.2.5l1.63,1.63c.32.32.5.75.5,1.2v4.44c0,.45-.18.88-.5,1.2l-1.63,1.63c-.32.31-.75.5-1.2.5h-19.35l-4.92,12.39c-.12.3-.33.56-.6.75l-1.34.96c-.29.2-.63.31-.98.31h-6.74c-.59,0-1.14-.31-1.44-.81l-.59-.96c-.27-.45-.33-1-.14-1.5l24.47-63.23c.14-.35.38-.64.7-.83l1.93-1.19c.26-.16.58-.25.89-.25h8.87c.32,0,.62.09.9.26l1.94,1.19c.31.2.56.49.69.83l24.48,63.22ZM386.2,329.53l-23.75-61.34-1.04-.64h-7.91l-1.04.64-23.73,61.34h4.67l.49-.35,4.92-12.39c.12-.3.33-.56.59-.75l.85-.6c.28-.2.63-.31.98-.31h19.2l.64-.64v-3.04l-.64-.64h-15.98c-.6,0-1.16-.32-1.46-.84l-.46-.78c-.26-.45-.31-1-.11-1.48l13.46-33.92c.26-.64.88-1.06,1.58-1.06s1.32.42,1.57,1.06l22,55.4.48.35h4.68Z"/>
    <path class="cls-5" d="M320.64,267.49v62.1c0,.45-.18.88-.5,1.2l-1.63,1.63c-.32.32-.75.5-1.2.5h-7c-.53-.01-1.03-.26-1.35-.69l-35.42-46.96v44.31c-.01.45-.19.88-.51,1.2l-1.63,1.63c-.32.32-.75.5-1.2.5h-5.38c-.45,0-.88-.18-1.2-.5l-1.63-1.63c-.32-.32-.5-.75-.5-1.2v-62.1c0-.45.18-.88.5-1.2l1.63-1.63c.32-.32.75-.5,1.2-.5h7.03c.53,0,1.03.25,1.35.68l35.41,46.93v-44.28c0-.45.18-.88.5-1.2l1.63-1.63c.32-.32.75-.5,1.2-.5h5.38c.45,0,.88.18,1.2.5l1.63,1.63c.32.32.5.75.5,1.2ZM317.25,328.88v-60.69l-.64-.64h-3.97l-.64.64v47.8c0,.85-.54,1.61-1.34,1.88-.81.26-1.7,0-2.21-.69l-37.44-49.64h-5.47l-.64.64v60.69l.64.64h3.97l.64-.64v-48.67c.01-.73.48-1.38,1.17-1.61.69-.23,1.46,0,1.89.58l37.96,50.33h5.45s.64-.64.64-.64Z"/>
    <path class="cls-5" d="M257.19,296.25v2.28c0,20.27-17.83,34.4-33.83,34.4h-23.88c-.45,0-.88-.18-1.2-.5l-1.63-1.63c-.32-.32-.5-.75-.5-1.2v-45.78c0-.45.18-.88.5-1.2l1.63-1.63c.32-.31.75-.5,1.2-.5h5.38c.45,0,.88.18,1.2.5l1.63,1.63c.32.32.5.75.5,1.2v37.36l.64.64h13.05c12.83,0,23.27-10.44,23.27-23.27s-10.44-23.29-23.27-23.29h-22.4c-.45,0-.89-.18-1.21-.5l-1.63-1.64c-.31-.32-.49-.75-.49-1.2v-4.43c0-.45.18-.88.5-1.2l1.63-1.63c.32-.32.75-.5,1.2-.5h24.95c17.15,0,32.76,15.3,32.76,32.09ZM253.8,298.52v-2.28c0-14.75-14.27-28.7-29.37-28.7h-24.25l-.64.64v3.03l.64.65h21.7c14.7,0,26.66,11.96,26.66,26.66s-11.96,26.68-26.66,26.68h-13.76c-.45,0-.88-.18-1.2-.5l-1.63-1.63c-.32-.32-.5-.75-.5-1.2v-37.36l-.64-.64h-3.98l-.64.64v44.37l.64.64h23.18c14.37,0,30.43-13.26,30.43-31Z"/>
    <path class="cls-5" d="M168.81,312.53v3.28c0,9.43-7.68,17.11-17.12,17.11h-32.92c-.45,0-.88-.18-1.2-.5l-1.63-1.63c-.31-.32-.5-.75-.5-1.2v-4.4c0-.45.18-.88.5-1.2l1.69-1.68c.31-.32.75-.5,1.19-.5h28.31c5.25,0,9.58-4.11,9.64-9.17.03-2.54-.93-4.92-2.71-6.73-1.78-1.8-4.16-2.79-6.69-2.79h-10.32c-.45,0-.88-.18-1.2-.5l-1.63-1.63c-.32-.32-.5-.75-.5-1.2v-4.44c0-.45.18-.88.5-1.2l1.63-1.63c.32-.32.75-.5,1.2-.5h10.42c4.61,0,8.36-3.75,8.36-8.36s-3.76-8.4-8.4-8.4h-19.3l-.64.64v37.52c0,.49-.22.96-.58,1.28l-1.68,1.47c-.31.27-.71.42-1.12.42h-5.28c-.45,0-.88-.18-1.2-.5l-1.68-1.69c-.32-.32-.5-.75-.5-1.19v-45.74c0-.45.18-.89.5-1.21l1.63-1.61c.31-.32.75-.5,1.19-.5h31.58c7.72,0,17.51,7.52,17.51,15.96v3.06c0,6.11-3.53,11.42-8.65,13.98,5.68,2.79,9.6,8.65,9.6,15.38ZM165.42,315.81v-3.28c0-7.52-6.12-13.69-13.65-13.74-.93,0-1.68-.77-1.68-1.7s.76-1.69,1.7-1.69h.45c6.74,0,12.22-5.49,12.22-12.23v-3.06c0-6.36-8.09-12.57-14.12-12.57h-30.88l-.64.63v44.33l.69.69h3.95l.62-.54v-37.46c0-.45.18-.88.5-1.19l1.63-1.63c.32-.32.75-.5,1.2-.5h20c6.5,0,11.79,5.29,11.79,11.8s-5.27,11.75-11.75,11.75h-9.72l-.64.64v3.04l.64.64h9.62c3.45,0,6.68,1.35,9.1,3.81s3.73,5.7,3.69,9.15c-.08,6.9-5.93,12.52-13.03,12.52h-27.61l-.69.69v2.98l.64.64h32.22c7.57,0,13.73-6.16,13.73-13.72Z"/>
    <path class="cls-5" d="M111.14,298.08v.91c0,18.71-15.21,33.93-33.92,33.93s-33.93-15.22-33.93-33.93v-.91c0-18.71,15.22-33.93,33.93-33.93s33.92,15.22,33.92,33.93ZM107.75,298.99v-.91c0-16.84-13.69-30.54-30.53-30.54s-30.54,13.69-30.54,30.54v.91c0,16.84,13.7,30.54,30.54,30.54s30.53-13.69,30.53-30.54Z"/>
    <path class="cls-5" d="M102.75,297.15v2.78c0,14.07-11.45,25.52-25.52,25.52s-25.52-11.45-25.52-25.52v-2.78c0-14.07,11.45-25.52,25.52-25.52s25.52,11.45,25.52,25.52ZM99.36,299.93v-2.78c0-12.2-9.93-22.13-22.13-22.13s-22.13,9.93-22.13,22.13v2.78c0,12.2,9.93,22.13,22.13,22.13s22.13-9.93,22.13-22.13Z"/>
    <path class="cls-5" d="M38.97,267.47v45.78c0,5.26-2.05,10.21-5.77,13.93-3.72,3.71-8.65,5.75-13.9,5.75h-5.99c-.45,0-.88-.18-1.2-.5l-1.61-1.61c-.31-.32-.5-.75-.5-1.2v-4.35c0-.45.18-.88.5-1.2l1.61-1.61c.32-.32.75-.5,1.2-.5h2.79c2.91,0,5.65-1.13,7.71-3.19s3.24-4.87,3.24-7.83v-43.46c0-.45.18-.88.5-1.2l1.61-1.61c.32-.32.75-.5,1.2-.5h5.3c.45,0,.88.18,1.2.5l1.61,1.61c.32.32.5.75.5,1.2ZM35.58,313.24v-45.08l-.62-.62h-3.9l-.62.62v42.76c0,3.87-1.51,7.5-4.24,10.23s-6.29,4.19-10.11,4.19h-2.1l-.62.62v2.96l.62.62h5.29c4.35,0,8.43-1.69,11.51-4.76,3.08-3.08,4.78-7.17,4.78-11.52Z"/>
  </g>
</svg>